<?xml version="1.0" encoding="utf-8"?>
<!-- Generator: Adobe Illustrator 15.1.0, SVG Export Plug-In  -->
<!DOCTYPE svg PUBLIC "-//W3C//DTD SVG 1.1//EN" "http://www.w3.org/Graphics/SVG/1.1/DTD/svg11.dtd" [
	<!ENTITY ns_flows "http://ns.adobe.com/Flows/1.0/">
]>
<svg version="1.1"
	 xmlns="http://www.w3.org/2000/svg" xmlns:xlink="http://www.w3.org/1999/xlink" xmlns:a="http://ns.adobe.com/AdobeSVGViewerExtensions/3.0/"
	 x="0px" y="0px" width="196px" height="46px" viewBox="0 0 196 46" enable-background="new 0 0 196 46" xml:space="preserve">
<defs>
</defs>
<g>
	<defs>
		<rect id="SVGID_1_" x="0" width="196.331" height="45.995"/>
	</defs>
	<clipPath id="SVGID_2_">
		<use xlink:href="#SVGID_1_"  overflow="visible"/>
	</clipPath>
	<path clip-path="url(#SVGID_2_)" fill="#020202" d="M9.179,9.178c0.824,0.859,1.96,0.898,2.563,0.898h0.113l0.007-0.078
		c0.439-0.113,0.76-0.467,0.76-0.928c0-0.555-0.452-0.983-1.008-0.983c-0.444,0-0.834,0.313-0.96,0.731
		c-0.241-0.102-0.446-0.228-0.608-0.392c-0.4-0.401-0.482-0.978-0.186-1.383c0.266-0.391,0.868-0.649,1.605-0.692
		c0.686-0.036,1.367,0.038,2.144,0.23c1.443,0.373,2.782,1.076,3.87,2.041c1.159,1.02,1.95,2.313,2.223,3.636
		c0.122,0.626,0.094,1.349-0.081,2.096c-0.151,0.666-0.408,1.336-0.764,1.988c-0.36-0.149-0.714-0.285-1.059-0.407
		c-2.909-1.063-6.028-1.661-9.269-1.78L8.41,14.152c0.21,0.208,0.296,0.501,0.274,0.797c3.119,0.04,6.13,0.527,8.95,1.465
		c0.317,0.104,0.639,0.217,0.98,0.344c-0.686,1.11-1.627,2.124-2.739,2.937c-1.391,1.018-3.089,1.742-4.949,2.134
		c0.38,0.203,0.637,0.566,0.602,0.873c1.614-0.366,3.338-1.021,4.948-2.181c1.279-0.922,2.359-2.085,3.13-3.369
		c2.181,0.895,4.303,2.067,6.304,3.479c2.417,1.874,4.361,3.184,6.301,4.244c2.195,1.228,4.595,2.147,7.131,2.729
		c2.166,0.514,4.502,1.029,7.568,1.168c1.237,0.055,2.331,0.304,3.35,0.304h0.455c0.17,0,0.337-0.229,0.507-0.232
		c0.181-0.001,0.37-0.082,0.554-0.086c-0.448-0.145-0.717-0.682-1.053-0.682h-0.004c-1.342,0-2.552-0.1-3.773-0.166
		c-2.832-0.16-5.267-0.491-7.448-0.967c-1.158-0.254-2.322-0.604-3.485-1.024c-0.174,0.209-0.811,0.246-1.075,0.123
		c0.04-0.161,0.317-0.283,0.606-0.316c-1.025-0.391-2.049-0.836-3.066-1.353c-2.25-1.153-4.419-2.571-6.431-3.931
		c-1.966-1.472-4.059-2.71-6.217-3.681c0.876-1.656,1.194-3.244,0.938-4.726c-0.308-1.557-1.213-3.068-2.54-4.253
		c-1.212-1.088-2.712-1.895-4.332-2.324c-0.88-0.224-1.708-0.323-2.502-0.278c-0.49,0.026-0.925,0.117-1.328,0.278
		C9.716,5.599,9.23,5.87,8.882,6.364C8.569,6.799,8.427,7.328,8.504,7.854C8.568,8.351,8.806,8.795,9.179,9.178"/>
	<path clip-path="url(#SVGID_2_)" fill="#020202" d="M41.827,10.526h-0.066l0.001,0.231c0.527,0.005,1.062,0.149,1.561,0.399
		c0.125-0.041,0.25-0.079,0.37-0.108C43.102,10.723,42.459,10.526,41.827,10.526"/>
	<path clip-path="url(#SVGID_2_)" fill="#020202" d="M145.981,15.999c0.183-0.207,0.256-0.5,0.187-0.754
		c-0.151-0.492-0.58-0.75-0.984-0.937c-0.648-0.27-1.384-0.402-2.242-0.402c-0.074,0-0.148,0.003-0.228,0.005
		c-0.354,0.025-0.69,0.102-1.015,0.195c-0.053,0.044-0.125,0.057-0.208,0.058c-0.231,0.075-0.452,0.158-0.664,0.248
		c0.145,0.077,0.339,0.126,0.519,0.182c-0.099,0.129-0.133,0.266-0.122,0.398c0.483-0.222,1.005-0.415,1.533-0.477
		c0.856-0.061,1.62,0.025,2.24,0.254c0.286,0.113,0.649,0.306,0.751,0.602c0.084,0.26-0.18,0.532-0.482,0.689
		c-0.688,0.361-1.521,0.438-2.25,0.465c-0.364-0.005-0.74-0.09-1.141-0.244c-0.07,0.07-0.149,0.132-0.239,0.189
		c0.484,0.19,0.938,0.291,1.38,0.291c0.103,0.002,0.204,0.003,0.308,0.003c0.602,0,1.387-0.04,2.114-0.366
		C145.678,16.282,145.852,16.157,145.981,15.999"/>
	<path clip-path="url(#SVGID_2_)" fill="#020202" d="M44.765,11.857c-0.038-0.027-0.075-0.054-0.126-0.081
		c-0.149,0.006-0.257,0.037-0.348,0.078c0.101,0.095,0.211,0.179,0.304,0.284c0.071,0.082,0.125,0.176,0.191,0.262
		c0.133-0.113,0.195-0.231,0.149-0.352c-0.035-0.041-0.062-0.087-0.099-0.128C44.813,11.897,44.787,11.88,44.765,11.857"/>
	<path clip-path="url(#SVGID_2_)" fill="#020202" d="M151.402,18.309c0.71,0.772,1.697,1.394,2.934,1.843
		c0.422,0.153,0.873,0.282,1.345,0.395c0.002-0.004,0.002-0.008,0.004-0.011c0.07-0.151,0.431-0.247,0.563-0.424
		c0.022-0.032,0.039-0.068,0.049-0.105c-0.632-0.108-1.219-0.248-1.763-0.428c-1.159-0.384-2.088-0.927-2.762-1.623
		c-0.767-0.774-1.196-1.817-1.181-2.868c0.004-1.005,0.401-2.029,1.069-2.839c-0.104,0.01-0.205,0.019-0.333,0.052
		c0.122-0.1,0.338-0.207,0.579-0.317c0.376-0.386,0.808-0.693,1.276-0.901c-0.013-0.073-0.07-0.147-0.177-0.223
		c-0.556,0.24-1.079,0.596-1.507,1.064c-0.804,0.864-1.289,2.014-1.327,3.155C150.124,16.23,150.583,17.438,151.402,18.309"/>
	<path clip-path="url(#SVGID_2_)" fill="#020202" d="M121.211,10.68c0.147,0.366,0.398,0.7,0.758,0.988
		c0.529,0.421,1.181,0.719,2.049,0.933c0.645,0.159,1.348,0.248,2.158,0.283c0.742,0.026,1.502-0.019,2.173-0.143
		c1.241-0.222,2.526-0.687,4.048-1.471c0.527-0.275,1.036-0.565,1.468-0.812c0.679,0.501,1.382,1.077,2.212,1.802
		c0.325,0.281,0.65,0.569,0.979,0.859c0.702,0.622,1.429,1.268,2.18,1.863c0.007,0.006,0.016,0.012,0.023,0.018
		c0.052-0.088,0.168-0.136,0.307-0.171c-0.041-0.033-0.082-0.066-0.123-0.101c-0.722-0.597-1.421-1.246-2.099-1.876
		c-0.329-0.304-0.656-0.61-0.989-0.909c-0.772-0.702-1.424-1.263-2.043-1.75c0.505-0.302,1.052-0.64,1.715-1.055
		c0.473-0.299,0.933-0.586,1.393-0.873c-0.104-0.006-0.206-0.017-0.289-0.039c0.425-0.436-0.076-0.694-0.591-0.82
		c-0.379,0.249-0.755,0.494-1.144,0.753c-0.608,0.396-1.323,0.862-2.043,1.311l-0.068-0.051c-0.059-0.043-0.118-0.087-0.18-0.132
		c-1.322-0.908-2.567-1.522-3.804-1.866c-1.24-0.354-2.665-0.423-4.267-0.206c-0.81,0.119-1.496,0.311-2.099,0.587
		c-0.56,0.257-1.342,0.702-1.71,1.569C121.051,9.784,121.049,10.275,121.211,10.68 M121.964,9.659
		c0.168-0.446,0.629-0.865,1.286-1.185c0.532-0.259,1.151-0.444,1.889-0.566c0.663-0.105,1.292-0.157,1.881-0.157
		c0.756,0,1.47,0.086,2.122,0.258c1.178,0.298,2.384,0.856,3.677,1.704c0.021,0.014,0.039,0.03,0.06,0.045
		c-0.371,0.221-0.689,0.406-0.986,0.568c-1.407,0.763-2.588,1.225-3.728,1.452c-0.562,0.119-1.151,0.173-1.803,0.173l-0.168-0.003
		c-0.722-0.009-1.386-0.083-1.971-0.21c-0.741-0.166-1.31-0.404-1.735-0.731C121.985,10.636,121.779,10.108,121.964,9.659"/>
	<path clip-path="url(#SVGID_2_)" fill="#020202" d="M2.465,21.283c0.048,0.267-0.184,0.363-0.517,0.4
		c0.194,0.129,0.399,0.25,0.62,0.363c1.294,0.651,2.798,0.992,4.738,1.067c0.164,0.004,0.327,0.007,0.491,0.007
		c0.913,0,1.996-0.076,3.152-0.294c-0.157-0.062-0.301-0.131-0.609-0.101c0.365-0.449,0.138-0.526-0.099-0.772
		c-0.836,0.137-1.698,0.215-2.579,0.215c-0.11,0-0.221-0.003-0.333-0.006c-1.771-0.053-3.193-0.359-4.346-0.934
		c-0.7-0.353-1.265-0.812-1.627-1.33c-0.406-0.563-0.557-1.247-0.417-1.87c0.132-0.606,0.53-1.196,1.121-1.667
		c0.523-0.419,1.174-0.751,1.933-0.985c0.679-0.208,1.421-0.344,2.207-0.396c0.271-0.018,0.545-0.014,0.821-0.02
		c0.128-0.181,0.502-0.212,0.647-0.382c-0.07-0.192-0.341-0.264-0.419-0.451c-0.39-0.002-0.768,0.003-1.106,0.024
		c-0.851,0.054-1.659,0.196-2.397,0.411c-0.865,0.262-1.615,0.64-2.226,1.119c-0.748,0.587-1.26,1.351-1.441,2.15
		c-0.205,0.86-0.005,1.824,0.538,2.585c0.259,0.371,0.591,0.706,0.98,1.009C1.754,21.297,2.058,21.258,2.465,21.283 M6.262,14.493
		c-0.02,0.186-0.354,0.182-0.704,0.169C5.461,14.368,6.051,14.358,6.262,14.493"/>
	<path clip-path="url(#SVGID_2_)" fill="#020202" d="M138.535,7.379c0.056,0.373-0.758,0.221-0.843,0.51
		c0.052,0.05,0.101,0.086,0.148,0.113c1.801-1.111,3.528-2.109,5.347-2.959c2.489-1.173,5.088-2.043,7.724-2.583
		c2.39-0.488,4.96-0.561,7.637-0.561c0.159,0,0.315,0.177,0.475,0.177h0.346c2.307,0,4.261,0.131,5.979,0.765
		c2.128,0.78,3.792,2.062,4.681,3.771c0.422,0.785,0.681,1.623,0.789,2.546c0.226,0.088,0.193,0.2,0.04,0.313
		c0.078,1.027-0.035,2.087-0.347,3.133c-0.59,2.008-1.848,3.853-3.542,5.21c-1.643,1.32-3.744,2.167-5.919,2.389
		c-0.226,0.022-0.455,0.035-0.693,0.046c-0.021,0.256-0.061,0.519-0.063,0.774c0.28-0.005,0.555-0.018,0.823-0.038
		c0.341-0.024,0.68-0.067,1.016-0.121c-0.409-0.107-0.77-0.285-0.402-0.584c0.446,0.061,0.669,0.254,0.782,0.515
		c1.847-0.35,3.607-1.111,5.061-2.214c1.899-1.439,3.34-3.444,4.055-5.648c0.785-2.39,0.641-4.95-0.396-7.023
		c-0.517-1.06-1.295-2.047-2.244-2.846c-0.873-0.742-1.892-1.357-3.067-1.829c-1.937-0.78-3.752-1.184-6.752-1.23V0v0.002V0v0.005
		c-3,0.038-5.861,0.36-8.452,0.953c-2.737,0.624-5.488,1.587-8.05,2.87c-1.509,0.745-2.972,1.59-4.418,2.504
		C137.87,6.691,138.11,7.06,138.535,7.379"/>
	<path clip-path="url(#SVGID_2_)" fill="#020202" d="M125.762,33.076c0.476,0,0.898-0.264,1.286-0.352
		c0.537-0.119,0.955-0.432,1.274-0.725c0.401-0.352,0.595-0.992,0.474-1.479c-0.092-0.435-0.341-0.858-0.744-1.208
		c-0.6-0.522-1.433-0.848-2.401-0.922c-0.239-0.037-0.484-0.06-0.749-0.06c-0.538,0-1.063,0.069-1.508,0.144
		c-0.786,0.14-1.545,0.337-2.183,0.514c-0.718,0.196-1.431,0.406-2.141,0.613l-0.374,0.109c-1.155-0.582-2.303-1.256-3.415-1.908
		c-0.263-0.155-0.528-0.307-0.792-0.463l-2.167-1.254c-0.763-0.413-1.412-0.846-1.989-1.323c-0.969-0.814-2.198-2.13-2.533-3.786
		c-0.147-0.775-0.059-1.518,0.266-2.145c0.302-0.609,0.851-1.156,1.589-1.588c1.465-0.847,3.273-1.059,4.688-1.15
		c1.33,0.023,2.623,0.709,3.598,1.124c0.965,0.414,1.971,0.858,3.233,1.858h0.353c0.042,0,0.025-0.058-0.011-0.005
		c1.164,0.676,2.324,1.284,3.449,1.974l0.343,0.16c-0.869,0.204-1.688,0.341-2.499,0.47c-0.189,0.032-0.384,0.045-0.574,0.074
		l-0.137,0.016c-0.462-0.301-0.953-0.621-1.447-0.917c-1.365-0.813-2.86-1.62-4.548-1.964c-0.43-0.082-0.87-0.135-1.286-0.144
		c-0.431-0.006-0.85,0.004-1.263,0.044c-0.776,0.076-1.682,0.203-2.543,0.722c-0.252,0.157-0.44,0.32-0.599,0.508
		c-0.067,0.082-0.113,0.176-0.164,0.268c0.134-0.011,0.284-0.013,0.453-0.002c0.052,0.292-0.226,0.385-0.612,0.413
		c-0.014,0.06-0.042,0.118-0.049,0.179c-0.033,0.306,0.04,0.637,0.204,0.928c0.125,0.222,0.298,0.423,0.531,0.62
		c0.799,0.632,1.719,0.846,2.513,0.969c0.424,0.056,0.854,0.083,1.27,0.083l1.216-0.012c0.752-0.019,1.542-0.054,2.417-0.113
		c1.28-0.091,2.549-0.23,3.764-0.412l0.295,0.189c0.621,0.387,1.264,0.791,1.904,1.171c1.699,1.011,3.045,1.676,4.37,2.149
		c0.381,0.137,0.76,0.254,1.137,0.355c-0.048-0.069-0.095-0.139-0.122-0.239c0.21-0.098,0.576-0.104,0.703-0.254
		c0.031-0.102,0.002-0.167-0.046-0.222c-0.454-0.124-0.909-0.267-1.368-0.446c-1.249-0.488-2.528-1.163-4.15-2.193
		c-0.392-0.25-0.787-0.51-1.18-0.768c1.113-0.21,2.141-0.443,3.14-0.71c0.376,0.228,0.754,0.458,1.135,0.685
		c0.404,0.241,0.784,0.457,1.172,0.679c-0.083-0.179-0.12-0.363-0.033-0.556c-0.311-0.175-0.629-0.353-0.912-0.516
		c-0.26-0.15-0.522-0.302-0.78-0.456c1.789-0.508,3.483-1.13,5.041-1.852c1.375-0.624,2.774-1.357,4.278-2.246
		c0.514-0.299,1.021-0.61,1.526-0.918c0.652-0.398,1.33-0.807,2.002-1.186c0.055,0.038,0.105,0.07,0.159,0.106
		c-0.002-0.003-0.002-0.007-0.004-0.01c-0.201-0.282-0.545-0.367-0.839-0.573c-0.59,0.316-1.177,0.651-1.738,0.974
		c-0.503,0.285-1.021,0.58-1.529,0.86c-1.535,0.845-2.927,1.525-4.252,2.083c-1.949,0.812-3.961,1.479-5.978,1.979l-0.586-0.349
		c-1.249-0.747-2.541-1.52-3.835-2.244c-0.991-0.552-2.17-1.182-3.407-1.693c-1.007-0.407-2.337-0.874-3.712-0.874v0.001
		c-0.284-0.016-0.565-0.022-0.825-0.022c-1.629,0-2.994,0.268-4.173,0.821c-0.616,0.291-1.461,0.838-2.002,1.783
		c-0.455,0.773-0.627,1.757-0.473,2.698c0.258,1.584,1.205,3.13,2.738,4.469c0.587,0.518,1.277,1.005,2.12,1.497l2.144,1.277
		c0.977,0.588,2.034,1.212,3.153,1.805c-0.03,0.009-0.06,0.016-0.089,0.026c-1.034,0.286-1.954,0.514-2.813,0.691
		c-0.932-1.072-2.115-1.969-3.422-2.593c-1.443-0.691-3.04-1.008-4.619-0.896c-0.811,0.079-1.667,0.237-2.401,0.835
		c-0.336,0.281-0.709,0.828-0.643,1.45c0.043,0.475,0.284,0.913,0.715,1.308c0.697,0.613,1.509,0.888,2.217,1.076
		c0.69,0.172,1.44,0.277,2.295,0.322c1.583,0.08,3.248-0.077,5.115-0.481l0.039,0.046c0.916,1.147,1.442,2.462,1.48,3.704
		c0.025,0.582-0.068,1.217-0.296,2c-0.189,0.637-0.449,1.299-0.778,1.965c-0.667,1.344-1.52,2.471-2.526,3.345
		c-0.542,0.471-1.104,0.85-1.732,1.163c-0.606,0.303-1.285,0.537-1.961,0.676c-1.274,0.272-2.717,0.283-4.244,0.033
		c-1.608-0.276-2.966-0.739-4.038-1.375c-0.24-0.15-0.47-0.317-0.687-0.498c0.683-0.774,1.174-1.674,1.424-2.615
		c0.229-0.908,0.219-1.668-0.035-2.32c-0.166-0.418-0.451-0.739-0.794-0.906c-0.229-0.118-0.493-0.179-0.782-0.179
		c-0.099,0-0.202,0.007-0.271,0.019c-0.384-0.049-0.773,0.002-1.075,0.158c-0.341,0.166-0.632,0.497-0.801,0.91
		c-0.249,0.648-0.264,1.408-0.033,2.322c0.249,0.939,0.743,1.837,1.428,2.611c-0.222,0.181-0.454,0.348-0.689,0.495
		c-1.072,0.639-2.433,1.102-4.039,1.378c-1.529,0.252-2.969,0.239-4.245-0.033c-0.676-0.139-1.356-0.373-1.962-0.676
		c-0.625-0.31-1.189-0.689-1.734-1.163c-1.009-0.876-1.861-2.004-2.523-3.345c-0.33-0.667-0.593-1.331-0.779-1.965
		c-0.227-0.776-0.323-1.41-0.297-2.001c0.039-1.241,0.565-2.556,1.483-3.706c0.011-0.016,0.023-0.029,0.036-0.043
		c1.87,0.404,3.538,0.563,5.117,0.481c0.851-0.045,1.605-0.15,2.299-0.322c0.701-0.188,1.514-0.463,2.215-1.077
		c0.43-0.394,0.668-0.835,0.712-1.305c0.063-0.624-0.306-1.174-0.644-1.452c-0.735-0.598-1.588-0.756-2.407-0.835
		c-1.559-0.107-3.17,0.205-4.61,0.896c-1.309,0.624-2.493,1.521-3.424,2.593c-0.853-0.178-1.774-0.403-2.812-0.691
		c-0.031-0.011-0.059-0.018-0.087-0.026c1.135-0.605,2.225-1.248,3.15-1.804l2.144-1.275c0.844-0.497,1.536-0.986,2.12-1.498
		c1.533-1.341,2.48-2.886,2.737-4.471c0.155-0.941-0.017-1.925-0.472-2.698c-0.541-0.944-1.385-1.49-2-1.783
		c-1.178-0.553-2.544-0.821-4.173-0.821c-0.261,0-0.542,0.006-0.828,0.022V15.86c-1.378,0-2.706,0.467-3.71,0.874
		c-1.237,0.51-2.418,1.141-3.406,1.693c-1.31,0.728-2.611,1.508-3.871,2.262l-0.553,0.331c-2.016-0.5-4.026-1.165-5.974-1.979
		c-1.332-0.558-2.724-1.241-4.253-2.083c-0.511-0.28-1.028-0.575-1.531-0.863c-0.571-0.325-1.162-0.664-1.76-0.983
		c0.059-0.043,0.113-0.085,0.167-0.13c0.748-0.592,1.472-1.233,2.17-1.854c0.092-0.081,0.184-0.064,0.276-0.144
		c-0.001-0.004-0.003,0.092-0.004,0.092h0.012c0.235,0,0.471-0.514,0.704-0.718c0.752-0.655,1.397-1.229,2.02-1.7
		c-0.18,0.047-0.368,0.032-0.487-0.045c0.362-0.093,0.573-0.289,0.702-0.521c0.394,0.093,0.296,0.281,0.059,0.417
		c0.395,0.226,0.879,0.501,1.392,0.766c1.515,0.779,2.798,1.246,4.043,1.468c0.672,0.124,1.43,0.172,2.175,0.142
		c0.808-0.035,1.51-0.125,2.157-0.284c0.872-0.215,1.519-0.512,2.05-0.933c0.306-0.246,0.519-0.533,0.67-0.841
		c-0.018-0.05-0.037-0.1-0.034-0.154c0.044-0.003,0.078,0,0.12-0.003c0.149-0.371,0.152-0.812,0.019-1.2
		c-0.253-0.238-0.504-0.477-0.56-0.834c0.012,0.003,0.026,0.009,0.039,0.013c-0.383-0.408-0.849-0.676-1.222-0.847
		C72.795,7.526,72.11,7.334,71.3,7.215c-1.601-0.217-3.027-0.148-4.265,0.206c-1.24,0.347-2.484,0.958-3.808,1.87
		c-0.062,0.041-0.119,0.085-0.176,0.128L62.981,9.47c-0.705-0.44-1.401-0.888-2.044-1.311c-2.482-1.65-4.738-3.111-7.203-4.331
		c-2.558-1.282-5.377-2.244-8.118-2.87c-2.59-0.593-5.451-0.915-8.451-0.953V0l-0.002,0.002L37.166,0v0.005
		c-3,0.046-4.818,0.45-6.752,1.23c-1.171,0.471-2.202,1.083-3.077,1.828c-0.95,0.8-1.72,1.782-2.239,2.847
		c-1.037,2.072-1.177,4.633-0.387,7.022c0.71,2.204,2.152,4.209,4.053,5.649c1.814,1.38,4.107,2.234,6.453,2.404
		c1.003,0.074,2.038,0.048,3.43-0.09c1.271-0.143,2.372-0.388,3.355-0.744c1.23-0.449,2.22-1.07,2.931-1.843
		c0.486-0.517,0.825-1.156,1.027-1.826c-0.098,0.01-0.208,0.044-0.337,0.067c0.043,0.198,0.273,0.527,0,0.527h-0.399
		c-0.182,0-0.394,0.625-0.665,0.898c-0.672,0.696-1.601,1.233-2.76,1.614c-0.938,0.312-1.991,0.508-3.217,0.614
		c-1.332,0.092-2.357,0.089-3.294,0c-2.177-0.223-4.279-1.073-5.922-2.394c-1.695-1.356-2.952-3.206-3.541-5.216
		c-0.629-2.11-0.454-4.322,0.481-6.071c0.89-1.706,2.552-3.076,4.684-3.856c1.8-0.667,3.853-0.977,6.325-0.941
		c0.156,0,0.314-0.002,0.472-0.002c2.678,0,5.248,0.249,7.641,0.738C48.062,3,50.66,3.87,53.146,5.043
		c2.413,1.129,4.672,2.521,7.162,4.095c0.54,0.339,1.121,0.698,1.712,1.055c-0.614,0.485-1.249,1.03-2.042,1.75
		c-0.329,0.299-0.657,0.603-0.985,0.906c-0.677,0.63-1.381,1.281-2.101,1.879c-0.093,0.076-0.181,0.149-0.271,0.222l-0.029-0.016
		c-0.191-0.1-0.381-0.2-0.578-0.3c-0.653-0.299-1.417-0.622-2.281-0.706c0.026,0.045,0.044,0.092,0.041,0.141
		c-0.189-0.145-0.761-0.058-1.087-0.119c-0.275,0.026-0.537,0.068-0.788,0.127c-0.102,0.209-0.227,0.495-0.654,0.246
		c-0.006-0.02,0.003-0.031,0-0.05c-0.032,0.013-0.067,0.022-0.099,0.034c-0.4,0.188-0.83,0.446-0.983,0.945
		c-0.008,0.03,0.004,0.064,0,0.095c0.054,0.009,0.124,0.011,0.237-0.005c0.042,0.161-0.103,0.209-0.236,0.265
		c0.03,0.142,0.088,0.279,0.185,0.389c0.133,0.161,0.306,0.286,0.551,0.405c0.049,0.023,0.1,0.033,0.15,0.053
		c0.195-0.079,0.433-0.06,0.615,0.076c-0.001,0.04-0.025,0.069-0.059,0.095c0.501,0.112,0.995,0.297,1.405,0.297
		c0.103,0,0.206,0.154,0.307,0.154h0.026c0.61,0,1.268-0.354,2.014-0.752c0.289-0.154,0.588-0.419,0.908-0.644
		c0.675,0.379,1.353,0.753,2.01,1.151c0.503,0.309,1.01,0.595,1.518,0.893c1.507,0.889,2.904,1.613,4.28,2.237
		c1.558,0.721,3.254,1.339,5.042,1.846c-0.259,0.155-0.522,0.305-0.782,0.454c-1.714,0.988-3.964,2.228-6.329,3.269
		c0.15-0.008,0.322-0.002,0.484-0.003c0.135,0.309-0.552,0.118-0.843,0.169c0-0.003,0.004-0.003,0.004-0.006l-0.025,0.012
		c-0.235,0.099-0.475,0.199-0.716,0.294c-0.006-0.002-0.008-0.003-0.013-0.007c-0.017-0.007-0.035-0.015-0.048-0.021
		c-0.346-0.196-0.617-0.43-0.806-0.693c-0.212-0.289-0.313-0.633-0.273-0.941c0.033-0.303,0.213-0.613,0.504-0.863
		c0.246-0.214,0.561-0.392,0.971-0.541c0.637-0.235,1.369-0.47,2.302-0.501l-0.001-0.352h-0.339c-0.797,0-1.478,0.2-2.082,0.376
		c-0.458,0.14-0.828,0.382-1.133,0.623c-0.392,0.307-0.645,0.736-0.714,1.159c-0.079,0.43,0.034,0.928,0.307,1.338
		c0.161,0.246,0.376,0.48,0.635,0.685c-2.039,0.775-3.931,1.281-5.771,1.543c-1.008,0.142-2.033,0.195-3.064,0.188
		c0.183,0.215,0.347,0.462,0.501,0.614c0.246-0.005,0.49-0.003,0.738-0.02c0.636-0.037,1.282-0.104,1.91-0.196
		c1.997-0.302,4.043-0.881,6.251-1.766c0.634,0.342,1.365,0.543,2.177,0.599c1.561,0.09,3.181-0.177,4.847-0.774
		c1.331-0.474,2.679-1.139,4.368-2.149c0.63-0.37,1.253-0.762,1.855-1.141l0.349-0.219c1.217,0.182,2.483,0.321,3.763,0.412
		c0.88,0.059,1.666,0.094,2.42,0.113l1.213,0.012c0.412,0,0.845-0.027,1.274-0.083c0.791-0.123,1.709-0.337,2.509-0.97
		c0.226-0.188,0.403-0.391,0.53-0.619c0.164-0.293,0.237-0.623,0.203-0.928c-0.034-0.305-0.168-0.609-0.369-0.856
		c-0.159-0.19-0.349-0.354-0.602-0.512c-0.865-0.517-1.765-0.644-2.543-0.72c-0.412-0.04-0.824-0.051-1.262-0.045
		c-0.413,0.009-0.859,0.061-1.283,0.143c-1.687,0.344-3.184,1.15-4.549,1.963c-0.439,0.262-0.898,0.552-1.447,0.914l-0.127-0.022
		c-0.196-0.026-0.39-0.056-0.586-0.09c-0.795-0.127-1.614-0.287-2.5-0.49l0.231-0.14c1.234-0.761,2.512-1.548,3.788-2.284
		c0.896-0.515,2.086-1.177,3.351-1.72c0.975-0.414,2.263-0.896,3.598-0.919c1.413,0.087,3.221,0.303,4.685,1.15
		c0.738,0.432,1.288,0.982,1.59,1.588c0.319,0.619,0.414,1.381,0.263,2.145c-0.333,1.655-1.562,2.971-2.531,3.786
		c-0.577,0.475-1.226,0.91-1.992,1.323l-2.161,1.254c-0.266,0.154-0.526,0.308-0.79,0.461c-1.114,0.651-2.264,1.326-3.419,1.91
		l-0.392-0.115c-0.707-0.207-1.413-0.414-2.123-0.609c-0.644-0.177-1.404-0.378-2.183-0.516c-0.444-0.074-0.969-0.146-1.508-0.146
		c-0.266,0-0.51,0.016-0.749,0.053c-0.965,0.074-1.8,0.384-2.4,0.907c-0.405,0.35-0.654,0.746-0.745,1.176
		c-0.122,0.495,0.073,1.079,0.472,1.424c0.318,0.294,0.737,0.722,1.274,0.841c0.39,0.088,0.811,0.352,1.288,0.352h0.047
		c0.84,0,1.626-0.332,2.547-0.479c1.621-0.248,3.266-0.879,4.889-1.654c0.094-0.045,0.187-0.149,0.281-0.197l0.093-0.076
		l0.254,0.073c0.167,0.058,0.337,0.109,0.505,0.165c0.877,0.278,1.687,0.513,2.462,0.717c-0.893,1.265-1.385,2.649-1.424,4.015
		c-0.024,0.706,0.093,1.482,0.359,2.378c0.234,0.767,0.528,1.492,0.873,2.154c0.761,1.471,1.72,2.701,2.856,3.656
		c0.609,0.514,1.29,0.955,1.977,1.277c0.706,0.329,1.46,0.569,2.243,0.713c1.449,0.264,3.017,0.23,4.597-0.088
		c0.75-0.151,1.491-0.36,2.201-0.621c0.603-0.229,1.381-0.553,2.072-1.022c0.261-0.18,0.518-0.389,0.763-0.616
		c0.246,0.226,0.502,0.434,0.763,0.616c0.692,0.47,1.469,0.794,2.071,1.022c0.712,0.261,1.453,0.47,2.202,0.621
		c0.873,0.175,1.741,0.263,2.582,0.263c0.687,0,1.364-0.059,2.015-0.175c0.78-0.144,1.535-0.384,2.243-0.713
		c0.146-0.067,0.282-0.158,0.424-0.235c-0.194-0.054-0.311-0.153-0.607-0.145c0.109-0.122,0.676-0.142,0.905-0.021
		c0.434-0.257,0.855-0.539,1.255-0.875c1.137-0.958,2.096-2.187,2.855-3.657c0.35-0.674,0.645-1.397,0.873-2.155
		c0.272-0.916,0.386-1.67,0.359-2.379c-0.037-1.365-0.531-2.752-1.424-4.017c0.772-0.204,1.578-0.437,2.463-0.72
		c0.165-0.055,0.333-0.111,0.498-0.17l0.262-0.09l0.099,0.053c0.09,0.048,0.184,0.096,0.274,0.138
		c1.621,0.775,3.267,1.518,4.89,1.766c0.828,0.127,1.65,0.479,2.552,0.479H125.762z M118.116,22.168
		c-0.915,0.051-1.665-0.012-2.365-0.004l-0.303-0.088H114.9c-0.437,0-0.947,0.084-1.442,0.008c-0.857-0.121-1.498-0.308-1.916-0.642
		c-0.219-0.181-0.32-0.315-0.312-0.458c0.007-0.156,0.142-0.307,0.41-0.492c0.47-0.293,1.133-0.473,2.021-0.563
		c0.359-0.03,0.677-0.044,0.974-0.044c0.455,0,0.863,0.041,1.246,0.116c0.883,0.168,1.738,0.506,2.546,0.894
		c-0.048-0.054-0.094-0.114-0.134-0.19c0.731-0.184,1.423,0.398,1.463,0.892c0.11,0.064,0.228,0.125,0.332,0.188
		s0.207,0.126,0.314,0.187C119.629,22.056,118.862,22.123,118.116,22.168 M108.331,31.404c-0.792-0.061-1.473-0.173-2.086-0.349
		c-0.797-0.224-1.367-0.504-1.745-0.853c-0.207-0.195-0.336-0.413-0.343-0.587c-0.012-0.17,0.075-0.336,0.262-0.493
		c0.362-0.299,0.983-0.488,1.75-0.534c0.164-0.01,0.326-0.018,0.487-0.018c2.145,0,4.388,0.971,6.044,2.604
		C111.09,31.433,109.668,31.503,108.331,31.404 M89.68,28.571c0.159,0,0.32,0.008,0.485,0.018c0.768,0.046,1.386,0.235,1.75,0.534
		c0.184,0.157,0.275,0.323,0.263,0.493c-0.009,0.174-0.136,0.392-0.344,0.587c-0.374,0.347-0.944,0.625-1.743,0.853
		c-0.616,0.176-1.297,0.288-2.091,0.349c-1.333,0.099-2.755,0.028-4.36-0.229C85.291,29.542,87.534,28.571,89.68,28.571
		 M63.515,9.713c1.299-0.85,2.503-1.409,3.681-1.704c1.158-0.307,2.494-0.34,4-0.101c0.736,0.122,1.354,0.307,1.887,0.566
		c0.659,0.32,1.119,0.739,1.287,1.185c0.185,0.449-0.022,0.979-0.524,1.348c-0.428,0.327-0.993,0.565-1.732,0.731
		c-0.589,0.127-1.253,0.201-1.975,0.21l-0.167,0.003c-0.651,0-1.241-0.054-1.803-0.173c-0.439-0.088-0.891-0.223-1.354-0.385
		c0.092,0.165-0.159,0.427-0.528,0.383c-0.103-0.26,0.241-0.25,0.14-0.51c0.009,0,0.014,0.002,0.024,0.002
		c-0.628-0.242-1.29-0.551-2.01-0.942c-0.302-0.166-0.619-0.349-0.985-0.568C63.474,9.743,63.493,9.727,63.515,9.713 M32.83,19.841
		c0.373-0.026,0.463,0.117,0.423,0.339C32.881,20.206,32.792,20.062,32.83,19.841 M55.221,15.925
		c-0.715,0.401-1.315,0.596-1.902,0.6c-0.726-0.027-1.56-0.104-2.249-0.469c-0.304-0.153-0.567-0.425-0.48-0.685
		c0.097-0.296,0.463-0.489,0.746-0.603c0.493-0.177,1.073-0.273,1.713-0.273c0.177,0,0.355,0.009,0.524,0.019
		c0.541,0.064,1.073,0.262,1.562,0.489c0.155-0.144,0.467-0.191,0.75-0.256c-0.209,0.098-0.263,0.292-0.491,0.38
		c0.101,0.05,0.204,0.099,0.299,0.149c0.079,0.044,0.16,0.088,0.24,0.133c0.014,0.008,0.026,0.019,0.042,0.025
		C55.704,15.63,55.455,15.789,55.221,15.925 M80.451,20.002c0.634-0.127,1.317-0.149,2.221-0.067c0.89,0.09,1.551,0.276,2.02,0.567
		c0.268,0.182,0.404,0.348,0.41,0.503c0.01,0.144-0.091,0.302-0.308,0.485c-0.419,0.332-1.062,0.564-1.919,0.686
		c-0.484,0.075-0.984,0.085-1.41,0.085c-0.183,0-0.366-0.002-0.553-0.003l-0.327-0.003c-0.699-0.008-1.45-0.036-2.365-0.087
		c-0.747-0.045-1.515-0.112-2.288-0.196c0.104-0.061,0.208-0.124,0.313-0.187C77.468,21.067,78.926,20.292,80.451,20.002
		 M76.408,20.518c0.378,0.155-0.091,0.504-0.563,0.426C75.785,20.653,76.266,20.688,76.408,20.518 M71.659,23.445
		c-1.623,1.029-2.898,1.705-4.149,2.193c-1.474,0.572-2.926,0.865-4.312,0.865c-0.07,0-0.138-0.003-0.204-0.005
		c-0.505-0.011-0.973-0.088-1.394-0.217l0.235-0.098c2.052-0.896,4.188-2.02,6.729-3.532c0.307-0.184,0.61-0.368,0.917-0.551
		l0.218-0.134c0.991,0.267,2.022,0.5,3.137,0.71C72.445,22.935,72.05,23.195,71.659,23.445 M71.064,21.198
		C71.197,22.411,68.917,21.035,71.064,21.198 M72.983,31.407c-0.415,0.092-0.819,0.171-1.206,0.235
		c-0.355,0.063-0.771,0.129-1.189,0.158c-0.136,0.008-0.272,0.013-0.41,0.013c-0.424,0-0.78-0.049-1.087-0.138
		c0.059,0.157,0.055,0.366,0.147,0.642c-0.55,0.127-0.367-0.206-0.564-0.34c-0.285-0.194-0.998-0.264-0.842-0.679
		c0.24,0.007,0.421,0.021,0.578,0.04c-0.231-0.197-0.351-0.482-0.31-0.781c0.036-0.31,0.217-0.64,0.503-0.929
		c0.641-0.64,1.5-0.907,2.11-1.021c0.753-0.063,1.516,0.09,2.149,0.237c0.783,0.188,1.542,0.426,2.116,0.616
		c0.616,0.202,1.245,0.421,1.851,0.635C75.439,30.742,74.208,31.161,72.983,31.407 M96.75,40.233
		c-0.244-0.781-0.274-1.474-0.083-2.052c0.111-0.341,0.319-0.688,0.586-0.84c0.213-0.131,0.476-0.266,0.782-0.266h0.131h0.001
		h-0.001v0.143c0,0,0.651,0.059,0.877,0.194c0.264,0.153,0.494,0.428,0.605,0.769c0.188,0.575,0.171,1.268-0.072,2.049
		c-0.271,0.846-0.756,1.644-1.414,2.317C97.505,41.874,97.018,41.076,96.75,40.233 M123.348,31.407
		c-1.226-0.246-2.452-0.665-3.848-1.311c0.61-0.214,1.238-0.433,1.854-0.635c0.848-0.282,1.5-0.471,2.116-0.616
		c0.632-0.15,1.398-0.301,2.148-0.237c0.613,0.113,1.47,0.381,2.109,1.021c0.287,0.293,0.466,0.622,0.503,0.931
		c0.045,0.313-0.085,0.615-0.344,0.813c-0.397,0.296-0.966,0.441-1.734,0.441c-0.139,0-0.273-0.005-0.408-0.013
		c-0.431-0.029-0.861-0.1-1.189-0.159C124.147,31.57,123.743,31.494,123.348,31.407"/>
	<path clip-path="url(#SVGID_2_)" fill="#020202" d="M176.585,12.897c0.008-0.217,0.006-0.438,0.044-0.638
		c0.271-1.322,1.063-2.614,2.224-3.637c1.086-0.965,2.424-1.667,3.87-2.04c0.776-0.193,1.466-0.267,2.142-0.231
		c0.742,0.043,1.341,0.305,1.61,0.702c0.291,0.399,0.212,0.979-0.19,1.379c-0.161,0.161-0.368,0.295-0.604,0.394
		c-0.123-0.415-0.516-0.717-0.96-0.717c-0.191,0-0.359,0.067-0.511,0.159c0.569,0.359,0.823,0.765-0.271,0.978
		c-0.033-0.138-0.1-0.256-0.179-0.366c-0.021,0.078-0.048,0.151-0.048,0.234c0,0.208,0.071,0.399,0.185,0.561
		c0.375,0.035,0.503,0.125,0.73,0.25c-0.054,0.158-0.462,0.255-0.462,0.315v-0.164h0.424c0.604,0,1.738-0.039,2.565-0.897
		c0.37-0.385,0.613-0.829,0.674-1.324c0.078-0.527-0.063-1.079-0.378-1.515c-0.346-0.493-0.835-0.754-1.184-0.894
		c-0.403-0.161-0.84-0.246-1.329-0.273c-0.788-0.045-1.622,0.056-2.5,0.282c-1.62,0.428-3.118,1.234-4.332,2.325
		c-0.35,0.312-0.666,0.649-0.954,1.002c0.268,0.033,0.606,0.061,1.024-0.13c0.102,0.259-0.243,0.249-0.141,0.509
		c-0.501,0.037-0.776-0.062-1.027-0.175c-0.722,0.938-1.232,1.981-1.444,3.054c-0.035,0.197-0.032,0.401-0.045,0.602
		C175.91,12.677,176.242,12.815,176.585,12.897"/>
	<path clip-path="url(#SVGID_2_)" fill="#020202" d="M159.34,20.535c-0.023-0.102-0.108-0.191-0.225-0.276
		c-0.422-0.009-0.864-0.027-1.357-0.062c-0.331-0.028-0.647-0.065-0.954-0.107c0.008,0.239,0.041,0.478,0.123,0.701
		c0.248,0.038,0.499,0.075,0.762,0.104c0.479,0.048,0.909,0.077,1.318,0.099c0.019-0.041,0.026-0.076,0.05-0.119
		C159.103,20.79,159.341,20.541,159.34,20.535"/>
	<path clip-path="url(#SVGID_2_)" fill="#020202" d="M145.62,29.076h0.455c1.017,0,2.111-0.249,3.351-0.304
		c3.064-0.139,5.397-0.543,7.565-1.056c0.698-0.16,1.384-0.407,2.059-0.617c-0.123-0.085-0.255-0.191-0.413-0.256
		c0.351-0.331,0.64-0.208,0.891,0.05c0.365-0.121,0.733-0.245,1.09-0.38c-0.011-0.271,0.216-0.58,0.382-0.869
		c-1.39,0.541-2.781,0.978-4.165,1.28c-2.177,0.476-4.61,0.785-7.444,0.945c-1.221,0.066-2.432,0.095-3.775,0.123
		c-1.251,0.046-2.503-0.018-3.729-0.188c-1.842-0.263-3.733-0.766-5.771-1.541c0.26-0.206,0.473-0.431,0.636-0.675
		c0.271-0.412,0.383-0.896,0.307-1.324c-0.07-0.424-0.324-0.827-0.713-1.132c-0.309-0.243-0.68-0.542-1.137-0.68
		c-0.603-0.176-1.282-0.376-2.08-0.376h0.039v0.465c1,0.032,1.475,0.153,2.111,0.389c0.41,0.148,0.631,0.325,0.878,0.54
		c0.292,0.251,0.422,0.56,0.455,0.867c0.039,0.31-0.08,0.642-0.295,0.938c-0.189,0.264-0.473,0.497-0.813,0.69
		c-0.019,0.01-0.042,0.018-0.062,0.026c-0.004,0.002-0.01,0.003-0.015,0.005c-0.242-0.095-0.481-0.195-0.717-0.294
		c-1.598-0.683-3.128-1.465-4.509-2.214c-0.075,0.066-0.158,0.126-0.24,0.188c0.294,0.136,0.354,0.274,0.334,0.415
		c1.492,0.818,2.874,1.511,4.205,2.094l0.233,0.098c-0.42,0.129-0.887,0.206-1.39,0.217c-0.539,0.015-1.088-0.033-1.641-0.108
		c-0.234,0.242-0.661,0.512-1.087,0.629c0.178,0.035,0.352,0.055,0.526,0.081c0.211-0.121,0.431-0.174,0.787,0.056
		c-0.004,0.016-0.02,0.024-0.027,0.038c0.302,0.024,0.603,0.043,0.898,0.043c0.188,0,0.38-0.009,0.572-0.019
		c0.81-0.056,1.54-0.257,2.177-0.599c2.208,0.885,4.254,1.464,6.251,1.766c0.633,0.092,1.275,0.159,1.911,0.196
		c0.47,0.031,0.939,0.259,1.397,0.262C145.28,28.848,145.449,29.076,145.62,29.076"/>
	<path clip-path="url(#SVGID_2_)" fill="#020202" d="M154.419,10.604c0.07,0.012,0.111,0.005,0.154,0l0.001-0.078h-0.068
		c-0.05,0-0.1,0.016-0.148,0.017C154.377,10.564,154.401,10.583,154.419,10.604"/>
	<path clip-path="url(#SVGID_2_)" fill="#020202" d="M196.251,17.834c-0.178-0.796-0.688-1.563-1.435-2.153
		c-0.61-0.477-1.36-0.854-2.229-1.119c-0.741-0.216-1.548-0.357-2.4-0.411c-0.619-0.042-1.374-0.028-2.101-0.005l-0.282,0.01
		c-3.243,0.117-6.36,0.716-9.269,1.775c-0.338,0.123-0.688,0.258-1.062,0.41c-0.352-0.647-0.608-1.314-0.765-1.989
		c-0.083-0.359-0.13-0.713-0.145-1.054c-0.528-0.017-1.066-0.231-1.054-0.581c-0.07,1.282,0.243,2.636,0.993,4.043
		c-2.164,0.971-4.255,2.209-6.221,3.68c-2.011,1.362-4.18,2.78-6.428,3.932c-0.653,0.333-1.31,0.631-1.967,0.912
		c-0.018,0.103-0.178,0.216-0.161,0.343c0.014,0.109,0.09,0.222,0.187,0.333c0.754-0.333,1.496-0.687,2.208-1.085
		c1.941-1.061,3.882-2.371,6.297-4.245c1.999-1.412,4.121-2.582,6.309-3.479c0.326,0.546,0.721,1.063,1.15,1.557
		c0.223-0.064,0.569-0.051,0.718,0.044c0.061,0.177-0.097,0.225-0.141,0.339c-0.091,0.005-0.168-0.001-0.24-0.007
		c0.498,0.521,1.046,1.006,1.644,1.436c2.977,2.148,6.36,2.6,8.676,2.6c0.163,0,0.329-0.003,0.494-0.007
		c1.936-0.075,3.438-0.413,4.733-1.068c0.845-0.428,1.5-0.978,1.952-1.629C196.257,19.652,196.458,18.688,196.251,17.834
		 M194.975,19.898c-0.361,0.518-0.926,0.977-1.626,1.33c-1.152,0.574-2.573,0.881-4.345,0.934c-3.247,0.072-6.298-0.817-8.549-2.468
		c-1.108-0.813-2.052-1.823-2.734-2.937c0.318-0.121,0.649-0.168,0.979-0.275c2.875-0.957,5.946-1.406,9.121-1.406h0.645
		c0.538,0,1.113-0.065,1.664-0.028c0.787,0.052,1.532,0.154,2.209,0.362c0.764,0.234,1.41,0.549,1.936,0.968
		c0.59,0.471,0.986,1.052,1.118,1.659C195.535,18.661,195.382,19.335,194.975,19.898"/>
</g>
</svg>
