<?xml version="1.0" encoding="utf-8"?>
<!-- Generator: Adobe Illustrator 15.1.0, SVG Export Plug-In  -->
<!DOCTYPE svg PUBLIC "-//W3C//DTD SVG 1.1//EN" "http://www.w3.org/Graphics/SVG/1.1/DTD/svg11.dtd" [
	<!ENTITY ns_flows "http://ns.adobe.com/Flows/1.0/">
]>
<svg version="1.1"
	 xmlns="http://www.w3.org/2000/svg" xmlns:xlink="http://www.w3.org/1999/xlink" xmlns:a="http://ns.adobe.com/AdobeSVGViewerExtensions/3.0/"
	 x="0px" y="0px" width="537px" height="253px" viewBox="0 0 537 253" enable-background="new 0 0 537 253" xml:space="preserve">
<defs>
</defs>
<g>
	<defs>
		<rect id="SVGID_1_" width="536.849" height="252.801"/>
	</defs>
	<clipPath id="SVGID_2_">
		<use xlink:href="#SVGID_1_"  overflow="visible"/>
	</clipPath>
	<path clip-path="url(#SVGID_2_)" fill-rule="evenodd" clip-rule="evenodd" fill="#F7E4B9" d="M156.097,104.455
		c0.259-1.179,0.224-2.658,1.854-2.473C158.121,103.599,158.16,105.076,156.097,104.455"/>
	<path clip-path="url(#SVGID_2_)" fill-rule="evenodd" clip-rule="evenodd" fill="#F7E4B9" d="M168.459,144.633
		c2.986,2.653,7.089,7.229,6.181,11.744C170.017,155.027,170.085,148.98,168.459,144.633"/>
	<path clip-path="url(#SVGID_2_)" fill-rule="evenodd" clip-rule="evenodd" fill="#F7E4B9" d="M179.584,94.568
		c0.356-1.087-0.748-3.631,0.62-3.71C182.636,90.548,181.332,95.157,179.584,94.568"/>
	<path clip-path="url(#SVGID_2_)" fill-rule="evenodd" clip-rule="evenodd" fill="#F7E4B9" d="M190.092,160.702
		c5.045,1.961,8.417,5.593,11.127,9.893C194.729,170.077,191.736,166.065,190.092,160.702"/>
	<path clip-path="url(#SVGID_2_)" fill-rule="evenodd" clip-rule="evenodd" fill="#F7E4B9" d="M211.107,155.141
		c0.27-0.761,0.79-1.268,1.852-1.237c0.76,2.746,4.306,2.705,4.331,6.183C213.839,159.825,214.12,155.838,211.107,155.141"/>
	<path clip-path="url(#SVGID_2_)" fill-rule="evenodd" clip-rule="evenodd" fill="#F7E4B9" d="M216.051,151.434
		c3.039,1.974,5.208,2.647,5.567,6.182C219.021,156.296,216.626,154.771,216.051,151.434"/>
	<path clip-path="url(#SVGID_2_)" fill-rule="evenodd" clip-rule="evenodd" fill="#F7E4B9" d="M287.136,54.391
		c0.43-3.422,4.116-6.398,6.179-6.181C292.206,51.223,290.036,53.169,287.136,54.391"/>
	<path clip-path="url(#SVGID_2_)" fill-rule="evenodd" clip-rule="evenodd" fill="#F7E4B9" d="M324.84,178.629h-3.091v-3.091
		C323.892,175.457,325.334,176.07,324.84,178.629"/>
	<path clip-path="url(#SVGID_2_)" fill-rule="evenodd" clip-rule="evenodd" fill="#F7E4B9" d="M343.382,95.803
		c11.82-8.368,21.677-18.705,28.432-32.139c1.146,9.386-7.896,13.943-11.126,21.015C354.469,87.938,351.017,93.961,343.382,95.803"
		/>
	<path clip-path="url(#SVGID_2_)" fill-rule="evenodd" clip-rule="evenodd" fill="#F7E4B9" d="M348.944,58.1
		c0.263-1.182,0.225-2.662,1.855-2.471C350.971,57.243,351.008,58.721,348.944,58.1"/>
	<path clip-path="url(#SVGID_2_)" fill-rule="evenodd" clip-rule="evenodd" fill="#F7E4B9" d="M417.553,191.61
		c1.968,1.535,3.275,3.73,5.564,4.944c0.891,12.384-3.654,21.44-14.217,19.161c-9.487-2.052-6.639-16.525-1.237-21.637
		C411.438,193.738,413.697,191.876,417.553,191.61 M415.698,203.351h1.854c-0.045-1.074,0.138-1.92,0.62-2.47
		c-0.718-0.52-1.659-0.815-3.09-0.618C414.57,202.009,415.952,201.864,415.698,203.351"/>
	<path clip-path="url(#SVGID_2_)" fill-rule="evenodd" clip-rule="evenodd" fill="#F7E4B9" d="M476.273,48.827
		c0.574-2.325,5.541,0.826,7.418,1.236C481.412,51.902,479.7,47.899,476.273,48.827"/>
	<path clip-path="url(#SVGID_2_)" fill-rule="evenodd" clip-rule="evenodd" fill="#F7E4B9" d="M492.963,54.391
		c0.188-0.84,1.547-0.513,2.475-0.618c-0.102,0.718,0.132,1.103,0.614,1.236C495.298,56.878,493.691,54.572,492.963,54.391"/>
	<path clip-path="url(#SVGID_2_)" fill-rule="evenodd" clip-rule="evenodd" fill="#F7E4B9" d="M494.197,95.185
		c3.854-0.548,9.068,2.874,12.98,4.326C503.083,100.306,497.945,96.8,494.197,95.185"/>
	<path clip-path="url(#SVGID_2_)" fill-rule="evenodd" clip-rule="evenodd" fill="#F7E4B9" d="M514.596,118.673
		c3.936-0.782,15.04,1.812,19.162,4.945C527.512,126.717,522.014,118.511,514.596,118.673"/>
	<path clip-path="url(#SVGID_2_)" fill-rule="evenodd" clip-rule="evenodd" fill="#F7E4B9" d="M524.488,209.534
		c1.602-2.247,9.389-0.46,11.12,1.235C532.442,213.961,528.343,209.538,524.488,209.534"/>
	<path clip-path="url(#SVGID_2_)" fill-rule="evenodd" clip-rule="evenodd" fill="#F7E4B9" d="M524.488,182.339
		c3.045-1.383,8.689-0.052,11.12,1.235C532.667,187.672,529.403,181.762,524.488,182.339"/>
	<path clip-path="url(#SVGID_2_)" fill-rule="evenodd" clip-rule="evenodd" fill="#F7E4B9" d="M525.721,152.669
		c0.436-2.184,6.623-0.258,8.653,0c0.079,1.107-0.756,1.305-0.616,2.472C530.136,155.257,529.684,152.208,525.721,152.669"/>
	<path clip-path="url(#SVGID_2_)" fill-rule="evenodd" clip-rule="evenodd" fill="#F7E4B9" d="M528.814,169.978
		c1.507-1.271,7.053-1.317,5.561,2.47C531.83,172.313,530.995,170.469,528.814,169.978"/>
	<path clip-path="url(#SVGID_2_)" fill-rule="evenodd" clip-rule="evenodd" fill="#231F20" d="M518.921,47.59
		c4.453,1.734,9.362,3.004,14.838,3.71c-1.23,4.525,1.809,4.785,3.09,6.799c-0.632,3.696-3.242,5.413-4.329,8.654
		c1.943,4.279,2.72,10.299-0.616,13.597c0.861,2.796,4.052,6.035,1.855,9.892c-5.049-0.515-7.896-3.235-11.746-4.948
		c-1.38,0.269-0.25,3.046-0.618,4.326c-13.898-2.179-25.311-10.112-38.322-11.125c-0.169,2.231,2.442,1.677,2.472,3.709
		c16.237,3.336,26.515,12.632,43.885,14.834c1.251-1.318-1.307-5.099,2.475-4.944c0,4.944,2.783,7.102,2.472,12.361
		c-2.363,0.246-4.903,0.754-7.417,0c-2.493-0.746-3.947-3.867-6.182-4.945c-2.93-1.413-7.274-1.289-10.506-2.472
		c-0.688-0.25-0.847-1.667-1.237-1.854c-1.731-0.827-4.91-0.377-7.419-1.236c-2.468-0.844-4.507-3.216-6.178-3.706
		c-3.709-1.096-7.424-0.364-9.893-2.474c-2.024,4.096,3.861,5.608,7.419,6.18c-1.058,1.417-4.718,0.227-6.796,0.62
		c6.07,7.782,21.948,7.671,29.047,14.215c6.179,1.651,12.653,3.009,18.545,4.946c0.024,2.034,1.041,3.077,0.616,5.562
		c-14.605-2.762-27.438-12.488-45.741-13.599c-0.218,3.726,3.588,3.417,6.803,3.71c5.366,3.283,12.255,5.045,18.54,7.418
		c-7.079-0.135-14.944-4.831-22.249-6.802c-1.582,0.069-2.165,1.135-3.094,1.856c14.563,7.075,30.061,13.206,46.36,18.543
		c-0.304,1.95,1.112,2.184,0.614,4.326c-10.76,1.974-19.729-8.195-32.138-8.656c-2.736-2.413-7.486-2.815-11.126-4.325
		c-0.64,1.625-0.978,4.032,1.852,3.711c0.766,1.998-1.997,0.471-1.233,2.469c8.886,7.393,23.533,9.021,34.611,14.219
		c3.105-0.223,5.606,0.165,7.42,1.234c-0.13,1.933,0.416,4.536-0.619,5.563c-7.749-0.697-11.907-4.985-19.779-5.563
		c0.065,3.236,2.028,4.565,4.944,4.945c-1.51,1.67-4.028-0.878-6.798,0c3.153,6.944,11.158,9.031,21.017,9.273
		c2.483,2.797,3.19,7.716-0.619,9.888c-4.371-3.251-11.418-3.829-16.071-6.801c-0.969,0.27-0.528,1.946-2.473,1.24
		c-0.444,3.531,3.09,3.089,1.855,7.412c5.956,2.081,11.914,4.159,19.157,4.948c1.308,2.403,0.324,4.923-1.233,6.181
		c-5.541-1.054-10.748-2.439-15.454-4.326c-3.229,2.138,2.789,5.72,0,7.417c4.631,1.76,8.77,4.007,15.454,3.707
		c0.919,2.395,2.316,2.972,1.233,6.799c-7.108,0.672-12.271-6.323-18.54-2.47c0.439,1.49,3.303,2.185,1.236,4.324
		c3.921,1.92,9.807,4.933,14.835,3.711c-1.31-3.434-7.334-2.146-9.272-4.946c3.711,0.822,7.807,1.258,11.741,1.855
		c-2.779,3.84,1.407,6.138,0,9.889c-6.355,2.896-13.058-7.26-18.54-1.234c-0.043,2.308,3.886,0.643,4.326,2.472
		c-0.051,1.595-2.644,0.649-1.854,3.089c2.586,3.392,8.885,3.065,14.835,3.092c1.163,12.375,0.716,26.722-3.092,38.939
		c-33.602-0.362-67.363-0.045-98.277,0c-9.92,0.016-18.16-2.319-26.577-4.326c-6.174,3.966-15.793,0.469-21.017-3.092
		c-0.445-1.887,0.633-2.25,0.618-3.708c-6.928-7.737-9.2-21.23-6.8-33.377c-16.135,4.754-33.198,7.236-52.538,4.944
		c-12.874-1.526-26.163-3.995-38.321-7.417c-1.742-0.491-4.222-1.426-7.416-2.475c-1.501-0.491-2.401-2.034-3.712-2.47
		c-7.737-2.578-16.143-0.938-24.724-2.472c-7.308-1.31-14.008-3.374-21.633-2.475c-5.85-4.084-10.097-2.659-15.452,1.234
		c-1.151,0.84-2.172,2.962-3.709,3.712c-2.29,1.12-5.301,0.533-7.416,1.234c-3.369,1.119-9.015,3.736-16.69,2.474
		c-1.517,0.547-2.267,1.852-4.946,1.236c-2.993-4.218-11.614-2.807-16.686-4.944c-2.078,0.223-1.033-2.678-1.857-3.712
		c-1.907-0.15-3.492-0.625-4.944-1.234c-2.414-9.954-8.906-25.576,0-32.759c-9.602-1.328-21.481-3.483-29.667-8.035
		c0.232-8.77-11.056-25.608-0.621-29.666c1.69,5.564,1.396,19.558,6.801,17.305c1.895,2.224,3.898,4.343,5.563,6.798
		c1.858,0.624,1.094-1.374,1.236-2.471c2.437-0.171,1.888,2.642,4.326,2.471c1.758,0.108-0.747-4.042,1.856-3.09
		c1.214,2.7,2.936,4.895,4.942,6.799c2.041-0.354-0.78-3.997,0.62-3.709c2.069,1.227,3.194,3.398,4.944,4.946
		c2.33-0.667-1.486-5.128,1.238-4.326c2.217,2.931,2.837,7.462,7.415,8.033c-0.793-1.481-3.144-6.731-4.327-9.889
		c2.62,0.617,6.695,6.526,6.802,9.889c2.952-0.34,6.21-0.381,8.653-1.233c-3.204-5.038-4.765-11.722-7.418-17.309
		c5.511-0.074,4.555,9.344,8.654,8.653c0.051-8.091-6.913-14.514-9.274-22.253c-20.625-4.26-48.138,0.583-57.482-14.214
		c-3.297-5.219-2.957-11.161-7.416-19.16c0.075-9.199,3.74-14.803,5.562-22.253c7.79-7.456,18.592-11.902,29.05-16.689
		c-1.061-3.411-6.352-1.364-8.653-0.619c-4.828-0.292-21.034-3.068-28.434-3.707c-3.665-0.317-6.955,1.222-9.887,1.236
		c-8.324,0.031-26.39-1.388-35.851-3.709c-13.816-3.392-32.437,2.309-46.356-0.618c-13.436-2.826-16.792-28.895-0.62-34.612
		c2.132,0.135,2.925,1.606,4.946,1.851c10.261-2.717,23.328-2.632,32.758-6.176c21.905-2.106,46.381-1.873,69.228-4.949
		c29.586-3.983,61.052,3.467,90.859-1.236c6.083-2.499,13.379,1.482,17.928-1.233c10.615,2.614,26.437,0.876,35.849,6.179
		c5.821-3.313,8.99,0.573,12.981,2.473c1.36,0.646,3.59,0.081,4.944,0.616c1.068,0.423,1.363,1.998,2.472,2.475
		c4.801,2.059,10.48,3.212,15.453,5.56c2.712,1.282,7.818,3.128,12.362,4.945c6.53,2.612,16.366,7.992,24.723,9.271
		c9.547,8.788,23.81,12.865,33.995,21.02c5.115-5.605,7.217-14.214,12.98-19.163c6.368-2.699,11.461-6.674,19.782-7.418
		c1.367,0.338,0.877-1.179,1.854-1.237c14.525-0.927,28.815-2.089,41.412-4.946c20.092,0.476,49.352-8.026,76.025-8.652
		c4.423,1.883,9.421,11.976,3.093,15.453c1.759,1.945,5.325,2.09,6.796,4.328c0.101,1.745-1.854,1.438-1.854,3.087
		c-10.542-3.055-19.734-7.461-31.522-9.27c-2.244,0.558,1.286,3.49-0.618,3.71c-6.896-0.366-14.781-5.477-21.015-2.473
		c16.822,5.222,33.833,10.257,49.447,16.688h6.183c1.355,1.323,2.354,3,1.855,6.181c-4.311,1.945-6.563-2.94-9.892-4.326
		c-3.928-1.634-9.154-1.479-13.597-3.09c-10.353-3.754-18.269-8.474-30.903-9.892c-3.618-2.152-8.814-2.726-14.222-3.088
		c-2.319-1.802-6.146-2.095-10.507-1.855c3.446,3.646,12.897,4.041,18.545,5.564c14.676,3.952,30.094,10.633,43.885,14.833
		c-25.846-4.167-44.559-17.1-74.172-19.16c7.132,3.582,18.261,6.456,26.576,6.797c4.011,3.408,9.578,5.26,16.071,6.182
		c6.107,4.195,15.6,5.002,21.635,9.271c8.41,0.071,13.348,6.794,21.635,4.945C527.632,50.422,521.633,50.652,518.921,47.59
		 M10.223,35.847c-0.166-2.64-0.314-5.261,2.474-4.943c0.488,2.189,0.892,4.46,2.475,5.561c3.704-1.163-0.927-6.883,3.088-7.419
		c0.062,2.825-0.618,6.392,1.855,6.801c1.819-1.27,1.346-4.834,2.472-6.801c1.327,1.766-0.198,6.379,3.091,6.184
		c2.233-0.446,0.285-5.069,1.853-6.184c3.857,0.062-0.083,7.917,3.09,8.657c4.22-2.048,0.404-6.103,1.858-9.272
		c2.18,1.111,0.682,5.906,3.707,6.179c1.685-1.816-0.489-7.492,1.236-9.273c1.178,2.118,0.768,5.827,3.709,6.182
		c1.621-1.053,0.625-4.73,1.851-6.182c-0.401,2.877,0.218,4.729,3.093,4.329c1.639-1.969-1.342-4.932,1.855-5.564
		c0.976,0.057,0.483,1.576,1.854,1.235c1.195-0.657,0.861-2.841,1.853-3.706c2.502,0.59,1.718,4.463,2.472,6.8
		c2.688-0.404,2.024-4.158,4.33-4.943c0.644,2.234-1.404,7.168,1.234,7.416c2.63-0.876,1.079-5.927,3.709-6.802
		c0.224,2.867-0.772,6.954,1.854,7.417c1.605-1.483,0.51-5.67,3.091-6.182c1.333,1.232-1.565,5.36,1.856,5.567
		c1.188-1.076,0.24-4.295,2.471-4.328c1.154,1.41-0.835,4.627,2.472,4.943c0.451-2.843,0.262-6.329,2.471-7.417
		c1.101,1.992-0.236,6.421,2.474,6.802c0.827-2.47,0.447-6.145,2.473-7.416c1.819,0.235,1.208,2.908,2.472,3.704
		c1.928-0.34,0.365-4.165,3.089-3.704c-0.479,2.125,0.346,2.948,2.475,2.47c1.291-0.563,0.218-3.488,1.851-3.71
		c1.51,0.345,1.318,2.394,3.712,1.854c0.436-1.825,0.169-4.361,1.851-4.943c2.305-0.656,0.977,2.318,3.091,1.853
		c0.965-1.096,0.828-3.293,3.71-2.472v4.948c2.609-3.956,4.916-5.874,9.889-3.713c0.421,2.861-2.665,8.669,1.237,9.271
		c0.915-2.791,0.875-6.541,3.091-8.034c2.55,2.729-2.196,8.955,1.235,10.507c4.04-0.901,0.74-9.148,4.327-10.507
		c0.333,3.992-0.719,9.371,0.621,12.364c4.816-0.333,0.484-9.816,4.325-11.128c2.694,2.827-0.352,8.045,0.616,12.982
		c5.223-0.546,1.224-10.316,4.324-12.982c3.406,2.453-1.218,9.093,2.477,11.128c2.169-4.148,2.346-7.582,1.235-12.364
		c1.489,0.253,1.344-1.127,3.091-0.617c0.729,3.388-1.52,9.761,1.236,11.124c2.768-1.967,1.066-8.411,2.473-11.744
		c2.483,1.845-0.571,9.226,3.09,9.891c2.99-1.955-0.187-10.078,1.853-12.98c2.61,2.127,0.637,8.841,4.328,9.89
		c1.989-2.883-1.03-8.323,1.236-9.89c4.471,0.475,1.942,7.951,4.946,9.89c3.289-0.418-0.751-8.167,2.471-8.654
		c4.031,1.535-0.224,11.351,3.092,13.597c2.912-2.857-0.281-11.818,4.327-12.979c0.019,4.761,0.184,9.662-0.619,13.6
		c1.887,0.444,2.254-0.634,3.71-0.621c0.128-4.401-0.524-9.586,2.472-11.124c1.072,3.047,1.388,6.851,1.234,11.124
		c6.038-0.557,0.486-12.699,6.798-12.979c0.78,4.247-1.398,8.256,0,11.126c4.046-1.933,1.255-10.698,4.327-13.597
		c1.64,0.21,2.088,1.621,2.475,3.09c-1.846,1.564-0.67,3.946,0.616,5.562c2.13-3.02,0.373-9.928,3.71-11.743
		c2.901,0.928-1.655,7.908,2.473,8.653c0.806-3.725,0.912-8.152,3.709-9.888c0.344,2.744-1.079,7.258,1.854,7.416
		c0.455-4.075,1.884-7.181,3.089-10.507c-0.424,3.61,2.16,3.208,0,5.562c2.456-0.604,0.256,3.454,2.471,3.089
		c3.162-1.166-0.934-9.589,3.092-9.885c0.259,1.964-0.17,9.52,1.855,11.741c3.634-2.362,0.684-10.516,1.235-13.598
		c-24.852,1.534-60.973,4.965-87.77,0.618c-23.86,6.785-53.357,1.638-79.735,6.799c-12.012,2.944-27.697,1.824-38.941,6.797
		C4.621,24.604,7.833,30.667,10.223,35.847 M120.864,67.989c-6.581,6.433-11.74,17.843-6.18,30.905
		c2.797,0.086,3.018,2.747,6.18,2.473c-0.251,3.133,2.16,3.611,3.089,5.559c1.752-0.64,2.58-0.64,4.331,0
		c-0.193,3.491,0.905,5.691,3.09,6.803c2.069-3.352-2.061-5.714-0.619-8.037c0.261,2.414,2.365,2.989,3.09,4.946
		c1.81,0.16,1.899-1.397,3.708-1.236c3.021,3.779,2.504,11.096,8.653,11.743c-2.255-3.931-5.203-10.448-4.326-15.453
		c2.781,5.048,3.537,12.123,8.035,15.453c0.846-4.638-4.473-11.534-3.09-16.69c3.11,5.546,4.892,12.415,9.272,16.69
		c2.39-4.415-6.167-11.423-4.326-17.309c4.339,4.726,4.596,13.538,9.889,17.309c1.396-4.443-5.793-11.708-3.709-14.834
		c2.002,0.471,2.523,2.418,2.474,4.943c3.826,1.738,0.872,10.256,6.798,9.891c-2.333-4.881-4.614-13.1-4.946-17.925
		c3.272,1.881,2.757,7.545,6.182,9.274c1.443-8.939-6.743-16.652-6.182-24.726c6.633,3.667,5.703,14.901,9.893,21.015
		c0.871-10.145-3.099-15.447-5.567-22.253c-10.186,0.144-14.863-8.902-21.631-10.505c-4.12-0.979-9.47,1.067-14.217,0
		c1.251-4.565,7.963-3.94,11.744-4.327c1.502-5.789-0.28-11.44-0.619-16.07C134.534,57.975,125.075,63.874,120.864,67.989
		 M139.407,120.526c0.898-2.312-0.392-5.64-3.089-6.181v1.855C139.167,115.824,135.952,121.512,139.407,120.526 M174.64,61.191
		c-1.111-8.163-9.81-8.736-19.78-8.038c-1.219,0.432,0.153,3.449-1.237,3.709c-1.869-0.189-2.207-1.914-4.942-1.234
		C143.833,70.344,168.599,68.494,174.64,61.191 M161.66,70.461h-4.327C156.125,73.927,162.87,73.927,161.66,70.461 M175.878,161.942
		c-6.608-0.223-13.19-0.418-15.453,3.705c-0.391,6.574,0.178,12.188,1.852,16.691c4.235,1.126,5.879,4.835,9.893,6.179
		c0.107-1.843-2.38-3.781,0-4.327c3.015,2.752,3.922,7.614,9.27,8.036c0.459-3.158-4.796-3.832-2.472-6.8
		c2.868,3.106,5.284,6.67,9.888,8.039c0.085-2.767-2.502-2.857-2.472-5.563c4.715,0.641,5.056,5.655,9.271,6.797
		c1.411-3.065-3.494-4.59-3.709-8.034c3.364,1.994,4.84,5.871,9.274,6.801c0.191-2.463-1.43-3.106-1.239-5.563
		c1.873,0.188,2.209,1.91,4.946,1.234c0.52-3.425-4.302-4.739-2.472-7.416c3.438,1.709,4.318,5.981,8.034,7.416
		c-0.693-6.932-7.899-10.636-7.415-16.689c4.26,3.566,5.81,9.846,10.507,12.979c-3.984-12.086-13.031-19.108-20.399-27.812
		c-3.663-0.16-5.513,1.49-8.654,1.852c0.192,3.313,4.16,2.851,4.947,5.563c-3.407,1.752-6.801-1.282-7.417-4.327
		C179.219,160.339,177.305,160.896,175.878,161.942 M165.367,74.785c0.249-1.606,1.846-1.862,1.856-3.706
		c-0.9-0.956-3.163-0.545-4.946-0.618C162.013,73.199,163.31,74.375,165.367,74.785 M171.55,74.785c0.392-1.411,1.226-3.726,0-4.941
		c-1.084,0.564-3.083,0.209-3.71,1.235C169.52,71.872,169.623,74.243,171.55,74.785 M176.494,103.22
		c-1.013-7.228-1.658-14.824-7.416-17.307C171.313,91.919,172.447,99.027,176.494,103.22 M183.91,66.753
		c1.748-0.513,1.603,0.869,3.09,0.62c2.072-3.368-2.128-3.435-1.236-7.418c2.337,0.894,1.188-1.701,3.092-1.24
		c2.764,1.357,1.376,6.866,4.946,7.419c1.539-3.012-1.911-5.749-2.474-8.655c2.735-2.001,4.884-4.59,9.274-4.94
		c0.478-3.44,2.233-5.594,5.561-6.184c1.768,0.908,2.322,3.036,4.326,3.708c2.675-1.857-0.273-9.339,2.471-11.125
		c1.436,3.1,1.824,7.241,4.947,8.652c0.75-5.693-1.428-8.46-2.472-12.36c1.944,0.707,1.504-0.971,2.472-1.239
		c3.393,0.462,1.864,8.655,5.563,6.801c0.957-0.203-2.252-4.681-0.616-5.562c6.011-0.246,3.032,8.506,7.417,9.89
		c0.115-3.386-0.771-7.777,1.853-8.655c2.189,3.168,0.794,9.917,4.324,11.745c1.216-2.497-0.174-7.594,1.239-9.892
		c0.619,0.002,0.734-0.499,1.236-0.615c4.583,0.153,1.128,8.348,3.091,11.124c4.561-0.587,0.065-10.237,5.563-9.889
		c0.462,4.994-0.738,8.329-0.62,12.979c5.956-0.432,2.117-10.659,7.418-11.746c0.291,2.62,0.226,8.959-1.855,11.129
		c0.754,0.069,1.464,0.185,1.238,1.239c5.314-0.657,2.81-13.089,7.417-12.368c2.712,0.429-3.788,14.574-4.33,15.457h3.71
		c1.174-3.157,2.654-6.004,4.944-8.038c0.195-3.662,1.592-8.925,5.564-6.798c-2.175,5.858-5.689,10.381-7.417,16.687
		c8.465-1.834,7.547-13.056,14.219-16.687c0.924,7.449-6.437,11.595-8.654,17.923c8.411-1.062,8.566-10.385,14.217-14.214
		c1.346,0.71,3.997,0.123,4.326,1.854c-3.08,5.574-7.65,9.658-11.743,14.215c1.642,1.388,3.146-0.922,4.326,0.621
		c-0.471,0.97-1.963,0.922-1.857,2.473h1.237c0.139,0.477,0.018,1.215,0.62,1.232c6.774-3.727,14.098-6.914,17.306-14.214
		c0.9,0.34,3.196-0.724,3.09,0.618c-3.961,7.988-12.72,11.178-18.541,17.307c8.193,0.159,10.697-5.372,17.307-6.8
		c1.614-2.245,5.23-7.151,8.033-4.328c-4.01,5.248-12.138,10.016-18.544,12.982c-2.075,0.962-6.692,0.665-5.56,4.324
		c12.159-1.119,21.618-9.48,32.14-14.215c-3.336,8.408-14.088,9.4-21.017,14.215c-6.11,0.277-10.169,2.603-16.686,2.475
		c2.714,4.146,11.221,2.579,14.835,1.854c11.237-2.262,21.933-10.629,30.285-14.835c0.446,1.889-0.631,2.252-0.62,3.71
		c-9.454,4.554-16.74,11.278-29.665,12.361c-0.316,1.747-3.509,0.615-3.713,2.473c13.984,1.459,26.283-6.971,35.854-9.888
		c-4.739,5.974-14.069,7.357-21.017,11.123c-2.779,0.31-6.896-0.719-6.8,2.472c9.134-0.175,18.981-5.293,26.579-7.416
		c1.661-1.778,6.249-6.038,8.035-3.708c-7.607,8.054-21.064,10.252-32.141,14.836c4.402,1.507,9.723-1.397,14.835-1.239
		c0.603-2.484,4.54-1.638,6.799-2.473c2.061-2.902,6.665-2.948,9.888-4.943c2.527-1.565,5.16-6.972,8.036-3.709
		c-10.388,8.157-22.563,14.522-39.558,16.07v3.09c5.139-1.659,11.392-2.203,17.306-3.09c17.523-9.263,40.588-16.276,43.268-38.32
		c-1.971,1.531-2.718,4.288-5.564,4.942c-1.976-2.582,0.572-4.914,1.237-6.798c-1.913-0.816-3.428,1.832-4.326,0
		c-0.857-2.788,2.404-3.085,0.619-4.945c-2.565,0.161-3.322,4.564-5.563,3.09c-0.192-2.574,3.036-3.93,1.236-6.183
		c-2.438,1.07-2.953,4.055-5.563,4.948c-0.932-4.023,2.476-3.709,2.473-6.798c-5.104-0.984-4.169,4.071-8.033,4.326
		c0-0.621-0.502-0.739-0.621-1.237c0.375-2.304,2.963-2.391,2.47-5.563c-3.742-0.862-2.83,2.938-6.175,2.473
		c-0.478-2.328,0.751-2.958,0.614-4.946c-2.577-0.311-2.724,1.804-5.562,1.233c-0.302-1.947,1.112-2.179,0.617-4.324
		c-2.836,0.049-3.982,1.786-7.416,1.235c-0.268-0.97-1.947-0.528-1.238-2.472c-2.718-0.165-5.895,0.13-5.562-3.091
		c-21.8-4.116-37.242-17.766-63.663-13.597c-13.816,4.316-28.93,7.335-45.123,9.27c-2.256,5.163-10.371,4.466-12.359,9.89
		c-2.601,0.495-3.435,2.753-4.948,4.329c-7.369,1.901-12.137,6.404-17.924,9.889C175.771,55.112,184.528,56.246,183.91,66.753
		 M178.348,132.273c1.706,3.743,2.151,10.122,6.18,11.123c-2.144-7.928-5.137-14.771-9.888-18.542
		C175.466,127.562,177.781,131.021,178.348,132.273 M181.439,101.367c-0.479-0.14-1.219-0.018-1.236-0.62
		c1.173-2.253-0.843-3.854,0.617-5.563c1.724,0.545,2.05,2.485,2.471,4.326c2.018,0.164,2.975-0.731,3.092-2.472
		c-1.576-1.698-1.306-6.183-3.71-3.707c-0.198-2.764-1.084-4.879,1.236-6.181c-0.028,3.534,2.686,4.32,2.474,8.034
		c4.273,0.026,2.504-3.564,2.472-6.799c0.851-0.027,1.358,0.292,1.856,0.618c-0.271-2.124,0.244-3.463,0.616-4.945
		c-5.68-1.241-7.853,3.945-12.36,1.855c-0.204,1.971-1.977,3.556-3.09,1.237c0.457,1.902-1.699,1.186-1.238,3.092
		C177.978,92.471,177.456,101.836,181.439,101.367 M175.258,71.08c2.03-0.031,3.039-1.083,3.71-2.472
		c0.205,2.178,3.42,3.543,4.942,2.472c-0.575-1.898-1.922-3.021-2.47-4.945c-1.737,1.354-4.66,1.524-6.8,2.473
		C175.554,68.719,175.205,70.103,175.258,71.08 M181.439,127.943c1.282-1.272-0.002-3.135-1.856-3.089v1.856
		C180.802,126.522,180.81,127.542,181.439,127.943 M189.475,145.873c5.033-3.427-4.106-12.963-4.947-12.365
		C186.178,137.629,186.289,143.285,189.475,145.873 M214.199,178.012c0.814,1.656-0.07,5.016,3.092,4.327
		c-4.542-11.328-10.662-21.073-21.016-26.58v3.708C205.042,162.855,207.853,172.202,214.199,178.012 M201.22,157.615
		c8.001,3.532,11.217,11.855,17.306,17.307c-2.631-9.525-8.716-15.598-16.071-20.398c-0.136,0.483-0.519,0.719-1.235,0.617V157.615z
		 M205.546,155.141c9.041,4.145,11.764,14.61,19.16,20.397c-0.183-6.413-7.258-9.22-6.18-14.836
		c2.545,2.092,3.985,8.233,7.418,7.419c1.811-3.65-2.695-4.711-3.09-8.035c3.941,0.177,3.766,4.475,7.417,4.943
		c-0.257-3.486-1.146-6.657,0-9.889c-1.336-2.798-6.393-5.138-4.946-8.653c2.165,1.338,2.696,4.311,5.562,4.946
		c0.06-3.772-2.913-4.507-4.325-6.801c-1.458-0.013-1.823,1.066-3.708,0.619c-0.483,1.372-1.3,2.409-1.236,4.325
		c1.842,3.522,8.153,5.847,6.799,10.509c-3.681-6.417-9.815-6.95-11.126-16.069c-1.447,5.146-8.641,4.544-11.745,8.032V155.141z
		 M218.526,22.249c5.58-3.982-0.281-11.254,2.473-16.069c-1.035-0.82-2.073-1.637-4.329-1.24
		C219.072,9.392,216.536,19.035,218.526,22.249 M225.325,21.012c-1.113-2.823,1.246-12.082,0.619-16.073
		c-1.492-0.25-1.344,1.131-3.09,0.622c-0.05,6.534-0.123,11.192-0.62,16.07C223.667,21.827,224.607,21.53,225.325,21.012
		 M229.033,20.396c2.122,0.603,5.161-13.865-0.616-14.834C228.144,11.171,228.68,19.099,229.033,20.396 M236.448,18.541
		c-0.164-4.696,0.982-8.086,1.856-11.744c-0.729-0.712-2.184-0.698-3.708-0.617C234.869,10.644,233.877,16.376,236.448,18.541
		 M242.014,17.922c1.579-2.336,0.088-7.741,2.472-9.27c1.102,2.265,1.441,4.72,0.616,7.417h4.328c-1.361-2.479-0.801-4.858,0-8.037
		c-2.121-1.381-5.825-1.177-8.655-1.853c-2.693,3.001,0.016,7.831-1.234,11.743H242.014z M277.864,16.069
		c-6.191-2.959-16.024-8.079-22.871-3.091c-2.242-0.029-0.147-4.389-3.09-3.71c-1.409,0.855-0.232,4.301-0.619,6.181
		C259.62,12.911,270.165,13.91,277.864,16.069 M297.642,184.19c-1.737-0.089-1.781,1.515-1.853,3.091
		C297.663,187.511,297.071,185.271,297.642,184.19 M336.585,97.658c1.743-0.698,5.71-1.932,6.798-1.235
		c-0.036,0.374-0.095,0.729-0.62,0.615c-5.957,2.393-12.555,6.529-19.16,8.654c-2.8,0.9-7.273-0.363-8.036,3.71
		c31.672-4.589,51.735-20.791,63.049-45.738c-2.484-2.32-5.951-6.036-9.891-4.949c0.525-1.97-0.54-2.343-1.239-3.087
		c-7.147,2.12-5.575,12.964-12.36,15.451c-1.032,4.189-4.276,7.555-7.416,9.888c-9.992,7.432-23.358,13.068-37.703,16.071
		c-2.993,4.249-12.566-1.872-12.982,4.944c1.305,0.854,4.771-0.26,6.184-1.235c32.532-2.494,51.848-18.203,64.278-40.792
		c-6.355,21.982-24.435,34.422-45.735,40.792c-4.495,1.345-9.501,0.505-11.127,3.708
		C320.187,106.404,329.206,100.607,336.585,97.658 M302.589,176.774c-0.719-0.521-1.661-0.814-3.092-0.617v2.471h2.471
		C301.938,177.778,302.26,177.272,302.589,176.774 M305.677,182.955c-1.055,4.766,4.754,2.661,4.946,6.182
		c13.6,4.115,27.188,8.246,43.268,9.888c1.955-2.164,8.145-0.093,8.652-3.705C342.298,196.896,322.076,189.194,305.677,182.955
		 M324.84,173.682c-4.455-1.43-6.465-1.882-9.895-3.704c0.467,1.899-1.691,1.187-1.232,3.089c3.145,0.56,6.629,0.789,7.418,3.708
		c-5.876,1.6-8.327-4.144-11.744-1.236c10.291,5.985,23.45,9.105,36.465,12.364c-15.84-0.436-29.249-6.6-40.175-9.891
		c1.826,0.536-1.434,0.923-0.619,2.472c7.101,2.583,14.267,5.103,20.398,8.653c10.969,0.718,23.439,6.03,33.376,3.708
		c1.024,0.01,0.349,1.714,1.238,1.854c0.668-3.037,6.889-0.529,8.034-3.089c-5.583-3.688-13.636,0.206-21.014-3.093
		c5.922-2.378,12.088,1.555,15.452-1.236v-1.854c-7.848-0.49-20.991-0.216-26.579-4.943c7.039-0.559,20.221,4.807,27.197,0.617
		c-8.729-1.363-18.514-1.678-25.962-4.326C334.649,182.556,324.228,182.118,324.84,173.682 M319.274,192.227
		c-6.507-0.084-9.492-3.692-15.451-4.324c0.25,3.453,2.647,4.768,6.8,4.324c6.271,6.725,21.375,7.855,31.522,8.654
		C336.599,196.594,325.657,197.919,319.274,192.227 M324.221,170.595c-1.449-0.16-0.355-2.719,0-3.092
		c-1.816-0.717-5.825-1.223-6.184,1.237C321.109,167.961,321.569,173.004,324.221,170.595 M377.997,67.374
		c-9.948,25.005-29.563,36.605-56.866,43.881c0.055,1.689-1.03,1.247,0,2.475c15.93-1.585,30.215-10.168,42.03-17.927
		c3.838-4.901,7.415-10.427,11.743-15.452c3.113-3.612,9.531-7.827,8.035-14.216C379.971,65.226,380.36,67.676,377.997,67.374
		 M336.585,164.413c-5.308,0.152-8.21-2.094-12.982-2.471c0.094,1.535-0.972,1.909-1.238,3.087
		C326.415,165.251,334.745,169.621,336.585,164.413 M384.177,89.003c-2.817-0.755-2.425,1.697-4.946,1.239
		c-4.063,7.262-13.378,9.282-17.307,16.684c-4.533,1.651-7.734,4.628-11.743,6.803c-8.048,2.623-16.927,5.005-24.107,6.797v1.855
		C353.983,121.733,371.235,106.529,384.177,89.003 M335.964,127.943c22.235-5.791,40.647-15.83,51.302-34.612
		c-4.355,0.792-6.25,4.051-8.65,6.799c-11.442,9.843-21.945,18.421-38.325,22.869c-4.943,1.341-10.298,0.738-12.979,3.711
		C328.982,128.333,332.677,127.936,335.964,127.943 M339.672,116.2c9.973-5.688,21.651-9.669,28.433-18.542
		c2.297-0.124,2.424-2.283,3.093-3.09c4.056-4.885,14.951-11.22,10.509-16.69c-3.058,6.834-8.608,11.174-14.837,14.836
		c-6.497,9.983-17.785,15.178-29.052,20.397c-4.361,0.168-7.935,1.13-9.889,3.709C331.817,118.504,334.532,116.151,339.672,116.2
		 M359.453,173.682c-9.074,0.835-14.435-2.047-22.868-1.852v3.708C345.316,174.494,356.33,179.451,359.453,173.682 M372.433,167.503
		c-11.002-0.563-23.362-0.886-34.615,0c-0.48,0.135-0.717,0.516-0.618,1.237C347.109,170.549,364.551,172.777,372.433,167.503
		 M348.327,131.036c0.301-0.732,0.658-1.403,1.237-1.856c2.542,0.488,3.17-0.948,5.561-0.615c5.974-5.362,17.146-5.52,19.163-14.835
		h-3.709c-5.967,10.931-23.35,10.44-32.762,17.922C342.175,131.291,345.027,129.253,348.327,131.036 M364.396,131.036
		c2.126-4.881,11.76-2.252,11.127-9.891c-6.471,2.593-12.345,5.787-17.927,9.272v1.233
		C360.475,132.686,361.013,130.912,364.396,131.036 M370.579,174.922c0.14-1.17-0.696-1.363-0.617-2.475
		c-1.17,0.276-3.729-0.843-3.093,1.234C368.312,173.887,369.425,174.428,370.579,174.922 M383.559,105.692
		c-3.91,0.008-5.307,2.521-6.179,5.562C380.998,112.448,382.705,109.024,383.559,105.692 M386.03,51.3
		c6.69,6.337,14.267,15.42,17.309,24.725c0.833,2.553,0.465,6.198,1.233,9.269c0.728,2.889,2.541,5.314,3.091,8.037
		c2.804,13.894,4.098,34.463,2.474,51.301c-1.069,11.1-3.08,26.875-6.18,39.558c-1.967,8.025-8.135,20.795-6.802,27.815
		c1.198,6.288,18.972,14.006,27.196,6.801c4.901-4.291,4.85-28.746,4.946-35.232c0.069-4.56,1.941-8.438,2.472-12.979
		c2.05-17.493-0.527-35.197,0-50.687c-3.14-30.03-10.068-56.274-28.431-71.081c-6.366-3.55-17.582-3.935-24.108,0v1.855
		C381.766,50.622,384.298,50.562,386.03,51.3 M389.122,210.149c-0.078-2.754,2.064-3.286,1.853-6.178
		c-1.627-0.642-3.794-0.739-6.18-0.621C382.402,207.486,386.127,210.295,389.122,210.149 M396.537,227.457
		c9.548,0.392,18.505,4.466,24.106,0.621c0.359-2.008-0.42-2.877-0.618-4.326c-8.6,0.127-19.406,0.481-24.104-4.945
		C393.347,220.941,396.657,224.093,396.537,227.457 M429.916,43.884c-6.369-1.872-10.894-5.593-19.161-5.566v1.853
		C416.219,41.556,425.028,46.029,429.916,43.884 M442.275,52.54c-7.073-5.378-19.828-6.659-27.812-9.274
		c-0.151,0.88-1.019,1.042-1.238,1.855C422.221,47.476,433.105,54.468,442.275,52.54 M435.478,242.293
		c-1.439-5.976-10.826-4.006-14.834-7.417c-0.925,1.138-2.579,1.542-3.09,3.093C423.484,239.451,428.696,241.659,435.478,242.293
		 M428.679,33.376c-3.583,0.379-5.84,0.815-9.271,0c14.786,7.464,35.419,9.083,49.448,17.306
		c16.197,4.198,31.134,9.658,45.12,16.071c5.947,0.083,10.854,5.907,16.074,1.236c-0.067-3.644-5.982-1.439-4.33-6.798
		c-3.555-2.062-11.136,2.112-11.744-4.946c-22.784-5.865-45.696-17.666-68.607-22.254c-3.358-0.671-9.3-1.499-10.51-1.236
		c-0.24,2.918,3.479,1.884,4.325,3.71c-3.574,0.074-6.263-0.736-8.648-1.855c-1.709-1.651,0.727-1.343,0.617-3.091
		c-1-0.693-5.446-1.09-5.564-0.615C426.172,32.17,428.774,31.425,428.679,33.376 M444.134,79.114
		c-4.193-1.371-8.474-2.651-12.98-3.708c3.4,5.488,15.11,7.939,24.106,9.888c-0.143-5.216-6.842-3.871-9.891-6.18
		c2.076-2.126,5.141,1.091,6.183,0c-0.027-0.851,0.291-1.357,0.616-1.854c-7.115-2.855-16.331-6.642-24.107-6.799v1.854
		C434.155,73.84,440.544,75.083,444.134,79.114 M435.478,59.335c-0.032-1.722-5.941-3.103-6.18-0.62
		C430.467,59.814,433.383,59.169,435.478,59.335 M439.806,46.355c-2.794-0.623-7.825-4.129-9.27-0.621
		C432.868,46.762,438.721,49.667,439.806,46.355 M440.422,87.15c-1.745-0.932-4.974-0.385-6.18-1.856v2.474
		C435.948,88.441,439.57,88.999,440.422,87.15 M449.695,69.844v-3.091c-2.747-0.137-4.812-0.959-4.326-4.328
		c-1.87-0.604-3.663-1.282-4.947-2.47c-3.045,0.661-3.711,3.703-5.563,5.562C441.042,65.719,443.145,70.003,449.695,69.844
		 M444.75,106.926c-0.252-1.487,1.128-1.342,0.619-3.09c-3.629,0.54-4.65-4.128-8.037-1.854v1.854
		C439.433,105.242,443.395,104.781,444.75,106.926 M454.021,99.51c-0.136-1.166,0.698-1.364,0.617-2.472
		c-2.073-1.384-6.814-0.911-9.889,0C448.718,96.987,449.82,99.796,454.021,99.51 M448.46,51.917
		c-1.608-0.369-2.226,0.248-1.856,1.855c7.853,4.513,17.158,7.565,27.196,9.892c1.206-1.392-0.695-3.418-1.235-4.949
		c5.604,1.611,10.99,3.436,14.834,6.802c-4.106,0.191-5.219-2.612-9.271-2.475c0.562,5.622,6.645,5.719,11.744,6.802
		c4.017,2.574,9.016,4.171,14.833,4.941c7.299,2.623,14.344,8.703,24.108,6.802c-0.03-0.852,0.29-1.358,0.615-1.854
		c-2.603-4.816-7.01-5.248-12.36-7.418c-10.888-4.42-28.125-10.939-38.32-15.453c-10.918-0.328-22.432-8.378-33.379-8.652
		c-0.482,0.135-0.721,0.516-0.619,1.236C446.762,49.493,448.081,50.236,448.46,51.917 M455.26,93.948
		c0.259-3.971-5.408-2.009-6.183-4.945C449.699,92.086,453.251,92.25,455.26,93.948 M457.111,113.729
		c-2.684-1.796-1.355-3.461,0-5.563c-0.595-1.055-1.941-1.356-3.09-1.855c0.34,3.841-3.267,3.737-3.71,6.8
		C450.689,114.823,455.933,114.867,457.111,113.729 M456.495,67.989c-0.974,0.057-2.144-0.083-1.856,1.233
		c4.724,5.811,15.459,8.822,24.109,8.656v-1.853c-6.612-4.346-15.553-3.41-21.02-8.036c7.922,0.528,11.89,5.007,20.399,4.946
		c-3.125-5.942-12.667-5.471-19.158-8.039c-0.266-2.21-3.209-1.738-5.567-1.854C452.819,66.305,455.287,66.518,456.495,67.989
		 M458.97,131.036c0.496-2.558-0.952-3.173-3.093-3.093c0.529,1.975-0.973,1.913-1.238,3.093
		C455.809,132.262,457.558,131.336,458.97,131.036 M460.205,161.942c-0.518-0.526-4.831-1.696-4.328,0.615
		C456.71,163.4,460.192,163.737,460.205,161.942 M486.167,246.002c-8.61-3.14-18.628-4.864-28.438-6.802
		C465.872,242.396,477.28,245.61,486.167,246.002 M459.585,85.914c5.591,3.049,14.414,8.813,21.017,6.801
		C476.526,88.176,466.003,84.047,459.585,85.914 M480.602,88.385v-3.091c-7.441-2.45-15.409-4.373-22.251-7.416
		c-0.358,2.006,0.417,2.877,0.619,4.326C466.69,83.51,473.104,88.845,480.602,88.385 M461.438,102.601
		c7.907,2.014,15.116,7.923,24.105,6.802c-4.321-6.185-16.27-4.743-21.016-10.508c6.548,0.872,10.24,4.593,16.689,5.561
		c0.442-6.563-10.417-6.777-16.689-8.653C463.838,98.408,461.296,99.165,461.438,102.601 M475.04,132.891
		c-3.954,0.242-4.419-3.002-9.275-1.854c-0.491,4.404,4.355,3.477,6.8,4.942c0.099-0.727-0.104-1.754,0.619-1.852
		c2.422,1.817,7.06-1.036,10.508-1.236c-2.649-6.214-13.119-4.605-17.927-8.656c-1.433,0.214-2.896,0.4-2.471,2.476
		C466.858,129.117,471.729,130.223,475.04,132.891 M483.072,126.088c1.9,0.462,1.189-1.693,3.095-1.234
		c-2.555-3.082-1.931-6.212-4.33-8.654c-1.074,0.329,0.67,2.979,0.618,4.326c-1.687-0.449-1.246,1.23-2.475,1.237
		c-2.592-5.033-9.708-5.539-16.069-6.798C466.586,122.384,477.941,121.125,483.072,126.088 M470.092,112.494
		c-1.674-0.91-6.235-3.64-6.181,0.617C466.584,113.191,467.985,113.896,470.092,112.494 M473.8,147.106
		c0.157-2.216-1.855-2.264-1.853-4.327h-4.326v2.473C469.315,146.233,472.105,146.124,473.8,147.106 M484.928,155.759v-3.09
		c-4.362,0.034-7.75-0.908-9.274-3.71c-2.071,1.985-5.515-1.128-6.797,1.238C473.675,152.439,479.172,156.405,484.928,155.759
		 M485.544,165.029c-2.846-0.771-7.38-5.355-10.504-1.854C477.136,165.179,482.79,169.334,485.544,165.029 M485.544,137.834
		c-2.545,0.486-1.159-2.958-3.707-2.472c-0.554,1.3-1.716,1.994-2.47,3.092C480.662,140.11,485.438,141.666,485.544,137.834
		 M514.596,84.678c-2.993-4.587-10.593-6.889-16.689-8.653c-5.399-1.564-11.033-1.803-15.451-4.327
		c-1.064-0.033-1.581,0.472-1.854,1.237C489.795,78.588,503.277,83.204,514.596,84.678 M481.837,150.814h3.707v-3.092
		c-2.143,0.497-2.376-0.917-4.326-0.616C481.137,148.631,481.123,150.084,481.837,150.814 M492.963,24.721
		c-1.128-0.802-6.803-2.701-7.419,0C487.115,25.081,491.988,27.783,492.963,24.721 M512.126,149.577
		c-0.285-2.604-3.466-2.305-3.709-4.944c-0.107-1.34,2.188-0.282,3.089-0.616c-4.455-5.022-11.357-7.601-19.778-8.654
		c-1.063,5.598,7.646,1.418,8.035,5.562c-3.502,1.067-6.117-3.36-8.035,0C496.888,145.448,503.998,148.021,512.126,149.577
		 M498.523,242.913c0.53-2.931-5.93-2.403-5.561,0H498.523z M500.997,192.845c1.099,5.136,7.55,1.608,9.273,0.621
		c-1.95-0.115-2.09-2.035-1.854-4.329c-0.735-0.714-2.189-0.7-3.712-0.619c-1.516,0.824,1.112,1.869-0.614,2.476
		c-1.114,0.077-1.45-0.616-1.238-1.856c-1.709,0.354-2.171,1.949-4.329,1.856c-0.634-1.429-0.831-3.291-3.087-3.091
		c-0.971,0.265-0.529,1.942-2.474,1.234v3.09C495.883,192.397,498.665,193.883,500.997,192.845 M509.651,179.865
		c-0.35-3.613-3.506-3.147-1.854-7.418c-3.48-1.051-6.297-2.768-9.891-3.707c-1.116,2.796-6.398,1.426-4.943,6.798
		C500.166,175.208,503.283,181.313,509.651,179.865 M509.651,165.647c0.776-6.607-5.531-11.114-10.51-8.032
		c-1.352-1.288,0.543-2-0.618-3.092c-2.034-0.027-3.076-1.044-5.561-0.62c1.149,3.796,0.447,2.623,0,6.799
		C499.214,161.663,503.219,164.872,509.651,165.647 M512.126,245.383c-0.94-2.77-5.241-2.176-8.035-3.09v1.855
		C507.499,243.827,508.103,246.314,512.126,245.383 M523.867,25.958c-0.887-1.586-2.183-2.762-3.091-4.327
		c-5.49,1.336-11.494-1.63-15.45,1.236C510.016,24.982,517.468,27.611,523.867,25.958 M517.068,228.078
		c3.965-0.464,6.285,0.721,9.89,0.616c-0.063-3.237,1.113-2.94,4.325-3.709v-3.089C524.654,219.133,511.168,219.644,517.068,228.078
		 M527.574,240.44c-0.98-3.288-9.229-5.116-11.123-1.855C518.404,240.677,524.161,241.818,527.574,240.44"/>
	<path clip-path="url(#SVGID_2_)" fill-rule="evenodd" clip-rule="evenodd" fill="#F7E4B9" d="M439.807,36.466
		c11.789,1.81,20.683,6.513,31.522,9.269C461.34,44.599,449.976,39.481,439.807,36.466"/>
	<path clip-path="url(#SVGID_2_)" fill-rule="evenodd" clip-rule="evenodd" fill="#F7E4B9" d="M513.359,32.141
		c5.535,1.882,10.846,3.988,17.925,4.325c0.188,1.87,1.914,2.209,1.235,4.946c-4.641-0.101-7.043-2.435-9.271-4.946
		C519.906,35.066,514.935,35.304,513.359,32.141"/>
</g>
</svg>
