<?xml version="1.0" encoding="utf-8"?>
<!-- Generator: Adobe Illustrator 15.1.0, SVG Export Plug-In  -->
<!DOCTYPE svg PUBLIC "-//W3C//DTD SVG 1.1//EN" "http://www.w3.org/Graphics/SVG/1.1/DTD/svg11.dtd" [
	<!ENTITY ns_flows "http://ns.adobe.com/Flows/1.0/">
]>
<svg version="1.1"
	 xmlns="http://www.w3.org/2000/svg" xmlns:xlink="http://www.w3.org/1999/xlink" xmlns:a="http://ns.adobe.com/AdobeSVGViewerExtensions/3.0/"
	 x="0px" y="0px" width="598px" height="598px" viewBox="0 0 598 598" enable-background="new 0 0 598 598" xml:space="preserve">
<defs>
</defs>
<g>
	<defs>
		<rect id="SVGID_1_" width="598.206" height="598.205"/>
	</defs>
	<clipPath id="SVGID_2_">
		<use xlink:href="#SVGID_1_"  overflow="visible"/>
	</clipPath>
	<path clip-path="url(#SVGID_2_)" fill="#020202" d="M271.436,164.671c-0.652,0-1.335,0.037-2.025,0.109
		c-9.528,0.991-15.764,5.02-18.538,11.981c-3.833,9.615-0.339,21.373,2.528,24.719c2.947,3.203,20.651,6.062,39.789,6.648
		c-0.492-11.684-3.014-30.393-11.311-38.978C278.927,166.095,275.608,164.671,271.436,164.671"/>
	<path clip-path="url(#SVGID_2_)" fill="#020202" d="M328.793,164.78c-0.692-0.072-1.374-0.109-2.026-0.109
		c-4.172,0-7.492,1.423-10.442,4.478c-8.297,8.586-10.817,27.295-11.312,38.979c19.139-0.586,36.843-3.446,39.791-6.649
		c2.867-3.345,6.359-15.103,2.525-24.719C344.555,169.8,338.319,165.771,328.793,164.78"/>
	<path clip-path="url(#SVGID_2_)" fill="#020202" d="M299.103,0C133.913,0,0,133.912,0,299.103
		c0,165.19,133.913,299.102,299.103,299.102c165.19,0,299.104-133.912,299.104-299.102C598.206,133.912,464.293,0,299.103,0
		 M279.805,444.638h-89.473V271.835h89.473V444.638z M279.805,257.087H169.72v-37.885h110.085V257.087z M299.139,219.202h-0.073
		h-6.696c-14.289,0-48.499-1.135-57.52-11.66c-6.75-7.873-10.33-25.443-4.908-39.047c4.724-11.85,15.421-19.217,30.124-20.744
		c9.456-0.979,17.618,1.945,24.03,8.594c10.889,11.287,14.107,30.916,15.005,43.798c0.899-12.882,4.117-32.511,15.006-43.798
		c6.416-6.649,14.577-9.573,24.029-8.594c14.704,1.527,25.401,8.894,30.127,20.744c5.422,13.604,1.84,31.174-4.909,39.047
		c-9.019,10.525-43.229,11.66-57.52,11.66H299.139z M407.872,444.638h-89.473V271.835h89.473V444.638z M428.486,257.087H318.399
		v-37.885h110.087V257.087z"/>
</g>
</svg>
