<?xml version="1.0" encoding="utf-8"?>
<!-- Generator: Adobe Illustrator 15.1.0, SVG Export Plug-In  -->
<!DOCTYPE svg PUBLIC "-//W3C//DTD SVG 1.1//EN" "http://www.w3.org/Graphics/SVG/1.1/DTD/svg11.dtd" [
	<!ENTITY ns_flows "http://ns.adobe.com/Flows/1.0/">
]>
<svg version="1.1"
	 xmlns="http://www.w3.org/2000/svg" xmlns:xlink="http://www.w3.org/1999/xlink" xmlns:a="http://ns.adobe.com/AdobeSVGViewerExtensions/3.0/"
	 x="0px" y="0px" width="598px" height="598px" viewBox="0 0 598 598" enable-background="new 0 0 598 598" xml:space="preserve">
<defs>
</defs>
<g>
	<defs>
		<rect id="SVGID_1_" x="0" y="0" width="598.206" height="598.205"/>
	</defs>
	<clipPath id="SVGID_2_">
		<use xlink:href="#SVGID_1_"  overflow="visible"/>
	</clipPath>
	<path clip-path="url(#SVGID_2_)" d="M299.103,0C133.913,0,0,133.913,0,299.104c0,165.189,133.913,299.103,299.103,299.103
		c165.19,0,299.104-133.913,299.104-299.103C598.207,133.913,464.293,0,299.103,0 M438.719,317.602
		c-0.021,0.053-0.042,0.105-0.063,0.16c-0.103,0.275-0.213,0.541-0.33,0.809c-27.103,68.416-78.11,115.959-124.943,159.48
		c-4.753,4.172-9.079,6.463-13.212,6.969v0.107c-0.12,0.006-0.242,0.006-0.365,0.006c-0.233,0-0.47-0.006-0.703-0.029
		c-0.235,0.023-0.465,0.029-0.698,0.029c-0.123,0-0.244,0-0.363-0.006v-0.107c-4.134-0.506-8.464-2.797-13.221-6.969
		c-46.832-43.521-97.843-91.064-124.95-159.48c-0.103-0.268-0.216-0.533-0.323-0.809c-0.018-0.055-0.036-0.107-0.063-0.16h0.005
		c-6.615-16.914-10.248-35.32-10.248-54.58c0-82.428,66.51-149.313,148.8-149.934v-0.006c0.321,0,0.644-0.007,0.971-0.007h0.09
		h0.093c0.326,0,0.646,0.007,0.976,0.007v0.006c82.278,0.621,148.793,67.506,148.793,149.934c0,19.26-3.633,37.666-10.25,54.58
		H438.719z"/>
	<path clip-path="url(#SVGID_2_)" d="M295.918,169.577c-52.373,0-94.986,42.609-94.986,94.986c0,52.379,42.613,94.983,94.986,94.983
		c52.374,0,94.983-42.604,94.983-94.983C390.902,212.186,348.292,169.577,295.918,169.577"/>
</g>
</svg>
