<?xml version="1.0" encoding="utf-8"?>
<!-- Generator: Adobe Illustrator 15.1.0, SVG Export Plug-In  -->
<!DOCTYPE svg PUBLIC "-//W3C//DTD SVG 1.1//EN" "http://www.w3.org/Graphics/SVG/1.1/DTD/svg11.dtd" [
	<!ENTITY ns_flows "http://ns.adobe.com/Flows/1.0/">
]>
<svg version="1.1"
	 xmlns="http://www.w3.org/2000/svg" xmlns:xlink="http://www.w3.org/1999/xlink" xmlns:a="http://ns.adobe.com/AdobeSVGViewerExtensions/3.0/"
	 x="0px" y="0px" width="70px" height="14px" viewBox="232.938 0 70 14" enable-background="new 232.938 0 70 14"
	 xml:space="preserve">
<defs>
</defs>
<g>
	<defs>
		<rect id="SVGID_1_" y="0" width="303.417" height="14.289"/>
	</defs>
	<clipPath id="SVGID_2_">
		<use xlink:href="#SVGID_1_"  overflow="visible"/>
	</clipPath>
	<path clip-path="url(#SVGID_2_)" d="M233.041,7.143c0-3.945,4.925-7.143,10.999-7.143c3.611,0,6.814,1.13,8.82,2.874
		c0.454,0.397,0.847,0.823,1.168,1.278c0.036,0.039,0.072,0.078,0.109,0.12c0.085,0.1,0.175,0.195,0.268,0.287
		c1.579,1.532,4.063,1.688,4.942,1.686l42.638-1.343c0.792,0,1.431,0.641,1.431,1.43v1.623c0,0.791-0.639,1.432-1.431,1.432
		l-42.64-1.344c-0.853,0-3.216,0.147-4.8,1.552c-0.033,0.031-0.064,0.06-0.098,0.091c-0.001,0.002-0.005,0.005-0.009,0.008
		c-0.104,0.102-0.206,0.209-0.302,0.321c-0.04,0.046-0.075,0.088-0.114,0.13c-1.745,2.447-5.558,4.145-9.983,4.145
		C237.966,14.289,233.041,11.089,233.041,7.143"/>
	<path clip-path="url(#SVGID_2_)" fill="#F6E4B9" d="M65.347,4.687c4.071,0.478,3.897,0.502,3.893,0.744
		c-0.005,0.384-13.921-0.022-14.497,0.17c-0.576,0.193-0.431,0.769,0.144,0.769c0.577,0,13.003,0.914,13.628,0.914
		c0.624,0,0.79,0.375,0.504,0.471C68.729,7.852,55.271,7.81,54.743,8.002c-0.492,0.182-0.484,0.402-0.481,0.43v0.003v0.002
		c-0.003,0.027-0.011,0.247,0.481,0.428c0.528,0.192,13.987,0.153,14.276,0.248c0.286,0.098,0.12,0.473-0.504,0.473
		c-0.625,0-13.051,0.914-13.628,0.914c-0.575,0-0.72,0.576-0.144,0.769c0.576,0.191,14.492-0.215,14.497,0.171
		c0.004,0.24,0.178,0.267-3.893,0.742c-4.374,0.513-12.008,0.669-15.964,0.48c-0.11-0.005-0.629-0.089-0.726-0.116
		c-0.953-0.272-2.174-0.998-2.988-1.546c-0.447-0.304-0.882-0.608-1.32-0.937c-0.379-0.283-0.73-0.488-1.156-0.704
		c-0.377-0.189-0.86-0.116-1.274-0.106c-1.625,0.039-39.936,1.279-40.561,1.299c-0.739,0.026-1.355-0.632-1.355-1.351
		c-0.006-0.426-0.006-1.675,0.044-1.87c0.096-0.377,0.36-0.702,0.709-0.874c0.21-0.105,0.436-0.148,0.667-0.139
		c0.802,0.027,39.54,1.277,41.033,1.312c0.176,0.005,0.49-0.003,0.653-0.071c0.195-0.084,0.41-0.205,0.584-0.328
		c0.832-0.579,1.615-1.142,2.473-1.686c0.535-0.34,1.269-0.738,1.988-0.995c0.448-0.199,0.867-0.326,1.229-0.343
		C53.339,4.018,60.973,4.175,65.347,4.687"/>
</g>
</svg>
