<?xml version="1.0" encoding="utf-8"?>
<!-- Generator: Adobe Illustrator 15.1.0, SVG Export Plug-In  -->
<!DOCTYPE svg PUBLIC "-//W3C//DTD SVG 1.1//EN" "http://www.w3.org/Graphics/SVG/1.1/DTD/svg11.dtd" [
	<!ENTITY ns_flows "http://ns.adobe.com/Flows/1.0/">
]>
<svg version="1.1"
	 xmlns="http://www.w3.org/2000/svg" xmlns:xlink="http://www.w3.org/1999/xlink" xmlns:a="http://ns.adobe.com/AdobeSVGViewerExtensions/3.0/"
	 x="0px" y="0px" width="260px" height="43px" viewBox="0 0 260 43" enable-background="new 0 0 260 43" xml:space="preserve">
<defs>
</defs>
<g>
	<defs>
		<rect id="SVGID_1_" x="0" width="260.395" height="43.424"/>
	</defs>
	<clipPath id="SVGID_2_">
		<use xlink:href="#SVGID_1_"  overflow="visible"/>
	</clipPath>
	<path clip-path="url(#SVGID_2_)" fill-rule="evenodd" clip-rule="evenodd" fill="#231F20" d="M187.448,14.37
		c0.302-0.461,0.926-0.59,1.455-0.841c0.137-0.067,0.226-0.164,0.383-0.23c1.426-0.586,3.342-1.074,5.208-1.3
		c1.44-0.173,3.606,0.02,4.826,0.229c0.507,0.089,1.048,0.11,1.453,0.23c0.598,0.177,1.368,0.638,2.069,0.994
		c0.478,0.243,0.982,0.481,1.53,0.764c0.195,0.099,0.458,0.171,0.538,0.23c-0.024-0.018,0.037,0.19,0.151,0.305
		c0.075,0.075,0.256,0.1,0.308,0.152c0.065,0.069,0.084,0.234,0.153,0.306c0.153,0.163,0.569,0.673,0.688,0.994
		c0.084,0.224,0.275,0.928,0.23,1.147c-0.059,0.274-0.155,0.052-0.307,0.229c-0.211,0.245,0.08,0.334-0.153,0.382
		c-0.528,0.108-1.034-1.097-1.456-1.452c-0.611-0.515-1.591-0.941-2.374-1.452c-0.25-0.164-0.44-0.408-0.688-0.535
		c-0.285-0.146-0.695-0.242-1.074-0.381c-0.668-0.247-1.309-0.459-2.221-0.612c-0.775-0.133-1.605-0.212-2.604-0.306
		c-1.096-0.103-2.604-0.16-4.135,0.076C190.066,13.508,188.742,13.92,187.448,14.37"/>
	<path clip-path="url(#SVGID_2_)" fill-rule="evenodd" clip-rule="evenodd" fill="#231F20" d="M201.081,30.342
		c-0.269,0.2,0.275,0.229,0.229,0.459c-1.264,1.237-2.82,2.146-4.365,2.218c-0.545,0.023-1.609-0.066-2.146-0.23
		c-0.52-0.158-1.484-0.853-1.989-1.222c-0.352-0.258-0.348-0.36-0.691-0.841c-0.302-0.422-0.468-0.594-0.688-1.224
		c-0.643-1.832,0.077-3.786,1.148-4.89c0.458-0.476,0.705-0.629,1.456-0.918c0.552-0.212,1.066-0.441,1.989-0.307
		c0.705,0.102,1.715,0.574,2.07,0.917c0.107,0.104,0.253,0.42,0.383,0.612c0.16,0.242,0.354,0.451,0.383,0.611
		c0.073,0.415-0.156,1.329-0.231,1.451c-0.273,0.451-1.135,0.776-1.839,0.688c-0.591-0.073-1.362-0.634-1.453-1.223
		c-0.104-0.678,0.192-0.773,0.459-1.375c-0.488-0.188-1.057-0.041-1.455,0.152c-0.852,0.409-1.688,1.555-1.685,2.826
		c0.002,1.166,0.746,2.287,1.608,2.828c0.088,0.058,0.239,0.007,0.383,0.078c0.087,0.041,0.137,0.191,0.229,0.229
		c1.337,0.538,2.938,0.157,4.058-0.459c0.862-0.475,1.389-0.967,1.917-1.76c0.368-0.553,0.661-1.178,0.765-2.063
		c0.078-0.659-0.103-1.288,0.306-1.832c-0.165-0.283-0.169,0.228-0.382,0.152c-0.116-0.908-0.424-1.469-0.843-2.293
		c-0.376-0.748-0.682-1.512-1.149-2.142c-0.737-0.995-1.515-1.495-2.758-2.063c-0.507-0.231-0.975-0.634-1.453-0.841
		c-0.384-0.163-0.873-0.161-1.381-0.305c-0.408-0.115-0.827-0.381-1.224-0.458c-0.925-0.179-2.214-0.164-3.217-0.154
		c-0.492,0.005-1.395,0.081-1.991,0.154c-1.022,0.123-2.163,0.415-3.294,0.688c-2.578,0.62-4.625,1.737-6.737,3.132
		c-0.106,0.069-0.9,0.865-1.152,0.612c-0.188-0.189-0.128-0.126,0.308-0.612c0.471-0.52,0.422-0.445,0.535-0.534
		c2.458-1.907,5.746-3.57,9.574-4.204c1.253-0.207,2.994-0.415,4.521-0.306c0.501,0.037,1.06,0.167,1.607,0.229
		c1.15,0.134,1.731,0.247,2.604,0.536c0.187,0.062,0.388,0.085,0.534,0.153c0.354,0.159,0.877,0.4,1.304,0.611
		c0.32,0.158,0.697,0.238,0.919,0.383c0.227,0.145,0.421,0.418,0.688,0.612c0.607,0.432,1.077,0.677,1.611,1.375
		c0.112,0.149,0.184,0.364,0.306,0.534c0.333,0.468,0.596,0.98,0.919,1.605c0.196,0.384,0.503,0.779,0.612,1.071
		c0.224,0.599,0.33,1.348,0.459,1.986c0.135,0.666,0.218,1.373,0.152,2.064c-0.076,0.823-0.438,2.185-0.994,2.827
		C201.727,30.199,201.68,30.208,201.081,30.342 M189.746,16.815c0.104-0.097,0.104-0.362,0-0.459h-0.23
		C189.511,16.59,189.584,16.746,189.746,16.815 M191.737,28.661c1.204,0.087,0.728-1.303-0.076-1.299
		C191.631,27.848,191.796,28.144,191.737,28.661"/>
	<path clip-path="url(#SVGID_2_)" fill-rule="evenodd" clip-rule="evenodd" fill="#231F20" d="M246.267,35.082
		c-0.631-0.234-1.247-0.642-1.838-0.918c-0.324-0.151-0.6-0.303-0.92-0.459c-0.334-0.162-0.722-0.23-1.071-0.382
		c-0.358-0.155-0.631-0.384-0.994-0.535c-0.383-0.155-0.771-0.293-1.15-0.458c-0.393-0.169-0.787-0.256-1.147-0.459
		c-0.318-0.178-0.577-0.499-0.922-0.687c-0.141-0.08-0.381-0.081-0.533-0.155c-0.161-0.072-0.309-0.223-0.462-0.304
		c-1.631-0.879-3.313-1.827-4.978-2.523c-2.18-0.911-4.886-1.788-7.428-2.215c-0.742-0.125-1.322-0.207-1.993-0.306
		c-2.057-0.312-4.382-0.224-6.586-0.23c0.17,0.511-0.198,0.579-0.307,0.994c0.636,0.025,1.321-0.036,1.993,0
		c0.36,0.018,0.809,0.207,1.071,0.153c0.354-0.075,0.384-0.709,0.765-0.384c0.284,0.056-0.238,0.437,0.154,0.384
		c1.796,0.21,3.443,0.29,4.979,0.61c0.498,0.104,0.957,0.338,1.455,0.459c0.449,0.109,0.892,0.11,1.302,0.229
		c0.395,0.116,0.764,0.256,1.148,0.383c1.159,0.378,2.398,0.744,3.446,1.223c0.723,0.332,1.476,0.582,2.145,0.917
		c0.34,0.17,0.646,0.455,0.995,0.61c0.256,0.116,0.578,0.117,0.844,0.231c0.181,0.076,0.354,0.206,0.537,0.306
		c0.634,0.346,1.158,0.705,1.76,0.993c0.401,0.19,0.851,0.315,1.301,0.459c0.456,0.143,0.937,0.365,1.381,0.457
		c0.261,0.055,0.579-0.014,0.843,0.077c0.232,0.081,0.391,0.349,0.612,0.459c0.26,0.13,0.605,0.174,0.919,0.306
		c0.273,0.114,0.562,0.265,0.842,0.381c0.453,0.188,0.896,0.288,1.379,0.459c0.438,0.155,0.951,0.409,1.533,0.383
		C247.108,35.067,246.63,35.215,246.267,35.082 M225.512,27.134c-0.104,0.034-0.365,0.081-0.383,0.075
		c-0.056-0.016-0.331-0.433-0.306-0.536c0.009-0.039,0.186-0.129,0.229-0.151C225.48,26.286,226.335,26.855,225.512,27.134"/>
	<path clip-path="url(#SVGID_2_)" fill-rule="evenodd" clip-rule="evenodd" fill="#231F20" d="M214.866,25.604
		c-0.903,0.122-1.793,0.206-2.68,0.384c-0.584,0.116-1.177,0.35-1.763,0.534c-0.604,0.19-1.204,0.353-1.762,0.535
		c-0.619,0.202-1.26,0.28-1.685,0.611c1.057,0.042,2.063-0.386,3.14-0.611c1.531-0.321,3.277-0.563,4.826-0.535
		C215.004,26.203,215.427,25.529,214.866,25.604"/>
	<path clip-path="url(#SVGID_2_)" fill-rule="evenodd" clip-rule="evenodd" fill="#231F20" d="M257.066,41.424
		c-0.255,0.146,0.492,0.133,0.154,0.382c-0.482,0.338-1.06,0.501-1.685,0.766c-0.772,0.326-2.383,0.716-3.601,0.688
		c-0.342-0.008-0.655-0.129-0.996-0.151c-0.744-0.055-1.446,0.105-2.221,0c-0.213-0.031-0.458-0.11-0.689-0.154
		c-0.711-0.135-1.201-0.365-1.838-0.535c-0.26-0.068-0.523-0.009-0.766-0.076c-0.177-0.048-0.366-0.177-0.537-0.229
		c-0.794-0.246-1.42-0.615-2.145-0.994c-1.413-0.738-2.885-1.361-4.288-2.063c-1.393-0.697-2.801-1.403-4.135-2.217
		c-1.349-0.819-2.768-1.468-4.213-2.14c-1.458-0.675-3.077-1.112-4.826-1.528c-1.683-0.398-3.409-0.907-5.131-1.222
		c-3.148-0.576-6.845-0.661-10.416-0.307c-0.201,0.021-0.413,0.148-0.612,0.154c-0.253,0.004-0.442-0.107-0.69-0.076
		c-0.342,0.038-0.637,0.236-0.996,0.305c-1.405,0.27-3.022,0.169-4.594,0.612c0.026-0.3,0.4-0.294,0.611-0.384
		c2.31-0.981,5.151-1.654,8.042-2.139c2.328-0.393,4.913-0.489,7.582-0.23c1.239,0.12,2.438,0.389,3.523,0.611
		c1.154,0.236,2.277,0.433,3.371,0.765c0.537,0.163,1.095,0.294,1.608,0.46c0.547,0.176,1.102,0.27,1.607,0.458
		c0.173,0.064,0.288,0.23,0.461,0.306c0.508,0.225,1.095,0.381,1.607,0.611c1.369,0.612,2.676,1.188,3.904,1.987
		c0.579,0.373,1.098,0.89,1.687,1.223c0.435,0.245,0.938,0.353,1.377,0.61c0.106,0.062,0.187,0.16,0.308,0.229
		c0.619,0.355,1.346,0.849,2.069,1.225c0.41,0.213,0.872,0.382,1.301,0.611c0.448,0.238,0.795,0.586,1.227,0.841
		c0.834,0.49,1.852,0.82,2.832,1.222c0.446,0.185,0.951,0.502,1.381,0.612c0.448,0.113,0.954,0.02,1.53,0.077
		c1.427,0.138,3.138,0.436,4.211,0.306c0.496-0.062,1.069-0.337,1.687-0.538c1.195-0.386,2.008-0.762,2.833-1.603
		c0.75-0.764,1.539-1.73,1.456-3.211c-0.035-0.604-0.321-1.358-0.536-1.682c-0.394-0.585-1.299-1.114-2.452-0.839
		c-0.742,0.177-1.446,0.753-1.301,1.987c0.028,0.245,0.382,1.177,0.767,0.991c0.321-0.153,0.009-0.772,0.075-0.991
		c0.269-0.871,1.609-0.658,1.763,0.228c0.182,1.056-0.592,1.798-1.455,1.836c-1.438,0.061-2.43-1.428-2.146-2.981
		c0.08-0.433,0.499-1.087,0.768-1.375c0.2-0.218,0.916-0.739,1.225-0.841c0.768-0.252,1.73-0.094,2.222,0.076
		c0.354,0.122,1.318,0.803,1.606,1.146c0.87,1.036,1.047,2.927,0.461,4.356c-0.152,0.371-0.498,0.926-0.767,1.3
		c-0.265,0.37-0.684,0.958-0.921,1.07c-0.368,0.177-0.531-0.116-0.84,0C257.452,40.994,257.372,41.469,257.066,41.424
		 M235.928,36.915c0.3-0.005,0.303-0.308,0.46-0.458c-0.233,0.055-0.226-0.132-0.46-0.077
		C235.819,36.481,235.819,36.813,235.928,36.915"/>
	<path clip-path="url(#SVGID_2_)" fill-rule="evenodd" clip-rule="evenodd" fill="#231F20" d="M208.893,9.937
		c0.301,0.123,0.026-0.33,0.229-0.306c0.866,0.205,1.742,0.404,1.762,1.452c-0.36,0.105-0.74,0.13-1.072,0
		c-0.072-0.028-0.222-0.152-0.229-0.154c-0.159-0.026-0.318,0.108-0.461,0.079c-1.684-0.347-3.272-1.059-5.131-1.222
		c-0.387-0.037-0.826,0.03-1.225,0c-1.757-0.141-3.949-0.12-6.128,0.075c0.104-0.263,0.507-0.309,0.765-0.382
		c0.798-0.229,1.633-0.251,2.605-0.384c1.354-0.183,3.019-0.482,4.824-0.381c0.93,0.052,1.923,0.229,2.91,0.46
		c0.387,0.089,0.878,0.189,0.919,0.227C208.782,9.507,208.694,9.946,208.893,9.937"/>
	<path clip-path="url(#SVGID_2_)" fill-rule="evenodd" clip-rule="evenodd" fill="#231F20" d="M150.684,8.102
		c0.559-0.048,0.163-0.483,0.385-0.612c3.145,0.044,5.137,0.903,7.351,1.989c1.5,0.735,2.96,1.621,4.062,2.674
		c1.022,0.982,1.905,2.5,2.835,3.899c0.562,0.849,1.245,2.085,1.758,3.286c0.177,0.412,0.333,0.996,0.537,1.069
		c0.268,0.097,1.034-0.3,1.533-0.457c0.617-0.198,1.149-0.325,1.53-0.46c1.03-0.367,2.465-0.778,2.987-0.993
		c0.604-0.249,1.737-0.875,2.298-1.299c0.766-0.578,1.303-1.259,1.838-1.91c0.465-0.568,1.264-1.425,1.532-2.141
		c0.128-0.346,0.317-1.201,0.382-1.606c0.243-1.479-0.163-2.655-0.765-3.745c-0.315-0.569-0.763-1.243-1.227-1.528
		c-1.488-0.916-3.815-1.273-5.284-0.153c-0.509,0.388-1.226,1.187-1.379,1.759c-0.482,1.808-0.27,4.391,1.763,4.432
		c0.682,0.014,0.984-0.209,1.455-0.688c-0.939,0.181-1.611-0.043-1.839-0.61c-0.284-0.711,0.247-1.84,0.843-1.989
		c0.783-0.194,2.144,0.557,2.374,1.071c0.262,0.582,0.195,1.226-0.077,1.834c-0.479,1.069-2.156,2.07-3.676,1.528
		c-0.502-0.178-1.36-0.75-1.684-1.299c-0.128-0.213-0.242-0.576-0.385-0.917c-0.31-0.746-0.353-0.876-0.308-1.835
		c0.03-0.589,0.082-0.923,0.231-1.527c0.168-0.684,0.221-0.902,0.612-1.453c0.919-1.29,2.442-2.405,4.366-2.446
		c2.253-0.046,4.07,1.055,5.054,2.523c0.092,0.138,0.127,0.313,0.231,0.458c0.083,0.117,0.25,0.198,0.307,0.306
		c0.188,0.367,0.301,0.969,0.459,1.452c0.172,0.526,0.416,1.065,0.46,1.453c0.057,0.504-0.072,1.05-0.154,1.528
		c-0.146,0.842-0.275,1.226-0.459,1.757c-0.172,0.502-0.191,0.649-0.459,1.07c-0.659,1.041-1.585,1.893-2.452,2.829
		c-0.469,0.506-1.027,0.868-1.761,1.375c-0.699,0.484-1.304,0.818-2.223,1.146c-0.503,0.181-1.1,0.304-1.684,0.535
		c-0.279,0.112-0.463,0.302-0.688,0.382c-0.527,0.19-0.985,0.285-1.687,0.535c-0.36,0.13-1.542,0.401-1.607,0.535
		c-0.031,0.062,0.417,1.41,0.459,1.605c0.065,0.299,0.094,0.588,0.154,0.842c0.29,1.221,0.611,2.834,0.306,4.508
		c-0.092,0.514-0.336,1.065-0.612,1.606c-0.486,0.946-0.833,1.448-1.61,2.063c-0.532,0.423-0.973,0.62-1.76,0.841
		c-0.555,0.153-1.308,0.35-2.299,0.152c-0.542-0.107-1.806-0.95-2.143-1.375c-0.151-0.192-0.313-0.481-0.46-0.84
		c-0.176-0.432-0.219-0.485-0.23-1.071c0-0.012,0.104-0.079,0.074-0.154c-0.005-0.019-0.148-0.064-0.15-0.075
		c-0.405-2.329,0.267-4.721,1.531-5.96c0.146-0.143,0.369-0.303,0.536-0.459c0.45-0.421,0.772-0.562,1.455-0.993
		c0.62-0.394,0.877-0.627,1.686-0.994c0.325-0.149,0.756-0.22,0.842-0.382c0.094-0.178-0.324-1.037-0.46-1.3
		c-0.282-0.557-0.447-0.85-0.687-1.223c-0.509-0.783-1.09-1.657-1.533-2.292c-0.759-1.084-1.786-2.01-2.757-2.982
		c-0.344-0.343-0.615-0.705-0.92-0.916c-0.288-0.199-0.714-0.331-1.073-0.535c-0.643-0.368-1.301-0.808-2.065-1.147
		c-0.359-0.156-0.747-0.336-1.074-0.459c-0.389-0.142-0.874-0.18-1.301-0.306c-0.365-0.105-0.695-0.244-1.073-0.306
		c-4.192-0.673-7.816,0.695-10.033,2.6c-0.292,0.252-0.562,0.554-0.842,0.841c-0.294,0.302-0.638,0.549-0.843,0.84
		c-0.063,0.089-0.063,0.307-0.153,0.459c-0.183,0.305-0.468,0.655-0.613,1.146c-0.333,1.128-0.597,3.079-0.306,4.585
		c0.199,1.03,0.764,2.201,1.378,2.981c0.551,0.697,1.186,1.498,2.068,1.987c0.267,0.147,0.603,0.177,0.92,0.306
		c0.283,0.113,0.542,0.329,0.765,0.383c0.486,0.113,1.147,0.12,1.61,0.075c1.487-0.14,2.953-1.033,3.827-1.909
		c0.588-0.588,0.956-1.202,1.379-2.216c0.275-0.658,0.636-1.372,0.536-2.37c-0.028-0.291-0.191-0.646-0.305-0.993
		c-0.373-1.131-1.009-2.293-2.299-2.752c-0.477-0.17-1.222-0.308-2.067-0.154c-0.279,0.052-0.653,0.305-0.996,0.612
		c-0.246,0.222-0.775,0.588-0.613,0.917c0.09,0.181,0.846-0.108,1.304,0.078c0.203,0.083,0.896,0.726,0.841,1.527
		c-0.063,0.934-1.33,1.747-2.45,1.148c-0.957-0.516-1.258-2.009-0.92-2.982c0.174-0.5,0.984-1.68,1.379-1.986
		c0.191-0.15,0.996-0.54,1.303-0.612c0.966-0.228,2.415-0.05,3.063,0.229c0.228,0.098,0.461,0.315,0.689,0.457
		c0.728,0.46,0.865,0.66,1.379,1.379c0.519,0.723,0.866,1.174,1.073,2.292c0.285,1.536-0.035,2.53-0.613,3.821
		c-0.549,1.227-0.949,1.88-1.762,2.751c-0.452,0.482-0.58,0.654-1.072,0.995c-0.566,0.39-1.938,0.856-2.834,1.068
		c-2.378,0.56-4.91-0.557-6.434-1.986c-1.752-1.648-2.892-4.652-2.603-7.719c0.065-0.707,0.156-1.601,0.382-2.294
		c0.077-0.233,0.275-0.44,0.383-0.688c0.266-0.612,0.406-0.975,0.767-1.528c0.313-0.484,0.52-0.711,0.919-1.147
		c0.337-0.366,0.706-0.849,1.149-1.223c0.161-0.136,0.379-0.16,0.535-0.306c0.267-0.246,0.389-0.503,0.766-0.763
		c0.646-0.445,1.717-0.914,2.681-1.223c0.388-0.124,0.825-0.19,1.226-0.306c0.744-0.216,0.989-0.395,1.992-0.459
		C150.182,7.521,150.647,7.319,150.684,8.102 M142.873,10.929c-0.033-0.142,0.104-0.459-0.152-0.381
		C142.734,10.797,142.54,10.916,142.873,10.929 M166.002,22.622c-0.716,0.36-1.448,0.672-2.145,1.147
		c-0.57,0.39-1.437,1.016-1.838,1.529c-0.516,0.66-0.89,1.573-0.996,2.37c-0.14,1.042,0.075,2.543,0.46,3.208
		c0.543,0.938,2.414,1.484,3.676,0.919c0.906-0.407,1.405-0.948,1.763-1.606c0.475-0.874,0.864-1.869,0.765-3.287
		c-0.093-1.345-0.449-2.921-0.92-3.896c-0.239-0.502-0.177-0.484-0.612-0.458C166.057,22.553,166.056,22.597,166.002,22.622"/>
	<path clip-path="url(#SVGID_2_)" fill-rule="evenodd" clip-rule="evenodd" fill="#231F20" d="M63.835,9.706
		c-0.224,0.297-0.584,0.026-0.843,0c-1.341-0.133-3.312-0.106-4.824,0c-1.368,0.1-2.703,0.518-3.983,0.842
		c-0.665,0.167-1.355,0.24-1.992,0.381c-0.671,0.152-1.319,0.467-1.991,0.231c-0.249-0.465,0.262-0.715,0.536-0.917
		C53.529,8.17,60.371,8.513,63.835,9.706"/>
	<path clip-path="url(#SVGID_2_)" fill-rule="evenodd" clip-rule="evenodd" fill="#231F20" d="M53.879,27.975
		c-2.799-0.713-5.551-1.289-9.038-1.302c-1.069-0.003-2.172,0.183-3.294,0.307c-1.08,0.12-2.202,0.054-3.14,0.229
		c-0.632,0.118-1.278,0.452-1.915,0.611c-0.29,0.073-0.83,0.263-1.148,0.305c-0.405,0.057-0.808-0.031-1.149,0
		c-0.628,0.06-1.153,0.235-1.685,0.383c-0.241,0.067-0.574,0.124-0.842,0.23c-0.382,0.149-0.444,0.287-1.072,0.382
		c-0.315,0.048-1.219,0.321-1.609,0.535c-0.172,0.095-0.272,0.313-0.46,0.381c-0.124,0.047-0.311-0.024-0.459,0
		c-0.193,0.033-0.681,0.191-0.996,0.306c-0.819,0.297-1.581,0.645-2.374,0.994c-0.41,0.181-0.829,0.293-1.225,0.46
		c-0.383,0.158-0.714,0.427-1.073,0.611c-0.585,0.298-1.164,0.446-1.684,0.763c-0.375,0.23-0.916,0.369-1.379,0.611
		c-0.49,0.258-0.922,0.735-1.455,0.917c-0.587,0.204-1.316,0.195-1.992,0.384c-1.03,0.287-1.614,1.061-2.987,0.687
		c0.249-0.286,0.683-0.144,0.996-0.229c0.174-0.048,0.373-0.15,0.537-0.229c0.172-0.084,0.294-0.228,0.459-0.307
		c0.199-0.093,0.43-0.063,0.612-0.152c0.143-0.07,0.236-0.245,0.383-0.306c0.607-0.25,1.352-0.284,1.916-0.535
		c0.423-0.188,0.665-0.648,1.071-0.916c0.334-0.221,0.901-0.419,1.379-0.688c0.31-0.177,0.624-0.325,0.996-0.536
		c0.104-0.06,0.159-0.199,0.23-0.229c0.207-0.09,0.478-0.07,0.689-0.153c0.575-0.228,1.198-0.638,1.838-0.917
		c0.473-0.205,0.913-0.391,1.378-0.688c0.136-0.088,0.263-0.253,0.383-0.306c0.257-0.111,0.556-0.05,0.843-0.152
		c0.506-0.182,0.976-0.509,1.608-0.688c0.606-0.174,1.259-0.245,1.839-0.459c0.429-0.158,0.857-0.435,1.3-0.611
		c0.468-0.186,0.988-0.46,1.379-0.535c0.299-0.056,0.621,0.028,0.919,0c0.502-0.047,1.068-0.209,1.61-0.306
		c0.55-0.097,1.166-0.119,1.684-0.229c0.323-0.066,0.592-0.311,0.919-0.383c0.495-0.107,1.077-0.012,1.61-0.075
		c0.499-0.06,0.974-0.19,1.454-0.229c1.117-0.091,2.406-0.158,3.447-0.153c0.438,0.002,0.842,0.117,1.302,0.153
		c0.319,0.025,0.686-0.03,0.995,0c0.591,0.058,1.285,0.174,2.067,0.305c1.212,0.204,2.432,0.619,3.601,0.994
		c0.27,0.087,0.57,0.192,0.842,0.305C53.414,27.61,53.818,27.672,53.879,27.975"/>
	<path clip-path="url(#SVGID_2_)" fill-rule="evenodd" clip-rule="evenodd" fill="#231F20" d="M43.232,30.114
		c1.335-0.061,3.709-0.058,5.362,0.151c0.562,0.071,1.157,0.211,1.686,0.306c0.547,0.099,1.051,0.21,1.531,0.306
		c0.881,0.179,2.979,0.459,2.987,0.995c0.003,0.263-0.317,0.409-0.69,0.458c-0.234,0.03-0.562-0.095-0.995-0.151
		c-1.337-0.187-2.811-0.183-4.289-0.307c-0.811-0.069-1.577-0.225-1.992-0.23c-1.178-0.018-2.364,0.188-3.522,0.306
		c-2.207,0.228-4.535,0.555-6.663,0.994c-0.506,0.104-1.001,0.283-1.455,0.459c-0.345,0.131-0.566,0.245-0.996,0.38
		c-0.532,0.171-1.444,0.233-2.145,0.459c-0.497,0.161-1.016,0.449-1.532,0.69c-0.522,0.242-1.079,0.433-1.531,0.687
		c-0.565,0.317-1.033,0.732-1.609,0.994c-0.607,0.274-1.247,0.451-1.838,0.765c-0.477,0.253-0.811,0.609-1.226,0.916
		c-1.192,0.879-2.554,1.733-4.059,2.37c-0.5,0.211-1.034,0.358-1.532,0.612c-0.49,0.247-0.914,0.508-1.455,0.687
		c-0.269,0.089-0.581,0.146-0.842,0.229c-0.285,0.089-0.55,0.146-0.843,0.229c-0.705,0.2-1.193,0.47-2.067,0.688
		c-0.388,0.097-0.849,0.148-1.455,0.229c-1.78,0.237-3.879-0.02-5.668-0.534c-0.83-0.24-1.738-0.318-2.298-0.535
		c-0.245-0.096-0.694-0.392-1.072-0.611c-0.385-0.226-0.834-0.471-0.996-0.611c-0.083-0.072-0.127-0.266-0.23-0.382
		c-0.471-0.536-1.347-1.347-1.608-2.142c-0.031-0.09,0.031-0.314,0-0.458c-0.031-0.141-0.141-0.205-0.154-0.306
		c-0.082-0.672-0.021-1.681,0.154-2.14c0.119-0.313,0.713-1.145,0.995-1.377c0.231-0.187,0.699-0.361,1.072-0.533
		c0.696-0.321,1.182-0.556,1.992-0.383c1.547,0.331,2.831,2.04,2.145,3.669c-0.239,0.565-0.702,1.044-1.531,1.069
		c-0.968,0.032-2.213-0.715-1.762-1.835c0.274-0.682,1.5-0.539,1.684,0.154c0.096,0.362-0.168,0.688,0,0.841
		c0.295,0.267,0.779-0.338,0.842-0.688c0.198-1.083-0.706-2.021-1.608-2.142c-0.786-0.104-1.325,0.198-1.685,0.459
		c-1.116,0.81-1.223,2.643-0.459,3.897c0.106,0.175,0.232,0.276,0.382,0.459c0.837,1.01,2.051,1.714,3.677,2.141
		c0.448,0.117,0.873,0.302,1.303,0.382c0.57,0.107,1.319,0.146,1.838,0.229c0.854,0.138,2.096,0.271,2.91,0.152
		c0.897-0.13,1.753-0.569,2.603-0.839c0.322-0.104,0.635-0.13,0.919-0.23c0.32-0.113,0.611-0.316,0.92-0.459
		c0.637-0.292,1.255-0.531,1.914-0.839c0.324-0.152,0.694-0.238,0.996-0.385c0.529-0.255,1.076-0.721,1.608-1.069
		c0.553-0.363,1.181-0.614,1.685-0.916c0.404-0.243,0.678-0.661,1.072-0.918c0.214-0.142,0.522-0.174,0.767-0.306
		c0.807-0.436,1.713-1.203,2.604-1.681c0.138-0.076,0.266-0.083,0.382-0.154c0.404-0.245,1.155-0.812,1.609-0.993
		c0.466-0.186,0.999-0.19,1.532-0.382c0.364-0.131,0.706-0.338,1.072-0.459c0.719-0.236,1.475-0.405,2.221-0.687
		c0.341-0.13,0.671-0.367,0.996-0.46c0.365-0.104,0.844-0.124,1.302-0.229c0.732-0.168,1.528-0.267,2.45-0.46
		c0.83-0.171,1.664-0.317,2.758-0.457C42.038,30.109,42.641,30.14,43.232,30.114 M27.762,35.388c0.75-0.059,0.705-0.975-0.076-0.995
		C27.539,34.634,27.7,35.111,27.762,35.388"/>
	<path clip-path="url(#SVGID_2_)" fill-rule="evenodd" clip-rule="evenodd" fill="#F7E4B9" d="M58.014,33.019
		c-1.172-0.079-2.207-0.294-3.14-0.612c-0.135-0.186,0.191-0.183,0.306-0.306c0.04-0.041,0.035-0.286,0.153-0.229
		c0.34,0.159,0.835,0.349,1.379,0.535C57.25,32.593,57.846,32.727,58.014,33.019"/>
	<path clip-path="url(#SVGID_2_)" fill-rule="evenodd" clip-rule="evenodd" fill="#231F20" d="M86.198,11.618
		c0.018,0.415,0.368,0.463,0.538,0.535c1.455,0.612,2.738-0.665,2.91-1.986c0.278-2.143-1.117-3.642-2.298-4.434
		c-0.124-0.083-0.192,0.016-0.307-0.153c-0.008-0.012,0.078-0.101-0.076-0.152c-0.172-0.06-0.467,0.02-0.844,0
		c-0.634-0.034-1.417-0.111-1.991,0.075c-0.387,0.127-0.856,0.467-1.147,0.69c-1.331,1.014-2.337,2.98-2.145,5.348
		c0.108,1.331,0.814,2.666,1.608,3.593c1.189,1.387,2.509,2.504,4.442,3.362c0.286,0.127,0.614,0.264,0.92,0.382
		c1.131,0.442,2.45,0.815,3.905,1.299c0.227,0.077,0.86,0.397,0.919,0.384c0.207-0.051,0.385-0.589,0.536-0.917
		c1.142-2.475,2.314-4.304,3.983-6.114c0.849-0.923,1.868-1.882,3.063-2.676c0.576-0.382,1.217-0.739,1.839-1.069
		c1.379-0.736,2.672-1.349,4.518-1.683c1.613-0.291,3.241-0.604,5.286-0.458c1.879,0.135,3.86,0.824,5.284,1.682
		c0.471,0.283,1.005,0.612,1.379,0.917c0.131,0.106,0.235,0.324,0.382,0.458c0.323,0.295,0.421,0.247,0.689,0.613
		c0.38,0.513,0.874,1.202,1.226,1.833c0.222,0.4,0.356,0.777,0.537,1.223c0.172,0.426,0.431,0.827,0.535,1.222
		c0.17,0.644,0.188,1.275,0.229,1.834c0.249,3.351-1.222,6.326-3.139,7.95c-1.018,0.859-1.794,1.396-3.371,1.758
		c-1.204,0.275-2.169,0.335-3.446,0c-1.152-0.304-2.324-1.046-3.14-1.835c-0.076-0.073-0.132-0.22-0.23-0.306
		c-0.084-0.074-0.26-0.101-0.305-0.153c-0.106-0.123-0.12-0.389-0.232-0.535c-0.107-0.142-0.308-0.192-0.382-0.305
		c-0.258-0.397-0.667-1.27-0.842-1.758c-0.488-1.353-0.464-3.364,0.076-4.663c0.116-0.277,0.365-0.542,0.536-0.84
		c0.41-0.711,0.632-1.097,1.303-1.605c0.374-0.282,1.415-0.89,1.992-0.993c2.22-0.407,4.695,0.803,5.053,2.674
		c0.295,1.531-0.212,3.037-1.455,3.362c-1.251,0.328-2.284-0.467-2.144-1.681c0.131-1.134,0.969-1.491,2.22-1.298
		c-0.102-1.536-2.436-1.914-3.674-1.529c-1.726,0.535-3.015,2.795-2.835,5.045c0.009,0.108,0.085,0.147,0.076,0.228
		c-0.003,0.037-0.148,0.174-0.152,0.152c0.022,0.105,0.211,0.316,0.305,0.536c0.488,1.134,0.989,2.031,1.916,2.829
		c0.795,0.684,1.279,0.887,2.373,1.222c0.909,0.278,1.449,0.34,2.605,0.077c0.449-0.104,0.971-0.198,1.379-0.382
		c0.222-0.103,0.38-0.3,0.613-0.459c0.214-0.148,0.515-0.242,0.688-0.383c0.902-0.725,1.602-1.875,2.145-2.98
		c1.036-2.116,0.893-5.145-0.153-7.108c-0.223-0.417-0.544-0.828-0.842-1.223c-0.31-0.409-0.599-0.858-0.92-1.145
		c-0.227-0.204-0.547-0.332-0.843-0.537c-0.257-0.178-0.497-0.381-0.765-0.533c-1.58-0.898-3.928-1.453-6.433-1.453
		c-1.986,0-3.897,0.63-5.515,1.299c-0.614,0.254-1.072,0.573-1.684,0.917c-0.558,0.312-1.051,0.524-1.61,0.917
		c-0.339,0.241-0.654,0.531-0.919,0.764c-0.951,0.842-2.401,2.121-3.37,3.44c-0.647,0.88-1.282,1.979-1.99,3.134
		c-0.193,0.313-0.632,0.886-0.613,1.068c0.052,0.503,1.442,1.022,1.914,1.301c0.985,0.582,1.587,0.979,2.298,1.682
		c0.312,0.307,1.03,0.979,1.225,1.3c0.101,0.163,0.13,0.457,0.23,0.686c0.227,0.521,0.492,1.306,0.536,2.218
		c0.077,1.615-0.591,3.178-1.608,4.051c-0.344,0.296-0.717,0.509-1.302,0.765c-0.779,0.341-1.086,0.36-2.144,0.229
		c-1.103-0.136-1.895-0.371-2.681-1.07c-0.482-0.43-0.609-0.754-0.996-1.376c-0.134-0.217-0.367-0.413-0.46-0.611
		c-0.227-0.486-0.409-1.213-0.46-1.604c-0.08-0.638-0.009-1.452,0.078-2.14c0.147-1.171,0.501-2.177,0.842-3.362
		c0.114-0.394,0.328-1.002,0.307-1.069c-0.079-0.259-1.069-0.635-1.763-0.843c-0.182-0.053-0.415-0.004-0.612-0.075
		c-0.141-0.052-0.248-0.18-0.383-0.23c-0.466-0.167-0.83-0.21-1.148-0.381c-0.356-0.192-0.697-0.7-0.919-0.764
		c-0.148-0.045-0.469,0.173-0.69,0.153c-0.159-0.018-0.67-0.347-1.072-0.537c-1.869-0.876-3.075-2.061-4.365-3.515
		c-0.502-0.565-1.434-1.679-1.072-2.368c0.2-0.385,0.451-0.554,0.076-1.147c-0.528-0.066,0.04,0.958-0.383,0.992
		c-0.568-1.972-0.387-3.933,0.307-5.731c0.19-0.495,0.646-1.117,0.996-1.605c0.964-1.349,2.702-2.297,4.976-2.064
		c2.326,0.238,4.034,1.774,4.672,3.899c0.187,0.615,0.378,2.125,0.077,3.209c-0.03,0.108-0.219,0.261-0.305,0.458
		c-0.468,1.062-1.273,2.271-3.065,2.139c-1.679-0.121-3.273-1.768-2.45-3.59c0.179-0.397,0.707-0.974,1.148-1.071
		c0.882-0.191,2.078,0.429,1.762,1.758C87.821,11.363,86.958,11.746,86.198,11.618 M112.929,8.789
		c0.24-0.17,0.392-0.883-0.078-0.915C112.964,8.25,112.628,8.698,112.929,8.789 M86.198,10.167c0.102-0.217-0.159-0.629-0.382-0.766
		C85.907,9.693,86.047,9.936,86.198,10.167 M86.352,11.314c0.004-0.235-0.07-0.391-0.231-0.46
		C85.955,11.048,85.883,11.403,86.352,11.314 M93.55,22.93c-0.898,1.583-1.584,5.242-0.612,7.26
		c0.485,1.007,1.921,2.076,3.447,1.911c0.705-0.077,1.665-0.567,2.067-1.071c0.982-1.223,0.823-4.037,0-5.195
		c-0.193-0.275-0.613-0.529-0.995-0.841c-0.367-0.3-0.646-0.713-0.919-0.917c-0.158-0.118-0.468-0.177-0.689-0.307
		c-0.531-0.313-1.641-1.299-2.222-0.993C93.53,22.828,93.606,22.832,93.55,22.93"/>
	<path clip-path="url(#SVGID_2_)" fill-rule="evenodd" clip-rule="evenodd" fill="#231F20" d="M73.179,14.37
		c-0.171,0.277-0.455-0.025-0.612-0.078c-1.519-0.49-3.301-1.115-5.439-1.145c-0.694-0.01-1.668,0.028-2.374,0.076
		c-2.721,0.182-5.078,1.221-6.586,2.216c-0.825,0.544-1.736,1.525-2.604,2.293c-0.221,0.195-0.68,0.649-0.996,0.459
		c-0.215-0.129-0.224-0.432-0.154-0.841c0.117-0.673,0.513-1.153,0.919-1.681c1.018-1.323,2.576-2.408,4.52-2.981
		c0.791-0.235,1.499-0.411,2.297-0.535C66.187,11.529,70.566,12.713,73.179,14.37"/>
	<path clip-path="url(#SVGID_2_)" fill-rule="evenodd" clip-rule="evenodd" fill="#231F20" d="M68.89,16.126
		c1.565-0.129,4.065,0.101,5.82,0.46c1.429,0.292,2.521,0.706,3.677,1.297c0.321,0.166,0.615,0.399,0.919,0.537
		c0.365,0.164,0.755,0.204,1.072,0.382c0.31,0.172,0.639,0.458,0.996,0.687c0.527,0.338,1.234,0.777,1.761,1.224
		c0.219,0.183,1.085,0.827,0.766,1.145c-0.262,0.263-1.198-0.705-1.073-0.611c-0.707-0.531-2.791-1.766-3.292-1.988
		c-0.421-0.184-0.917-0.259-1.379-0.457c-0.397-0.173-0.769-0.464-1.149-0.612c-0.153-0.06-0.34-0.017-0.536-0.075
		c-0.316-0.098-0.865-0.354-1.379-0.46c-0.332-0.069-0.702-0.082-1.071-0.152c-3.916-0.75-8.743,0.014-11.413,2.061
		c-0.88,0.678-1.623,1.617-2.22,2.601c-0.909,1.496-1.687,3.568-0.996,5.959c0.292,1.012,1.126,1.983,1.915,2.676
		c0.895,0.788,2.552,1.387,4.136,0.765c1.361-0.535,2.639-1.883,2.298-3.745c-0.094-0.509-0.338-0.998-0.538-1.299
		c-0.146-0.223-0.498-0.661-0.918-0.918c-0.304-0.183-1.147-0.54-1.456-0.305c-0.122,0.093,0.395,1.016,0.307,1.527
		c-0.066,0.389-0.523,1.056-1.225,1.148c-1.924,0.252-2.292-2.017-1.533-3.135c0.22-0.322,0.593-0.652,0.767-0.765
		c0.145-0.093,0.47-0.148,0.689-0.229c1.647-0.604,3.619,0.31,4.443,1.376c0.647,0.838,1.088,2.279,0.995,3.515
		c-0.048,0.645-0.296,1.167-0.535,1.682c-0.32,0.683-0.396,0.773-0.921,1.301c-0.025,0.024,0.026,0.126,0,0.151
		c-0.043,0.044-0.214,0.064-0.306,0.152c-0.298,0.288-0.908,0.773-1.455,0.995c-0.444,0.18-1.753,0.44-2.528,0.382
		c-0.561-0.045-1.805-0.485-2.297-0.764c-0.335-0.191-0.77-0.573-1.072-0.841c-1.442-1.28-2.668-3.014-2.451-6.038
		c0.233-3.25,2.405-6.092,4.671-7.643c0.964-0.661,2.183-1.195,3.525-1.529C66.913,16.334,67.897,16.208,68.89,16.126"/>
	<path clip-path="url(#SVGID_2_)" fill="#231F20" d="M138.14,5.772c-0.184-0.572-0.607,0-1.207,0.001
		c-0.602,0.002-0.602-0.003-1.203-0.001c-0.602,0-0.602,0.004-1.201,0.006c-0.604,0.001-0.604,0.005-1.205,0.005
		c-0.604,0.002-0.713,0.353-1.199-0.002c-0.494-0.357-0.191-0.574-0.383-1.152c-0.193-0.578-0.207-0.573-0.398-1.152
		c-0.193-0.577-0.191-0.578-0.384-1.156c-0.193-0.579-0.183-0.583-0.375-1.161c-0.192-0.58,0.218-1.158-0.393-1.16
		c-0.61-0.002-0.188,0.583-0.382,1.16c-0.191,0.578-0.196,0.577-0.389,1.155c-0.192,0.578-0.188,0.58-0.381,1.157
		c-0.193,0.58-0.196,0.579-0.388,1.157c-0.194,0.58,0.103,0.797-0.39,1.156c-0.486,0.354-0.601,0.008-1.2,0.006
		c-0.602,0-0.602-0.002-1.202-0.004c-0.602-0.001-0.602-0.009-1.202-0.009c-0.603-0.003-0.603-0.005-1.205-0.006
		s-1.015-0.57-1.203,0.002c-0.189,0.576,0.484,0.363,0.966,0.73c0.481,0.368,0.483,0.366,0.964,0.733
		c0.482,0.368,0.478,0.375,0.959,0.743c0.483,0.368,0.482,0.37,0.966,0.739c0.482,0.368,0.785,0.156,0.973,0.733
		c0.184,0.564-0.181,0.568-0.36,1.134c-0.179,0.565-0.188,0.562-0.367,1.127c-0.179,0.566-0.176,0.567-0.356,1.133
		c-0.178,0.566-0.168,0.57-0.346,1.137c-0.18,0.566-0.851,0.786-0.371,1.137c0.481,0.35,0.496-0.346,0.986-0.684
		c0.489-0.339,0.493-0.334,0.983-0.672c0.491-0.34,0.486-0.346,0.978-0.685c0.491-0.339,0.488-0.345,0.979-0.684
		c0.493-0.34,0.39-0.672,0.988-0.672c0.596,0,0.491,0.336,0.982,0.675c0.488,0.339,0.485,0.344,0.976,0.683
		c0.49,0.338,0.498,0.327,0.99,0.666c0.492,0.34,0.488,0.347,0.979,0.687c0.492,0.339,0.498,1.026,0.982,0.676
		c0.48-0.346-0.17-0.564-0.35-1.129c-0.18-0.566-0.182-0.565-0.361-1.13c-0.178-0.566-0.188-0.563-0.367-1.128
		c-0.178-0.568-0.172-0.57-0.352-1.136c-0.178-0.567-0.543-0.567-0.359-1.132c0.188-0.578,0.484-0.365,0.967-0.732
		c0.48-0.368,0.477-0.373,0.957-0.741c0.482-0.368,0.488-0.362,0.968-0.731c0.485-0.368,0.407-0.501,0.966-0.739
		C137.804,6.245,138.326,6.351,138.14,5.772"/>
</g>
</svg>
