<!DOCTYPE svg PUBLIC "-//W3C//DTD SVG 1.1//EN" "http://www.w3.org/Graphics/SVG/1.1/DTD/svg11.dtd" [
	<!ENTITY ns_flows "http://ns.adobe.com/Flows/1.0/">
]><svg xmlns="http://www.w3.org/2000/svg" xmlns:xlink="http://www.w3.org/1999/xlink" width="196" height="46" viewBox="0 0 196 46"><defs><path id="a" d="M0 0h196.331v45.995h-196.331z"/></defs><clipPath id="b"><use xlink:href="#a" overflow="visible"/></clipPath><path clip-path="url(#b)" fill="#020202" d="M9.179 9.178c.824.859 1.96.898 2.563.898h.113l.007-.078c.439-.113.76-.467.76-.928 0-.555-.452-.983-1.008-.983-.444 0-.834.313-.96.731-.241-.102-.446-.228-.608-.392-.4-.401-.482-.978-.186-1.383.266-.391.868-.649 1.605-.692.686-.036 1.367.038 2.144.23 1.443.373 2.782 1.076 3.87 2.041 1.159 1.02 1.95 2.313 2.223 3.636.122.626.094 1.349-.081 2.096-.151.666-.408 1.336-.764 1.988-.36-.149-.714-.285-1.059-.407-2.909-1.063-6.028-1.661-9.269-1.78l-.119-.003c.21.208.296.501.274.797 3.119.04 6.13.527 8.95 1.465.317.104.639.217.98.344-.686 1.11-1.627 2.124-2.739 2.937-1.391 1.018-3.089 1.742-4.949 2.134.38.203.637.566.602.873 1.614-.366 3.338-1.021 4.948-2.181 1.279-.922 2.359-2.085 3.13-3.369 2.181.895 4.303 2.067 6.304 3.479 2.417 1.874 4.361 3.184 6.301 4.244 2.195 1.228 4.595 2.147 7.131 2.729 2.166.514 4.502 1.029 7.568 1.168 1.237.055 2.331.304 3.35.304h.455l.507-.232.554-.086c-.448-.145-.717-.682-1.053-.682h-.004c-1.342 0-2.552-.1-3.773-.166-2.832-.16-5.267-.491-7.448-.967-1.158-.254-2.322-.604-3.485-1.024-.174.209-.811.246-1.075.123.04-.161.317-.283.606-.316-1.025-.391-2.049-.836-3.066-1.353-2.25-1.153-4.419-2.571-6.431-3.931-1.966-1.472-4.059-2.71-6.217-3.681.876-1.656 1.194-3.244.938-4.726-.308-1.557-1.213-3.068-2.54-4.253-1.212-1.088-2.712-1.895-4.332-2.324-.88-.224-1.708-.323-2.502-.278-.49.026-.925.117-1.328.278-.35.141-.836.412-1.184.906-.313.435-.455.964-.378 1.49.064.497.302.941.675 1.324M41.827 10.526h-.066l.001.231c.527.005 1.062.149 1.561.399l.37-.108c-.591-.325-1.234-.522-1.866-.522M145.981 15.999c.183-.207.256-.5.187-.754-.151-.492-.58-.75-.984-.937-.648-.27-1.384-.402-2.242-.402l-.228.005c-.354.025-.69.102-1.015.195-.053.044-.125.057-.208.058-.231.075-.452.158-.664.248.145.077.339.126.519.182-.099.129-.133.266-.122.398.483-.222 1.005-.415 1.533-.477.856-.061 1.62.025 2.24.254.286.113.649.306.751.602.084.26-.18.532-.482.689-.688.361-1.521.438-2.25.465-.364-.005-.74-.09-1.141-.244l-.239.189c.484.19.938.291 1.38.291l.308.003c.602 0 1.387-.04 2.114-.366.24-.116.414-.241.543-.399M44.765 11.857l-.126-.081c-.149.006-.257.037-.348.078l.304.284.191.262c.133-.113.195-.231.149-.352l-.099-.128-.071-.063M151.402 18.309c.71.772 1.697 1.394 2.934 1.843.422.153.873.282 1.345.395l.004-.011.563-.424.049-.105c-.632-.108-1.219-.248-1.763-.428-1.159-.384-2.088-.927-2.762-1.623-.767-.774-1.196-1.817-1.181-2.868.004-1.005.401-2.029 1.069-2.839l-.333.052c.122-.1.338-.207.579-.317.376-.386.808-.693 1.276-.901-.013-.073-.07-.147-.177-.223-.556.24-1.079.596-1.507 1.064-.804.864-1.289 2.014-1.327 3.155-.047 1.151.412 2.359 1.231 3.23M121.211 10.68c.147.366.398.7.758.988.529.421 1.181.719 2.049.933.645.159 1.348.248 2.158.283.742.026 1.502-.019 2.173-.143 1.241-.222 2.526-.687 4.048-1.471.527-.275 1.036-.565 1.468-.812.679.501 1.382 1.077 2.212 1.802l.979.859c.702.622 1.429 1.268 2.18 1.863l.023.018c.052-.088.168-.136.307-.171l-.123-.101c-.722-.597-1.421-1.246-2.099-1.876-.329-.304-.656-.61-.989-.909-.772-.702-1.424-1.263-2.043-1.75.505-.302 1.052-.64 1.715-1.055l1.393-.873-.289-.039c.425-.436-.076-.694-.591-.82l-1.144.753c-.608.396-1.323.862-2.043 1.311l-.068-.051-.18-.132c-1.322-.908-2.567-1.522-3.804-1.866-1.24-.354-2.665-.423-4.267-.206-.81.119-1.496.311-2.099.587-.56.257-1.342.702-1.71 1.569-.174.413-.176.904-.014 1.309m.753-1.021c.168-.446.629-.865 1.286-1.185.532-.259 1.151-.444 1.889-.566.663-.105 1.292-.157 1.881-.157.756 0 1.47.086 2.122.258 1.178.298 2.384.856 3.677 1.704l.06.045c-.371.221-.689.406-.986.568-1.407.763-2.588 1.225-3.728 1.452-.562.119-1.151.173-1.803.173l-.168-.003c-.722-.009-1.386-.083-1.971-.21-.741-.166-1.31-.404-1.735-.731-.503-.371-.709-.899-.524-1.348M2.465 21.283c.048.267-.184.363-.517.4.194.129.399.25.62.363 1.294.651 2.798.992 4.738 1.067l.491.007c.913 0 1.996-.076 3.152-.294-.157-.062-.301-.131-.609-.101.365-.449.138-.526-.099-.772-.836.137-1.698.215-2.579.215l-.333-.006c-1.771-.053-3.193-.359-4.346-.934-.7-.353-1.265-.812-1.627-1.33-.406-.563-.557-1.247-.417-1.87.132-.606.53-1.196 1.121-1.667.523-.419 1.174-.751 1.933-.985.679-.208 1.421-.344 2.207-.396.271-.018.545-.014.821-.02.128-.181.502-.212.647-.382l-.419-.451c-.39-.002-.768.003-1.106.024-.851.054-1.659.196-2.397.411-.865.262-1.615.64-2.226 1.119-.748.587-1.26 1.351-1.441 2.15-.205.86-.005 1.824.538 2.585.259.371.591.706.98 1.009.157-.128.461-.167.868-.142m3.797-6.79c-.02.186-.354.182-.704.169-.097-.294.493-.304.704-.169M138.535 7.379c.056.373-.758.221-.843.51l.148.113c1.801-1.111 3.528-2.109 5.347-2.959 2.489-1.173 5.088-2.043 7.724-2.583 2.39-.488 4.96-.561 7.637-.561l.475.177h.346c2.307 0 4.261.131 5.979.765 2.128.78 3.792 2.062 4.681 3.771.422.785.681 1.623.789 2.546.226.088.193.2.04.313.078 1.027-.035 2.087-.347 3.133-.59 2.008-1.848 3.853-3.542 5.21-1.643 1.32-3.744 2.167-5.919 2.389-.226.022-.455.035-.693.046-.021.256-.061.519-.063.774.28-.005.555-.018.823-.038.341-.024.68-.067 1.016-.121-.409-.107-.77-.285-.402-.584.446.061.669.254.782.515 1.847-.35 3.607-1.111 5.061-2.214 1.899-1.439 3.34-3.444 4.055-5.648.785-2.39.641-4.95-.396-7.023-.517-1.06-1.295-2.047-2.244-2.846-.873-.742-1.892-1.357-3.067-1.829-1.937-.78-3.752-1.184-6.752-1.23v-.007.002.005c-3 .038-5.861.36-8.452.953-2.737.624-5.488 1.587-8.05 2.87-1.509.745-2.972 1.59-4.418 2.504-.38.359-.14.728.285 1.047M125.762 33.076c.476 0 .898-.264 1.286-.352.537-.119.955-.432 1.274-.725.401-.352.595-.992.474-1.479-.092-.435-.341-.858-.744-1.208-.6-.522-1.433-.848-2.401-.922-.239-.037-.484-.06-.749-.06-.538 0-1.063.069-1.508.144-.786.14-1.545.337-2.183.514-.718.196-1.431.406-2.141.613l-.374.109c-1.155-.582-2.303-1.256-3.415-1.908l-.792-.463-2.167-1.254c-.763-.413-1.412-.846-1.989-1.323-.969-.814-2.198-2.13-2.533-3.786-.147-.775-.059-1.518.266-2.145.302-.609.851-1.156 1.589-1.588 1.465-.847 3.273-1.059 4.688-1.15 1.33.023 2.623.709 3.598 1.124.965.414 1.971.858 3.233 1.858h.353l-.011-.005c1.164.676 2.324 1.284 3.449 1.974l.343.16c-.869.204-1.688.341-2.499.47l-.574.074-.137.016c-.462-.301-.953-.621-1.447-.917-1.365-.813-2.86-1.62-4.548-1.964-.43-.082-.87-.135-1.286-.144-.431-.006-.85.004-1.263.044-.776.076-1.682.203-2.543.722-.252.157-.44.32-.599.508l-.164.268c.134-.011.284-.013.453-.002.052.292-.226.385-.612.413l-.049.179c-.033.306.04.637.204.928.125.222.298.423.531.62.799.632 1.719.846 2.513.969.424.056.854.083 1.27.083l1.216-.012c.752-.019 1.542-.054 2.417-.113 1.28-.091 2.549-.23 3.764-.412l.295.189c.621.387 1.264.791 1.904 1.171 1.699 1.011 3.045 1.676 4.37 2.149.381.137.76.254 1.137.355-.048-.069-.095-.139-.122-.239.21-.098.576-.104.703-.254.031-.102.002-.167-.046-.222-.454-.124-.909-.267-1.368-.446-1.249-.488-2.528-1.163-4.15-2.193-.392-.25-.787-.51-1.18-.768 1.113-.21 2.141-.443 3.14-.71l1.135.685c.404.241.784.457 1.172.679-.083-.179-.12-.363-.033-.556l-.912-.516-.78-.456c1.789-.508 3.483-1.13 5.041-1.852 1.375-.624 2.774-1.357 4.278-2.246.514-.299 1.021-.61 1.526-.918.652-.398 1.33-.807 2.002-1.186l.159.106-.004-.01c-.201-.282-.545-.367-.839-.573-.59.316-1.177.651-1.738.974-.503.285-1.021.58-1.529.86-1.535.845-2.927 1.525-4.252 2.083-1.949.812-3.961 1.479-5.978 1.979l-.586-.349c-1.249-.747-2.541-1.52-3.835-2.244-.991-.552-2.17-1.182-3.407-1.693-1.007-.407-2.337-.874-3.712-.874v.001c-.284-.016-.565-.022-.825-.022-1.629 0-2.994.268-4.173.821-.616.291-1.461.838-2.002 1.783-.455.773-.627 1.757-.473 2.698.258 1.584 1.205 3.13 2.738 4.469.587.518 1.277 1.005 2.12 1.497l2.144 1.277c.977.588 2.034 1.212 3.153 1.805l-.089.026c-1.034.286-1.954.514-2.813.691-.932-1.072-2.115-1.969-3.422-2.593-1.443-.691-3.04-1.008-4.619-.896-.811.079-1.667.237-2.401.835-.336.281-.709.828-.643 1.45.043.475.284.913.715 1.308.697.613 1.509.888 2.217 1.076.69.172 1.44.277 2.295.322 1.583.08 3.248-.077 5.115-.481l.039.046c.916 1.147 1.442 2.462 1.48 3.704.025.582-.068 1.217-.296 2-.189.637-.449 1.299-.778 1.965-.667 1.344-1.52 2.471-2.526 3.345-.542.471-1.104.85-1.732 1.163-.606.303-1.285.537-1.961.676-1.274.272-2.717.283-4.244.033-1.608-.276-2.966-.739-4.038-1.375-.24-.15-.47-.317-.687-.498.683-.774 1.174-1.674 1.424-2.615.229-.908.219-1.668-.035-2.32-.166-.418-.451-.739-.794-.906-.229-.118-.493-.179-.782-.179l-.271.019c-.384-.049-.773.002-1.075.158-.341.166-.632.497-.801.91-.249.648-.264 1.408-.033 2.322.249.939.743 1.837 1.428 2.611-.222.181-.454.348-.689.495-1.072.639-2.433 1.102-4.039 1.378-1.529.252-2.969.239-4.245-.033-.676-.139-1.356-.373-1.962-.676-.625-.31-1.189-.689-1.734-1.163-1.009-.876-1.861-2.004-2.523-3.345-.33-.667-.593-1.331-.779-1.965-.227-.776-.323-1.41-.297-2.001.039-1.241.565-2.556 1.483-3.706l.036-.043c1.87.404 3.538.563 5.117.481.851-.045 1.605-.15 2.299-.322.701-.188 1.514-.463 2.215-1.077.43-.394.668-.835.712-1.305.063-.624-.306-1.174-.644-1.452-.735-.598-1.588-.756-2.407-.835-1.559-.107-3.17.205-4.61.896-1.309.624-2.493 1.521-3.424 2.593-.853-.178-1.774-.403-2.812-.691l-.087-.026c1.135-.605 2.225-1.248 3.15-1.804l2.144-1.275c.844-.497 1.536-.986 2.12-1.498 1.533-1.341 2.48-2.886 2.737-4.471.155-.941-.017-1.925-.472-2.698-.541-.944-1.385-1.49-2-1.783-1.178-.553-2.544-.821-4.173-.821-.261 0-.542.006-.828.022-1.378 0-2.706.467-3.71.874-1.237.51-2.418 1.141-3.406 1.693-1.31.728-2.611 1.508-3.871 2.262l-.553.331c-2.016-.5-4.026-1.165-5.974-1.979-1.332-.558-2.724-1.241-4.253-2.083-.511-.28-1.028-.575-1.531-.863-.571-.325-1.162-.664-1.76-.983l.167-.13c.748-.592 1.472-1.233 2.17-1.854l.276-.144-.004.092h.012c.235 0 .471-.514.704-.718.752-.655 1.397-1.229 2.02-1.7-.18.047-.368.032-.487-.045.362-.093.573-.289.702-.521.394.093.296.281.059.417.395.226.879.501 1.392.766 1.515.779 2.798 1.246 4.043 1.468.672.124 1.43.172 2.175.142.808-.035 1.51-.125 2.157-.284.872-.215 1.519-.512 2.05-.933.306-.246.519-.533.67-.841l-.034-.154.12-.003c.149-.371.152-.812.019-1.2-.253-.238-.504-.477-.56-.834l.039.013c-.383-.408-.849-.676-1.222-.847-.604-.276-1.289-.468-2.099-.587-1.601-.217-3.027-.148-4.265.206-1.24.347-2.484.958-3.808 1.87l-.176.128-.07.051c-.705-.44-1.401-.888-2.044-1.311-2.482-1.65-4.738-3.111-7.203-4.331-2.558-1.282-5.377-2.244-8.118-2.87-2.59-.593-5.451-.915-8.451-.953v-.005l-.002.002.003-.002v.005c-3 .046-4.818.45-6.752 1.23-1.171.471-2.202 1.083-3.077 1.828-.95.8-1.72 1.782-2.239 2.847-1.037 2.072-1.177 4.633-.387 7.022.71 2.204 2.152 4.209 4.053 5.649 1.814 1.38 4.107 2.234 6.453 2.404 1.003.074 2.038.048 3.43-.09 1.271-.143 2.372-.388 3.355-.744 1.23-.449 2.22-1.07 2.931-1.843.486-.517.825-1.156 1.027-1.826l-.337.067c.043.198.273.527 0 .527h-.399c-.182 0-.394.625-.665.898-.672.696-1.601 1.233-2.76 1.614-.938.312-1.991.508-3.217.614-1.332.092-2.357.089-3.294 0-2.177-.223-4.279-1.073-5.922-2.394-1.695-1.356-2.952-3.206-3.541-5.216-.629-2.11-.454-4.322.481-6.071.89-1.706 2.552-3.076 4.684-3.856 1.8-.667 3.853-.977 6.325-.941l.472-.002c2.678 0 5.248.249 7.641.738 2.634.54 5.232 1.41 7.718 2.583 2.413 1.129 4.672 2.521 7.162 4.095.54.339 1.121.698 1.712 1.055-.614.485-1.249 1.03-2.042 1.75l-.985.906c-.677.63-1.381 1.281-2.101 1.879l-.271.222-.029-.016-.578-.3c-.653-.299-1.417-.622-2.281-.706l.041.141c-.189-.145-.761-.058-1.087-.119-.275.026-.537.068-.788.127-.102.209-.227.495-.654.246v-.05l-.099.034c-.4.188-.83.446-.983.945v.095l.237-.005c.042.161-.103.209-.236.265.03.142.088.279.185.389.133.161.306.286.551.405l.15.053c.195-.079.433-.06.615.076l-.059.095c.501.112.995.297 1.405.297l.307.154h.026c.61 0 1.268-.354 2.014-.752.289-.154.588-.419.908-.644.675.379 1.353.753 2.01 1.151.503.309 1.01.595 1.518.893 1.507.889 2.904 1.613 4.28 2.237 1.558.721 3.254 1.339 5.042 1.846l-.782.454c-1.714.988-3.964 2.228-6.329 3.269l.484-.003c.135.309-.552.118-.843.169l.004-.006-.025.012-.716.294-.013-.007-.048-.021c-.346-.196-.617-.43-.806-.693-.212-.289-.313-.633-.273-.941.033-.303.213-.613.504-.863.246-.214.561-.392.971-.541.637-.235 1.369-.47 2.302-.501l-.001-.352h-.339c-.797 0-1.478.2-2.082.376-.458.14-.828.382-1.133.623-.392.307-.645.736-.714 1.159-.079.43.034.928.307 1.338.161.246.376.48.635.685-2.039.775-3.931 1.281-5.771 1.543-1.008.142-2.033.195-3.064.188.183.215.347.462.501.614.246-.005.49-.003.738-.02.636-.037 1.282-.104 1.91-.196 1.997-.302 4.043-.881 6.251-1.766.634.342 1.365.543 2.177.599 1.561.09 3.181-.177 4.847-.774 1.331-.474 2.679-1.139 4.368-2.149.63-.37 1.253-.762 1.855-1.141l.349-.219c1.217.182 2.483.321 3.763.412.88.059 1.666.094 2.42.113l1.213.012c.412 0 .845-.027 1.274-.083.791-.123 1.709-.337 2.509-.97.226-.188.403-.391.53-.619.164-.293.237-.623.203-.928-.034-.305-.168-.609-.369-.856-.159-.19-.349-.354-.602-.512-.865-.517-1.765-.644-2.543-.72-.412-.04-.824-.051-1.262-.045-.413.009-.859.061-1.283.143-1.687.344-3.184 1.15-4.549 1.963-.439.262-.898.552-1.447.914l-.127-.022-.586-.09c-.795-.127-1.614-.287-2.5-.49l.231-.14c1.234-.761 2.512-1.548 3.788-2.284.896-.515 2.086-1.177 3.351-1.72.975-.414 2.263-.896 3.598-.919 1.413.087 3.221.303 4.685 1.15.738.432 1.288.982 1.59 1.588.319.619.414 1.381.263 2.145-.333 1.655-1.562 2.971-2.531 3.786-.577.475-1.226.91-1.992 1.323l-2.161 1.254-.79.461c-1.114.651-2.264 1.326-3.419 1.91l-.392-.115c-.707-.207-1.413-.414-2.123-.609-.644-.177-1.404-.378-2.183-.516-.444-.074-.969-.146-1.508-.146-.266 0-.51.016-.749.053-.965.074-1.8.384-2.4.907-.405.35-.654.746-.745 1.176-.122.495.073 1.079.472 1.424.318.294.737.722 1.274.841.39.088.811.352 1.288.352h.047c.84 0 1.626-.332 2.547-.479 1.621-.248 3.266-.879 4.889-1.654l.281-.197.093-.076.254.073.505.165c.877.278 1.687.513 2.462.717-.893 1.265-1.385 2.649-1.424 4.015-.024.706.093 1.482.359 2.378.234.767.528 1.492.873 2.154.761 1.471 1.72 2.701 2.856 3.656.609.514 1.29.955 1.977 1.277.706.329 1.46.569 2.243.713 1.449.264 3.017.23 4.597-.088.75-.151 1.491-.36 2.201-.621.603-.229 1.381-.553 2.072-1.022.261-.18.518-.389.763-.616.246.226.502.434.763.616.692.47 1.469.794 2.071 1.022.712.261 1.453.47 2.202.621.873.175 1.741.263 2.582.263.687 0 1.364-.059 2.015-.175.78-.144 1.535-.384 2.243-.713l.424-.235c-.194-.054-.311-.153-.607-.145.109-.122.676-.142.905-.021.434-.257.855-.539 1.255-.875 1.137-.958 2.096-2.187 2.855-3.657.35-.674.645-1.397.873-2.155.272-.916.386-1.67.359-2.379-.037-1.365-.531-2.752-1.424-4.017.772-.204 1.578-.437 2.463-.72l.498-.17.262-.09.099.053.274.138c1.621.775 3.267 1.518 4.89 1.766.828.127 1.65.479 2.552.479h.042zm-7.646-10.908c-.915.051-1.665-.012-2.365-.004l-.303-.088h-.548c-.437 0-.947.084-1.442.008-.857-.121-1.498-.308-1.916-.642-.219-.181-.32-.315-.312-.458.007-.156.142-.307.41-.492.47-.293 1.133-.473 2.021-.563.359-.03.677-.044.974-.044.455 0 .863.041 1.246.116.883.168 1.738.506 2.546.894l-.134-.19c.731-.184 1.423.398 1.463.892l.332.188.314.187c-.773.084-1.54.151-2.286.196m-9.785 9.236c-.792-.061-1.473-.173-2.086-.349-.797-.224-1.367-.504-1.745-.853-.207-.195-.336-.413-.343-.587-.012-.17.075-.336.262-.493.362-.299.983-.488 1.75-.534l.487-.018c2.145 0 4.388.971 6.044 2.604-1.61.259-3.032.329-4.369.23m-18.651-2.833l.485.018c.768.046 1.386.235 1.75.534.184.157.275.323.263.493-.009.174-.136.392-.344.587-.374.347-.944.625-1.743.853-.616.176-1.297.288-2.091.349-1.333.099-2.755.028-4.36-.229 1.651-1.634 3.894-2.605 6.04-2.605m-26.165-18.858c1.299-.85 2.503-1.409 3.681-1.704 1.158-.307 2.494-.34 4-.101.736.122 1.354.307 1.887.566.659.32 1.119.739 1.287 1.185.185.449-.022.979-.524 1.348-.428.327-.993.565-1.732.731-.589.127-1.253.201-1.975.21l-.167.003c-.651 0-1.241-.054-1.803-.173-.439-.088-.891-.223-1.354-.385.092.165-.159.427-.528.383l.14-.51.024.002c-.628-.242-1.29-.551-2.01-.942-.302-.166-.619-.349-.985-.568l.059-.045m-30.685 10.128c.373-.026.463.117.423.339-.372.026-.461-.118-.423-.339m22.391-3.916c-.715.401-1.315.596-1.902.6-.726-.027-1.56-.104-2.249-.469-.304-.153-.567-.425-.48-.685.097-.296.463-.489.746-.603.493-.177 1.073-.273 1.713-.273l.524.019c.541.064 1.073.262 1.562.489.155-.144.467-.191.75-.256-.209.098-.263.292-.491.38l.299.149.24.133.042.025c-.271.196-.52.355-.754.491m25.23 4.077c.634-.127 1.317-.149 2.221-.067.89.09 1.551.276 2.02.567.268.182.404.348.41.503.01.144-.091.302-.308.485-.419.332-1.062.564-1.919.686-.484.075-.984.085-1.41.085l-.553-.003-.327-.003c-.699-.008-1.45-.036-2.365-.087-.747-.045-1.515-.112-2.288-.196l.313-.187c1.223-.718 2.681-1.493 4.206-1.783m-4.043.516c.378.155-.091.504-.563.426-.06-.291.421-.256.563-.426m-4.749 2.927c-1.623 1.029-2.898 1.705-4.149 2.193-1.474.572-2.926.865-4.312.865l-.204-.005c-.505-.011-.973-.088-1.394-.217l.235-.098c2.052-.896 4.188-2.02 6.729-3.532l.917-.551.218-.134c.991.267 2.022.5 3.137.71-.391.259-.786.519-1.177.769m-.595-2.247c.133 1.213-2.147-.163 0 0m1.919 10.209c-.415.092-.819.171-1.206.235-.355.063-.771.129-1.189.158l-.41.013c-.424 0-.78-.049-1.087-.138.059.157.055.366.147.642-.55.127-.367-.206-.564-.34-.285-.194-.998-.264-.842-.679.24.007.421.021.578.04-.231-.197-.351-.482-.31-.781.036-.31.217-.64.503-.929.641-.64 1.5-.907 2.11-1.021.753-.063 1.516.09 2.149.237.783.188 1.542.426 2.116.616.616.202 1.245.421 1.851.635-1.39.647-2.621 1.066-3.846 1.312m23.767 8.826c-.244-.781-.274-1.474-.083-2.052.111-.341.319-.688.586-.84.213-.131.476-.266.782-.266h.132-.001v.143s.651.059.877.194c.264.153.494.428.605.769.188.575.171 1.268-.072 2.049-.271.846-.756 1.644-1.414 2.317-.657-.673-1.144-1.471-1.412-2.314m26.598-8.826c-1.226-.246-2.452-.665-3.848-1.311.61-.214 1.238-.433 1.854-.635.848-.282 1.5-.471 2.116-.616.632-.15 1.398-.301 2.148-.237.613.113 1.47.381 2.109 1.021.287.293.466.622.503.931.045.313-.085.615-.344.813-.397.296-.966.441-1.734.441l-.408-.013c-.431-.029-.861-.1-1.189-.159-.408-.072-.812-.148-1.207-.235M176.585 12.897c.008-.217.006-.438.044-.638.271-1.322 1.063-2.614 2.224-3.637 1.086-.965 2.424-1.667 3.87-2.04.776-.193 1.466-.267 2.142-.231.742.043 1.341.305 1.61.702.291.399.212.979-.19 1.379-.161.161-.368.295-.604.394-.123-.415-.516-.717-.96-.717-.191 0-.359.067-.511.159.569.359.823.765-.271.978-.033-.138-.1-.256-.179-.366l-.048.234c0 .208.071.399.185.561.375.035.503.125.73.25-.054.158-.462.255-.462.315v-.164h.424c.604 0 1.738-.039 2.565-.897.37-.385.613-.829.674-1.324.078-.527-.063-1.079-.378-1.515-.346-.493-.835-.754-1.184-.894-.403-.161-.84-.246-1.329-.273-.788-.045-1.622.056-2.5.282-1.62.428-3.118 1.234-4.332 2.325-.35.312-.666.649-.954 1.002.268.033.606.061 1.024-.13l-.141.509c-.501.037-.776-.062-1.027-.175-.722.938-1.232 1.981-1.444 3.054-.035.197-.032.401-.045.602.392.035.724.173 1.067.255M159.34 20.535c-.023-.102-.108-.191-.225-.276-.422-.009-.864-.027-1.357-.062-.331-.028-.647-.065-.954-.107.008.239.041.478.123.701.248.038.499.075.762.104.479.048.909.077 1.318.099l.05-.119c.046-.085.284-.334.283-.34M145.62 29.076h.455c1.017 0 2.111-.249 3.351-.304 3.064-.139 5.397-.543 7.565-1.056.698-.16 1.384-.407 2.059-.617-.123-.085-.255-.191-.413-.256.351-.331.64-.208.891.05.365-.121.733-.245 1.09-.38-.011-.271.216-.58.382-.869-1.39.541-2.781.978-4.165 1.28-2.177.476-4.61.785-7.444.945-1.221.066-2.432.095-3.775.123-1.251.046-2.503-.018-3.729-.188-1.842-.263-3.733-.766-5.771-1.541.26-.206.473-.431.636-.675.271-.412.383-.896.307-1.324-.07-.424-.324-.827-.713-1.132-.309-.243-.68-.542-1.137-.68-.603-.176-1.282-.376-2.08-.376h.039v.465c1 .032 1.475.153 2.111.389.41.148.631.325.878.54.292.251.422.56.455.867.039.31-.08.642-.295.938-.189.264-.473.497-.813.69l-.062.026-.015.005-.717-.294c-1.598-.683-3.128-1.465-4.509-2.214l-.24.188c.294.136.354.274.334.415 1.492.818 2.874 1.511 4.205 2.094l.233.098c-.42.129-.887.206-1.39.217-.539.015-1.088-.033-1.641-.108-.234.242-.661.512-1.087.629l.526.081c.211-.121.431-.174.787.056l-.027.038c.302.024.603.043.898.043l.572-.019c.81-.056 1.54-.257 2.177-.599 2.208.885 4.254 1.464 6.251 1.766.633.092 1.275.159 1.911.196.47.031.939.259 1.397.262l.513.231M154.419 10.604h.154l.001-.078h-.068l-.148.017.061.061M196.251 17.834c-.178-.796-.688-1.563-1.435-2.153-.61-.477-1.36-.854-2.229-1.119-.741-.216-1.548-.357-2.4-.411-.619-.042-1.374-.028-2.101-.005l-.282.01c-3.243.117-6.36.716-9.269 1.775-.338.123-.688.258-1.062.41-.352-.647-.608-1.314-.765-1.989-.083-.359-.13-.713-.145-1.054-.528-.017-1.066-.231-1.054-.581-.07 1.282.243 2.636.993 4.043-2.164.971-4.255 2.209-6.221 3.68-2.011 1.362-4.18 2.78-6.428 3.932-.653.333-1.31.631-1.967.912-.018.103-.178.216-.161.343.014.109.09.222.187.333.754-.333 1.496-.687 2.208-1.085 1.941-1.061 3.882-2.371 6.297-4.245 1.999-1.412 4.121-2.582 6.309-3.479.326.546.721 1.063 1.15 1.557.223-.064.569-.051.718.044.061.177-.097.225-.141.339l-.24-.007c.498.521 1.046 1.006 1.644 1.436 2.977 2.148 6.36 2.6 8.676 2.6l.494-.007c1.936-.075 3.438-.413 4.733-1.068.845-.428 1.5-.978 1.952-1.629.545-.764.746-1.728.539-2.582m-1.276 2.064c-.361.518-.926.977-1.626 1.33-1.152.574-2.573.881-4.345.934-3.247.072-6.298-.817-8.549-2.468-1.108-.813-2.052-1.823-2.734-2.937.318-.121.649-.168.979-.275 2.875-.957 5.946-1.406 9.121-1.406h.645c.538 0 1.113-.065 1.664-.028.787.052 1.532.154 2.209.362.764.234 1.41.549 1.936.968.59.471.986 1.052 1.118 1.659.142.624-.011 1.298-.418 1.861"/></svg>