<!DOCTYPE svg PUBLIC "-//W3C//DTD SVG 1.1//EN" "http://www.w3.org/Graphics/SVG/1.1/DTD/svg11.dtd" [
	<!ENTITY ns_flows "http://ns.adobe.com/Flows/1.0/">
]><svg xmlns="http://www.w3.org/2000/svg" xmlns:xlink="http://www.w3.org/1999/xlink" width="735" height="735" viewBox="0 0 735 735"><defs><path id="a" d="M0 0h735.099v735.098h-735.099z"/></defs><clipPath id="b"><use xlink:href="#a" overflow="visible"/></clipPath><path clip-path="url(#b)" fill-rule="evenodd" clip-rule="evenodd" fill="#020202" d="M367.55 0c-202.992 0-367.55 164.557-367.55 367.55 0 202.992 164.558 367.548 367.55 367.548 202.991 0 367.549-164.557 367.549-367.548 0-202.993-164.558-367.55-367.549-367.55m-26.346 552.947c-55.955-67.713-121.789-119.304-167.879-135.427l108.631-64.473 52.676 99.943s85.578-203.124 220.557-270.838c-3.292 48.367-16.449 90.284 6.586 141.877-59.249 12.896-181.051 157.978-220.571 228.918"/></svg>