<!DOCTYPE svg PUBLIC "-//W3C//DTD SVG 1.1//EN" "http://www.w3.org/Graphics/SVG/1.1/DTD/svg11.dtd" [
	<!ENTITY ns_flows "http://ns.adobe.com/Flows/1.0/">
]><svg xmlns="http://www.w3.org/2000/svg" xmlns:xlink="http://www.w3.org/1999/xlink" width="537" height="253" viewBox="0 0 537 253"><defs><path id="a" d="M0 0h536.849v252.801h-536.849z"/></defs><clipPath id="b"><use xlink:href="#a" overflow="visible"/></clipPath><path clip-path="url(#b)" fill-rule="evenodd" clip-rule="evenodd" fill="#F7E4B9" d="M156.097 104.455c.259-1.179.224-2.658 1.854-2.473.17 1.617.209 3.094-1.854 2.473M168.459 144.633c2.986 2.653 7.089 7.229 6.181 11.744-4.623-1.35-4.555-7.397-6.181-11.744M179.584 94.568c.356-1.087-.748-3.631.62-3.71 2.432-.31 1.128 4.299-.62 3.71M190.092 160.702c5.045 1.961 8.417 5.593 11.127 9.893-6.49-.518-9.483-4.53-11.127-9.893M211.107 155.141c.27-.761.79-1.268 1.852-1.237.76 2.746 4.306 2.705 4.331 6.183-3.451-.262-3.17-4.249-6.183-4.946M216.051 151.434c3.039 1.974 5.208 2.647 5.567 6.182-2.597-1.32-4.992-2.845-5.567-6.182M287.136 54.391c.43-3.422 4.116-6.398 6.179-6.181-1.109 3.013-3.279 4.959-6.179 6.181M324.84 178.629h-3.091v-3.091c2.143-.081 3.585.532 3.091 3.091M343.382 95.803c11.82-8.368 21.677-18.705 28.432-32.139 1.146 9.386-7.896 13.943-11.126 21.015-6.219 3.259-9.671 9.282-17.306 11.124M348.944 58.1c.263-1.182.225-2.662 1.855-2.471.172 1.614.209 3.092-1.855 2.471M417.553 191.61c1.968 1.535 3.275 3.73 5.564 4.944.891 12.384-3.654 21.44-14.217 19.161-9.487-2.052-6.639-16.525-1.237-21.637 3.775-.34 6.034-2.202 9.89-2.468m-1.855 11.741h1.854c-.045-1.074.138-1.92.62-2.47-.718-.52-1.659-.815-3.09-.618-.512 1.746.87 1.601.616 3.088M476.273 48.827c.574-2.325 5.541.826 7.418 1.236-2.279 1.839-3.991-2.164-7.418-1.236M492.963 54.391c.188-.84 1.547-.513 2.475-.618-.102.718.132 1.103.614 1.236-.754 1.869-2.361-.437-3.089-.618M494.197 95.185c3.854-.548 9.068 2.874 12.98 4.326-4.094.795-9.232-2.711-12.98-4.326M514.596 118.673c3.936-.782 15.04 1.812 19.162 4.945-6.246 3.099-11.744-5.107-19.162-4.945M524.488 209.534c1.602-2.247 9.389-.46 11.12 1.235-3.166 3.192-7.265-1.231-11.12-1.235M524.488 182.339c3.045-1.383 8.689-.052 11.12 1.235-2.941 4.098-6.205-1.812-11.12-1.235M525.721 152.669c.436-2.184 6.623-.258 8.653 0 .079 1.107-.756 1.305-.616 2.472-3.622.116-4.074-2.933-8.037-2.472M528.814 169.978c1.507-1.271 7.053-1.317 5.561 2.47-2.545-.135-3.38-1.979-5.561-2.47"/><path clip-path="url(#b)" fill-rule="evenodd" clip-rule="evenodd" fill="#231F20" d="M518.921 47.59c4.453 1.734 9.362 3.004 14.838 3.71-1.23 4.525 1.809 4.785 3.09 6.799-.632 3.696-3.242 5.413-4.329 8.654 1.943 4.279 2.72 10.299-.616 13.597.861 2.796 4.052 6.035 1.855 9.892-5.049-.515-7.896-3.235-11.746-4.948-1.38.269-.25 3.046-.618 4.326-13.898-2.179-25.311-10.112-38.322-11.125-.169 2.231 2.442 1.677 2.472 3.709 16.237 3.336 26.515 12.632 43.885 14.834 1.251-1.318-1.307-5.099 2.475-4.944 0 4.944 2.783 7.102 2.472 12.361-2.363.246-4.903.754-7.417 0-2.493-.746-3.947-3.867-6.182-4.945-2.93-1.413-7.274-1.289-10.506-2.472-.688-.25-.847-1.667-1.237-1.854-1.731-.827-4.91-.377-7.419-1.236-2.468-.844-4.507-3.216-6.178-3.706-3.709-1.096-7.424-.364-9.893-2.474-2.024 4.096 3.861 5.608 7.419 6.18-1.058 1.417-4.718.227-6.796.62 6.07 7.782 21.948 7.671 29.047 14.215 6.179 1.651 12.653 3.009 18.545 4.946.024 2.034 1.041 3.077.616 5.562-14.605-2.762-27.438-12.488-45.741-13.599-.218 3.726 3.588 3.417 6.803 3.71 5.366 3.283 12.255 5.045 18.54 7.418-7.079-.135-14.944-4.831-22.249-6.802-1.582.069-2.165 1.135-3.094 1.856 14.563 7.075 30.061 13.206 46.36 18.543-.304 1.95 1.112 2.184.614 4.326-10.76 1.974-19.729-8.195-32.138-8.656-2.736-2.413-7.486-2.815-11.126-4.325-.64 1.625-.978 4.032 1.852 3.711l-1.233 2.469c8.886 7.393 23.533 9.021 34.611 14.219 3.105-.223 5.606.165 7.42 1.234-.13 1.933.416 4.536-.619 5.563-7.749-.697-11.907-4.985-19.779-5.563.065 3.236 2.028 4.565 4.944 4.945-1.51 1.67-4.028-.878-6.798 0 3.153 6.944 11.158 9.031 21.017 9.273 2.483 2.797 3.19 7.716-.619 9.888-4.371-3.251-11.418-3.829-16.071-6.801-.969.27-.528 1.946-2.473 1.24-.444 3.531 3.09 3.089 1.855 7.412 5.956 2.081 11.914 4.159 19.157 4.948 1.308 2.403.324 4.923-1.233 6.181-5.541-1.054-10.748-2.439-15.454-4.326-3.229 2.138 2.789 5.72 0 7.417 4.631 1.76 8.77 4.007 15.454 3.707.919 2.395 2.316 2.972 1.233 6.799-7.108.672-12.271-6.323-18.54-2.47.439 1.49 3.303 2.185 1.236 4.324 3.921 1.92 9.807 4.933 14.835 3.711-1.31-3.434-7.334-2.146-9.272-4.946 3.711.822 7.807 1.258 11.741 1.855-2.779 3.84 1.407 6.138 0 9.889-6.355 2.896-13.058-7.26-18.54-1.234-.043 2.308 3.886.643 4.326 2.472-.051 1.595-2.644.649-1.854 3.089 2.586 3.392 8.885 3.065 14.835 3.092 1.163 12.375.716 26.722-3.092 38.939-33.602-.362-67.363-.045-98.277 0-9.92.016-18.16-2.319-26.577-4.326-6.174 3.966-15.793.469-21.017-3.092-.445-1.887.633-2.25.618-3.708-6.928-7.737-9.2-21.23-6.8-33.377-16.135 4.754-33.198 7.236-52.538 4.944-12.874-1.526-26.163-3.995-38.321-7.417-1.742-.491-4.222-1.426-7.416-2.475-1.501-.491-2.401-2.034-3.712-2.47-7.737-2.578-16.143-.938-24.724-2.472-7.308-1.31-14.008-3.374-21.633-2.475-5.85-4.084-10.097-2.659-15.452 1.234-1.151.84-2.172 2.962-3.709 3.712-2.29 1.12-5.301.533-7.416 1.234-3.369 1.119-9.015 3.736-16.69 2.474-1.517.547-2.267 1.852-4.946 1.236-2.993-4.218-11.614-2.807-16.686-4.944-2.078.223-1.033-2.678-1.857-3.712-1.907-.15-3.492-.625-4.944-1.234-2.414-9.954-8.906-25.576 0-32.759-9.602-1.328-21.481-3.483-29.667-8.035.232-8.77-11.056-25.608-.621-29.666 1.69 5.564 1.396 19.558 6.801 17.305 1.895 2.224 3.898 4.343 5.563 6.798 1.858.624 1.094-1.374 1.236-2.471l4.326 2.471c1.758.108-.747-4.042 1.856-3.09 1.214 2.7 2.936 4.895 4.942 6.799 2.041-.354-.78-3.997.62-3.709 2.069 1.227 3.194 3.398 4.944 4.946 2.33-.667-1.486-5.128 1.238-4.326 2.217 2.931 2.837 7.462 7.415 8.033-.793-1.481-3.144-6.731-4.327-9.889 2.62.617 6.695 6.526 6.802 9.889 2.952-.34 6.21-.381 8.653-1.233-3.204-5.038-4.765-11.722-7.418-17.309 5.511-.074 4.555 9.344 8.654 8.653.051-8.091-6.913-14.514-9.274-22.253-20.625-4.26-48.138.583-57.482-14.214-3.297-5.219-2.957-11.161-7.416-19.16.075-9.199 3.74-14.803 5.562-22.253 7.79-7.456 18.592-11.902 29.05-16.689-1.061-3.411-6.352-1.364-8.653-.619-4.828-.292-21.034-3.068-28.434-3.707-3.665-.317-6.955 1.222-9.887 1.236-8.324.031-26.39-1.388-35.851-3.709-13.816-3.392-32.437 2.309-46.356-.618-13.436-2.826-16.792-28.895-.62-34.612 2.132.135 2.925 1.606 4.946 1.851 10.261-2.717 23.328-2.632 32.758-6.176 21.905-2.106 46.381-1.873 69.228-4.949 29.586-3.983 61.052 3.467 90.859-1.236 6.083-2.499 13.379 1.482 17.928-1.233 10.615 2.614 26.437.876 35.849 6.179 5.821-3.313 8.99.573 12.981 2.473 1.36.646 3.59.081 4.944.616 1.068.423 1.363 1.998 2.472 2.475 4.801 2.059 10.48 3.212 15.453 5.56 2.712 1.282 7.818 3.128 12.362 4.945 6.53 2.612 16.366 7.992 24.723 9.271 9.547 8.788 23.81 12.865 33.995 21.02 5.115-5.605 7.217-14.214 12.98-19.163 6.368-2.699 11.461-6.674 19.782-7.418 1.367.338.877-1.179 1.854-1.237 14.525-.927 28.815-2.089 41.412-4.946 20.092.476 49.352-8.026 76.025-8.652 4.423 1.883 9.421 11.976 3.093 15.453 1.759 1.945 5.325 2.09 6.796 4.328.101 1.745-1.854 1.438-1.854 3.087-10.542-3.055-19.734-7.461-31.522-9.27-2.244.558 1.286 3.49-.618 3.71-6.896-.366-14.781-5.477-21.015-2.473 16.822 5.222 33.833 10.257 49.447 16.688h6.183c1.355 1.323 2.354 3 1.855 6.181-4.311 1.945-6.563-2.94-9.892-4.326-3.928-1.634-9.154-1.479-13.597-3.09-10.353-3.754-18.269-8.474-30.903-9.892-3.618-2.152-8.814-2.726-14.222-3.088-2.319-1.802-6.146-2.095-10.507-1.855 3.446 3.646 12.897 4.041 18.545 5.564 14.676 3.952 30.094 10.633 43.885 14.833-25.846-4.167-44.559-17.1-74.172-19.16 7.132 3.582 18.261 6.456 26.576 6.797 4.011 3.408 9.578 5.26 16.071 6.182 6.107 4.195 15.6 5.002 21.635 9.271 8.41.071 13.348 6.794 21.635 4.945-1.181-4.583-7.18-4.353-9.892-7.415m-508.698-11.743c-.166-2.64-.314-5.261 2.474-4.943.488 2.189.892 4.46 2.475 5.561 3.704-1.163-.927-6.883 3.088-7.419.062 2.825-.618 6.392 1.855 6.801 1.819-1.27 1.346-4.834 2.472-6.801 1.327 1.766-.198 6.379 3.091 6.184 2.233-.446.285-5.069 1.853-6.184 3.857.062-.083 7.917 3.09 8.657 4.22-2.048.404-6.103 1.858-9.272 2.18 1.111.682 5.906 3.707 6.179 1.685-1.816-.489-7.492 1.236-9.273 1.178 2.118.768 5.827 3.709 6.182 1.621-1.053.625-4.73 1.851-6.182-.401 2.877.218 4.729 3.093 4.329 1.639-1.969-1.342-4.932 1.855-5.564.976.057.483 1.576 1.854 1.235 1.195-.657.861-2.841 1.853-3.706 2.502.59 1.718 4.463 2.472 6.8 2.688-.404 2.024-4.158 4.33-4.943.644 2.234-1.404 7.168 1.234 7.416l3.709-6.802c.224 2.867-.772 6.954 1.854 7.417 1.605-1.483.51-5.67 3.091-6.182 1.333 1.232-1.565 5.36 1.856 5.567 1.188-1.076.24-4.295 2.471-4.328 1.154 1.41-.835 4.627 2.472 4.943.451-2.843.262-6.329 2.471-7.417 1.101 1.992-.236 6.421 2.474 6.802.827-2.47.447-6.145 2.473-7.416 1.819.235 1.208 2.908 2.472 3.704 1.928-.34.365-4.165 3.089-3.704-.479 2.125.346 2.948 2.475 2.47 1.291-.563.218-3.488 1.851-3.71 1.51.345 1.318 2.394 3.712 1.854.436-1.825.169-4.361 1.851-4.943 2.305-.656.977 2.318 3.091 1.853.965-1.096.828-3.293 3.71-2.472v4.948c2.609-3.956 4.916-5.874 9.889-3.713.421 2.861-2.665 8.669 1.237 9.271.915-2.791.875-6.541 3.091-8.034 2.55 2.729-2.196 8.955 1.235 10.507 4.04-.901.74-9.148 4.327-10.507.333 3.992-.719 9.371.621 12.364 4.816-.333.484-9.816 4.325-11.128 2.694 2.827-.352 8.045.616 12.982 5.223-.546 1.224-10.316 4.324-12.982 3.406 2.453-1.218 9.093 2.477 11.128 2.169-4.148 2.346-7.582 1.235-12.364 1.489.253 1.344-1.127 3.091-.617.729 3.388-1.52 9.761 1.236 11.124 2.768-1.967 1.066-8.411 2.473-11.744 2.483 1.845-.571 9.226 3.09 9.891 2.99-1.955-.187-10.078 1.853-12.98 2.61 2.127.637 8.841 4.328 9.89 1.989-2.883-1.03-8.323 1.236-9.89 4.471.475 1.942 7.951 4.946 9.89 3.289-.418-.751-8.167 2.471-8.654 4.031 1.535-.224 11.351 3.092 13.597 2.912-2.857-.281-11.818 4.327-12.979.019 4.761.184 9.662-.619 13.6 1.887.444 2.254-.634 3.71-.621.128-4.401-.524-9.586 2.472-11.124 1.072 3.047 1.388 6.851 1.234 11.124 6.038-.557.486-12.699 6.798-12.979.78 4.247-1.398 8.256 0 11.126 4.046-1.933 1.255-10.698 4.327-13.597 1.64.21 2.088 1.621 2.475 3.09-1.846 1.564-.67 3.946.616 5.562 2.13-3.02.373-9.928 3.71-11.743 2.901.928-1.655 7.908 2.473 8.653.806-3.725.912-8.152 3.709-9.888.344 2.744-1.079 7.258 1.854 7.416.455-4.075 1.884-7.181 3.089-10.507-.424 3.61 2.16 3.208 0 5.562 2.456-.604.256 3.454 2.471 3.089 3.162-1.166-.934-9.589 3.092-9.885.259 1.964-.17 9.52 1.855 11.741 3.634-2.362.684-10.516 1.235-13.598-24.852 1.534-60.973 4.965-87.77.618-23.86 6.785-53.357 1.638-79.735 6.799-12.012 2.944-27.697 1.824-38.941 6.797-3.749 4.829-.537 10.892 1.853 16.072m110.641 32.142c-6.581 6.433-11.74 17.843-6.18 30.905 2.797.086 3.018 2.747 6.18 2.473-.251 3.133 2.16 3.611 3.089 5.559 1.752-.64 2.58-.64 4.331 0-.193 3.491.905 5.691 3.09 6.803 2.069-3.352-2.061-5.714-.619-8.037.261 2.414 2.365 2.989 3.09 4.946l3.708-1.236c3.021 3.779 2.504 11.096 8.653 11.743-2.255-3.931-5.203-10.448-4.326-15.453 2.781 5.048 3.537 12.123 8.035 15.453.846-4.638-4.473-11.534-3.09-16.69 3.11 5.546 4.892 12.415 9.272 16.69 2.39-4.415-6.167-11.423-4.326-17.309 4.339 4.726 4.596 13.538 9.889 17.309 1.396-4.443-5.793-11.708-3.709-14.834 2.002.471 2.523 2.418 2.474 4.943 3.826 1.738.872 10.256 6.798 9.891-2.333-4.881-4.614-13.1-4.946-17.925 3.272 1.881 2.757 7.545 6.182 9.274 1.443-8.939-6.743-16.652-6.182-24.726 6.633 3.667 5.703 14.901 9.893 21.015.871-10.145-3.099-15.447-5.567-22.253-10.186.144-14.863-8.902-21.631-10.505-4.12-.979-9.47 1.067-14.217 0 1.251-4.565 7.963-3.94 11.744-4.327 1.502-5.789-.28-11.44-.619-16.07-7.346 2.347-16.805 8.246-21.016 12.361m18.543 52.537c.898-2.312-.392-5.64-3.089-6.181v1.855c2.849-.376-.366 5.312 3.089 4.326m35.233-59.335c-1.111-8.163-9.81-8.736-19.78-8.038-1.219.432.153 3.449-1.237 3.709-1.869-.189-2.207-1.914-4.942-1.234-4.848 14.716 19.918 12.866 25.959 5.563m-12.98 9.27h-4.327c-1.208 3.466 5.537 3.466 4.327 0m14.218 91.481c-6.608-.223-13.19-.418-15.453 3.705-.391 6.574.178 12.188 1.852 16.691 4.235 1.126 5.879 4.835 9.893 6.179.107-1.843-2.38-3.781 0-4.327 3.015 2.752 3.922 7.614 9.27 8.036.459-3.158-4.796-3.832-2.472-6.8 2.868 3.106 5.284 6.67 9.888 8.039.085-2.767-2.502-2.857-2.472-5.563 4.715.641 5.056 5.655 9.271 6.797 1.411-3.065-3.494-4.59-3.709-8.034 3.364 1.994 4.84 5.871 9.274 6.801.191-2.463-1.43-3.106-1.239-5.563 1.873.188 2.209 1.91 4.946 1.234.52-3.425-4.302-4.739-2.472-7.416 3.438 1.709 4.318 5.981 8.034 7.416-.693-6.932-7.899-10.636-7.415-16.689 4.26 3.566 5.81 9.846 10.507 12.979-3.984-12.086-13.031-19.108-20.399-27.812-3.663-.16-5.513 1.49-8.654 1.852.192 3.313 4.16 2.851 4.947 5.563-3.407 1.752-6.801-1.282-7.417-4.327-2.839-.364-4.753.193-6.18 1.239m-10.511-87.157c.249-1.606 1.846-1.862 1.856-3.706-.9-.956-3.163-.545-4.946-.618-.264 2.738 1.033 3.914 3.09 4.324m6.183 0c.392-1.411 1.226-3.726 0-4.941-1.084.564-3.083.209-3.71 1.235 1.68.793 1.783 3.164 3.71 3.706m4.944 28.435c-1.013-7.228-1.658-14.824-7.416-17.307 2.235 6.006 3.369 13.114 7.416 17.307m7.416-36.467c1.748-.513 1.603.869 3.09.62 2.072-3.368-2.128-3.435-1.236-7.418 2.337.894 1.188-1.701 3.092-1.24 2.764 1.357 1.376 6.866 4.946 7.419 1.539-3.012-1.911-5.749-2.474-8.655 2.735-2.001 4.884-4.59 9.274-4.94.478-3.44 2.233-5.594 5.561-6.184 1.768.908 2.322 3.036 4.326 3.708 2.675-1.857-.273-9.339 2.471-11.125 1.436 3.1 1.824 7.241 4.947 8.652.75-5.693-1.428-8.46-2.472-12.36 1.944.707 1.504-.971 2.472-1.239 3.393.462 1.864 8.655 5.563 6.801.957-.203-2.252-4.681-.616-5.562 6.011-.246 3.032 8.506 7.417 9.89.115-3.386-.771-7.777 1.853-8.655 2.189 3.168.794 9.917 4.324 11.745 1.216-2.497-.174-7.594 1.239-9.892.619.002.734-.499 1.236-.615 4.583.153 1.128 8.348 3.091 11.124 4.561-.587.065-10.237 5.563-9.889.462 4.994-.738 8.329-.62 12.979 5.956-.432 2.117-10.659 7.418-11.746.291 2.62.226 8.959-1.855 11.129.754.069 1.464.185 1.238 1.239 5.314-.657 2.81-13.089 7.417-12.368 2.712.429-3.788 14.574-4.33 15.457h3.71c1.174-3.157 2.654-6.004 4.944-8.038.195-3.662 1.592-8.925 5.564-6.798-2.175 5.858-5.689 10.381-7.417 16.687 8.465-1.834 7.547-13.056 14.219-16.687.924 7.449-6.437 11.595-8.654 17.923 8.411-1.062 8.566-10.385 14.217-14.214 1.346.71 3.997.123 4.326 1.854-3.08 5.574-7.65 9.658-11.743 14.215 1.642 1.388 3.146-.922 4.326.621-.471.97-1.963.922-1.857 2.473h1.237c.139.477.018 1.215.62 1.232 6.774-3.727 14.098-6.914 17.306-14.214.9.34 3.196-.724 3.09.618-3.961 7.988-12.72 11.178-18.541 17.307 8.193.159 10.697-5.372 17.307-6.8 1.614-2.245 5.23-7.151 8.033-4.328-4.01 5.248-12.138 10.016-18.544 12.982-2.075.962-6.692.665-5.56 4.324 12.159-1.119 21.618-9.48 32.14-14.215-3.336 8.408-14.088 9.4-21.017 14.215-6.11.277-10.169 2.603-16.686 2.475 2.714 4.146 11.221 2.579 14.835 1.854 11.237-2.262 21.933-10.629 30.285-14.835.446 1.889-.631 2.252-.62 3.71-9.454 4.554-16.74 11.278-29.665 12.361-.316 1.747-3.509.615-3.713 2.473 13.984 1.459 26.283-6.971 35.854-9.888-4.739 5.974-14.069 7.357-21.017 11.123-2.779.31-6.896-.719-6.8 2.472 9.134-.175 18.981-5.293 26.579-7.416 1.661-1.778 6.249-6.038 8.035-3.708-7.607 8.054-21.064 10.252-32.141 14.836 4.402 1.507 9.723-1.397 14.835-1.239.603-2.484 4.54-1.638 6.799-2.473 2.061-2.902 6.665-2.948 9.888-4.943 2.527-1.565 5.16-6.972 8.036-3.709-10.388 8.157-22.563 14.522-39.558 16.07v3.09c5.139-1.659 11.392-2.203 17.306-3.09 17.523-9.263 40.588-16.276 43.268-38.32-1.971 1.531-2.718 4.288-5.564 4.942-1.976-2.582.572-4.914 1.237-6.798-1.913-.816-3.428 1.832-4.326 0-.857-2.788 2.404-3.085.619-4.945-2.565.161-3.322 4.564-5.563 3.09-.192-2.574 3.036-3.93 1.236-6.183-2.438 1.07-2.953 4.055-5.563 4.948-.932-4.023 2.476-3.709 2.473-6.798-5.104-.984-4.169 4.071-8.033 4.326 0-.621-.502-.739-.621-1.237.375-2.304 2.963-2.391 2.47-5.563-3.742-.862-2.83 2.938-6.175 2.473-.478-2.328.751-2.958.614-4.946-2.577-.311-2.724 1.804-5.562 1.233-.302-1.947 1.112-2.179.617-4.324-2.836.049-3.982 1.786-7.416 1.235-.268-.97-1.947-.528-1.238-2.472-2.718-.165-5.895.13-5.562-3.091-21.8-4.116-37.242-17.766-63.663-13.597-13.816 4.316-28.93 7.335-45.123 9.27-2.256 5.163-10.371 4.466-12.359 9.89-2.601.495-3.435 2.753-4.948 4.329-7.369 1.901-12.137 6.404-17.924 9.889 6.074 3.813 14.831 4.947 14.213 15.454m-5.562 65.52c1.706 3.743 2.151 10.122 6.18 11.123-2.144-7.928-5.137-14.771-9.888-18.542.826 2.708 3.141 6.167 3.708 7.419m3.091-30.906c-.479-.14-1.219-.018-1.236-.62 1.173-2.253-.843-3.854.617-5.563 1.724.545 2.05 2.485 2.471 4.326 2.018.164 2.975-.731 3.092-2.472-1.576-1.698-1.306-6.183-3.71-3.707-.198-2.764-1.084-4.879 1.236-6.181-.028 3.534 2.686 4.32 2.474 8.034 4.273.026 2.504-3.564 2.472-6.799.851-.027 1.358.292 1.856.618-.271-2.124.244-3.463.616-4.945-5.68-1.241-7.853 3.945-12.36 1.855-.204 1.971-1.977 3.556-3.09 1.237.457 1.902-1.699 1.186-1.238 3.092 3.339 2.229 2.817 11.594 6.8 11.125m-6.181-30.287c2.03-.031 3.039-1.083 3.71-2.472.205 2.178 3.42 3.543 4.942 2.472-.575-1.898-1.922-3.021-2.47-4.945-1.737 1.354-4.66 1.524-6.8 2.473.914.111.565 1.495.618 2.472m6.181 56.863c1.282-1.272-.002-3.135-1.856-3.089v1.856c1.219-.188 1.227.832 1.856 1.233m8.036 17.93c5.033-3.427-4.106-12.963-4.947-12.365 1.65 4.121 1.761 9.777 4.947 12.365m24.724 32.139c.814 1.656-.07 5.016 3.092 4.327-4.542-11.328-10.662-21.073-21.016-26.58v3.708c8.767 3.388 11.578 12.735 17.924 18.545m-12.979-20.397c8.001 3.532 11.217 11.855 17.306 17.307-2.631-9.525-8.716-15.598-16.071-20.398-.136.483-.519.719-1.235.617v2.474zm4.326-2.474c9.041 4.145 11.764 14.61 19.16 20.397-.183-6.413-7.258-9.22-6.18-14.836 2.545 2.092 3.985 8.233 7.418 7.419 1.811-3.65-2.695-4.711-3.09-8.035 3.941.177 3.766 4.475 7.417 4.943-.257-3.486-1.146-6.657 0-9.889-1.336-2.798-6.393-5.138-4.946-8.653 2.165 1.338 2.696 4.311 5.562 4.946.06-3.772-2.913-4.507-4.325-6.801-1.458-.013-1.823 1.066-3.708.619-.483 1.372-1.3 2.409-1.236 4.325 1.842 3.522 8.153 5.847 6.799 10.509-3.681-6.417-9.815-6.95-11.126-16.069-1.447 5.146-8.641 4.544-11.745 8.032v3.093zm12.98-132.892c5.58-3.982-.281-11.254 2.473-16.069-1.035-.82-2.073-1.637-4.329-1.24 2.402 4.452-.134 14.095 1.856 17.309m6.799-1.237c-1.113-2.823 1.246-12.082.619-16.073-1.492-.25-1.344 1.131-3.09.622-.05 6.534-.123 11.192-.62 16.07 1.433.196 2.373-.101 3.091-.619m3.708-.616c2.122.603 5.161-13.865-.616-14.834-.273 5.609.263 13.537.616 14.834m7.415-1.855c-.164-4.696.982-8.086 1.856-11.744-.729-.712-2.184-.698-3.708-.617.273 4.464-.719 10.196 1.852 12.361m5.566-.619c1.579-2.336.088-7.741 2.472-9.27 1.102 2.265 1.441 4.72.616 7.417h4.328c-1.361-2.479-.801-4.858 0-8.037-2.121-1.381-5.825-1.177-8.655-1.853-2.693 3.001.016 7.831-1.234 11.743h2.473zm35.85-1.853c-6.191-2.959-16.024-8.079-22.871-3.091-2.242-.029-.147-4.389-3.09-3.71-1.409.855-.232 4.301-.619 6.181 8.336-2.538 18.881-1.539 26.58.62m19.778 168.121c-1.737-.089-1.781 1.515-1.853 3.091 1.874.23 1.282-2.01 1.853-3.091m38.943-86.532c1.743-.698 5.71-1.932 6.798-1.235-.036.374-.095.729-.62.615-5.957 2.393-12.555 6.529-19.16 8.654-2.8.9-7.273-.363-8.036 3.71 31.672-4.589 51.735-20.791 63.049-45.738-2.484-2.32-5.951-6.036-9.891-4.949.525-1.97-.54-2.343-1.239-3.087-7.147 2.12-5.575 12.964-12.36 15.451-1.032 4.189-4.276 7.555-7.416 9.888-9.992 7.432-23.358 13.068-37.703 16.071-2.993 4.249-12.566-1.872-12.982 4.944 1.305.854 4.771-.26 6.184-1.235 32.532-2.494 51.848-18.203 64.278-40.792-6.355 21.982-24.435 34.422-45.735 40.792-4.495 1.345-9.501.505-11.127 3.708 9.562 1.949 18.581-3.848 25.96-6.797m-33.996 79.116c-.719-.521-1.661-.814-3.092-.617v2.471h2.471c-.03-.85.292-1.356.621-1.854m3.088 6.181c-1.055 4.766 4.754 2.661 4.946 6.182 13.6 4.115 27.188 8.246 43.268 9.888 1.955-2.164 8.145-.093 8.652-3.705-20.245 1.576-40.467-6.126-56.866-12.365m19.163-9.273c-4.455-1.43-6.465-1.882-9.895-3.704l-1.232 3.089c3.145.56 6.629.789 7.418 3.708-5.876 1.6-8.327-4.144-11.744-1.236 10.291 5.985 23.45 9.105 36.465 12.364-15.84-.436-29.249-6.6-40.175-9.891 1.826.536-1.434.923-.619 2.472 7.101 2.583 14.267 5.103 20.398 8.653 10.969.718 23.439 6.03 33.376 3.708 1.024.01.349 1.714 1.238 1.854.668-3.037 6.889-.529 8.034-3.089-5.583-3.688-13.636.206-21.014-3.093 5.922-2.378 12.088 1.555 15.452-1.236v-1.854c-7.848-.49-20.991-.216-26.579-4.943 7.039-.559 20.221 4.807 27.197.617-8.729-1.363-18.514-1.678-25.962-4.326-2.549 5.781-12.97 5.343-12.358-3.093m-5.566 18.545c-6.507-.084-9.492-3.692-15.451-4.324.25 3.453 2.647 4.768 6.8 4.324 6.271 6.725 21.375 7.855 31.522 8.654-5.546-4.287-16.488-2.962-22.871-8.654m4.947-21.632c-1.449-.16-.355-2.719 0-3.092-1.816-.717-5.825-1.223-6.184 1.237 3.072-.779 3.532 4.264 6.184 1.855m53.776-103.221c-9.948 25.005-29.563 36.605-56.866 43.881.055 1.689-1.03 1.247 0 2.475 15.93-1.585 30.215-10.168 42.03-17.927 3.838-4.901 7.415-10.427 11.743-15.452 3.113-3.612 9.531-7.827 8.035-14.216-2.968-.909-2.579 1.541-4.942 1.239m-41.412 97.039c-5.308.152-8.21-2.094-12.982-2.471.094 1.535-.972 1.909-1.238 3.087 4.05.222 12.38 4.592 14.22-.616m47.592-75.41c-2.817-.755-2.425 1.697-4.946 1.239-4.063 7.262-13.378 9.282-17.307 16.684-4.533 1.651-7.734 4.628-11.743 6.803-8.048 2.623-16.927 5.005-24.107 6.797v1.855c27.909-.648 45.161-15.852 58.103-33.378m-48.213 38.94c22.235-5.791 40.647-15.83 51.302-34.612-4.355.792-6.25 4.051-8.65 6.799-11.442 9.843-21.945 18.421-38.325 22.869-4.943 1.341-10.298.738-12.979 3.711 1.67 1.623 5.365 1.226 8.652 1.233m3.708-11.743c9.973-5.688 21.651-9.669 28.433-18.542 2.297-.124 2.424-2.283 3.093-3.09 4.056-4.885 14.951-11.22 10.509-16.69-3.058 6.834-8.608 11.174-14.837 14.836-6.497 9.983-17.785 15.178-29.052 20.397-4.361.168-7.935 1.13-9.889 3.709 3.888 1.684 6.603-.669 11.743-.62m19.781 57.482c-9.074.835-14.435-2.047-22.868-1.852v3.708c8.731-1.044 19.745 3.913 22.868-1.856m12.98-6.179c-11.002-.563-23.362-.886-34.615 0-.48.135-.717.516-.618 1.237 9.909 1.809 27.351 4.037 35.233-1.237m-24.106-36.467c.301-.732.658-1.403 1.237-1.856 2.542.488 3.17-.948 5.561-.615 5.974-5.362 17.146-5.52 19.163-14.835h-3.709c-5.967 10.931-23.35 10.44-32.762 17.922 4.358-.361 7.21-2.399 10.51-.616m16.069 0c2.126-4.881 11.76-2.252 11.127-9.891-6.471 2.593-12.345 5.787-17.927 9.272v1.233c2.879 1.036 3.417-.738 6.8-.614m6.183 43.886c.14-1.17-.696-1.363-.617-2.475-1.17.276-3.729-.843-3.093 1.234 1.443.206 2.556.747 3.71 1.241m12.98-69.23c-3.91.008-5.307 2.521-6.179 5.562 3.618 1.194 5.325-2.23 6.179-5.562m2.471-54.392c6.69 6.337 14.267 15.42 17.309 24.725.833 2.553.465 6.198 1.233 9.269.728 2.889 2.541 5.314 3.091 8.037 2.804 13.894 4.098 34.463 2.474 51.301-1.069 11.1-3.08 26.875-6.18 39.558-1.967 8.025-8.135 20.795-6.802 27.815 1.198 6.288 18.972 14.006 27.196 6.801 4.901-4.291 4.85-28.746 4.946-35.232.069-4.56 1.941-8.438 2.472-12.979 2.05-17.493-.527-35.197 0-50.687-3.14-30.03-10.068-56.274-28.431-71.081-6.366-3.55-17.582-3.935-24.108 0v1.855c2.536-.06 5.068-.12 6.8.618m3.092 158.849c-.078-2.754 2.064-3.286 1.853-6.178-1.627-.642-3.794-.739-6.18-.621-2.393 4.136 1.332 6.945 4.327 6.799m7.415 17.308c9.548.392 18.505 4.466 24.106.621.359-2.008-.42-2.877-.618-4.326-8.6.127-19.406.481-24.104-4.945-2.574 2.134.736 5.286.616 8.65m33.379-183.573c-6.369-1.872-10.894-5.593-19.161-5.566v1.853c5.464 1.385 14.273 5.858 19.161 3.713m12.359 8.656c-7.073-5.378-19.828-6.659-27.812-9.274-.151.88-1.019 1.042-1.238 1.855 8.996 2.355 19.88 9.347 29.05 7.419m-6.797 189.753c-1.439-5.976-10.826-4.006-14.834-7.417-.925 1.138-2.579 1.542-3.09 3.093 5.93 1.482 11.142 3.69 17.924 4.324m-6.799-208.917c-3.583.379-5.84.815-9.271 0 14.786 7.464 35.419 9.083 49.448 17.306 16.197 4.198 31.134 9.658 45.12 16.071 5.947.083 10.854 5.907 16.074 1.236-.067-3.644-5.982-1.439-4.33-6.798-3.555-2.062-11.136 2.112-11.744-4.946-22.784-5.865-45.696-17.666-68.607-22.254-3.358-.671-9.3-1.499-10.51-1.236-.24 2.918 3.479 1.884 4.325 3.71-3.574.074-6.263-.736-8.648-1.855-1.709-1.651.727-1.343.617-3.091-1-.693-5.446-1.09-5.564-.615.583 1.266 3.185.521 3.09 2.472m15.455 45.738c-4.193-1.371-8.474-2.651-12.98-3.708 3.4 5.488 15.11 7.939 24.106 9.888-.143-5.216-6.842-3.871-9.891-6.18 2.076-2.126 5.141 1.091 6.183 0-.027-.851.291-1.357.616-1.854-7.115-2.855-16.331-6.642-24.107-6.799v1.854c6.094 1.525 12.483 2.768 16.073 6.799m-8.656-19.779c-.032-1.722-5.941-3.103-6.18-.62 1.169 1.099 4.085.454 6.18.62m4.328-12.98c-2.794-.623-7.825-4.129-9.27-.621 2.332 1.028 8.185 3.933 9.27.621m.616 40.795c-1.745-.932-4.974-.385-6.18-1.856v2.474c1.706.673 5.328 1.231 6.18-.618m9.273-17.306v-3.091c-2.747-.137-4.812-.959-4.326-4.328-1.87-.604-3.663-1.282-4.947-2.47-3.045.661-3.711 3.703-5.563 5.562 6.183.202 8.286 4.486 14.836 4.327m-4.945 37.082c-.252-1.487 1.128-1.342.619-3.09-3.629.54-4.65-4.128-8.037-1.854v1.854c2.101 1.406 6.063.945 7.418 3.09m9.271-7.416c-.136-1.166.698-1.364.617-2.472-2.073-1.384-6.814-.911-9.889 0 3.969-.051 5.071 2.758 9.272 2.472m-5.561-47.593c-1.608-.369-2.226.248-1.856 1.855 7.853 4.513 17.158 7.565 27.196 9.892 1.206-1.392-.695-3.418-1.235-4.949 5.604 1.611 10.99 3.436 14.834 6.802-4.106.191-5.219-2.612-9.271-2.475.562 5.622 6.645 5.719 11.744 6.802 4.017 2.574 9.016 4.171 14.833 4.941 7.299 2.623 14.344 8.703 24.108 6.802-.03-.852.29-1.358.615-1.854-2.603-4.816-7.01-5.248-12.36-7.418-10.888-4.42-28.125-10.939-38.32-15.453-10.918-.328-22.432-8.378-33.379-8.652-.482.135-.721.516-.619 1.236 2.012.047 3.331.79 3.71 2.471m6.8 42.031c.259-3.971-5.408-2.009-6.183-4.945.622 3.083 4.174 3.247 6.183 4.945m1.851 19.781c-2.684-1.796-1.355-3.461 0-5.563-.595-1.055-1.941-1.356-3.09-1.855.34 3.841-3.267 3.737-3.71 6.8.378 1.712 5.622 1.756 6.8.618m-.616-45.74c-.974.057-2.144-.083-1.856 1.233 4.724 5.811 15.459 8.822 24.109 8.656v-1.853c-6.612-4.346-15.553-3.41-21.02-8.036 7.922.528 11.89 5.007 20.399 4.946-3.125-5.942-12.667-5.471-19.158-8.039-.266-2.21-3.209-1.738-5.567-1.854-.583 3.263 1.885 3.476 3.093 4.947m2.475 63.047c.496-2.558-.952-3.173-3.093-3.093.529 1.975-.973 1.913-1.238 3.093 1.17 1.226 2.919.3 4.331 0m1.235 30.906c-.518-.526-4.831-1.696-4.328.615.833.843 4.315 1.18 4.328-.615m25.962 84.06c-8.61-3.14-18.628-4.864-28.438-6.802 8.143 3.196 19.551 6.41 28.438 6.802m-26.582-160.088c5.591 3.049 14.414 8.813 21.017 6.801-4.076-4.539-14.599-8.668-21.017-6.801m21.017 2.471v-3.091c-7.441-2.45-15.409-4.373-22.251-7.416-.358 2.006.417 2.877.619 4.326 7.72 1.306 14.134 6.641 21.632 6.181m-19.164 14.216c7.907 2.014 15.116 7.923 24.105 6.802-4.321-6.185-16.27-4.743-21.016-10.508 6.548.872 10.24 4.593 16.689 5.561.442-6.563-10.417-6.777-16.689-8.653-.689 2.605-3.231 3.362-3.089 6.798m13.602 30.29c-3.954.242-4.419-3.002-9.275-1.854-.491 4.404 4.355 3.477 6.8 4.942.099-.727-.104-1.754.619-1.852 2.422 1.817 7.06-1.036 10.508-1.236-2.649-6.214-13.119-4.605-17.927-8.656-1.433.214-2.896.4-2.471 2.476 3.564 2.406 8.435 3.512 11.746 6.18m8.032-6.803c1.9.462 1.189-1.693 3.095-1.234-2.555-3.082-1.931-6.212-4.33-8.654-1.074.329.67 2.979.618 4.326-1.687-.449-1.246 1.23-2.475 1.237-2.592-5.033-9.708-5.539-16.069-6.798 2.675 7.419 14.03 6.16 19.161 11.123m-12.98-13.594c-1.674-.91-6.235-3.64-6.181.617 2.673.08 4.074.785 6.181-.617m3.708 34.612c.157-2.216-1.855-2.264-1.853-4.327h-4.326v2.473l6.179 1.854m11.128 8.653v-3.09c-4.362.034-7.75-.908-9.274-3.71-2.071 1.985-5.515-1.128-6.797 1.238 4.818 2.242 10.315 6.208 16.071 5.562m.616 9.27c-2.846-.771-7.38-5.355-10.504-1.854 2.096 2.004 7.75 6.159 10.504 1.854m0-27.195c-2.545.486-1.159-2.958-3.707-2.472-.554 1.3-1.716 1.994-2.47 3.092 1.295 1.656 6.071 3.212 6.177-.62m29.052-53.156c-2.993-4.587-10.593-6.889-16.689-8.653-5.399-1.564-11.033-1.803-15.451-4.327-1.064-.033-1.581.472-1.854 1.237 9.193 5.653 22.675 10.269 33.994 11.743m-32.759 66.136h3.707v-3.092c-2.143.497-2.376-.917-4.326-.616-.081 1.525-.095 2.978.619 3.708m11.126-126.093c-1.128-.802-6.803-2.701-7.419 0 1.571.36 6.444 3.062 7.419 0m19.163 124.856c-.285-2.604-3.466-2.305-3.709-4.944-.107-1.34 2.188-.282 3.089-.616-4.455-5.022-11.357-7.601-19.778-8.654-1.063 5.598 7.646 1.418 8.035 5.562-3.502 1.067-6.117-3.36-8.035 0 5.16 4.523 12.27 7.096 20.398 8.652m-13.603 93.336c.53-2.931-5.93-2.403-5.561 0h5.561zm2.474-50.068c1.099 5.136 7.55 1.608 9.273.621-1.95-.115-2.09-2.035-1.854-4.329-.735-.714-2.189-.7-3.712-.619-1.516.824 1.112 1.869-.614 2.476-1.114.077-1.45-.616-1.238-1.856-1.709.354-2.171 1.949-4.329 1.856-.634-1.429-.831-3.291-3.087-3.091-.971.265-.529 1.942-2.474 1.234v3.09c2.921.17 5.703 1.656 8.035.618m8.654-12.98c-.35-3.613-3.506-3.147-1.854-7.418-3.48-1.051-6.297-2.768-9.891-3.707-1.116 2.796-6.398 1.426-4.943 6.798 7.203-.33 10.32 5.775 16.688 4.327m0-14.218c.776-6.607-5.531-11.114-10.51-8.032-1.352-1.288.543-2-.618-3.092-2.034-.027-3.076-1.044-5.561-.62 1.149 3.796.447 2.623 0 6.799 6.252.961 10.257 4.17 16.689 4.945m2.475 79.736c-.94-2.77-5.241-2.176-8.035-3.09v1.855c3.408-.321 4.012 2.166 8.035 1.235m11.741-219.425c-.887-1.586-2.183-2.762-3.091-4.327-5.49 1.336-11.494-1.63-15.45 1.236 4.69 2.115 12.142 4.744 18.541 3.091m-6.799 202.12c3.965-.464 6.285.721 9.89.616-.063-3.237 1.113-2.94 4.325-3.709v-3.089c-6.629-2.763-20.115-2.252-14.215 6.182m10.506 12.362c-.98-3.288-9.229-5.116-11.123-1.855 1.953 2.092 7.71 3.233 11.123 1.855"/><path clip-path="url(#b)" fill-rule="evenodd" clip-rule="evenodd" fill="#F7E4B9" d="M439.807 36.466c11.789 1.81 20.683 6.513 31.522 9.269-9.989-1.136-21.353-6.254-31.522-9.269M513.359 32.141c5.535 1.882 10.846 3.988 17.925 4.325.188 1.87 1.914 2.209 1.235 4.946-4.641-.101-7.043-2.435-9.271-4.946-3.342-1.4-8.313-1.162-9.889-4.325"/></svg>