<!DOCTYPE svg PUBLIC "-//W3C//DTD SVG 1.1//EN" "http://www.w3.org/Graphics/SVG/1.1/DTD/svg11.dtd" [
	<!ENTITY ns_flows "http://ns.adobe.com/Flows/1.0/">
]><svg xmlns="http://www.w3.org/2000/svg" xmlns:xlink="http://www.w3.org/1999/xlink" width="69" height="14" viewBox="0 0 69 14"><defs><path id="a" d="M0 0h303.417v14.289h-303.417z"/></defs><clipPath id="b"><use xlink:href="#a" overflow="visible"/></clipPath><path clip-path="url(#b)" d="M233.041 7.143c0-3.945 4.925-7.143 10.999-7.143 3.611 0 6.814 1.13 8.82 2.874.454.397.847.823 1.168 1.278l.109.12.268.287c1.579 1.532 4.063 1.688 4.942 1.686l42.638-1.343c.792 0 1.431.641 1.431 1.43v1.623c0 .791-.639 1.432-1.431 1.432l-42.64-1.344c-.853 0-3.216.147-4.8 1.552l-.098.091-.009.008-.302.321-.114.13c-1.745 2.447-5.558 4.145-9.983 4.145-6.073-.001-10.998-3.201-10.998-7.147M65.347 4.687c4.071.478 3.897.502 3.893.744-.005.384-13.921-.022-14.497.17-.576.193-.431.769.144.769.577 0 13.003.914 13.628.914.624 0 .79.375.504.471-.29.097-13.748.055-14.276.247-.492.182-.484.402-.481.43v.005c-.003.027-.011.247.481.428.528.192 13.987.153 14.276.248.286.098.12.473-.504.473-.625 0-13.051.914-13.628.914-.575 0-.72.576-.144.769.576.191 14.492-.215 14.497.171.004.24.178.267-3.893.742-4.374.513-12.008.669-15.964.48-.11-.005-.629-.089-.726-.116-.953-.272-2.174-.998-2.988-1.546-.447-.304-.882-.608-1.32-.937-.379-.283-.73-.488-1.156-.704-.377-.189-.86-.116-1.274-.106-1.625.039-39.936 1.279-40.561 1.299-.739.026-1.355-.632-1.355-1.351-.006-.426-.006-1.675.044-1.87.096-.377.36-.702.709-.874.21-.105.436-.148.667-.139.802.027 39.54 1.277 41.033 1.312.176.005.49-.003.653-.071.195-.084.41-.205.584-.328.832-.579 1.615-1.142 2.473-1.686.535-.34 1.269-.738 1.988-.995.448-.199.867-.326 1.229-.343 3.956-.189 11.59-.032 15.964.48"/></svg>