<!DOCTYPE svg PUBLIC "-//W3C//DTD SVG 1.1//EN" "http://www.w3.org/Graphics/SVG/1.1/DTD/svg11.dtd" [
	<!ENTITY ns_flows "http://ns.adobe.com/Flows/1.0/">
]><svg xmlns="http://www.w3.org/2000/svg" xmlns:xlink="http://www.w3.org/1999/xlink" width="598" height="598" viewBox="0 0 598 598"><defs><path id="a" d="M0 0h598.206v598.205h-598.206z"/></defs><clipPath id="b"><use xlink:href="#a" overflow="visible"/></clipPath><path clip-path="url(#b)" fill="#020202" d="M271.436 164.671c-.652 0-1.335.037-2.025.109-9.528.991-15.764 5.02-18.538 11.981-3.833 9.615-.339 21.373 2.528 24.719 2.947 3.203 20.651 6.062 39.789 6.648-.492-11.684-3.014-30.393-11.311-38.978-2.952-3.055-6.271-4.479-10.443-4.479M328.793 164.78c-.692-.072-1.374-.109-2.026-.109-4.172 0-7.492 1.423-10.442 4.478-8.297 8.586-10.817 27.295-11.312 38.979 19.139-.586 36.843-3.446 39.791-6.649 2.867-3.345 6.359-15.103 2.525-24.719-2.774-6.96-9.01-10.989-18.536-11.98"/><path clip-path="url(#b)" fill="#020202" d="M299.103 0c-165.19 0-299.103 133.912-299.103 299.103 0 165.19 133.913 299.102 299.103 299.102s299.104-133.912 299.104-299.102c-.001-165.191-133.914-299.103-299.104-299.103m-19.298 444.638h-89.473v-172.803h89.473v172.803zm0-187.551h-110.085v-37.885h110.085v37.885zm19.334-37.885h-6.769c-14.289 0-48.499-1.135-57.52-11.66-6.75-7.873-10.33-25.443-4.908-39.047 4.724-11.85 15.421-19.217 30.124-20.744 9.456-.979 17.618 1.945 24.03 8.594 10.889 11.287 14.107 30.916 15.005 43.798.899-12.882 4.117-32.511 15.006-43.798 6.416-6.649 14.577-9.573 24.029-8.594 14.704 1.527 25.401 8.894 30.127 20.744 5.422 13.604 1.84 31.174-4.909 39.047-9.019 10.525-43.229 11.66-57.52 11.66h-6.695zm108.733 225.436h-89.473v-172.803h89.473v172.803zm20.614-187.551h-110.087v-37.885h110.087v37.885z"/></svg>