<!DOCTYPE svg PUBLIC "-//W3C//DTD SVG 1.1//EN" "http://www.w3.org/Graphics/SVG/1.1/DTD/svg11.dtd" [
	<!ENTITY ns_flows "http://ns.adobe.com/Flows/1.0/">
]><svg xmlns="http://www.w3.org/2000/svg" xmlns:xlink="http://www.w3.org/1999/xlink" width="369" height="76" viewBox="0 0 369 76"><defs><path id="a" d="M0 0h368.563v75.737h-368.563z"/></defs><clipPath id="b"><use xlink:href="#a" overflow="visible"/></clipPath><path clip-path="url(#b)" fill="#231F20" d="M.317 33.447c1.811 1.891 3.338 3.7 5.086 5.506 2.48 2.563 5.061 4.944 7.665 7.358l1.958 1.818.978.92.489.464.246.23.032.102-.001.005v.034l-.003.04-.008.083-.016.17c-.154 1.794-.304 3.611-.511 5.456-.506 4.664-.768 9.132-1.347 13.775-.1.843-.162 1.846-.213 2.55-.03.309-.024.613-.08.903-.051.283-.498 2.245-.206 2.285.293.038 1.091-.412 1.352-.51.432-.166 1.03-.411 1.54-.563.514-.155 1.265-.475 1.771-.698 2.697-1.193 5.452-2.995 8.203-4.144l2.612-1.093c.862-.353 1.695-.743 2.583-.951l1.862-.542.116.345c.493 1.153 1.252 1.852 1.584 2.615.333.778.531 1.633.71 2.498l.269 1.302.02.083.013.06.063.142c.03.063-.013.049.173.316.311.403.55.529.89.671.32.119.656.14.985.093.137-.016.375-.093.418-.108l.157-.049c1.699-.537 3.478-1.503 5.127-2.02.605-.191 1.281-.132 1.832-.344.626-.239 1.139-.728 1.757-1.014 3.777-1.716 6.967-2.159 10.442-3.48.624-.235 1.151-.716 1.797-.943.7-.236 1.473-.104 2.167-.343.303-.104.654-.505 1.014-.667l1.225-.558c7.248-3.196 15.484-5.043 23.373-7.007 3.324-.832 6.733-1.579 10.128-2.221 1.735-.324 3.463-.813 5.248-1.033 1.777-.218 3.63-.119 5.349-.469l3.403-.919c3.357-.69 7.368-1.091 11.044-1.841 1.108-.228 2.13-.736 3.251-.936 3.764-.681 7.914-.519 11.521-.813 1.174-.096 2.236.083 3.356.014 1.73-.103 3.561-.43 5.312-.617 1.713-.182 3.451-.196 5.164-.372l.978-.396c.343-.032.798.127 1.18.093 2.844-.218 5.127-.951 7.639-1.226 2.54-.269 5.166-.075 7.699-.086l1.836-.206c.552-.011 1.092.265 1.678.302 2.868.157 5.859-.275 8.696-.218 1.883.032 3.698-.304 5.523-.273 1.421.031 2.79.43 4.175.427.899-.007 1.951-.165 2.855-.251 1.899-.185 3.787-.174 5.862-.092 1.012.029 2.043.178 3.014.154 1.428-.042 2.924-.44 4.386-.406 2.502.065 5.086.632 7.667.896 6.39.641 13.558 1.251 19.176 1.87 1.317.146 2.58.014 3.865.188 5.076.681 10.121 1.815 15.139 2.923 3.769.834 7.635 1.613 11.333 2.219 1.331.212 2.503.582 3.768.813 1.248.228 2.613.088 3.863.366 3.087.686 6.213 1.997 9.105 2.926 1.028.324 2.078.48 3.072.81 1.414.482 2.622 1.345 4.011 1.798 1.56.506 3.306.68 4.9 1.075.853.208 1.736.615 2.556.774.805.156 1.593.017 2.382.217 2.084.538 4.251 1.403 6.361 2.07 5.27 1.664 9.978 3.581 14.76 5.371 1.227.452 2.394.997 3.544 1.544l1.711.826.856.41 1.318.587c.479.088.985.296 1.446.269.384-.049.822-.241 1.016-.572l.56-1.164.521-1.143.26-.823c.342-1.099.674-2.212 1.06-3.302l.391-1.115c.835.282 1.673.569 2.502.841 2.198.758 4.512 1.43 6.512 2.283 2.357 1.016 4.536 2.632 7.008 3.84l1.546.733 1.722.789s1.518.714 1.762.539c.243-.177.124-1.158.124-1.158l-.372-3.611c-.096-1.007-.148-1.727-.171-2.527-.039-1.331.156-2.576.041-3.734-.164-1.668-.728-3.313-.894-5.006-.159-1.62-.287-3.268-.405-4.94l-.299-4.453c-.012-.188.06-.376.193-.51l1.997-1.981 2.448-2.522c1.908-2.007 3.956-4.017 6.018-6.03l3.112-3.124 1.915-1.94 1.039-1.044.233-.23c.199-.196.219-.538-.033-.66-.788-.376-1.557-.774-2.363-1.2l-1.222-.647-.877-.499c-1.171-.658-2.346-1.311-3.563-1.842-2.281-1.005-4.742-1.782-6.955-2.77-1.524-.68-2.865-1.545-4.349-2.091-1.168-.423-2.445-.509-3.679-.862-.556-.157-1.092-.325-1.609-.497l-1.732-.6-1.049-.381-.211-.08c-.329-.121-.695.017-.892.311l-1.009 1.52c-.994 1.445-1.891 2.688-2.798 4.049l-.2-.081c-1.588-.552-3.211-.765-4.734-1.291-3.535-1.213-6.543-2.182-9.077-3.114-2.491-.922-4.563-1.888-6.165-2.262-2.128-.489-3.364-1.367-5.354-2.063-2.409-.84-5.038-1.328-7.633-2.118-2.637-.81-5.414-1.803-8.072-2.413-1.521-.352-3.184-.388-4.688-.705-2.003-.419-3.86-1.209-5.846-1.609-.954-.198-1.914-.144-2.861-.33-1.236-.246-2.488-.749-3.74-1.019-1.237-.259-2.493-.207-3.687-.458-4.474-.964-8.789-2.393-13.148-2.917-1.407-.172-3.701-.116-4.892-.343-.961-.189-1.792-.632-2.771-.796-3.499-.583-6.947-1.229-10.299-1.704-2.218-.317-4.491-.565-6.699-.703-2.218-.128-4.462-.61-6.707-.597-.585.002-.968.208-1.544.173l-1.639-.504c-1.124-.112-2.174.153-3.215.026-1.053-.123-2.099-.537-3.153-.616-1.297-.098-2.534-.019-3.871-.146-1.463-.144-3.029-.258-4.534-.326-2.731-.141-5.585-.507-8.396-.494-2.13 0-5.215-.292-7.35-.23-4.218.117-7.497-.033-11.668.333l-.216.046c-5.667.064-11.425.177-17.095.702-.768-.002-1.535.045-2.302.101-1.778-.233-1.57.348-3.355.492-1.849.138-3.86-.023-5.877.102-1.062.062-2.114.309-3.175.346-.506.017-.883-.304-1.362-.252-.369.038-.864.35-1.32.414-5.352.727-11.325 1.021-17.028 1.758-1.484.188-2.931.649-4.301.798-1.609.169-3.34-.225-5.077-.071-2.221.199-4.704.927-6.637 1.043-.844.049-1.651-.126-2.376.002l-3.082.962c-3.355.62-6.939.95-10.599 1.754-1.709.374-3.493.671-5.286.976-1.821.31-3.65.758-5.435 1.077-1.64.294-3.403.2-5.037.553-1.529.332-3.056.922-4.558 1.188-1.036.18-2.064.109-3.022.363-.755.198-1.413.752-2.172 1.037-2.73 1.028-5.043 1.096-7.539 1.735-.929.237-1.802.51-2.762.738-.81.188-1.739.117-2.523.349-.353.105-.857.53-1.206.682-2.475 1.091-5.292 1.163-7.845 1.961-2.725.845-5.301 2.194-7.977 3.233-1.946.751-4.079 1.33-5.677 2.106-2.498 1.212-5.586 2.145-8.473 3.255-.281.108-.557.23-.833.353l-1.365-3.168c-.233-.542-.403-.995-.684-1.595l-.439-.914c-.159-.298-.245-.65-.551-.805-.617-.375-1.271.08-1.914.22-.703.206-1.128.381-1.664.576-1.026.388-2.05.781-3.065 1.218-2.347.988-4.721 1.511-6.969 2.497-1.268.555-2.386 1.486-3.663 2.035-1.547.667-3.064 1.025-4.529 1.746-1.007.489-1.865.956-2.943 1.509l-1.465.811c-.224.15-.535.203-.681.439-.143.28.057.55.27.731m347.697-7.957c2.861 1.052 5.703 2.148 8.532 3.267 1.62.644 3.566 1.108 5.002 1.821.789.394 1.271.759 1.73 1.132.228.184.455.366.71.551.138.132.265.245.429.349.215.136.433.253.672.369.12.056.195.195.111.298l-.529.62-.431.504-.811.879c-.544.584-1.098 1.158-1.667 1.711l-5.892 5.641-3.081 2.958-1.567 1.527-1.636 1.621c-.269.265-.406.639-.379 1.019l.104 1.316c.26 3.316.13 6.624.378 9.042.111 1.094.495 2.509.645 3.956l.705 7.136.081.772c.017.17-.105.344-.269.294l-1.838-.833c-2.372-1.071-4.761-2.113-7.166-3.12l-3.625-1.49-1.823-.726-1.911-.652c-.501-.167-.994-.35-1.484-.532.67-1.9 1.358-3.725 2.256-5.382 1.288-2.383 2.444-4.602 3.277-6.985.449-1.288.659-2.667 1.089-3.905.919-2.634 2.115-5.055 3.362-7.441l1.882-3.578.917-1.812.225-.459.26-.759.52-1.6.106-.36-.041-.326c-.045-.225-.148-.458-.275-.651l-.088-.103c-1.103-2.51-2.246-5.233-3.357-7.813l.56.194 4.317 1.55zm-315.752 4.244c2.078-.88 4.274-1.476 6.431-2.346 14.396-5.785 29.566-9.787 44.374-13.697 1.066-.288 2.202-.893 3.202-1.04 1.101-.169 1.569.245 2.592.132 1.806-.197 3.732-.985 5.704-1.313 3.506-.585 7.233-1.019 11.242-1.682 2.062-.34 4.162-.278 5.661-.561.677-.128 1.528-.537 2.425-.699 6.423-1.197 12.844-1.99 19.356-2.724 1.708-.195 3.41-.056 5.187-.162 1.704-.105 3.431-.379 5.159-.431 3.836-.126 7.688-1.099 11.475-1.085 1.141.013 2.05.213 3.188.175 1.175-.035 1.587-.348 3.322-.472 1.825-.136 6.599-.463 6.591-.563 3.275-.097 6.548-.153 9.822-.317 3.091-.162 6.122-.82 9.237-.716 3.209.108 6.406-.24 9.615-.106 2.439.116 4.992.391 6.852.472 4.876.198 8.921.798 13.199.858 1.849.023 3.55.54 5.325.621.998.042 2.039-.292 3.046-.215 1.22.102 2.301.476 3.481.524 1.583.062 3.12.036 4.697.185 1.782.172 3.496.575 5.302.816 5.125.69 10.198.664 15.515 1.599 3.361.594 6.595.901 9.936 1.586 1.665.343 3.394.425 4.972.801.818.188 1.604.638 2.397.826 2.088.5 4.286.876 6.392 1.378 5.405 1.288 10.338 1.838 15.066 3.313 2.787.871 5.48 1.899 8.315 2.625 2.768.705 5.445 1.681 8.188 2.444 2.804.787 5.585 1.535 8.389 2.368 1.939.574 3.861 1.653 5.594 2.282.754.275 1.545.327 2.264.633.867.376 1.627 1.082 2.5 1.446 2 .847 4.261 1.348 6.37 2.078 2.04.705 4.224 1.201 6.245 1.979 1.055.4 2.197.979 3.064 1.471.215.13.433.236.617.374.179.171.165.494.01.712-.264.479-.475.842-.713 1.314-.54 1.087-.861 2.296-1.422 3.402-.505.994-1.257 1.901-1.752 2.901-1.674 3.372-3.036 7.115-4.306 10.734-1.248 3.559-2.457 7.329-4.085 10.645-1.149 2.338-2.502 4.615-3.494 7.077-.152.372-.276.755-.385 1.149-.045.171-.136.459-.136.535l-.037.327c-.041.229-.051.515-.163.752-.166.24-.436.131-.644.026l-.211-.121-.524-.426c-.277-.187-.554-.366-.855-.484-.974-.377-2.009-.332-2.992-.678-2.847-1.021-6.097-2.866-9.357-3.767-4.365-1.216-8.791-2.392-13.09-3.777-2.511-.81-4.972-1.733-7.496-2.474-2.427-.711-4.944-1.166-7.316-1.889-1.396-.428-2.7-1.182-4.099-1.6-1.131-.347-2.355-.358-3.461-.707-2.251-.691-4.19-1.79-6.392-2.202-.84-.159-1.812-.152-2.701-.268-2.312-.287-4.296-.811-6.451-1.199-1.391-.257-2.824-.23-4.186-.489-6.265-1.187-12.518-2.643-18.97-3.834-2.213-.404-4.563-.359-6.863-.743-1.142-.191-2.149-.61-3.303-.733-5.564-.583-12.066-1.505-17.79-1.507-4.273-.011-8.407.132-12.652.265-1.654.044-2.883-.233-4.197-.329-4.417-.302-9.43-.108-13.448.092-1.478.066-2.785-.181-4.203-.154-1.135.017-2.178.381-3.356.368-2.437-.021-4.776-.025-7.229.007-1.218.006-2.33-.218-3.54-.205-2.429.031-4.811.88-7.177 1.182-4.329.545-9.225.147-13.751.847-1.742.271-3.467.909-5.134.999-.929.05-1.956-.23-2.893-.193-2.009.07-4.217.343-6.175.73-1.38.275-2.702.893-4.1 1.041-1.116.113-2.285-.198-3.398-.026-1.003.162-1.92.733-2.917.94-2.206.447-4.686.406-7.019.801-1.113.194-2.203.781-3.253.912-.942.112-1.935-.092-2.9.025-4.455.541-8.997 1.952-13.638 3-2.161.479-4.266.822-6.422 1.339-2.224.543-4.362 1.507-6.517 2.354-4.169 1.627-8.767 2.726-13.1 4.284-2.202.788-4.504 1.424-6.715 2.155-2.332.782-4.51 1.884-6.712 2.672-3.227 1.153-6.608 2.432-9.909 3.704l-1.229.478-.611.234c-.204.076-.45.175-.449.152l-.077-.043-.209-.552-.441-1.197c-.58-1.584-1.126-3.124-1.612-4.59-.574-1.721-.782-3.509-1.369-5.226-.443-1.287-1.307-2.429-1.866-3.77-.144-.344-.066-.691-.218-.994-.153-.31-.52-.479-.682-.811-.172-.353-.122-.82-.281-1.151-.154-.323-.539-.485-.68-.811-.649-1.476-1.136-3.006-1.804-4.515-.682-1.54-1.466-3.17-2.079-4.765-.625-1.617-.914-3.364-1.464-5.01-.671-2.002-1.616-4.015-2.414-6.037.42-.24.743-.619 1.247-.834 1.09-.466 2.438-.601 3.535-1.043 1.345-.529 2.597-1.299 3.933-1.858m-28.92 3.679c.122-.044.22-.085.323-.147l.743-.368 1.019-.527c.695-.371 1.049-.799 1.762-1.129.717-.325 1.463-.264 2.241-.591 1.417-.595 2.57-1.459 3.904-1.968 1.352-.515 2.829-.764 4.171-1.292 1.646-.644 3.148-1.395 4.878-1.997l1.553-.544c-.252.621-.504 1.247-.735 1.883-.502 1.364-.851 2.78-1.383 4.126-.083.214-.245.595-.405.94-.145.133-.279.277-.366.476-.141.317-.16.668-.075.986l1.446 3.739 1.338 3.618 2.591 7.038c1.345 3.523 2.716 6.425 4.192 9.156.755 1.39 1.677 2.765 2.205 4.172.471 1.25.706 2.596 1.026 3.91-.345.12-.688.248-1.029.381l-.922.347c-.3.118-.6.184-1.107.393-1.616.677-3.409 1.183-5.029 1.906-1.602.71-3.001 1.702-4.523 2.406l-2.478 1.12c-.768.343-1.901.832-1.875.801-.975.476-.301-1.978-.301-1.978l.225-1.892c.145-1.236.288-2.548.382-3.813.138-1.942.026-5.067.228-6.723.166-1.336.591-2.514.736-3.868l.432-3.578.043-.333.001-.015-.54-1.564v-.003l-.004-.005-.022-.02-.037-.041-.313-.328-.62-.654-1.235-1.306-4.879-5.112c-2.14-2.202-4.353-4.414-6.565-6.485l-.886-.848c-.051-.082-.247-.179-.11-.269"/><path clip-path="url(#b)" fill-rule="evenodd" clip-rule="evenodd" fill="#231F20" d="M19.477 39.584c.735-.287 1.602-.4 2.347-.666l.926-.485c.687-.264 1.222-.385 1.766-.525l-.377-.954-2.909 1.078c-1.61.61-2.8 1.127-4.011 1.811-.656.369-1.498.566-1.625 1.254 1.325.071 2.505-.978 3.883-1.513M7.48 34.634c-.014-.499.665-.825 1.198-1.211 1.121-.814 1.923-1.204 3.457-1.844 3.292-1.373 6.948-2.776 10.309-4.267.146-.063 1.055-.744 1.336-.146.398.843-2.263 1.615-3.132 1.965l-1.366.78c-2.627 1.051-6.14 1.983-8.864 3.33-1.044.517-1.859 1.253-2.938 1.393M10.982 36.458c-.062-1.266 1.724-1.548 3.309-2.319 1.572-.764 4.721-1.771 6.02-2.404.23-.11 2.268-2.04 2.727-.964.18.42-1.274 1.441-1.698 1.676-.971.532-2.122.732-2.73.966-3.051 1.16-4.637 2.243-7.628 3.045M18.294 37.031c.287-.077.578-.016.834-.104.252-.084.447-.321.703-.42 1.145-.454 1.726-.396 2.966-1.007.131-.064.391-.199.673-.37-.121-.353-.235-.703-.346-1.055-.962.352-2.16.978-2.803 1.217-1.137.423-2.613 1.108-3.515 1.49-1.724.73-3.624.925-4.036 2.339 1.762-.285 3.637-1.584 5.524-2.09M19.158 57.225c.401-1.254 2.103-1.376 3.662-1.985.82-.317 2.154-.89 3.183-1.237 1.008-.344 3.543-1.688 3.81-1.042.173.414-1.244 1.126-1.605 1.289-1.124.514-1.642.446-2.677.822-.229.085-.411.292-.637.361l-.749.069c-1.699.402-3.407 1.513-4.987 1.723M16.152 44.301c.075.051 2.508-.692 3.212-1.004.31-.137.599-.428 1.101-.676.652-.325 1.585-.604 2.372-.927.738-.3 1.944-.683 2.749-1.113l-.416-1.04c-2.229.633-5.194 2.166-7.088 3.014l-.864.336c-.547.282-1.637.994-1.066 1.41M26.593 43.285l-.379-1.062-.213.064c-1.418.554-2.625 1.402-3.712 1.945-1.077.531-1.995.866-2.828 1.349-.516.299-1.327.685-1.258 1.236 2.979-.726 5.25-2.336 8.39-3.532M19.999 49.722c.232.265 3.046-.997 4.396-1.464.902-.311 1.75-.658 2.263-.881l1.236-.53c-.143-.365-.283-.735-.421-1.106l-.588.304c-1.408.666-3.361 1.064-4.959 1.935-.476.257-2.16 1.479-1.927 1.742M19.457 53.147c.219.736 1.285-.006 2.25-.256 1.311-.342 2.012-.699 3.216-1.254.783-.359 1.649-.483 2.161-.719.172-.079.385-.339.701-.521.459-.263 1.088-.486 1.328-.826-.138-.271-.274-.54-.402-.814l-.484.226c-.877.273-1.518.854-2.27 1.133-.298.113-.616.105-.905.229-.197.085-.198.256-.543.46-.549.33-1.656.675-2.744 1.071-.452.163-2.526.544-2.308 1.271M29.773 55.595c.409-.157 1.436-.763 1.745-.188.4.741-1.265 1.356-2.126 1.763-2.845 1.343-5.159 2.252-8.192 3.264-1.083.36-3.588 1.162-2.171-.068.365-.313 1.392-.679 2.16-.984 1.699-.679 3.392-1.355 5.075-2.087 1.161-.505 2.322-1.242 3.509-1.7M19.667 67.692c.228-.606 1.045-.846 1.685-1.115 2.326-.989 5.412-2.32 7.502-3.393.571-.293 1.57-.579 2.606-.962 1.167-.428 2.049-.882 2.332-.367.355.648-1.338 1.357-1.348 1.36-1.286.551-3.304.988-4.49 1.535-2.524 1.171-5.787 2.791-8.287 2.942M29.668 59.093c.328-.146 2.222-1.304 2.583-.384.278.715-.732.757-1.45 1.063-1.298.55-2.544 1.443-3.82 1.986-1.002.425-4.826 1.993-5.154 1.758-1.106-.794 3.155-2.311 4.043-2.693 1.379-.591 2.285-1.039 3.798-1.73M348.889 39.331c-.735-.292-1.603-.408-2.349-.684l-.927-.496c-.686-.27-1.221-.395-1.764-.536l.376-.98c.967.385 1.743.651 2.908 1.105 1.61.625 2.801 1.155 4.012 1.857.653.377 1.498.579 1.623 1.283-1.323.076-2.501-1.002-3.879-1.549M361.027 34.207c.018-.547-.717-.896-1.29-1.316-1.213-.88-2.074-1.3-3.735-1.989-3.561-1.474-7.515-2.976-11.152-4.58-.152-.07-1.134-.807-1.443-.151-.438.929 2.44 1.748 3.381 2.124l1.475.843c2.84 1.126 6.646 2.116 9.591 3.569 1.126.556 2.007 1.355 3.173 1.5M357.132 36.127c.062-1.292-1.725-1.585-3.312-2.375-1.573-.782-4.721-1.815-6.017-2.463-.232-.114-2.27-2.089-2.729-.987-.179.43 1.275 1.476 1.698 1.715.97.546 2.121.752 2.729.99 3.054 1.189 4.637 2.301 7.631 3.12M350.639 36.991c-.314-.081-.637-.017-.916-.11-.277-.093-.493-.354-.771-.465-1.258-.498-1.895-.433-3.256-1.103-.144-.071-.432-.219-.739-.408.13-.382.258-.768.379-1.157 1.057.389 2.372 1.076 3.076 1.336 1.249.464 2.869 1.215 3.861 1.636 1.892.801 3.978 1.014 4.428 2.566-1.935-.314-3.994-1.737-6.062-2.295M348.015 56.966c-.404-1.283-2.105-1.411-3.664-2.033-.815-.327-2.154-.91-3.182-1.267-1.008-.353-3.543-1.729-3.811-1.067-.173.423 1.246 1.153 1.604 1.321 1.125.524 1.643.456 2.679.842.229.086.408.297.637.366l.75.073c1.697.413 3.405 1.549 4.987 1.765M351.958 44.165c-.072.053-2.505-.71-3.21-1.028-.309-.143-.6-.44-1.102-.695-.65-.332-1.583-.618-2.371-.947-.739-.308-1.943-.698-2.748-1.145l.415-1.063c2.23.65 5.196 2.219 7.089 3.088l.863.345c.548.287 1.637 1.017 1.064 1.445M340.89 42.873l.382-1.09.212.069c1.417.566 2.625 1.438 3.712 1.988 1.078.55 1.996.889 2.829 1.385.518.309 1.329.702 1.255 1.266-2.977-.742-5.246-2.392-8.39-3.618M347.298 49.406c-.231.271-3.045-1.021-4.397-1.5-.903-.32-1.748-.676-2.262-.903l-1.236-.542c.144-.376.284-.754.42-1.134l.589.312c1.408.679 3.359 1.093 4.96 1.979.476.265 2.159 1.518 1.926 1.788M347.715 52.792c-.219.751-1.284-.01-2.25-.264-1.312-.352-2.012-.716-3.218-1.285-.782-.371-1.648-.495-2.16-.735-.172-.083-.383-.351-.699-.535-.461-.272-1.089-.5-1.328-.846.138-.277.272-.557.399-.835.169.043.339.183.485.229.876.284 1.518.877 2.269 1.165.301.112.617.106.905.232.197.087.201.262.545.472.548.336 1.656.692 2.745 1.097.453.166 2.524.558 2.307 1.305M337.398 55.299c-.407-.164-1.436-.782-1.745-.194-.4.76 1.266 1.393 2.127 1.808 2.846 1.374 5.159 2.307 8.19 3.344 1.084.37 3.589 1.19 2.172-.068-.362-.326-1.394-.695-2.16-1.01-1.699-.694-3.394-1.39-5.074-2.142-1.158-.516-2.322-1.272-3.51-1.738M347.506 67.692c-.229-.621-1.048-.868-1.686-1.146-2.327-1.011-5.414-2.375-7.504-3.472-.569-.3-1.571-.597-2.607-.987-1.164-.439-2.047-.906-2.33-.376-.354.665 1.34 1.391 1.348 1.393 1.287.565 3.303 1.013 4.491 1.574 2.522 1.2 5.785 2.859 8.288 3.014M337.506 58.882c-.329-.149-2.225-1.337-2.586-.394-.277.732.732.773 1.45 1.087 1.298.563 2.546 1.48 3.821 2.036 1.002.435 4.826 2.041 5.152 1.803 1.106-.816-3.153-2.37-4.042-2.761-1.377-.604-2.284-1.063-3.795-1.771M73.263 19.118c.216 0 .445-.138.549-.225l.169-.043c1.887-.473 2.596-.778 2.609-1.123.005-.126-.041-.242-.127-.335-.227-.241-.66-.261-.744-.264h-.043c-.858 0-2.449.769-2.795 1.349-.104.175-.077.303-.036.379.093.172.238.262.418.262M66.448 21.197c.083 0 .148-.042.204-.078l.12-.057c.431-.057.824-.267 1.204-.47.338-.18.684-.364 1.051-.439l.289-.028c.416-.029.982-.068 1.208-.365.084-.109.113-.249.083-.398-.051-.266-.36-.4-.921-.4-.495 0-1.16.112-1.577.264-.364.128-1.79.796-1.996 1.383-.048.13-.036.258.033.366.057.095.153.222.302.222M42.577 28.435c.256 0 .524-.167.739-.298l.239-.134.894-.321.75-.275.227-.057c.208-.036.524-.093.507-.551-.005-.17-.091-.457-.6-.457-.792 0-2.232.692-2.545.877l-.302.137c-.198.079-.385.155-.452.329-.044.115-.029.248.047.411.137.279.345.339.496.339M26.868 35.08c.102.129.215.155.293.155.114 0 .206-.056.254-.095.73-.093 2.282-.902 2.528-1.539.081-.214.008-.363-.069-.451-.069-.078-.181-.115-.339-.115-.708 0-2.382.744-2.72 1.447-.105.218-.088.423.053.598M85.414 16.409c.357 0 .793-.135 1.082-.223l.144-.047.543-.174c.261-.091.486-.169.832-.234.276-.053.456-.266.445-.533-.013-.265-.227-.555-.679-.6l-.07-.001c-.238 0-.442.115-.656.237-.147.086-.304.174-.483.232-.236.077-.491.127-.736.174-.459.091-.859.17-1.018.408-.063.097-.082.208-.058.331.039.197.185.43.654.43M79.21 17.383c.058.044.134.064.22.064.16 0 .35-.069.535-.139l.323-.105.528-.075c.469-.055.998-.117 1.362-.317l.203-.08c.148-.051.316-.109.39-.269.055-.12.043-.267-.037-.462-.086-.209-.234-.253-.345-.253-.101 0-.207.034-.322.07-.098.033-.21.072-.332.086-.025.002-2.561.3-2.753.996-.032.117-.02.297.228.484M54.607 24.584c.328 0 .778-.122 1.213-.241.277-.076.548-.15.778-.189l.496-.057c.361-.031.702-.06.915-.243l.119-.075c.124-.067.311-.169.2-.513-.073-.23-.38-.342-.938-.342-1.042 0-2.919.436-3.279 1.014-.081.132-.091.272-.024.404.082.16.256.242.52.242M48.426 26.59c.167 0 .344-.077.547-.166l.32-.13c.342-.121.736-.225 1.084-.315.486-.129.868-.23 1.044-.35l.16-.077c.125-.047.264-.101.324-.248.044-.112.029-.246-.053-.42-.072-.154-.281-.23-.639-.23-.443 0-1.066.116-1.624.303-.633.208-1.421.551-1.583.997-.053.145-.035.292.049.428.089.139.213.208.371.208M36.75 30.865c.303 0 .603-.235.842-.421l.238-.17c.118-.061.304-.13.516-.206.607-.224 1.361-.503 1.537-.918.055-.126.054-.261-.003-.387-.059-.135-.189-.294-.478-.294-.372 0-.883.264-1.424.546l-.484.244c-.674.331-1.236.638-1.29 1.032-.016.109.005.271.185.431.104.095.224.143.361.143M31.859 32.929c.725 0 2.344-.854 2.517-1.077.211-.28.276-.495.193-.657-.065-.136-.217-.204-.451-.204-.768 0-2.353.725-2.655 1.328-.083.167-.072.332.027.465.072.095.198.145.369.145M90.97 15.391l.314-.045.117-.021c.41-.045.861-.187 1.298-.325.311-.097.604-.189.846-.234l.249-.013c.345-.006.736-.014.829-.25.026-.07.043-.183-.032-.32-.164-.291-.668-.515-.816-.541l-.176-.012c-.744 0-2.59.595-2.989 1.125-.104.138-.101.251-.08.326.033.116.135.31.44.31M60.792 22.961c.34 0 .781-.194 1.13-.351l.31-.129c.221-.072.403-.113.564-.149.308-.069.572-.13.911-.357l.078-.023c.176-.051.645-.186.51-.697-.078-.288-.274-.349-.424-.349-.184 0-.399.089-.625.182l-.388.147-.448.125c-.967.256-1.854.521-2.076.943-.06.114-.07.236-.028.352.048.14.174.306.486.306M104.062 13.001c.095 0 .171-.042.242-.079l.115-.047.17-.028.455-.054c.387-.044.914-.104 1.396-.182.785-.13 1.204-.29 1.362-.521.062-.092.084-.199.06-.308-.057-.278-.416-.422-1.068-.422-.497 0-1.13.086-1.653.222-.589.147-1.285.367-1.441.769-.04.104-.062.268.064.459.083.128.182.191.298.191M136.785 9.215l.11-.01.068-.008h.01l.233.018c.335 0 .668-.109.961-.207l.429-.126.526-.113c.336-.073.66-.145 1.038-.203l.156-.009.36.009c.159 0 .582 0 .643-.39.032-.193-.004-.355-.106-.475-.133-.155-.356-.23-.687-.23-.376 0-.798.098-1.051.157l-.108.025-.436.071c-1.073.157-2.144.351-2.423.819-.077.129-.091.275-.037.419.061.169.166.253.314.253M130.425 9.529c.225 0 .479-.041.703-.079.159-.025.306-.05.475-.054.195 0 .483.029.791.06.377.038.765.078 1.079.078.305 0 .49-.039.592-.124.22-.184.301-.366.237-.54-.199-.552-1.979-.579-2.332-.579l-.13.001c-.165.003-1.617.044-1.977.522-.081.11-.107.235-.073.364.061.234.274.351.635.351M116.514 11.536c.125 0 .255-.034.371-.064l.18-.039c.412-.048.766-.136 1.108-.221.351-.085.681-.168 1.059-.206l.207-.007.227.001c.334 0 .704-.016.896-.223.09-.097.129-.223.119-.373-.029-.34-.405-.513-1.116-.513-.633 0-1.365.128-1.749.204-.866.183-1.874.514-1.767 1.053.053.249.217.388.465.388M110.389 12.209c.268 0 .596-.079.837-.136l.194-.045c.497-.101.836-.147 1.264-.202l.373-.051.143-.009c.203-.007.475-.015.627-.309.05-.093.045-.215-.014-.351-.085-.2-.289-.439-.518-.51-.083-.025-.184-.038-.306-.038-.428 0-1.038.155-1.578.307-1.039.293-1.489.52-1.553.782-.039.16-.017.291.059.392.092.114.246.17.472.17M97.737 14.095c.5 0 1.167-.224 1.527-.345l.183-.058c.142-.036.319-.06.501-.084.475-.063.968-.128 1.17-.412.08-.114.106-.25.075-.405-.044-.201-.179-.442-.582-.442-.284 0-.64.117-1.015.239-.214.07-.433.141-.639.19l-.486.086c-.687.108-1.464.23-1.428.744.015.182.123.487.694.487M143.931 8.404l.174-.016.117-.01.004.002.199.007c.484 0 1.065-.122 1.53-.221l.555-.106.374-.035c.505-.032 1.133-.073 1.146-.592.004-.159-.041-.289-.136-.386-.117-.12-.296-.177-.549-.177-.231 0-.478.048-.679.085l-.129.024-.64.097c-1.166.162-2.076.319-2.311.718-.069.115-.078.244-.027.376.041.106.141.234.372.234M151.499 7.763c.289 0 .611-.105.754-.151.357-.061.636-.123.888-.18.448-.098.802-.178 1.338-.182l.189.03c.137.027.305.061.459.061.316 0 .43-.145.47-.268.025-.079.038-.201-.05-.35-.179-.298-.668-.523-.881-.559l-.245-.017c-.357 0-.892.073-1.296.144-.829.148-1.863.33-2.13.767-.072.116-.088.247-.049.379.046.148.178.326.553.326M123.537 10.489l.202-.017.153-.012h.006c.128 0 .215-.063.297-.125l.564-.044c1.343-.078 2.551-.198 2.6-.797.015-.182-.023-.324-.114-.423-.092-.1-.227-.15-.415-.15-.229 0-.513.075-.788.145l-.397.098c-.226.044-.512.068-.806.095-.847.072-1.72.149-1.753.699-.008.183.029.317.116.408.078.082.188.123.335.123M166.577 6.542l.442.003c.54 0 .833-.024 1.391-.096l.211-.006c.351-.002.829-.007.954-.303.052-.124.042-.264-.031-.405-.119-.237-.38-.427-.552-.467l-.174-.019c-.262 0-.529.121-.69.192l-.12.041-.522-.033c-.347-.029-.785-.064-1.19-.064-.707 0-1.111.108-1.272.341-.06.086-.114.234-.036.448.12.326 1.344.363 1.589.368M158.53 7.01c.285 0 .624-.055.951-.107.214-.034.423-.065.601-.081l.296-.012c.268 0 .538.025.787.046.223.02.429.038.605.038.199 0 .449-.019.597-.169.224-.226.216-.407.169-.52-.199-.477-1.436-.5-1.681-.5l-.243.007-.153.01c-1.453.098-2.659.222-2.674.754-.005.141.038.26.126.348.122.126.32.186.619.186M181.512 6.038c.162 0 .346-.024.53-.048l.364-.041.352-.01c.303 0 .641.018.971.034.322.017.637.033.905.033.411 0 .657-.039.794-.124.278-.173.396-.354.349-.536-.135-.514-1.556-.582-1.569-.583l-.424-.008c-1.059 0-2.843.092-2.896.708-.018.171.022.307.111.406.138.151.36.169.513.169M189.067 5.7l.272-.013.398-.016h.006c.297.002.654.038 1.031.075.398.04.809.081 1.153.081.368 0 .615-.047.773-.145l.095-.003c.053 0 .216 0 .27-.166.104-.335-.254-.775-.474-.869-.098-.042-.225-.063-.397-.063-.172 0-.369.021-.571.041-.204.02-.41.041-.599.041l-.244-.006c-.265-.01-.531-.019-.783-.019-.743 0-1.144.089-1.336.298-.092.097-.134.223-.122.361.031.403.392.403.528.403M173.035 6.296c.182 0 .376-.035.55-.066l.265-.04.703-.062c.502-.047.974-.092 1.483-.092l.256.016c.157.013.347.029.532.029.397 0 .641-.072.771-.228.057-.069.119-.192.083-.375-.076-.415-1.43-.508-1.581-.517l-.447-.013c-.683 0-2.732.114-3.158.615-.093.11-.101.218-.088.29.031.202.168.443.631.443M197.162 5.698c.225 0 .474-.022.717-.042l.362-.029.524-.054c.202-.023.391-.048.549-.048l.115.007c.098.012.221.058.351.107.184.07.392.15.592.15.138 0 .261-.037.4-.111.066-.005.216-.02.251-.172.04-.168.002-.33-.111-.471-.38-.483-1.578-.653-2.489-.653-1.031 0-2.137.201-2.153.768-.003.135.039.25.125.34.138.143.374.208.767.208M220.038 6.332l.255-.009.243-.008.149.006c.468.047 1.035.171 1.583.29.653.142 1.27.277 1.726.277h.001c.148-.002.187-.096.207-.135.098-.058.186-.128.191-.329.036-.822-1.683-.934-2.507-.988l-.207-.014-.459-.06c-.322-.045-.688-.099-1.007-.099-.38 0-.617.074-.75.233-.096.11-.128.255-.1.428.073.408.512.408.675.408M212.334 5.886l.327.037c.433.057 1.302.075 1.998.089.419.01.78.016.955.03l.177.054c.098.041.209.084.341.084.11 0 .217-.031.32-.095l.065-.032c.07-.026.09-.066.118-.12l.034-.064c.101-.182.06-.33.007-.419-.357-.601-2.542-.649-3.201-.649l-.26.003c-.521 0-1.093.023-1.327.31-.089.107-.117.243-.089.392.068.337.232.351.535.38M204.457 5.769c.22 0 .451-.044.64-.081l.26-.041c.541-.021 1.229-.047 1.703-.047l.181.002.238.041c.17.035.383.078.561.078.187 0 .312-.049.381-.15.161-.232.127-.42.066-.538-.224-.453-1.134-.584-1.364-.595h-.041c-.11 0-.27.025-.451.058-.223.036-.475.079-.739.089l-.484.003c-.679 0-1.308.025-1.552.335-.061.08-.127.218-.078.42.047.195.202.426.679.426M229.393 7.277c.273.015.511.028.615.051.178.036.331.096.478.153.217.085.44.172.735.172l.218.026.266.026c.346 0 .435-.234.448-.432.025-.369-1.66-.961-1.681-.967-.5-.151-1.075-.183-1.64-.196l-.272-.002c-.444 0-.885.033-1.066.272-.055.075-.11.202-.058.391.108.376.917.45 1.957.506M235.364 8.166c.329.129.884.156 1.469.186.471.021.956.046 1.341.124.143.027.299.085.445.138.195.073.382.142.534.142.154 0 .237-.071.279-.129.17-.232.218-.442.141-.624-.183-.422-.99-.523-1.772-.621-.232-.029-.457-.055-.646-.091l-.29-.061c-.367-.077-.826-.174-1.206-.174-.396 0-.644.11-.741.329-.069.156-.079.296-.029.419.084.21.319.301.475.362M256.482 11.269l.354.06c.612.157 1.014.255 1.509.301l.341.061c.242.047.519.103.75.103.247 0 .408-.065.491-.198.089-.141.101-.299.034-.456-.146-.352-.63-.607-.912-.671l-.079-.007-.258.031c-.116.021-.253.043-.387.043l-.07-.002c-.152-.011-.391-.065-.64-.121-.393-.088-.834-.187-1.188-.187-.539 0-.677.249-.701.457-.053.482.416.542.756.586M251.258 10.581l.479.064.584.138c.375.096.765.194 1.043.194.166 0 .288-.035.373-.109.16-.146.209-.488.099-.693-.092-.175-.469-.286-1.303-.49l-.104-.026c-.423-.104-1.062-.263-1.549-.263-.456 0-.72.145-.775.431-.031.155-.006.289.076.4.187.256.618.303 1.077.354M243.418 9.611c.238 0 .488-.018.692-.033l.34-.016h.021c.519.042 1.011.211 1.407.349.324.11.581.199.777.199l.186-.034.135-.041c.177-.029.192-.137.212-.3.037-.301-.913-.926-1.11-1.008-.407-.173-1.16-.283-1.921-.283-.593 0-1.607.069-1.745.54-.051.174.001.295.056.367.135.177.435.26.95.26M308.422 23.303l.32.104c.335.131.604.263.848.381.537.26.964.469 1.694.516l.181.042c.105.033.225.068.34.068.215 0 .35-.127.388-.357.075-.48-1.939-1.279-2.168-1.368l-.104-.044c-.394-.159-1.126-.458-1.636-.458-.425 0-.563.205-.608.38-.12.483.358.623.745.736M272.424 13.885c.404.066.789.126 1.057.21.175.055.339.153.481.241.185.111.343.207.504.207.087 0 .161-.028.229-.081.109-.085.221-.286.212-.53-.043-.999-2.873-1.318-2.901-1.32-.134-.015-.3-.027-.468-.027-.398 0-.664.072-.808.222-.081.085-.122.197-.119.319.013.47.847.603 1.813.759M263.846 12.385c.479.114 1.088.169 1.529.21.271.025.502.046.604.07.099.025.22.084.345.147.21.103.448.219.697.219.103 0 .205-.022.295-.064l.074-.01c.184-.008.266-.102.281-.324.033-.437-1.02-.908-1.18-.965-.684-.241-1.762-.426-2.509-.426-.676 0-1.021.141-1.046.429-.043.486.673.658.91.714M339.008 33.735l.324.04c.145.043.322.141.513.243.35.192.745.406 1.13.406l.247-.032c.279-.081.448-.242.466-.441.018-.207-.135-.41-.408-.542-.471-.219-1.677-.674-2.413-.674-.474 0-.622.196-.663.36-.039.158-.02.289.057.394.147.204.467.225.747.246M333.627 31.922c.179.038.348.073.428.107.151.068.301.174.462.287.297.211.604.43.991.43l.066-.002.133.015.161.017c.322 0 .38-.309.398-.409.066-.362-.215-.455-.465-.538-.137-.043-.29-.094-.443-.188-.168-.1-.298-.213-.414-.316-.106-.093-.199-.172-.295-.218-.381-.181-1.29-.445-1.838-.445-.261 0-.42.064-.487.19-.106.2-.076.358-.031.454.17.366.815.504 1.334.616M316.066 25.826c.349.089.679.171.896.25.166.061.322.156.474.25.205.123.4.242.589.242l.184-.015.108.015c.081 0 .148-.038.187-.106.079-.147.092-.31.042-.472-.133-.412-.65-.702-.865-.805-.798-.388-2.271-.897-2.797-.915h-.066c-.662 0-.771.349-.775.557-.009.447.794.685 2.023.999M291.194 18.357c.398.104.808.212 1.072.334l.236.151c.138.104.279.209.472.209l.234-.034c.104 0 .143-.068.211-.181.093-.16.104-.333.036-.497-.247-.593-1.542-1.004-2.289-1.195-.204-.053-.561-.114-.896-.114-.432 0-.68.108-.735.321-.029.101-.015.206.041.299.192.332.884.515 1.618.707M297.686 20.23c.252.058.488.111.663.169.114.039.225.106.329.171.153.097.299.186.458.186.063 0 .121-.014.227-.065.101-.042.189-.091.238-.281.064-.241.037-.448-.076-.617-.261-.385-.921-.473-1.451-.543-.186-.023-.355-.045-.484-.078-.177-.043-.349-.108-.51-.168-.243-.088-.45-.166-.63-.166-.171 0-.387.072-.441.417-.092.569.849.786 1.677.975M280.223 15.555l.063-.004.021-.007.101-.025c.188-.041.345-.104.386-.456.01-.097-.025-.197-.108-.292-.421-.469-2.149-.946-3.087-.946-.464 0-.728.114-.781.339-.02.077-.021.194.085.325.467.598 2.934 1.066 3.32 1.066M328.306 30.083l.307.077c.188.062.38.15.567.236.3.137.582.266.819.276l.16.021.201.023c.182 0 .315-.09.395-.272.099-.221-.248-.663-.389-.766-.538-.394-1.988-.893-2.849-.893-.56 0-.698.219-.717.401-.05.527.887.75 1.506.897M303.625 21.928l.47.109.256.115c.125.06.231.113.349.113l.158-.036c.286-.134.423-.297.408-.484-.029-.358-.592-.665-1.946-1.055l-.239-.073c-.419-.128-.854-.262-1.184-.262-.486 0-.574.301-.582.48-.027.555 1.078.833 2.31 1.093M284.749 16.489c.225.033.414.06.502.088.103.034.215.099.332.172.202.121.413.246.641.246l.188-.031.092-.021c.2-.04.308-.122.339-.457.045-.443-.413-.58-.819-.699l-.349-.113c-.421-.161-1.477-.534-2.113-.534-.284 0-.463.073-.551.219-.129.212-.098.376-.049.477.183.395.918.53 1.787.653M321.801 27.654l.429.111c.282.099.587.259.882.414.413.218.771.405 1.028.405l.153-.028c.303-.119.357-.297.35-.426-.039-.592-1.518-1.234-2.07-1.379-.209-.056-.718-.162-1.154-.162-.327 0-.544.06-.663.184-.067.072-.102.164-.097.266.015.352.59.486 1.142.615M81.697 55.226c.206 0 .411-.136.506-.222l.091-.026c1.751-.463 2.432-.779 2.432-1.125-.004-.456-.547-.589-.831-.594l-.043-.001c-.825 0-2.205.775-2.517 1.301-.114.189-.085.327-.043.408.117.215.286.259.405.259M75.46 57.189c.082 0 .144-.043.195-.077l.1-.048c.405-.05.767-.252 1.12-.446.302-.168.612-.342.939-.409l.26-.022c.38-.021.9-.05 1.115-.334.087-.114.113-.255.078-.413-.057-.269-.365-.403-.917-.403-.454 0-1.035.097-1.405.235-.339.123-1.603.736-1.809 1.309-.047.137-.038.269.029.382.063.105.153.226.295.226M53.917 64.832c.249 0 .501-.166.705-.297l.194-.116.639-.252c.39-.154.719-.281.857-.345l.201-.059c.198-.038.496-.099.453-.556-.016-.164-.111-.443-.577-.443-.722 0-2.012.687-2.317.869l-.279.129c-.173.069-.337.134-.403.295-.047.114-.034.243.039.414.13.299.336.361.488.361M39.053 69.759c.104.134.217.16.292.16.108 0 .194-.056.22-.086.621-.067 2.067-.701 2.343-1.307.096-.209.038-.367-.03-.461-.073-.107-.215-.159-.43-.159-.368 0-.918.15-1.404.382-.292.14-.986.513-1.101 1-.037.169 0 .331.11.471M92.797 52.595c.33 0 .722-.125.983-.21l.131-.041.518-.179c.231-.086.432-.16.739-.223.254-.05.417-.259.405-.519-.01-.261-.218-.563-.642-.609l-.073-.005c-.221 0-.405.113-.599.235-.134.084-.274.173-.437.229-.213.071-.446.119-.67.162-.416.082-.777.153-.929.382-.066.098-.085.213-.059.341.033.163.159.437.633.437M87.314 53.585c.151 0 .327-.072.497-.143l.286-.104.489-.071c.428-.051.914-.11 1.241-.313l.18-.077c.134-.047.288-.102.357-.254.054-.121.042-.269-.04-.47-.068-.168-.181-.254-.337-.254-.096 0-.194.033-.298.07l-.296.078c-.024.003-2.318.286-2.512.971-.034.121-.026.302.218.496.057.046.13.071.215.071M64.75 60.84c.314 0 .747-.163 1.169-.319.244-.092.486-.183.693-.235l.45-.091c.331-.056.645-.107.824-.308l.098-.081c.137-.096.259-.215.129-.521-.08-.185-.314-.279-.699-.279-.913 0-2.739.551-3.097 1.179-.109.191-.067.346-.011.441.085.143.235.214.444.214M59.232 62.984c.157 0 .323-.08.499-.166l.295-.131c.285-.107.609-.203.911-.293.54-.158.879-.263 1.034-.389l.143-.078c.105-.048.235-.106.285-.249.04-.113.016-.25-.077-.422-.074-.141-.258-.21-.563-.21-.77 0-2.524.503-2.897 1.19-.102.185-.093.373.016.543.087.137.208.205.354.205M48.435 66.674c.263 0 .532-.179.75-.319l.224-.134.457-.133c.58-.149 1.299-.338 1.507-.727.067-.125.075-.267.026-.406-.053-.154-.187-.34-.518-.34-.325 0-.749.176-1.199.361l-.358.146-.174.065c-.512.19-1.147.431-1.251.832-.041.154.003.312.131.464.108.127.241.191.405.191M43.846 68.076c.689 0 2.081-.551 2.265-.753.229-.261.301-.471.222-.641-.073-.166-.272-.248-.589-.248-.712 0-2.058.442-2.369.986-.112.2-.067.36-.007.459.076.132.238.197.478.197M97.872 51.615l.29-.044.102-.021c.379-.04.794-.181 1.195-.316.281-.096.544-.184.767-.227l.225-.01c.322-.005.687-.011.768-.252.025-.072.036-.19-.045-.33-.16-.271-.605-.498-.755-.525l-.182-.015c-.745 0-2.324.579-2.703 1.082-.11.148-.108.271-.085.347.057.203.209.311.423.311M70.298 58.86c.312 0 .703-.202 1.018-.365l.297-.143c.209-.077.379-.118.533-.154.269-.063.503-.118.799-.325l.068-.021c.163-.047.603-.166.467-.675-.078-.297-.273-.359-.425-.359-.172 0-.37.081-.577.169l-.341.131-.199.059c-.893.251-1.866.558-2.086 1.021-.058.126-.061.257-.007.384.055.127.18.278.453.278M109.854 49.369c.091 0 .166-.044.228-.078l.098-.043h.001l.156-.024.488-.053c1.075-.101 2.147-.23 2.442-.635.074-.103.098-.219.072-.338-.061-.276-.4-.419-1.009-.419-.438 0-.997.073-1.496.196-.755.175-1.201.418-1.326.722-.045.107-.071.275.056.479.082.127.18.193.29.193M139.797 45.552l.166-.019.225.02c.308 0 .613-.108.88-.202.138-.052.27-.101.393-.126l.472-.111c.308-.073.606-.147.956-.202l.143-.01.324.008c.149 0 .549 0 .6-.391.027-.202-.014-.365-.12-.487-.125-.143-.337-.215-.63-.215-.346 0-.731.097-.962.155l-.104.025-.408.071c-.961.155-1.924.342-2.196.794-.079.132-.095.282-.044.432.058.173.161.258.305.258M133.978 45.838c.207 0 .437-.041.645-.077l.405-.053c.178 0 .445.032.735.063.354.042.72.085 1.015.085.277 0 .443-.038.538-.125.206-.19.277-.372.209-.546-.214-.551-1.856-.579-2.183-.579l-.09.001c-.148.002-1.447.031-1.802.494-.088.112-.116.243-.08.38.06.238.264.357.608.357M121.24 47.818c.122 0 .248-.037.356-.068l.16-.041c.375-.057.696-.148 1.006-.235.319-.092.621-.179.967-.223l.3-.008c.332-.002.711-.004.906-.219.089-.097.128-.227.113-.38-.032-.337-.37-.51-1.009-.51-.623 0-1.356.16-1.644.228-.648.16-1.717.512-1.592 1.077.056.246.21.379.437.379M115.638 48.595c.255 0 .568-.089.795-.15l.17-.047c.436-.104.746-.155 1.113-.215l.381-.064.129-.012c.177-.01.445-.023.574-.324.043-.098.032-.223-.034-.364-.084-.186-.275-.414-.49-.479l-.26-.035c-.392 0-.961.169-1.469.335-.947.309-1.353.545-1.404.809-.031.161-.007.294.075.393.086.101.227.153.42.153M104.076 50.384c.461 0 1.062-.212 1.383-.326l.168-.055c.131-.034.293-.056.462-.077.426-.056.871-.116 1.063-.383.081-.117.107-.257.073-.416-.042-.203-.173-.447-.562-.447-.263 0-.584.11-.922.227-.195.066-.394.133-.582.18l-.444.078c-.603.095-1.356.213-1.311.728.017.183.126.491.672.491M146.342 44.757l.154-.014.101-.008h.007l.209.008c.435 0 .952-.108 1.366-.196l.52-.099.35-.026c.439-.021 1.041-.052 1.056-.567.006-.167-.041-.303-.138-.402-.113-.119-.287-.176-.532-.176-.206 0-.423.04-.597.074l-.112.02-.537.076c-1.085.146-1.934.289-2.172.683-.071.117-.083.252-.033.39.04.107.134.237.358.237M153.303 44.282c.254 0 .532-.089.657-.129.326-.047.583-.101.812-.147.375-.075.672-.137 1.081-.137l.152.002.17.038c.134.035.302.078.456.078.285 0 .382-.159.412-.253.028-.08.042-.21-.046-.368-.155-.279-.57-.524-.784-.574-.086-.018-.2-.027-.346-.027-.329 0-.761.051-1.052.097-.767.117-1.722.263-1.999.683-.076.118-.099.252-.062.392.034.127.15.345.549.345M127.667 46.753l.184-.015.135-.01h.005c.125 0 .21-.068.273-.128l.49-.035c1.251-.069 2.376-.182 2.413-.788.011-.188-.03-.333-.121-.43-.088-.094-.216-.141-.385-.141-.211 0-.464.072-.711.141l-.377.097c-.208.041-.469.064-.739.089-.779.069-1.587.141-1.604.691-.006.188.034.323.123.415.075.077.178.114.314.114M167.104 43.65c.34.021.581.033.796.033.283 0 .522-.019.955-.055l.324.006c.271 0 .595-.03.699-.273.053-.127.043-.274-.027-.425-.1-.21-.314-.411-.487-.464l-.195-.026c-.233 0-.47.105-.613.168l-.081.034c-.101 0-.285-.025-.513-.056-.386-.05-.867-.112-1.295-.112-.511 0-.816.091-.962.287-.062.084-.122.231-.055.453.098.333 1.229.418 1.454.43M159.814 43.793c.24 0 .51-.038.772-.069.2-.025.395-.051.561-.056l.123-.003c.291 0 .595.042.866.083.235.034.457.065.642.065.14 0 .346-.018.478-.152.223-.227.211-.413.161-.529-.225-.539-1.65-.553-1.662-.553l-.215.004c-1.349.037-2.468.11-2.497.643-.007.151.033.277.124.373.124.132.33.194.647.194M180.825 43.521c.15 0 .321-.024.489-.049l.325-.038.309-.01c.28 0 .597.02.906.037.299.018.592.035.843.035.373 0 .596-.038.723-.125.261-.177.365-.36.313-.544-.138-.495-1.43-.575-1.443-.575l-.423-.009c-.963 0-2.585.09-2.637.701-.014.176.025.315.116.414.101.11.258.163.479.163M187.748 43.197l.252-.014.362-.015h.006c.266.004.591.038.934.077.367.039.748.081 1.068.081.343 0 .568-.045.713-.146l.076-.002c.144 0 .231-.058.262-.171.095-.332-.237-.771-.438-.863-.095-.043-.214-.062-.377-.062-.156 0-.337.019-.523.037-.185.021-.373.042-.542.042l-.232-.007c-.243-.011-.487-.021-.718-.021-.667 0-1.03.085-1.216.285-.093.1-.137.226-.126.372.028.407.381.407.499.407M173.074 43.633c.153 0 .322-.027.472-.051l.239-.032.731-.05c.369-.025.724-.054 1.088-.054l.186.003.228.021c.162.021.363.041.551.041.325 0 .539-.067.657-.206.085-.099.117-.227.094-.38-.06-.396-1.22-.527-1.452-.55-.169-.016-.387-.025-.63-.025-.227 0-2.232.018-2.685.528-.099.108-.107.218-.1.291.026.212.155.464.621.464M195.16 43.193c.202 0 .435-.021.657-.043l.34-.03.473-.054c.186-.027.364-.052.509-.052l.102.007c.088.009.199.056.317.104.169.069.36.148.546.148.133 0 .251-.038.373-.113.059-.007.207-.023.238-.176.037-.176-.006-.345-.124-.491-.373-.459-1.447-.621-2.254-.621-.961 0-1.992.204-2.004.776-.002.141.04.259.129.347.13.137.352.198.698.198M216.12 43.595l.241-.009.23-.008.13.006c.423.043.938.161 1.432.275.595.138 1.156.268 1.602.268h.004c.103-.003.172-.055.203-.14.086-.06.166-.131.175-.327.036-.82-1.538-.919-2.296-.967l-.2-.016-.421-.057c-.291-.044-.62-.092-.91-.092-.341 0-.571.073-.702.22-.094.112-.131.26-.103.441.058.406.477.406.615.406M209.069 43.259l.301.032c.403.053 1.216.055 1.868.056.369 0 .688.003.844.011l.156.051c.087.037.187.081.309.081.109 0 .211-.037.371-.139.068-.031.087-.07.11-.123l.032-.065c.095-.19.047-.338-.011-.429-.312-.502-1.854-.577-2.744-.577l-.322.005-.066.001c-.402.005-1.009.015-1.255.315-.09.109-.122.251-.095.404.064.34.228.354.502.377M201.841 43.229c.206 0 .428-.048.601-.085l.234-.043.074-.004c.511-.027 1.139-.061 1.556-.061l.097.002.213.037c.155.033.345.073.507.073.184 0 .307-.052.371-.158.152-.243.11-.436.044-.555-.207-.396-.936-.548-1.255-.563h-.024c-.105 0-.254.029-.426.063-.204.039-.434.083-.678.097l-.354.006c-.587.006-1.249.012-1.505.333-.064.082-.132.225-.083.434.044.196.191.424.628.424M224.713 44.443c.237.01.462.017.557.038.163.034.301.091.431.144.198.079.4.159.693.159h.001l.187.021.232.022c.27 0 .42-.154.438-.444.023-.359-1.537-.923-1.551-.93-.466-.143-1.016-.163-1.51-.164l-.085-.001c-.47 0-.945.021-1.141.275-.058.074-.115.204-.065.399.101.383.848.442 1.813.481M230.186 45.188c.312.124.829.133 1.379.143.425.008.862.017 1.21.077.131.024.268.075.4.122.179.064.347.125.486.125.157 0 .237-.074.281-.137.164-.245.204-.46.118-.643-.192-.403-.94-.479-1.664-.548l-.565-.066-.256-.047c-.32-.063-.714-.142-1.056-.142-.406 0-.658.117-.756.352-.063.161-.069.306-.016.428.086.2.306.286.439.336M249.514 48.197l.314.055c.558.154.928.249 1.39.287l.306.055c.218.046.465.096.679.096.242 0 .402-.068.483-.204.084-.149.095-.315.021-.481-.133-.307-.537-.563-.826-.628l-.076-.008-.25.035c-.105.02-.229.044-.394.044h-.016c-.138-.009-.355-.06-.585-.115-.353-.083-.749-.176-1.071-.176-.513 0-.651.249-.674.459-.06.483.379.54.699.581M244.727 47.525l.432.063.519.136c.349.095.708.196.971.196.159 0 .275-.037.354-.111.151-.14.205-.479.11-.683-.082-.177-.413-.286-1.147-.483l-.143-.038c-.391-.104-.981-.264-1.423-.264-.527 0-.688.233-.729.427-.034.161-.01.3.071.412.175.248.568.294.985.345M237.611 46.504l.589-.025.293-.012h.025c.471.046.915.221 1.274.358.3.114.538.207.723.207l.173-.033.123-.037c.169-.029.185-.137.208-.298.041-.298-.806-.925-.99-1.016-.386-.181-1.121-.303-1.836-.303-.521 0-1.418.067-1.558.517-.056.182-.004.307.05.381.133.178.427.261.926.261M297.032 59.498l.289.092c.313.121.561.245.784.355.49.242.88.435 1.558.46l.158.035c.092.029.199.062.304.062.12 0 .33-.049.383-.36.085-.499-1.906-1.273-1.988-1.305l-.091-.036c-.35-.143-1.001-.408-1.474-.408-.431 0-.571.215-.616.396-.117.484.352.615.693.709M264.092 50.414c.377.053.766.108 1.021.195.16.052.307.148.435.233.166.109.312.203.464.203.082 0 .154-.028.221-.081.102-.085.211-.285.207-.527-.002-.87-1.981-1.219-2.674-1.273l-.317-.012c-.418 0-.696.075-.847.235-.087.089-.129.207-.124.338.018.46.794.573 1.614.689M257.694 49.374c.24.017.444.032.533.052.089.021.197.076.313.134.188.096.4.202.629.202.105 0 .212-.023.365-.086.175-.016.249-.108.264-.331.027-.435-.95-.876-1.097-.928-.601-.208-1.526-.36-2.198-.36-.692 0-1.053.152-1.079.449-.011.126.028.243.113.345.313.366 1.2.457 2.157.523M325.232 68.566l.298.027c.135.037.302.13.478.228.311.171.661.366 1.002.366l.252-.038c.27-.088.432-.25.447-.451.015-.202-.123-.397-.373-.524-.482-.241-1.501-.598-2.162-.598-.501 0-.655.209-.697.387-.035.164-.014.298.064.398.145.189.435.199.691.205M320.25 67.077l.395.078c.138.053.279.15.425.251.269.183.544.371.881.371l.143-.01.096.007.114.008c.225 0 .357-.141.403-.426.059-.366-.226-.446-.45-.51-.124-.035-.267-.074-.402-.155-.154-.086-.276-.192-.383-.284-.104-.089-.19-.164-.282-.202-.355-.154-1.094-.325-1.587-.325-.323 0-.512.07-.582.22-.081.174-.085.332-.011.47.179.337.768.432 1.24.507M304.019 61.793c.325.083.632.158.831.232.15.055.288.146.426.234.185.12.361.234.543.234l.173-.02.1.014c.081 0 .149-.039.186-.108.081-.153.097-.322.045-.488-.088-.278-.372-.555-.779-.762-.726-.373-2.084-.845-2.57-.851h-.025c-.474 0-.753.207-.772.567-.021.479.884.706 1.842.948M281.256 54.886c.362.095.738.194.979.311l.207.141c.12.097.254.205.437.205l.219-.036c.104 0 .143-.07.21-.184.095-.17.107-.352.035-.522-.244-.576-1.408-.947-2.079-1.12-.174-.043-.484-.094-.779-.094-.432 0-.683.11-.744.329-.03.107-.017.215.04.309.182.32.81.487 1.475.661M287.145 56.674c.236.062.463.119.626.182.102.037.194.105.288.169.142.101.274.193.432.193l.215-.061c.096-.041.181-.092.234-.279.072-.25.053-.462-.058-.636-.235-.368-.827-.46-1.303-.53l-.444-.083c-.158-.043-.31-.106-.455-.164-.222-.094-.418-.172-.591-.172-.161 0-.365.072-.43.413-.106.556.741.774 1.486.968M271.25 52.132l.049-.002.021-.011.092-.021c.176-.038.324-.097.383-.442.017-.105-.02-.212-.108-.318-.412-.489-1.991-.987-2.829-.987-.401 0-.633.11-.692.326-.021.08-.023.206.085.349.449.591 2.686 1.106 2.999 1.106M315.316 65.593l.274.057c.171.053.348.126.517.196.279.118.542.229.791.229h.001l.133.012.148.009c.199 0 .331-.094.407-.291.087-.227-.243-.643-.376-.734-.512-.363-1.757-.722-2.514-.722-.628 0-.782.236-.802.436-.047.531.836.697 1.421.808M292.666 58.327l.381.082.23.101c.115.055.212.103.32.103l.169-.047c.267-.146.393-.315.373-.502-.049-.432-.915-.716-1.72-.947l-.339-.098c-.357-.109-.727-.22-1.019-.22-.472 0-.564.302-.576.481-.043.573 1.053.831 2.181 1.047M275.39 53.126c.191.031.349.054.429.083.09.029.188.095.296.164.184.122.375.247.588.247l.188-.035.083-.024c.188-.043.288-.124.328-.453.056-.44-.366-.574-.738-.69l-.318-.108c-.488-.198-1.39-.533-1.941-.533-.253 0-.425.071-.512.211-.134.22-.105.389-.057.494.192.415 1.037.548 1.654.644M309.292 63.486l.39.096c.254.087.532.233.798.371.377.199.704.37.949.37l.174-.037c.286-.134.332-.32.318-.448-.056-.567-1.402-1.148-1.905-1.274-.189-.047-.61-.127-.988-.127-.338 0-.563.063-.688.189-.071.073-.109.168-.107.273.004.357.541.474 1.059.587"/><path clip-path="url(#b)" fill="#231F20" d="M67.711 41.439c-.174-.254-3.989-2.585-8.124-7.026-.491-.527-.824-.904-1.004-1.006l-.632-.35c-.263-.149-.417-.295-.464-.44-.036-.111-.013-.223.071-.336.084-.113.368-.25.853-.406 1.304-.42 1.956-.627 3.263-1.036.681-.213 1.061-.188 1.141.069.034.112.003.31-.094.598-.083.247-.1.449-.051.605.129.415 1.505 1.84 4.073 4.296.534.51.914.734 1.141.665.204-.061.328-.226.389-.466.083-.328.212-1.723.353-4.157.054-.93.038-1.538-.045-1.819-.052-.179-.206-.367-.462-.559-.303-.228-.48-.412-.523-.558-.087-.292.211-.541.896-.742 1.303-.384 1.956-.573 3.262-.946.661-.188 1.031-.134 1.114.159.042.147-.088.524-.389 1.133-.092.184-.147.617-.148 1.284-.003 2.188-.265 5.368-.849 9.392-.178 1.232-.785 4.045-1.606 8.349-.167.876-.226 1.381-.192 1.492.045.146.196.322.448.526.219.178.348.334.389.468.082.269-.131.48-.638.637-1.674.516-2.51.779-4.179 1.313-.598.191-.941.147-1.031-.131-.057-.179.062-.479.361-.893.254-.352.519-.906.738-1.635.887-2.95 2.321-7.924 1.939-8.48m6.44-12.974c.022-.025.878.466.934.668.038.136-.004.378-.135.712-.223.572-.388 1.116-.473 1.612-.039.229-.23 1.816-.465 4.695-.141 1.714-.65 4.847-1.508 9.312-.234 1.216-.475 2.399-.716 3.532-.125.588-.148 1.017-.067 1.286.061.201.262.488.602.862.208.231.343.449.403.651.136.449-.299.822-1.297 1.127-1.108.338-1.662.51-2.768.855-.504.159-.854.216-1.044.164-.508-.138-1.291-.604-1.291-.604.005-.013.804-.017 1.275-.165 1.219-.385 1.829-.575 3.05-.949.735-.226 1.051-.511.946-.858-.031-.102-.171-.275-.404-.521-.15-.159-.25-.328-.302-.496-.082-.269-.093-.579-.037-.926.103-.625.284-1.537.578-2.688.4-1.569.944-4.737 1.593-9.423.194-1.4.394-3.46.623-6.152.067-.784.199-1.346.374-1.675.198-.373.273-.643.235-.778l-.106-.241m-10.013 2.917c.033-.033.655.233.82.337.222.141.535.494.918 1.062.315.467 1.535 1.305 1.886 2.054.14.299-.029.796-.185.826-.085.016-.211-.054-.374-.2-.499-.448-1.133-1.053-1.874-1.816-.736-.76-1.14-1.255-1.205-1.468-.024-.078-.022-.253.023-.505.018-.102-.009-.29-.009-.29M85.65 23.799c1.997-.495 3.806-.143 5.389 1.048 2.064 1.553 3.517 4.253 4.386 8.055.639 2.796.764 5.238.38 7.302-.279 1.505-.891 2.785-1.813 3.838-.787.896-1.823 1.506-3.116 1.827-1.456.361-2.863.212-4.229-.45-1.396-.677-2.625-1.953-3.691-3.808-.79-1.374-1.458-3.036-1.979-4.98-1.136-4.242-.961-7.592.538-10.027.856-1.389 2.237-2.335 4.135-2.805m6.772.636c.003-.005 1.384.991 1.87 1.481 1.571 1.589 2.656 3.783 3.278 6.572.68 3.051.732 5.906.179 8.549-.29 1.387-.875 2.659-1.75 3.812-1.09 1.434-2.507 2.363-4.258 2.796-1.681.416-3.284.188-4.816-.648-.585-.319-1.623-1.281-1.623-1.281.005-.006 1.327.797 1.767.973 1.314.525 2.713.611 4.201.241 1.37-.339 2.544-1.002 3.528-1.995 1.262-1.272 2.056-3.146 2.374-5.62.269-2.101.131-4.384-.421-6.84-.656-2.914-1.682-5.136-3.062-6.654-.691-.762-1.267-1.386-1.267-1.386m-6.11 2.656c-2.519.625-3.087 3.62-1.711 8.949 1.285 4.978 3.135 7.151 5.555 6.55 2.433-.604 3.03-3.497 1.788-8.715-.572-2.404-1.247-4.18-2.035-5.311-.934-1.339-2.144-1.835-3.597-1.473m3.132 14.753c-.039.082-2.524-2.1-3.521-6.016-1.217-4.777-.822-7.425 1.191-7.922.646-.159 1.567.467 1.567.467-.013.036-.537.076-.671.109-.914.223-1.508.695-1.763 1.396-.399 1.1-.225 3.095.495 5.945.731 2.895 2.702 6.021 2.702 6.021M113.25 36.569l-2.711-14.664c-.164-.815-.271-1.334-.338-1.512-.056-.149-.263-.344-.584-.552-.157-.101-.253-.219-.279-.357-.06-.322.152-.531.637-.621 1.388-.257 2.082-.382 3.472-.627.473-.083.738.031.792.343.027.15-.103.424-.374.816-.092.133-.098.389-.066.725.01.101.067.493.184 1.162l2.226 12.63c.081.462.144.783.202.945.039.108.232.345.549.705.153.174.245.344.273.506.036.208-.021.515-.17.921-.381 1.042-1.031 1.938-1.94 2.685-1.017.838-2.193 1.385-3.533 1.642-1.4.268-2.708.158-3.93-.319-1.455-.567-2.51-1.772-3.127-3.628-.134-.402-.366-1.406-.7-3.012l-2.225-10.697c-.184-.823-.302-1.337-.37-1.504-.06-.148-.276-.33-.597-.539-.149-.097-.24-.224-.271-.373-.065-.31.137-.514.608-.612 1.428-.297 2.143-.443 3.573-.727.472-.094.739.015.8.325.029.15-.081.441-.341.82-.094.139-.128.389-.066.729l.21 1.158 2.336 11.752c.192.965.37 1.6.526 1.902.327.633.796 1.076 1.407 1.315.466.182.949.228 1.447.133.96-.185 1.752-.675 2.38-1.47m-6.495 5.04c.014-.021 3.588 1.09 5.311.761 2.191-.418 3.934-1.602 5.261-3.555.715-1.054 1.047-1.775.979-2.167-.013-.081-.098-.258-.256-.525-.152-.259-.271-.62-.351-1.082l-2.403-13.899c-.033-.196-.033-.342.002-.437.035-.095.144-.327.344-.656.104-.172.156-.33.132-.469l-.073-.201c.026-.024 1.01.654 1.03.769.021.127-.055.331-.223.609-.159.263-.24.464-.241.593 0 .082.04.349.116.799.848 4.966 1.272 7.451 2.119 12.417l.121.816c.059.347.212.724.428 1.122.093.17.145.313.163.417.045.265-.062.677-.32 1.232-.499 1.072-1.233 2.036-2.197 2.878-1.252 1.094-2.651 1.784-4.183 2.075-1.685.32-3.254.062-4.705-.726-.337-.183-1.054-.771-1.054-.771m3.351-4.373c-.358-.002-.626-.072-.763-.211-.127-.129-.224-.385-.291-.73l-2.644-13.516c-.038-.195-.038-.377.013-.522.023-.063.132-.258.31-.579.095-.171.13-.33.104-.468l-.06-.203c.039-.031 1.008.635 1.03.75.024.126-.05.331-.21.612-.143.251-.205.46-.21.596-.003.093.033.363.117.8l2.604 13.471M123.818 16.228c.563-.084 1.099.008 1.61.277.636.333 1.014.923 1.135 1.769.177 1.229-.386 2.914-1.606 5.048-.28.489-.474.781-.584.869-.09.071-.208.121-.355.144-.527.08-.809-.001-.846-.244-.018-.116.215-.795.548-1.95.224-.777.297-1.29.276-1.429-.015-.104-.119-.197-.307-.273-1.053-.424-1.658-1.013-1.778-1.788-.101-.648.065-1.226.5-1.713.345-.386.819-.623 1.407-.71m3.754 1.635c.035-.026 1.055 1.012 1.139 1.615.095.684-.098 1.592-.564 2.722-.946 2.293-1.785 3.504-2.554 3.619-.379.056-1.184-.639-1.184-.639.006-.011.344.037.454.02.489-.073.973-.547 1.459-1.424.436-.786.85-1.784 1.247-2.985.254-.769.353-1.392.286-1.868-.028-.197-.283-1.06-.283-1.06M149.733 35.517c-1.064.097-1.596.147-2.659.251-.392.039-.686-.014-.876-.126-.156-.091-.416-.492-.755-1.211-1.105-2.48-1.664-3.719-2.796-6.191-.687-1.492-1.228-2.516-1.622-3.039-.408-.542-.88-.788-1.382-.731-.6.068-.846.564-.74 1.483l.867 7.485c.108.836.182 1.347.23 1.512.048.166.238.375.523.612.133.111.209.248.226.399.036.314-.172.497-.623.55-1.382.16-2.071.243-3.452.415-.462.058-.714-.076-.755-.402-.018-.139.114-.398.39-.775.103-.141.158-.391.131-.707l-.15-1.185-1.952-15.635c-.104-.837-.186-1.351-.248-1.529-.055-.156-.247-.352-.549-.586-.141-.109-.222-.241-.241-.393-.039-.314.179-.502.655-.562 3.268-.408 4.903-.595 8.177-.938 1.104-.115 1.88-.136 2.315-.076 1.111.153 2.008.659 2.668 1.526.517.681.813 1.454.891 2.317.103 1.12-.163 2.185-.772 3.194-.593.98-1.488 1.72-2.675 2.185-.699.274-1.049.449-1.041.531.005.046.049.106.129.163.368.258.821.658 1.272 1.213.408.5.877 1.366 1.401 2.596 1.161 2.723 1.935 4.474 2.358 5.21.306.533.743.972 1.258 1.314.319.213.488.41.503.573.029.327-.207.512-.706.557m-8.65-8.928l.846 7.648c.091.827.177 1.366.253 1.615.073.239.27.601.587 1.085.173.264.267.479.285.642.047.431-.285.683-.993.762-1.035.115-1.551.176-2.585.298-.484.057-.878.03-1.144-.094-.276-.13-.975-.766-.975-.766.005-.009.824.111 1.499.03.915-.109 1.374-.163 2.29-.267.615-.07.901-.278.863-.627-.016-.14-.207-.362-.524-.667-.136-.13-.214-.28-.245-.413-.018-.078-.055-.331-.103-.75l-.913-8.099-.062-.382c-.036-.325.036-.558.218-.696l.105-.047c.086-.01.182.068.287.233l.311.495m-2.96-7.373l.131 1.135c.059.512.242.82.538.91.343.104.862.114 1.54.039 2.59-.287 3.812-1.135 3.666-2.579-.064-.629-.353-1.051-.863-1.254-.378-.151-.8-.2-1.261-.151l-1.459.14-.803.088c-.746.084-1.208.285-1.388.582-.123.203-.162.567-.101 1.09m5.052-.075c-.818.084-1.226.127-2.044.216-.347.038-.562.096-.639.175-.112.116-.155.3-.129.545l.058.506-.371.041c-.222.025-.372-.018-.447-.128-.045-.065-.078-.202-.102-.411-.06-.535-.038-.881.054-1.032.149-.245.594-.419 1.338-.5l1.323-.141c.597-.063.913.091.951.464l.008.265m5.538-3.145c.02-.015 1.236 1.648 1.344 2.896.098 1.144-.208 2.264-.898 3.36-.553.88-1.142 1.509-1.721 1.886-.243.157-.359.317-.346.457.013.14.147.418.375.829.422.759 1.286 2.65 2.585 5.602.677 1.536 1.172 2.56 1.48 3.062.266.436.651.974 1.159 1.576.295.35.466.639.484.86.041.491-.336.767-1.129.835-.994.085-1.491.128-2.484.22-.426.039-.754.04-.95-.018-.155-.045-.346-.18-.556-.371l-.57-.527c.258.07.745.093 1.46.073.854-.079 1.282-.118 2.136-.193.581-.051.855-.252.825-.601-.015-.175-.093-.332-.237-.472l-.611-.6c-.3-.268-1.108-2.015-2.464-5.229-.826-1.958-1.415-3.203-1.748-3.735-.291-.465-.596-.891-.898-1.272-.085-.108-.132-.199-.138-.269-.01-.093.377-.432 1.163-1.013.947-.701 1.638-1.679 2.077-2.925.256-.727.35-1.518.275-2.369-.051-.583-.613-2.062-.613-2.062M168.58 13.074c-.287.933-.431 1.4-.714 2.334-.132.451-.351.682-.663.696-.2.009-.42-.069-.649-.234-.284-.206-.522-.335-.692-.354-.096-.01-.263-.006-.489.005-1.386.067-2.08.104-3.466.183-.661.037-1.082.141-1.26.301-.14.126-.251.319-.302.564-.032.149-.019.634.03 1.441.047.771.218 1.227.512 1.36.229.104.858.124 1.885.067.545-.03.984-.181 1.298-.456.249-.218.429-.339.541-.345.385-.019.595.322.63 1.024l.125 2.596c.026.515-.133.781-.476.798-.123.006-.347-.087-.659-.282-.254-.159-.515-.236-.752-.243-.191-.005-.766.006-1.699.06-.467.028-.787.206-.946.531-.099.202-.133.544-.105 1.011l.376 6.154c.019.527.208.894.555 1.076.182.095.548.125 1.089.094 1.664-.094 2.497-.137 4.162-.214.588-.028.959-.061 1.114-.103.154-.042.462-.202.921-.478.106-.063.23-.098.375-.104.3-.012.457.123.467.403.004.094-.025.265-.087.513l-.532 1.991c-.083.308-.2.527-.349.647-.124.099-.37.157-.727.173-4.049.177-6.072.292-10.116.574-.464.032-.709-.115-.732-.443-.01-.139.136-.391.431-.752.111-.136.179-.383.169-.7l-.084-1.19-1.098-15.736c-.058-.842-.112-1.35-.162-1.523-.05-.172-.233-.375-.515-.614-.135-.114-.207-.261-.219-.424-.021-.304.205-.475.683-.508 4.512-.314 6.77-.442 11.287-.633.364-.015.601-.002.7.041.115.051.178.165.184.33.005.128-.008.251-.041.369m2.137 18.605c.029-.018.767.759.776 1.028.004.129-.026.293-.091.495l-.595 1.868c-.172.51-.34.832-.507.967-.167.135-.499.212-.998.232-3.387.139-5.08.228-8.465.44-.604.038-1.033-.011-1.278-.148-.407-.228-1.004-.848-1.004-.848.004-.005.412.162.566.173.189.013.631-.007 1.32-.051 3.371-.214 5.058-.303 8.432-.444.368-.016.645-.101.83-.245.158-.124.294-.351.401-.684l.593-1.85c.054-.155.079-.354.07-.599l-.05-.334m-4.312-11.742l.252.219c.33.324.611.564.68.725.069.161.112.411.127.75l.093 2.105c.025.586-.042.987-.205 1.188-.147.182-.325.279-.52.288-.872-.312-1.308-.467-2.184-.774l-.936.05c-.439.035-.683.132-.739.268-.039.095-.056.308-.038.635l.299 5.333-.289.033c-.216.012-.37-.03-.46-.131-.091-.1-.147-.331-.168-.694l-.302-5.227c-.013-.433.083-.713.265-.843.187-.132.477-.219.869-.241l1.103-.059c.282-.014.493-.012.628.004.137.017.342.129.605.339.229.183.443.278.639.268.354-.016.515-.354.485-1.009l-.101-2.228c-.023-.48-.103-.999-.103-.999m3.112-6.565c.022-.026.866.519.879.881.005.118-.021.276-.076.477l-.654 2.592c-.119.473-.426.719-.922.739-.224.009-.484-.087-.776-.267-.361-.221-.696-.332-.969-.344-.124-.006-.343-.003-.653.011-1.09.05-1.634.077-2.723.135-.385.02-.633.05-.742.092-.242.093-.208.925-.315 1.057-.026.031-.222.029-.296.034-.384.021-.594-.237-.625-.775-.028-.49.052-.811.226-.963.154-.133.513-.223 1.074-.253 1.345-.073 2.016-.106 3.362-.168.323-.016.561-.026.692-.015.133.011.35.131.632.324.227.155.428.23.59.223.311-.013.559-.352.745-1.016l.546-1.903c.077-.26.114-.462.109-.602-.002-.058-.104-.259-.104-.259M193.53 15.143l-.318 15.753c-.019.844-.01 1.361.023 1.546.03.163.182.397.451.661.123.12.191.257.188.409-.007.328-.249.486-.727.476-1.338-.027-2.005-.039-3.344-.054-.465-.006-.698-.171-.695-.499.001-.141.168-.378.492-.714.121-.126.209-.368.226-.684l.013-1.195.184-15.756c.011-.843 0-1.362-.037-1.547-.032-.162-.198-.382-.467-.654-.124-.127-.183-.272-.181-.424.003-.316.243-.473.722-.467 1.413.016 2.12.027 3.533.056.516.011.768.182.761.51-.003.14-.188.394-.557.708-.122.103-.188.355-.223.698-.01.089-.03.486-.044 1.177m-3.04 19.731c.006-.007.773.221 1.439.232.892.016 1.339.024 2.231.044.605.014.915-.152.924-.504.004-.151-.139-.397-.412-.731-.117-.142-.174-.295-.188-.442-.007-.079-.011-.311-.002-.686.166-7.046.248-10.568.415-17.614.021-.28.186-.598.494-.954.128-.149.195-.289.198-.418l-.013-.194c.048-.026.921.826.917.955s-.124.307-.336.535c-.207.222-.33.413-.353.537-.019.111-.028.38-.039.79-.161 6.251-.244 9.378-.403 15.63-.021.773-.023 1.302.014 1.562.032.228.185.624.434 1.154.134.284.201.511.197.675-.012.433-.344.639-.997.622-1.04-.026-1.559-.037-2.599-.056-.475-.009-.852-.087-1.083-.246-.254-.175-.838-.891-.838-.891M210.067 23.854c-1.264-1.74-1.902-2.606-3.194-4.336-.221-.293-.403-.444-.551-.452-.235-.012-.37.27-.4.842-.233 4.568-.348 6.852-.582 11.421-.031.843-.046 1.367-.025 1.546.021.159.169.395.418.673.11.123.161.272.152.447-.015.304-.249.445-.701.422-1.33-.068-1.996-.098-3.326-.155-.465-.019-.69-.188-.679-.503.006-.152.18-.391.514-.717.125-.122.221-.361.245-.677l.052-1.192c.267-6.298.401-9.445.671-15.743.036-.842.039-1.362.007-1.548-.029-.164-.186-.388-.444-.668-.12-.131-.175-.282-.168-.446.013-.304.257-.449.736-.429.96.041 1.438.062 2.396.108.44.021.765.079.957.172.233.113.504.39.81.816 1.486 2.021 2.221 3.034 3.672 5.068.24.343.432.521.581.53.21.013.331-.209.359-.664l.16-2.454c.056-.842.069-1.361.042-1.547-.023-.164-.177-.392-.429-.678-.117-.133-.17-.285-.16-.449.021-.304.27-.443.747-.413 1.427.093 2.136.143 3.563.247.478.036.707.206.684.51-.012.164-.206.402-.564.716-.12.107-.188.353-.238.687-.017.1-.056.495-.105 1.172-.462 6.286-.692 9.428-1.153 15.714-.051.842-.077 1.366-.061 1.546.016.159.158.399.401.682.106.126.16.269.146.432-.022.315-.26.458-.713.425-1.35-.099-2.024-.146-3.376-.234-.453-.029-.67-.202-.649-.518.01-.152.18-.389.512-.705.127-.121.226-.356.258-.672l.079-1.191.303-4.698c.043-.666-.004-1.261-.163-1.735-.126-.368-.397-.824-.784-1.352m-2.009-1.616c-.233 4.132-.35 6.199-.585 10.331-.042.749-.061 1.273-.033 1.546.025.241.182.643.399 1.167.118.281.167.515.158.679-.026.432-.377.627-1.052.589-.996-.056-1.494-.082-2.49-.131-.462-.023-.829-.114-1.06-.28-.238-.173-.793-.914-.793-.914.007-.006.595.256.915.271l.485.004c.876.042 1.315.066 2.192.113.595.032.899-.121.919-.46.009-.152-.114-.414-.371-.761-.109-.146-.163-.3-.172-.448-.006-.08-.001-.304.018-.667l.632-11.614c.01-.187.06-.278.146-.273.049.003.16.121.332.353l.36.495m3.05 13.458c.007-.005.571.268.894.29l.499.017c.876.061 1.313.092 2.189.159.605.046.923-.107.949-.457.011-.14-.111-.389-.372-.75-.107-.15-.16-.306-.165-.453-.003-.08.004-.3.03-.65l1.341-17.534c.035-.29.241-.611.546-.96.126-.145.195-.303.206-.443l-.005-.194c.046-.022.875.885.866 1.001-.01.117-.139.289-.362.517-.206.211-.324.396-.36.519-.03.101-.069.4-.108.891l-1.221 15.534c-.059.735-.084 1.247-.063 1.51.021.242.164.646.372 1.175.112.284.153.518.141.682-.034.431-.37.621-1.01.571-1.015-.079-1.522-.118-2.54-.19-.473-.034-.836-.133-1.053-.302-.247-.192-.774-.933-.774-.933M237.744 17.474c-2.587 6.526-3.848 9.797-6.292 16.357l-.355 1.003c-.02.175.065.438.255.773.138.239.2.436.184.587-.036.302-.416.411-1.141.327-1.496-.174-2.241-.256-3.738-.415-.761-.081-1.125-.289-1.091-.627.017-.151.23-.4.64-.729.129-.105.202-.237.219-.4.016-.151-.043-.688-.175-1.609-.888-6.332-1.36-9.496-2.369-15.824l-.1-.733c-.063-.51-.138-.818-.216-.92l-.427-.534c-.146-.19-.212-.37-.196-.545.03-.326.368-.463 1.009-.403 1.304.123 1.952.187 3.255.319.715.074 1.059.269 1.025.584-.015.139-.136.327-.361.562-.271.279-.415.528-.438.749-.014.14.009.436.075.891.664 4.611.983 6.918 1.584 11.53.055.395.149.599.282.614.157.017.313-.183.471-.601 1.598-4.46 2.411-6.686 4.072-11.13l.226-.627c.021-.175-.075-.416-.275-.723-.184-.277-.261-.513-.237-.699.034-.291.375-.4 1.027-.322 1.346.163 2.018.246 3.362.419.639.082.933.316.882.699-.02.151-.266.41-.718.687-.131.079-.286.323-.439.74m-8.892-2.034c.03-.017.901.985.872 1.24l-.045.227c-.12.395-.221.629-.225.665-.008.069.014.337.064.802.362 2.492.538 3.738.883 6.23l-.441 1.118c-.034.079-.068.115-.104.111-.061-.007-.11-.16-.151-.459-.421-3.087-.641-4.631-1.089-7.717-.069-.537-.097-.869-.082-.997.013-.128.068-.27.158-.424.142-.242.214-.409.223-.491l-.063-.305m11.005 1.55l.151.179c.337.424.49.729.469.88-.017.128-.158.286-.425.475-.322.228-.544.442-.672.636-.078.119-.186.352-.32.701-2.434 6.149-3.622 9.23-5.932 15.41-.254.7-.392 1.14-.414 1.314-.027.221.009.497.097.825.102.374.137.661.113.847-.049.407-.457.562-1.223.47-1.24-.149-1.861-.221-3.102-.36-1.082-.062-2.07-1.269-2.07-1.269.02-.021.705.205 1.177.268l.319.037c1.242.137 1.864.207 3.106.354.663.079 1.012-.038 1.05-.351.007-.059-.054-.284-.188-.678-.072-.209-.096-.414-.072-.612.017-.14.116-.421.3-.847 2.43-6.566 3.681-9.841 6.247-16.373.133-.337.252-.571.358-.696l.779-.606c.116-.091.252-.604.252-.604M249.138 20.063c-.98 6.226-1.474 9.339-2.455 15.565-.131.833-.193 1.347-.185 1.536.007.165.127.416.358.715.105.135.155.28.133.43-.053.325-.313.448-.784.373-1.327-.209-1.991-.309-3.318-.506-.462-.069-.669-.266-.621-.591.021-.138.219-.353.585-.642.139-.108.256-.334.314-.645l.175-1.182c.928-6.235 1.393-9.351 2.322-15.585.124-.834.183-1.351.171-1.539-.011-.165-.146-.405-.373-.711-.107-.143-.146-.294-.123-.445.046-.313.305-.436.78-.365 1.401.208 2.101.316 3.502.537.51.08.741.284.688.608-.021.139-.243.365-.651.625-.136.086-.234.327-.316.662-.02.088-.093.477-.202 1.16m-5.697 19.136c.008-.006.741.324 1.401.426.884.138 1.326.206 2.209.348.603.097.929-.026.986-.373.023-.15-.082-.412-.311-.781-.097-.156-.133-.316-.126-.464.004-.079.029-.31.089-.68 1.12-6.958 1.684-10.438 2.805-17.396.056-.275.263-.569.62-.879.146-.13.231-.257.253-.385l.013-.194c.051-.02.801.944.78 1.071-.022.127-.164.29-.406.487-.235.192-.386.363-.424.482-.035.108-.077.373-.144.777-1.008 6.172-1.513 9.258-2.519 15.43-.124.763-.201 1.29-.2 1.552.001.231.103.644.278 1.203.093.299.127.532.1.694-.069.428-.428.586-1.074.48-1.028-.168-1.545-.249-2.574-.41-.471-.072-.834-.202-1.043-.392-.231-.208-.713-.996-.713-.996M269.804 21.548l-.399 1.909c-.141.665-.388.961-.743.886-.148-.03-.314-.156-.498-.373-.299-.349-.653-.581-1.051-.698-.253-.075-.493-.137-.716-.182-.689-.139-1.184-.105-1.478.099-.238.166-.427.615-.57 1.339-1.084 5.494-1.628 8.241-2.711 13.735-.152.842-.24 1.356-.244 1.527-.005.174.113.429.313.742.092.146.121.299.091.447-.061.311-.313.422-.759.334-1.349-.266-2.024-.395-3.373-.648-.448-.084-.642-.287-.58-.61.025-.138.222-.349.591-.622.142-.104.239-.333.321-.637.025-.099.114-.498.244-1.188 1.038-5.518 1.555-8.275 2.595-13.792l.134-.621c.08-.426.021-.742-.184-.946-.192-.191-.532-.332-1.014-.421-.643-.119-1.079-.165-1.297-.13-.22.037-.563.177-.973.415-.27.155-.47.237-.592.215-.333-.059-.441-.428-.321-1.109l.378-2.146c.115-.574.533-.781 1.247-.617 4.295.77 6.439 1.183 10.717 2.067.483.1.745.247.812.384.075.157.116.378.06.641m-9.757 2.42l-.17-.012c-.265-.013-.535.023-.802.102-.252.074-.447.097-.581.072-.271-.049-.88-.927-.88-.927l.231.077c.148.027.447-.114.892-.39.208-.129.487-.162.82-.101.382.071.565.237.58.465.007.083-.016.323-.09.714m10.772-1.542l.567.714c.202.259.27.491.213.694l-.082.304-.315 1.478c-.118.55-.261.872-.404.973-.151.106-.325.146-.52.105-.146-.032-.356-.171-.619-.419-.351-.33-.85-.589-1.492-.744-.4-.096-.701-.163-.897-.203-.294-.06-.51-.043-.643.049-.149.102-.286.466-.413 1.098-1.076 5.296-1.611 7.944-2.685 13.24-.165.815-.272 1.366-.272 1.611-.001.229.093.65.248 1.217.083.303.11.529.08.679-.09.437-.485.583-1.187.441-1.03-.208-1.55-.312-2.582-.513-.479-.094-.848-.239-1.063-.439-.225-.207-.693-1.025-.693-1.025.007-.007.752.357 1.421.486.915.177 1.371.268 2.285.45.61.122.949.012 1.02-.333.029-.149-.08-.417-.299-.795-.092-.157-.115-.325-.107-.469.002-.056.044-.314.134-.763l2.927-14.588c.144-.712.327-1.141.547-1.288.146-.1.313-.166.495-.186.193-.022.625.037 1.289.173.603.124 1.02.274 1.215.449l.523.612c.089.103.188.167.286.187.294.062.496-.165.604-.68l.294-1.374c.116-.549.157-.931.125-1.141M288.94 25.977c-.548.809-.821 1.214-1.365 2.024-.257.394-.538.551-.842.473-.196-.05-.382-.189-.555-.414-.216-.279-.406-.474-.565-.541-.089-.038-.256-.081-.475-.136-1.357-.34-2.034-.508-3.394-.837-.648-.156-1.083-.179-1.3-.078-.171.08-.335.233-.457.451-.073.134-.2.602-.386 1.388-.18.752-.147 1.237.097 1.452.191.166.79.368 1.796.613.534.13 1 .113 1.382-.059.305-.136.513-.199.621-.172.376.094.479.481.31 1.163l-.629 2.523c-.125.5-.357.707-.693.624-.121-.03-.307-.186-.552-.463-.199-.227-.43-.375-.655-.451-.183-.061-.737-.217-1.651-.437-.458-.11-.818-.032-1.066.232-.155.165-.287.479-.396.935-.568 2.399-.852 3.6-1.422 5.999-.133.51-.06.917.22 1.192.148.145.493.279 1.024.407 1.63.395 2.445.597 4.073 1.008.574.146.941.222 1.103.227s.505-.058 1.028-.189c.12-.028.251-.024.39.012.294.076.407.251.335.521-.022.091-.103.246-.234.466l-1.089 1.75c-.171.271-.347.446-.525.518-.149.059-.402.042-.751-.047-3.955-1.013-5.94-1.491-9.913-2.398-.457-.104-.649-.316-.577-.637.032-.137.243-.336.632-.596.146-.098.282-.313.364-.619l.269-1.164c1.404-6.152 2.105-9.227 3.51-15.379.187-.822.284-1.324.287-1.504.002-.179-.119-.427-.321-.738-.098-.147-.122-.309-.086-.469.066-.298.336-.394.805-.287 4.434 1.012 6.647 1.549 11.059 2.684.356.092.579.174.662.245.096.081.123.207.082.366-.035.124-.085.238-.15.342m-3.338 18.428c.034-.01.517.949.447 1.21-.032.124-.107.272-.229.446l-1.115 1.614c-.313.438-.568.697-.769.776-.2.081-.547.06-1.032-.066-3.308-.856-4.965-1.267-8.287-2.049-.592-.14-.991-.312-1.187-.514-.326-.337-.721-1.104-.721-1.104.006-.004.351.273.495.33.178.067.61.178 1.285.337 3.309.776 4.959 1.183 8.254 2.032.36.093.651.091.87.007.189-.072.39-.25.589-.537l1.11-1.597c.096-.133.177-.317.24-.555l.05-.33m-.748-12.495l.177.282c.225.406.426.719.446.893.019.175-.015.426-.099.755l-.521 2.042c-.146.568-.327.931-.54 1.076-.195.132-.394.173-.583.125-.751-.553-1.127-.83-1.882-1.379l-.916-.225c-.435-.094-.697-.072-.79.042-.065.079-.144.279-.22.598l-1.264 5.188-.286-.051c-.212-.053-.349-.139-.406-.262-.059-.121-.046-.358.04-.712.489-2.036.735-3.054 1.227-5.09.113-.418.288-.659.5-.73.218-.072.525-.071.909.023l1.079.265c.274.068.475.13.601.185.126.056.296.225.489.502.168.243.344.394.536.442.346.088.599-.187.761-.823l.548-2.162c.119-.464.194-.984.194-.984m4.903-5.374c.029-.019.688.75.596 1.1-.031.113-.104.257-.216.434-.556.915-.829 1.372-1.381 2.288-.252.418-.621.564-1.106.438-.218-.056-.44-.224-.67-.481-.285-.317-.571-.522-.831-.612-.12-.043-.333-.102-.637-.179-1.065-.27-1.597-.404-2.662-.666-.378-.093-.627-.135-.743-.128-.261.018-.472.824-.613.919-.034.023-.219-.036-.293-.053-.377-.092-.501-.399-.375-.923.116-.478.285-.763.496-.857.188-.083.558-.063 1.107.071 1.316.322 1.975.486 3.291.819.315.08.548.14.673.189.124.049.298.227.513.494.174.215.348.343.506.384.303.078.64-.173 1.012-.754l1.08-1.66c.151-.227.244-.41.279-.546.014-.058-.026-.277-.026-.277M295.472 49.74c-1.796-.527-2.697-.784-4.499-1.289-.452-.127-.634-.349-.546-.665.038-.135.261-.322.664-.563.149-.09.296-.3.393-.602l.323-1.149c1.702-6.069 2.553-9.104 4.254-15.172.229-.812.354-1.317.364-1.505.009-.165-.094-.42-.285-.753-.088-.155-.108-.31-.067-.457.085-.305.357-.393.823-.263 1.903.533 2.855.807 4.752 1.364 1.393.408 2.377.762 2.948 1.059 1.843.958 3.068 2.685 3.621 5.103.49 2.148.34 4.417-.414 6.781-.844 2.645-2.102 4.801-3.742 6.482-1.812 1.858-3.783 2.627-5.92 2.294-.599-.092-1.489-.319-2.669-.665m13.177-17.092c.026-.015 2.391 5.833 1.163 9.608-1.006 3.097-2.552 5.634-4.599 7.601-2.082 2-4.249 2.882-6.477 2.69-.877-.075-1.787-.245-2.719-.521-1.166-.346-1.749-.517-2.917-.854-.454-.154-.717-.249-.795-.283-.209-.095-.387-.28-.535-.554l-.488-.85c.374.263.77.454 1.186.572 1.406.401 2.108.606 3.511 1.021 2.179.645 3.941.733 5.298.265 1.873-.646 3.611-2.07 5.195-4.275 1.084-1.509 1.926-3.159 2.505-4.953.874-2.708 1.012-5.238.366-7.555-.135-.484-.694-1.912-.694-1.912m-9.64.539c-1.373 4.738-2.061 7.106-3.433 11.845-.142.483-.185.843-.125 1.078.099.394.566.714 1.394.958 1.7.501 3.089.268 4.178-.71 1.301-1.168 2.347-3.003 3.12-5.51.799-2.585.855-4.762.159-6.528-.498-1.263-1.481-2.12-2.946-2.552-.812-.24-1.394-.208-1.74.077-.152.125-.358.572-.607 1.342m4.607 1.382c-.043.03-1.032-.586-1.405-.697-.472-.141-.826-.122-1.042.056-.106.088-.204.3-.302.625l-3.496 11.827-.228-.066c-.256-.076-.403-.161-.443-.241-.059-.114-.06-.315.022-.596 1.367-4.659 2.051-6.989 3.417-11.648.25-.854.882-1.134 1.897-.832.882.261 1.58 1.572 1.58 1.572"/></svg>