<!DOCTYPE svg PUBLIC "-//W3C//DTD SVG 1.1//EN" "http://www.w3.org/Graphics/SVG/1.1/DTD/svg11.dtd" [
	<!ENTITY ns_flows "http://ns.adobe.com/Flows/1.0/">
]><svg xmlns="http://www.w3.org/2000/svg" xmlns:xlink="http://www.w3.org/1999/xlink" width="598" height="598" viewBox="0 0 598 598"><defs><path id="a" d="M0 0h598.206v598.205h-598.206z"/></defs><clipPath id="b"><use xlink:href="#a" overflow="visible"/></clipPath><path clip-path="url(#b)" d="M299.103 0c-165.19 0-299.103 133.913-299.103 299.104 0 165.189 133.913 299.103 299.103 299.103s299.104-133.913 299.104-299.103c0-165.191-133.914-299.104-299.104-299.104m139.616 317.602l-.063.16c-.103.275-.213.541-.33.809-27.103 68.416-78.11 115.959-124.943 159.48-4.753 4.172-9.079 6.463-13.212 6.969v.107l-.365.006c-.233 0-.47-.006-.703-.029-.235.023-.465.029-.698.029l-.363-.006v-.107c-4.134-.506-8.464-2.797-13.221-6.969-46.832-43.521-97.843-91.064-124.95-159.48l-.323-.809-.063-.16h.005c-6.615-16.914-10.248-35.32-10.248-54.58 0-82.428 66.51-149.313 148.8-149.934v-.006l.971-.007h.183l.976.007v.006c82.278.621 148.793 67.506 148.793 149.934 0 19.26-3.633 37.666-10.25 54.58h.004zM295.918 169.577c-52.373 0-94.986 42.609-94.986 94.986 0 52.379 42.613 94.983 94.986 94.983 52.374 0 94.983-42.604 94.983-94.983.001-52.377-42.609-94.986-94.983-94.986"/></svg>