<!DOCTYPE svg PUBLIC "-//W3C//DTD SVG 1.1//EN" "http://www.w3.org/Graphics/SVG/1.1/DTD/svg11.dtd" [
	<!ENTITY ns_flows "http://ns.adobe.com/Flows/1.0/">
]><svg xmlns="http://www.w3.org/2000/svg" xmlns:xlink="http://www.w3.org/1999/xlink" width="197" height="91" viewBox="0.022 0.25 197 91" enable-background="new 0.022 0.25 197 91"><g><g fill="#D7DFD1"><path d="M196.168 45.527c.01.11.021.23.01.35l-.02-.31v-.04h.01zM57.348 80.887c-8.42 1.479-16.95 3.39-25.03 2.38-1.26-.16-2.46-.479-3.56-.94-.3-.13-.6-.27-.89-.42-.25-.13-.49-.279-.72-.42-.47-.3-.91-.63-1.3-1-.26-.229-.49-.47-.71-.739-.66-.78-1.17-1.681-1.48-2.73-.37-1.18-.57-2.45-.63-3.76-.03-.72-.02-1.45.03-2.19.02-.51.27-1.029.35-1.55l.43-.79v-.151l-.23-.01-.2-.01h-.1l-.05-.02-.02-.03-.03-.01.25-.011.38-.01v-.031c0-.1-.49-.22-.57-.37-.13-.25-.59-.47-.9-.939l-.3.11h-.02l-.37-.271c-.26-.06-.51-.2-.77-.28-.23-.06-.46-.18-.68-.279l-1.58-.61c-2.56-.5-5.62-2.3-8.21-3.92l-.15-.021-.03-.02.16.01-.13-.069-.03-.101.01-.06c-.13-.101-.27-.2-.4-.28-.17-.1-.34-.23-.48-.38-.28-.22-.53-.43-.75-.65-.57-.54-1.04-1.109-1.67-1.95l-.36-.489-.62-.84c-.08.039-.34-.351-.52-.53-.08-.08-.14-.13-.17-.08v.12c-.82-.86-.83-1.94-1.59-3.37l.01-.01-.1-.04-.01-.011-.04-.06-.04-.14c-.9-1.931-.72-1.78-.63-1.74.16.02.12-.08-.17-2.69-.53-3.62.17-7.459 2-10.74 1.78-3.25 4.51-5.94 7.57-7.87-.32.18-.49.1.06-.28.79-.04 2.06-1.4 3.32-1.82-.02.05-.11.12-.23.19l-.27.18-.35.23c1.5-.7 2.89-1.32 4.3-1.84.7-.26 1.41-.5 2.15-.71l.96-.14.6.04v-.15l-.26-.03-.18-.02.2-.04.24-.01v-.03c0-.23.17-.62.6-1.28l-.13-.13-.16-1.16-.04-.05c-.57-2.98.11-6.31.7-7.99-.03.45.57-1.09 1-1.46.33-.94 1.31-1.9 2.55-2.55 1.25-.65 2.71-1.04 3.96-1.47l-.07.09c7.88-1.51 17.13.53 25.77 1.8 4.89.84 10.33 2.34 15.85 2.87 1.01.06.24-.14 1.05-.08 1.38.18-.04.14.5.26 2.73.13 6.31.69 9.83.52.4-.08 1.37-.18 1.05-.27 1.94.02 4.29-.35 6.55-1.25s4.35-2.46 5.68-4.2c-.62.48-.24-.05.27-.9.271-.45.55-1 .78-1.53.68 1.44 1.13 1.82 2.39 3.39.66 1.27 3.48 2.8 5.37 3.4-.39-.38 2.04.23 3.94.54l-.65.26c6.2.8 14.88-.04 21.69-1.66l.55.1c7.06-1.46 13.97-2.68 20.72-3.89 1.86-.12 4.79-.31 6.601-.33 2.46-.21 3.329-.11 5.02-.22.92.09 1.44.37 1.76.5 3.03.64 5.38 2.24 6.971 3.9l-.091.18c1.631 1.63 2.521 5.21 2.181 7.95.09.5.02 1.83.04 2.38v.08h-.061l-.09.49-.03.15v-.08s0-.56-.01-.56h-.031l-.01.49v.46l.05-.31.03.25.021.21.01.09.31.09.12.08.021.07.56.36c.37.1.73.31 1.09.42.71.22 1.41.5 2.09.77.69.26 1.36.55 2.011.85.659.3 1.3.62 1.93.95 2.51 1.32 4.87 2.94 6.99 5.07 1.01 1.41 3.76 4.42 4.6 7.75.19.34 1.01 3.71.98 4.21.06.4.13.65.22.79-.28.58-.67 1.57-.83 2.16-.46 1.609-1.41 3.569-1.43 3.569-.36 1.021-.73 1.931-1.13 2.73-.12.27-.24.53-.37.78-.271.5-.511.95-.78 1.38-.271.42-.21.82-.49 1.18-.14.19 0 .36 0 .521v.01c0 .04-.3.09-.34.12-.11.14-.53.529-.64.649l-.21.301h-.14100000000000001c-.069 0-.14-.091-.21-.021l-.05-.05-.11.07c-.199.21-.399.369-.6.54l-.34.3-.29.279-.43.37-.41.37c-.28.24-.57.46-.88.69-2.091 1.59-4.641 3.17-9.66 4.6-.48.15-.49.29-1.011.44-.14.21-.409.96-.56 1.41l-.12.35v.04l-.46.04-.22.1-.09.2-.011.41.07.81c.13 1.101.17 2.23.14 3.33-.079 2.19-.649 4.24-1.579 5.57-.23.37-.48.7-.771 1.02-.12.141-.25.271-.38.4l-.43.37c-.37.31-.78.6-1.21.84-.301.17-.601.32-.91.47-.311.141-.63.28-.96.38-1.471.54-3.11.841-4.75.95-3.86.28-7.851-.109-11.83-.67-7.891-1.149-15.8-2.99-24-4.13l.04.08c.1.08-.26.12-.73.1l-.54-.359-.2-.3h-1.319c-1.09 0-.8-.08-.01-.03-.78-.08-1.54-.03-2.32-.12l-.05.08c-5.601-.62-10.98-.93-16.79.95-.38.3-3.37 1.67-3.37 2.14-.13.09-.15.09-.13.04l.13-.17c-.29.229-.561.47-.79.7l-.24.229-.28.29-.35.38c-.29.351-.54.681-.75 1-.21.301-.39.59-.56.88l-.24.421-.061.119c-.68-1.399-1.61-2.699-2.82-3.72-3.92-3.33-8.83-3.79-13.15-3.899-8.83.023-17.17 1.912-25.57 3.353z"/></g></g><defs><path id="a" d="M.022.25h197.184v90.806h-197.184z"/></defs><clipPath id="b"><use xlink:href="#a" overflow="visible"/></clipPath><path clip-path="url(#b)" fill="#4C4C4C" d="M32.105 84.866l-.045.01-.082-.01h.127zM41.773 84.52h-.028l-.21-.056-.156-.073h.055c.073 0 .138.018.211.055l.128.074M42.065 84.62l.037.027-.074-.019-.237-.11c.083.01.184.056.274.102"/><path clip-path="url(#b)" fill="#4C4C4C" d="M37.73 85.205l-.201.083-.101.018h-.01c-.301 0-.612-.018-.933.009l.111-.026c.11-.037.228-.074.347-.074l.741-.009h.046zM42.751 85.09l-.045-.089c-1.728.174-3.393.226-4.976.253.101-.046.201-.125.302-.144.64.045 2.461-.331 3.613-.46.064-.009.516-.062.581-.099l.388-.014v-.01c0-.056-.64-.279-.585-.279h.09099999999999998l.037-.041.183.041h.009l.055-.023-.046.023h-.018l-.009-.019.063.019h.01l.027.088.229.525c.018 0 .046-.613.064.387h.009l.018-.158"/><path clip-path="url(#b)" fill="#4C4C4C" d="M52.272 83.531l.192-.027-.22.037-.027.009-.064.009v.008l-.146.021-.01.008-.091.019-.137.019v-.009l.109-.019h.01l.174-.038.036-.008.055-.009.091-.019h.028zM52.583 83.485l-.063.009.036-.009h.027zM52.675 83.477l.045-.009-.027.009h-.018M52.839 83.449l-.028.009-.073.011.101-.02M71.817 80.12l-.101.046c-.494.063-.988.137-1.481.22.165-.092.512-.183 1.582-.266M81.1 79.315l-.558.009.475-.064.083.055M88.947 79.992l-.174-.046.146.027.028.019M99.136 5.033l-.056.173-.082.257-.146.439.137-.476v-.018l.055-.165.072-.256.02.046M126.217 80.321c-.183-.037-.356-.064-.539-.083.164-.009.284-.027.356-.054.129.054.174.091.183.137M174.351 78.821c-4.078 8.661-17.97 6.868-32.777 4.189 1.527.236 3.007.447 4.417.594.284.101-.082.083-.282.109 3.748.348 7.599 1.437 10.397 1.089l1.006-.175c.87.147.796.284 1.473.395.74-.092 3.421-.036 3.842-.293.402.054-.156.128-.146.192 1.737-.046 3.64-.669 5.175-1.062l-.465.229c2.049-.448 4.244-1.345 5.845-3.091.61-.64 1.113-1.371 1.515-2.176M182.573 65.569c-1.171.612-2.396 1.151-3.676 1.628l.329-.146c.769-.33 1.48-.696 2.141-1.052.969-.531 1.115-.476 1.206-.43M191.719 58.17c-1.617 2.085-3.649 3.96-6.018 5.551 2.188-1.545 4.308-3.383 6.018-5.551M174.534 24.284v-.008l.02.008-.011.019-.009-.019"/><path clip-path="url(#b)" fill="#4C4C4C" d="M175.074 24.943h-.047l-.045-.018-.065-.065-.063-.082-.072-.146.201.266.082.036.009.009z"/><path clip-path="url(#b)" fill="#fff" d="M2.089 52.637c-.075-.202-.143-.406-.204-.611l.204.611"/><path clip-path="url(#b)" fill="#4C4C4C" d="M196.75 43.856c-.072-.201-.723-3.567-.649-1.975-.576-2.68-1.957-5.506-3.768-7.729.529.622.777.677.393-.018-.979-.978-2.624-2.671-4.499-4.253-.092.192.503.705.174.695-.283-.21-.806-.493-1.263-.869-.155-.365.164-.63-1.665-1.847.155 0 .366.091.612.238-1.324-.842-1.608-1.353-2.048-1.637l1.097.54c-1.354-.915-1.966-.997-3.512-1.748-.255-.584 2.506 1.144 3.146 1.299-.311-.293-.631-.576-.96-.859-2.396-1.235-.786-.073-3.265-1.281l.366-.009c-.541-.191-1.09-.375-1.638-.54-.084.138.2.439 1.563.979-1.034 0-1.252-.494-3.484-1.134-.768-.01.95.275.915.504.1.172-.549 0-1.316-.211l-.011-.11c-.018-.339-.073-.576-.036-1.089-.101.585-.192-.21-.319.183-.366-3.154.658-1.956.383-5.094-.138.659-1.316-3.978-1.206-1.683-.248-.704-.587-1.536-.86-2.24.567.649-.366-1.345.438-.101-.119-.357-.328-.686-.502-1.024.383.448.713.941 1.007 1.454-.203-1.299-1.317-3.311-1.794-3.887-1.316-1.198.256.503-1.289-.814.622.375-.238-.577-1.016-1.043 1.409 1.135-.155.229-1.144-.183-1.518-.786-2.743-1.335-2.488-1.344.402.082.814.146 1.227.256-.678-.21-.256-.229-1.336-.539-.383.036-1.198.054-1.628.145-1.032-.145-1.728-.429-2.094-.439.55.01 1.106.046 1.656.111-2.16-.302-.404-.503-2.645-.659l-.592.146c-.329-.045-.53-.119-.411-.173-.495.064-1.482.009-1.949.054l-.147-.128c-.914.074-2.039.402-3.154.202.877.264 1.105-.055 2.67.063.96.22-1.536.229-1.884.293.082-.356-2.314.101-3.393.211-.633-.064-1.181-.055-1.574-.092l-.393.266c-.457-.385-2.123.365-3.348.411.595-.22.484-.385-.365-.32 1.18.146-1.803.676-1.428.842-2.167.237.431-.486-.238-.604-1.023.411-2.424.228-3.063.667 1.554-.165-.211.247-.512.439-1.949.321.301-.192-1.099-.064-.806.183-1.811.632-.539.494-1.153.138-2.36.668-3.667.705-.549-.101 2.35-.522 1.591-.531-2.689.476-1.253.741-3.73 1.271 1.086-.091.127.448-1.054.787-2.779.42 1.181-.339.073-.394l-1.087.238c-1.601-.073 3.146-1.171 1.637-1.189l-1.17.338c.245-.145.594-.402.09-.402-.265.302-2.779.557-2.981.659-.21.246.952-.238.786-.037-1.253.275-1.755.722-3.73.915 1.043-.32-.457-.21-.037-.403-.96.064-.256.293-1.637.393l.137-.146c-5.085.777-11.377 1.455-15.704 1.501-.749-.303-2.396-.412-4.608-1.309.97.394-.027.22-.604.046-.32-.228-.64-.439-.94-.677-1.163-.695-2.626-1.582-3.476-2.506-.092-.21-.083-.301-.066-.393-.492-1.061-.767-.951-1.006-1.363l-.154-.795-.21-.11c-.521-1.126-.704-2.818-.403-2.68-.101-.485-.209-.96-.218-.329.009-.156 0-.348-.011-.567l-.017-.256-.047-.201c-.064-.11.119.009-.313-.559-.503-.411-.914-.466-1.426-.21-.265.137-.458.384-.55.576l-.044.147c-.101.384-.074.421-.092.466l-.035.192c-.083.531-.138 1.144-.293 1.766-.265 1.243-.705 2.551-1.244 3.466.567-.842.577-.751.768-.751.147.422-.274.412-.576 1.272-.11-.036-.777.695-.22-.201-.932 1.107-2.195 2.24-3.832 3.091-1.627.841-3.612 1.354-5.533 1.555-.777.155-.54.155-.915.265-2.469-.054-5.533.156-8.24-.22.604.166-.284.449-1.802.294-1.683.045-.631-.403-2.094-.733-.75.019-2.149-.145-2.734-.255l.054-.037c-.923-.009-2.368-.165-3.42-.457l.173.009c-.878-.165-1.874-.494-2.798-.64-.457.146-2.68-.393-3.266-.302-.1-.046.074-.028-.164-.128l-.109.173-1.821-.439c.412 0 .53-.064 1.043-.027-1.93-.484-.686.055-1.738-.037-1.39-.109-1.28-.283-1.929-.484.585.009.996.228 1.344.256.814 0-.815-.211-.823-.32-.293-.064-.457.146-1.454-.082-.869-.184-2.927-.486-2.643-.641-.76-.018-1.638-.192-2.214-.192.705.147 1.994.43 2.122.586-.649-.092-1.93-.248-2.122-.366l.531.036c-.485-.036-2.095-.338-1.637-.128l-1.125-.402c-.531.082-1.885-.128-3-.229-.028-.22.914-.338-1.18-.64-.613 0-1.217.009-1.82.018-.961-.055-1.198-.128-1.043-.237-3.274-.339-3.384.374-5.944.228 1.088-.283.173-.283-1.006-.292-.046.046-.147.137-.632.183.339.091.677-.248 1.582-.101.284.137-1.052.137-1.591.246-2.268-.439-8.039.952-10.81 4.244l-1.253 2.323c-.229-.365-.824 2.095-1.125 3.101l.411-.504c-.686 2.306.056 3.787-.283 5.195 0 1.29-.293-.42-.311-.978-.165.906-.028 2.113.192 3.238l.036.201c-.402.1-.777.183-1.088.192-.109.173.448.183-.969.787-1.18.238-3.366 1.033-3.366.968-.896.485-1.097.696-2.14 1.135.055-.128.476-.366.786-.567-1.637.759-2.798 1.646-3.997 2.652-.941.339-3.319 2.47-4.736 3.979-.568 1.033-2.123 2.597-1.903 2.972-.046 0-.192.156-.274.238-.302.723-.403 1.381-.796 2.268l-.091-.402c-.211-.33-1.052 2.185-1.29 2.725.338-.521-.366 1.171-.183 1.28-.074.385-.119.769-.155 1.162-.193 1.838.018.229-.12 2.488-.018 1.281-.292.429-.247-.019-.183 1.052-.063 2.149.138 3.229-.036-.319-.036-.42.064-.082-.028.027-.028.174-.018.329.063.394.173.796.228 1.189.147.549.302 1.117.475 1.619-.191-.476-.374-.987-.466-1.316.082.375.156.741.193.979l-.275-.257c.164.815 1.18 2.809 1.244 2.698.942 2.963 4.271 6.75 6.009 8.049-.174-.101-.156-.063.11.11.822.686 1.874 1.27 1.883 1.426.878.54.686.687 2.013 1.554.009.047.201-.008.063-.145 2.122 1.637 5.36 2.652 8.305 3.685-.247-.055-.622-.055-.878-.072.558.146 1.116.302 1.664.421l-.027.438c-.082 1.161-.082 2.306.055 3.411-.092-.236-.174-.164-.219-.759-.083 1.72.274 3.741.621 4.481-.119-1.171-.119-.064-.247-.851-.027-1.233.458.915.778 1.976l-.028.046c.65 1.583.741 1.646 1.72 3.018.539.878-.577-.676-.421-.292-.027.265.54 1.116 1.289 1.792.714.705 1.592 1.189 1.739 1.299.393.138.942.376.914.274 1.262.449.485.22 1.372.531.311.063.622.073.932.073l-.082-.037c-.502-.027-.996-.365-1.454-.623l-.054-.025-.157-.074c-.21-.082-.429-.183-.63-.284-.174-.072-.348-.164-.522-.265-.337-.173-.667-.374-.978-.604-.394-.283-.759-.586-1.089-.924-.905-.896-1.609-2.003-2.112-3.329l-.009-.009-.174-.484c-.11-.312-.201-.632-.284-.971-.082-.347.399-.693.344-1.06-.027-.184.472-.375.472-.559v-.027l-.618-.559c-.027-.364-.332-.739-.341-1.134l-.103.485c.028.393.467.768.522 1.134.018-.146.54-.302.54-.458v-.027l-.481-.22.135-.429.346-.677v.329c0 .266-.522.521-.549.776l-.115.806c.055.402.025.786.107 1.152s.132.723.232 1.062c1.408 4.417 4.921 6.493 9.815 7.271-.257 0-.552.127-.836.183l-.153.212-.107.198h-.073l-.137-.206c-.101-.009-.202-.147-.302-.229l.119.099c.21.074.794.114.995.179.202.073 1.004.114 1.004.179v-.176l-.209.077-.354.077h.563v-.155l-.481.154h.128l.091-.063.147-.001c-.11-.091-.531-.055-.439-.101l-.082.164h.127l-.045-.182c1.345.211 2.789.188 4.308.205-.266.036-.53-.023-.824-.023h.833l.219.01c.11-.036.229-.059.348-.059l-.567-.003 1.042-.142-.475.157.741-.01c.118-.073.228-.164.347-.181.622.054 2.351-.419 3.503-.565l-.155-.208h.054c.074 0 .138.008.211.045l.384-.045h.091l.037.08.183.027-.009-.072.063-.035h.01l.027.088.229.525c.018 0 .046-.613.064.387h.01l.054-.187.668-.354.302-.322.064-.138h.027l.128.08c.32.019.64.136.96.1.439-.056.887-.01 1.336-.073.412-.046.832-.056 1.261-.111l1.281-.169 1.116-.152.192-.026.165-.028.155-.026c.064-.019.614-.046.676-.055l.495-.009v-.005c0-.036-.466-.205-.458-.214l-.136-.307h.219l.312.187.218-.083.11-.104h.009l.174.14-.233.081-.215.08v-.02c0-.008.585-.281.631-.281h.41100000000000003l.019.004.045-.004h.018l.102.09-.028-.041-.074-.049h.129l.119.086.046-.048.055-.038h-.055c.667 0 1.335-.152 2.012-.271l.137.015 1.134-.179.741-.126 2.451-.443 2.167-.399c2.881-.53 5.762-1.042 8.561-1.463.165-.092.512-.182 1.582-.265l-.101.047c3.082-.438 6.055-.75 8.827-.841l.474-.065.083.057c2.653-.065 5.113.091 7.299.557l.2.037.175.037.146.027.027.019c.211.155.824.311 1.683.74 2.04.686 3.961 1.903 5.25 3.649.758.987 1.299 2.121 1.665 3.319-.175.513-.348 1.088-.513 1.774l-.082.658c.173.185.319.402.411.695.083.247.55.257 1.033.193l.129-.019c.431-.056.833-.165.979-.211l.549-.128c-.082-.97-.211-1.938-.449-2.909l-.153-.53c.647-2.021 1.911-3.84 3.611-5.112.686-.283.292.056-.146.394l-.258.266c.432-.411 1.5-1.125 3.148-1.848l.119-.009c1.033-.421 1.683-.439 2.835-.76l-.056-.064c1.235-.456 2.863-.054 3.504-.456.339.036.667.101.996.146 1.254-.356 2.012.055 3.576-.155l-.183.055c2.094.202 4.417-.026 5.194.302 1.473.129 3.138.302 3.888.256.164-.009.284-.027.356-.054.129.054.174.091.183.137 4.984.731 10.225 1.765 15.356 2.689 1.527.236 3.008.447 4.416.594.285.101-.081.083-.281.109 3.749.348 7.599 1.437 10.397 1.089l1.006-.175c.87.147.796.284 1.473.395.74-.092 3.421-.036 3.842-.293.402.054-.156.128-.146.192 1.737-.046 3.64-.669 5.176-1.062l-.467.229c2.05-.448 4.245-1.345 5.846-3.091.612-.641 1.115-1.372 1.517-2.177l.166-.366c1.062-2.479 1.354-5.78.686-10.105 1.244-.32 2.46-.695 3.621-1.125l.074-.027.329-.146c.769-.376 1.48-.355 2.141-.712.969-.53 1.115-.09 1.206-.09h.009c1.089 0 2.132-1.52 3.119-2.188 2.188-1.545 4.308-3.549 6.018-5.717l.093-.195.201-.314.37-.802c.539-.805 1.23-1.652 1.23-2.493v-.011c0-.155.361-.302.416-.458l.212-.247c.852-1.994 1.359-4.051 1.313-5.944.01-1.043-.028-1.473-.128-1.518-.147.018-.373.758-.619 1.646-.458 1.609-1.408 3.566-1.425 3.566-.356 1.025-.73 1.93-1.126 2.735l-.372.777c-.275.493-.513.951-.787 1.381-.265.421-.206.813-.489 1.18-.138.183.005.356.005.521v.009l-.342.119c-.111.138-.528.525-.64.645l-.208.307h-.138c-.073 0-.145-.092-.209-.027l-.056-.051-.108.071c-.202.21-.403.373-.604.547l-.339.298-.292.276-.421.371-.412.374c-.283.237-.576.456-.878.685-2.095 1.59-4.646 3.172-9.666 4.599-.478.156-.487.294-1.008.439-.202.312-.68 1.756-.68 1.766v.035l-.464.047-.215.101-.097.201-.01.402.079.814c.128 1.097.168 2.23.14 3.329-.082 2.185-.655 4.243-1.588 5.569-.229.365-.481.704-.765 1.023-.12.138-.249.267-.386.395-.129.128-.276.256-.425.375-.373.31-.784.595-1.215.841-.293.165-.594.32-.904.467-.311.137-.632.274-.961.384-1.473.54-3.11.831-4.747.942-3.86.284-7.856-.111-11.836-.667-7.892-1.154-15.794-2.992-23.998-4.135l.037.082c.101.083-.257.128-.723.101l-.54-.354-.201-.3h-1.326c-1.17 0-.75-.093.184-.02-.842-.102-1.675-.038-2.507-.13l-.055.073c-5.598-.622-10.975-.93-16.792.954-.373.303-3.365 1.666-3.365 2.144-.128.082-.156.084-.128.037-.036 0 .046-.086.128-.177-.293.237-.559.478-.796.706l-.237.23-.283.293-.348.376c-.293.347-.54.675-.751.997-.21.301-.385.593-.558.878l-.238.42-.063.128c-.676-1.4-1.609-2.707-2.817-3.723-3.923-3.329-8.826-3.795-13.151-3.896-8.826.02-17.167 1.903-25.572 3.349-8.414 1.473-16.947 3.384-25.032 2.378-1.253-.165-2.452-.477-3.558-.942-.302-.128-.594-.266-.888-.421-.246-.128-.493-.274-.722-.42-.466-.294-.905-.623-1.299-.997-.256-.229-.493-.476-.704-.742-.668-.775-1.171-1.683-1.482-2.733-.576-1.829-.74-3.879-.603-5.944.018-.513.272-1.035.346-1.556l.436-.786v-.148l-.236-.008-.2-.01-.095-.009-.048-.019-.019-.028-.033-.009.246-.009.385-.009v-.037c0-.092-.492-.211-.574-.367-.128-.246-.584-.466-.895-.934l-.301.108h-.018l-.375-.272c-.256-.064-.513-.196-.769-.279-.228-.063-.457-.185-.676-.285-.53-.192-1.061-.408-1.583-.609-2.56-.494-5.624-2.294-8.212-3.922l-.147-.012-.028-.021.156.008-.128-.074-.028-.1.01-.057-.402-.282c-.175-.102-.339-.229-.485-.375-.275-.22-.522-.43-.75-.649-.567-.54-1.033-1.116-1.665-1.957l-.357-.486c-.191-.246-.393-.529-.621-.841-.083.037-.348-.348-.522-.53-.082-.082-.146-.128-.173-.082v.119c-.814-.86-.824-1.938-1.591-3.366l.008-.009-.1-.046-.009-.009-.037-.055-.037-.138c-.905-1.93-.722-1.783-.63-1.747.155.027.119-.082-.174-2.688-.53-3.62.175-7.452 2.004-10.735 1.783-3.256 4.508-5.945 7.564-7.874-.312.182-.486.1.063-.275.796-.046 2.058-1.4 3.32-1.82-.018.045-.109.119-.229.192l-.265.173-.356.229c1.499-.694 2.889-1.317 4.298-1.838.705-.256 1.418-.503 2.149-.704l.962-.147.604.046v-.156l-.265-.027-.18-.018.206-.046.239-.009v-.027c0-.229.165-.622.603-1.281l-.138-.128-.155-1.161-.041-.046c-.568-2.982.112-6.311.697-7.993-.028.448.568-1.089 1.007-1.464.329-.942 1.303-1.902 2.547-2.543 1.244-.658 2.705-1.042 3.958-1.472l-.073.091c7.883-1.517 17.129.531 25.772 1.793 4.893.842 10.334 2.341 15.85 2.872 1.014.064.237-.137 1.051-.083 1.38.183-.037.147.503.266 2.726.128 6.311.686 9.823.522.402-.083 1.38-.184 1.052-.275 1.939.018 4.289-.348 6.548-1.244 2.268-.906 4.353-2.46 5.688-4.207-.621.484-.246-.046.266-.896.274-.448.549-.997.777-1.528.687 1.436 1.135 1.819 2.396 3.384.659 1.271 3.477 2.799 5.37 3.402-.395-.375 2.039.229 3.94.54l-.65.265c6.202.796 14.882-.046 21.687-1.664l.55.101c7.06-1.464 13.973-2.681 20.722-3.888 1.857-.119 4.794-.31 6.596-.329 2.461-.21 3.33-.119 5.021-.22.925.083 1.446.367 1.767.495 3.026.639 5.377 2.24 6.968 3.905l-.092.173c1.629 1.629 2.516 5.214 2.178 7.957.092.494.019 1.821.046 2.378l.009.156.009.055.019.036.027-.018.036-.064.335-.074.333-.082v-.018l-.287-.055-.163.064-.067-.018c-.018.22-.084.031-.12.141-.02.119-.084-.042-.121-.042h-.072l-.093.49-.076.454v.019l.003.017-.008-.49.018-.49h-.019.027.019c.01 0 .01.553.01.553l.026.333.027.207.01.094.307.09.58.399v.009l-.539-.685h-.038l.137.429.56.356c.365.101.731.316 1.087.426.714.219 1.417.5 2.095.765.686.257 1.354.552 2.012.854.658.294 1.3.615 1.931.944 2.505 1.326 4.865 2.941 6.987 5.072 1.006 1.409 3.759 4.42 4.601 7.749.191.338 1.005 3.715.978 4.209.139.915.34 1.025.53.934-.008-.65-.053-1.299-.136-1.938.083.639.136 1.289.146 1.938.145-.064.292-.246.41-.256-.055-1.409.365.211.065-1.591.133.201.225-.091.307-.284m-195.411 8.992l-.064-.267.101.247.018.046.028.092.018.046.027.092-.128-.256m20.351 15.337c.265.055.924.109.924.155v.502-.272c0 1.152-.736 2.23-.783 3.228.028-1.015-.089-2.075.085-3.237-.494-.128-1.093-.266-1.578-.411.495.137.936.273 1.44.393l.019-.137.005-.055c-.805-.129-1.077-.266-1.497-.412l.664.183.48.055.241.008m-18.833-13.774l.092.183.054.118.028.056.413.356c.293.549.17 1.088 1.17 1.602v.008l-.138.12.165.384.128.255-.018.01.068.092.085.092c.119.119.251.228.334.338l.017.027.1.092.1.1c.119.156.027.32.2.485l.102.073.091.046.046.018.223.019c.082.028.497.064.497.092v.01c0 .237.051.475.262.713l.099.229c.191.109.201.22.209.329l.095.128.135.146c.485.293.644.577.872.86l.007.009c.091.109.181.22.309.32l.411.338c.302.247.604.494.924.731.21.165.438.33.657.485l.796.548c.239.156.467.312.714.458.338.219.695.421 1.042.631.375.21.759.411 1.143.613l.609.309c-3.024-1.455-5.692-3.298-7.834-5.439-.21-.201.019-.395-.521-.596l-.128-.035-.009-.01.132-.018.076-.028v-.092c0-.201-.543-.411-.707-.621l-.387-.366.088-.01.006-.091v-.038c0-.202-.372-.42-.518-.631-.201-.12-.482-.238-.482-.357v-.01c0-.21-.255-.429-.402-.639l-.024-.056c-.128-.183-.272-.375-.382-.567-.923-1.536-1.65-3.164-2.125-4.856l.211.651-.101-.358-.085-.302.092.293-.01.009.009.009.1.33.211.631c.228.602.466 1.197.749 1.774m-2.03-10.436c.329-3.484 1.921-6.676 4.161-9.493-2.204 2.844-3.795 6.064-4.161 9.493m20.743-20.798l.009.138-.019-.147-.027-.32.037.329m-4.793 2.735c-4.161 1.866-7.728 4.317-10.435 7.234 2.689-2.999 6.256-5.487 10.435-7.234 1.564-.722 3.219-1.344 4.939-1.884l-.018-.019-.019-.045.028.045.009.019.01.22c-1.72.44-3.376.987-4.949 1.664m5.012-2.03v.018l-.073-.018-.037-.074-.027-.027-.018-.092-.01-.027v.027l.019.092v.027l.018.074v.018l-.009-.018-.009-.074-.009-.027-.01-.092-.009-.036v-.046l.083.082.091.092v.101zm76.789-22.361l-.01-.009h-.01l-.025-.018.018-.037.045.037.009.046-.027-.019m.64 3.593l-.018.102-.129.584-.019.101.019-.146-.072-.292-.147.438.139-.476v-.018l.055-.165.072-.255v-.01l.047-.155v.137l-.029.073.038.11.044-.028.018-.082.021.055-.039.027m30.017 6.814c6.979-1.162 14.313-2.726 21.036-3.64-6.723.933-14.057 2.487-21.036 3.64m47.378 12.831l-.268-.336-.294-.174h-.008l-.009.163-.064.146c-.256-.081-.503-.132-.769-.196 1.72-11.122-2.908-15.477-10.619-16.575 7.748 1.07 12.394 5.419 10.674 16.567.247.065.769.276.999.367l.357.03v.008zm-.158-.887l-.046-.009.037.055-.037.348-.019.146-.019.064v.046l-.01.009-.311-.466.02-.101.063-.174-.311-.073-.256-.384-.018-.028v-.008l-.064-.083h.009l.211.073c.11.046.165.083.118.1l.311.055.12.184c.047-.037.102-.064.155-.156l.084.009-.037.393m17.304 13.774c-.311-.567-.641-1.124-.996-1.673.365.549.694 1.106.996 1.673m0 .009c.668 1.253 1.198 2.562 1.564 3.915-.377-1.353-.905-2.662-1.564-3.915M2.107 52.636l-.21-.63-.101-.33-.01-.009c.074.33.184.65.303.969l.237.604.092.22c.137.32.283.64.439.951-.283-.577-.521-1.171-.75-1.775m-.403-1.271l.082.302.01-.009-.092-.293m2.552 5.489l-.082-.12v.01l.082.11m-.98-1.73l-.219-.355.17.355c.146.274.295.549.451.814.155.266.37.53.543.786l.059.009v-.009c-.979-.512-.711-1.051-1.004-1.6m-.309-.476l.036.063-.054-.118.018.055m3.914 5.278l.256.329c-.009-.109-.064-.219-.256-.329m.522.603c.292.293.575.586.877.86-.228-.283-.393-.567-.877-.86m2.853 1.336l-.064-.01-.156-.009.028.019.146.008h.064l-.018-.008m-4.015-2.304c-.256-.293-.503-.567-.732-.869l-.027-.037.173.119.138.055.054.018-.091-.045-.101-.073c-.173-.165-.082-.329-.201-.484l-.101-.102-.1-.091.018.028.037.063.018.093v.009c0 .091 0 .183.046.273l-.046-.063c-.146-.184-.292-.367-.42-.559l-.019-.01.439.604.092.128.009.009.018.009.275.357c.164.21.338.421.521.622v.091l.109.028.056.018-.165-.191m-.311-.678l-.036-.018.009.009.027.009m15.685-35.23l.009.036v-.026l-.009-.01zm.009.036l.01.092.008.028v-.028l-.018-.092m.018.12l.01.073.008.018v-.018l-.018-.073m-.366 44.377l.513.154c0-.046-.247-.1-.513-.154m.495.218l-.046.137.055.02h.009v-.212l-.018.055m.164-1.381l-.009-.019h.064l-.009-.046-.082.009.018.037-.009.009h-.064l.073.01c.311.466.54.805.668 1.052-.119-.257-.339-.595-.65-1.052m5.872 16.737c.457.256.951.595 1.454.622-.503-.183-.997-.394-1.454-.622m4.289 1.528l-.027-.138-.009-.02v-.017h-.009v.008l-.01.028-.018.027-.027.11h-.01v.009h-.009l-.082-.019.082.027h.128l-.009-.015m-.119-.422l.083.01.045-.01h-.128zm.083.229v.011l.036.009h.037v-.009l-.073-.011m0-.219c-.092.046.329.183.439.274l-.147.036-.091.063h-.009l-.074-.004.083.004h.018l.055-.048.11-.021.064-.006.064.001c.265.028.539.053.823.062.247.027.493.035.749.043l.55-.01.667-.021h.183c.293 0 .558-.036.823-.072-1.518-.018-2.963-.091-4.307-.301m4.883.338c-.119 0-.237.037-.347.074l-.11.026c.32-.026.631-.009.933-.009h.009l.101-.018.155-.083-.741.01m-.566-.009l.566.009.476-.155-1.042.146m5.688-.805l.028.008.009-.018-.037.01m.283.092h-.008l-.183-.092-.064.008-.028.084.22.091.128-.045-.065-.046m0 .128h-.008l-.018.008.072.056h.01l-.056-.064m9.896-1.089l-.091.019-.055.009-.036.009-.174.037h-.009l-.11.019v.009l-.101.02-.092.017h.028l.165-.017.138-.011.063-.009v-.009l.019-.019.045-.01.119-.027v-.009l.064-.009.027-.01.028-.009h-.028zm.494-.063l.073-.01.028-.009-.101.019m-.045.01l.027-.01-.045.01h.018m2.487-.44l-.109.026c.411-.072.832-.146 1.244-.229l-1.135.203m-2.094.211h.018c.65 0 1.289-.229 1.939-.358-.677.119-1.344.358-2.011.358h.054zm121.705-59.257l-.009.018-.021.018h-.007l-.046.046-.046.046-.019.008-.055.028v.009h-.011l-.008.01-.037.018h-.008v.019l.026.008v.009h.019l.019.01h.036v.009l.009-.009.037-.01.055-.017v-.019l.019-.065.037-.1.018-.036h-.008zm20.002 24.017c-.457 1.61-1.408 3.567-1.427 3.567-.357 1.023-.741 1.929-1.125 2.734-.128.265-.266.529-.395.777-.274.493-.548.951-.822 1.381-.274.421-.402.814-.686 1.18.283-.365.494-.759.758-1.18.275-.43.514-.888.788-1.381l.373-.777c.396-.806.771-1.711 1.127-2.734.017 0 .968-1.957 1.426-3.567.247-.887.476-1.628.623-1.646-.137-.074-.375.704-.64 1.646m-188.552 11.552v.055l.109.119.056.018-.165-.192M4.613 57.502l-.293-.42.009.018v.01l.339.493.018.01-.073-.111m184.884 1.152l-.073.01-.128.128.046-.009h.082l.073-.074c.109-.119.393-.274.504-.411l-.504.356m-1.188 1.107c.2-.174.402-.365.604-.576l.108-.128-.073.064-.639.64m-13.371-36.162c-.02.11-.046.192-.083.256l-.009.009-.046.128h-.009l-.009.018-.021.018h-.007l-.046.046-.046.037v.009l-.019.008-.055.028v.01h-.011l-.008.009-.037.009v.009h-.008v.019l.027.008.009.01h.009l.019.009.009.009-.02.027-.008.018v.01l-.028.009h-.017v.009l.027.009h.018l.027.009.055.064.047.074.026.027-.01-.027-.027-.074-.026-.064-.01-.018h-.02l-.026-.073h.019l.008-.009.038-.009.055-.018v-.019l.019-.065.037-.1h.072c.037 0 .063-.228.083-.347.036-.11.063-.311.082-.531l-.009.018c-.018.183-.035.321-.071.431m-122.785 59.951l-.055.009-.036.009-.174.036.018.011.064.018v-.009l.018-.02.046-.009.119-.027h.009l-.009-.009v-.009zm-1.71.292l-.156.027.357-.045.018-.046-.018.009-.201.055m-8.012.566c.036.028.028.093-.018.13.027.036 0 .073-.065.082l.056.063c.082.064.173.137.256.164l.064.01-.064-.155-.229-.294m-.037-.017l-.064-.018.01.018h.018l.073.018-.027-.018h-.01zm-6.612.915l-.256.055c.302-.026.567-.01.841-.047l-.567-.008h-.018zm-3.283-.156l-.147.036-.092.063h-.109.009.018l.101-.05.165.021.064.028h.064l.823.024c.247.028.493.016.749.023l.55-.018.667-.03h.183c.293 0 .558-.036.823-.072-1.518-.018-2.963-.105-4.307-.315-.092.048.329.199.439.29m-.43 0l-.009-.02v-.017h-.01l-.027-.01-.009.036-.065-.018-.1-.019v.137l.11.037.027.01v.009l-.009.009h.128l-.009-.018-.027-.136m-.092-.284l.083.01.045-.01h-.128zm-1.61-.319l.129.174c.1.082.201.127.301.137l.137.019h.037l-.128-.019c-.164-.027-.32-.12-.476-.311m-8.715-10.18c.027-.257.137-.513.137-.777v-.329c0 .229-.192.457-.174.676l.037.43m-.275-.915c.009.394.037.769.065 1.134l.063.559.018-.073c-.055-.365-.081-.74-.109-1.135l-.037-.485m-11.231-11.853l-.091-.054-.009.081-.01.056.028.101.128.072-.156-.008.028.019.146.009c2.589 1.628 5.652 3.42 8.213 3.915.522.2 1.052.401 1.582.594-.53-.22-1.06-.493-1.582-.686-2.579-.505-5.67-2.297-8.277-4.099m-.11-.073l.019.019.009-.019h-.028zm-4.792-5.021c.174.183.439.567.521.531.229.311.43.594.622.84l-.622-.859c-.082.037-.339-.329-.521-.512m.659 2.369l.018.009h.009l-.036-.018.009.009m-.156-.073h.009l-.101-.073.092.073m-.394-.659l.092.102c.119.155.027.319.202.484h.008c-.173-.165-.082-.329-.201-.484l-.101-.102m-.027.375v.01l.092.092-.092-.119v.017zm-.091-.494c-.083-.109-.22-.22-.339-.339l-.091-.091-.083-.092-.008-.009-.184-.256-.274-.385c.055.073.055.155.064.229l.009.018-.146-.229-.045-.073-.028.057c.146.21.301.431.301.641 0-.082.028-.174-.036-.256l-.046-.128.339.493.018.01.009.009.119.063c.128.119.302.229.384.339l.037.027.036.028.082.063-.1-.091-.018-.028m-.165-1.6c.027-.046.091 0 .174.082-.083-.091-.147-.146-.174-.082m-.659 1.079c0 .119.238.238.44.357l-.183-.257-.019-.009-.238-.091m-.923-4.335l-.101-.045.101.045"/><path clip-path="url(#b)" fill="#fff" d="M197.023 44.058c-.037-.648.041-1.255-.266-2.036-.023-.411.334.533.128-.414-.369-.791-.211.554-.072 2.067l-.029.113c.066-.111.138-.072.239.27M196.784 43.788l-.037.069.037-.069"/><path clip-path="url(#b)" fill="#4C4C4C" d="M176.902 22.802c.028-.152.038-.324.042-.716l-.042.716"/><path clip-path="url(#b)" fill="#fff" d="M.531 50.528l-.062-.28.062.28M197.206 45.1c-.063-.529-.114-.829-.183-1.042.031.323.053.652.183 1.042"/><path clip-path="url(#b)" fill="#4C4C4C" d="M19.2 68.561l-.279-.084c-.032.047.091.065.279.084"/><path clip-path="url(#b)" fill="#fff" d="M1.467 53.104l-.128-.257-.064-.265.101.247.018.045.028.092.018.045.027.093"/><path clip-path="url(#b)" fill="#4C4C4C" d="M7.881 62.116l.472.36c-.187-.157-.347-.273-.472-.36M99.163 4.959l-.027.073-.056.175-.081.256-.147.439.138-.476v-.019l.056-.165.071-.256v-.008l.047-.155-.001.136M129.235 11.928c6.979-1.153 14.313-2.707 21.036-3.639-6.723.914-14.057 2.478-21.036 3.639m-29.999-6.895l-.019.082.037-.028-.018-.054m-.064.109l-.046.027-.045.037-.037.037-.054.164v.018l.008.038.074.292v.045l.128-.584.018-.101-.046.027m-76.935 72.243c-.1-.338-.201-.694-.283-1.06-.083-.366-.156-.751-.21-1.153l.389-.805.481.219v.028l-.527.558-.204.558-.047.467-.05.073.069.521c.082.338.816.658.926.97.054.163-.167.328.833.484v.009c0 1.327.533 2.433 1.439 3.329.329.338.356.64.75.924.311.229.472.43.81.604l.437.266.506.238.062.037.144.082.05.026c.457.256.949.524 1.452.551l.034-.062h.905l.11.226.183.21c.1.083.201.146.301.155l.046.194.092.215h.173l.147-.218c.284-.056.567-.279.823-.279-4.893-.776-8.433-2.949-9.841-7.367m-.448-4.124c0 .229-.192.457-.174.676l.037.431c.027-.257.137-.513.137-.777v-.33zm-19.682-20.625l-.21-.63-.101-.33-.009-.009c.073.33.183.65.302.969l.238.604c-.083-.201-.156-.403-.22-.604m-.402-1.271l.082.302.009-.009-.091-.293m4.225 7.518l-.027-.009-.009-.009-.046-.02-.055-.018-.138-.055-.146-.082-.045-.037-.019-.019.275.357c.164.21.338.421.521.622v-.641l-.311-.089m-.603-.384v.027999999999999997l.091.092-.091-.128v.008zm.287-.256v-.009l-.162-.093-.108-.063-.055-.028-.036-.027c-.082-.109-.229-.22-.348-.339l-.095-.091-.085-.092-.01-.009-.183-.256-.056-.385.138-.119v-.009c0-.256-.557-.521-.723-.786-.155-.266-.421-.54-.568-.813l-.237-.357-.055-.056-.05-.063c-.128-.246-.254-.493-.373-.749.339.795.967 1.572 1.414 2.33.11.185.592.377.592.56v.009l-.192.073.017.211.189.42-.014.11v.009c0 .092.313.174.377.265.146.201.623.403.623.604v-.247zm.627 1.372v.091l.11.028-.11-.119m15.485 8.926l.054.019h.009v-.211l-.018.056-.045.136m-.45-.356l-.036-.01-.274-.054-.668-.184c.421.146.686.283 1.491.411v-.008c0-.046-.247-.1-.513-.155m-6.337-2.333l.494.238-.535-.258.041.02m-1.794-.942c-.346-.209-.703-.411-1.042-.631-.246-.146-.475-.303-.713-.458l-.796-.548c-.219-.155-.448-.32-.658-.485-.32-.237-.622-.484-.924-.731l-.411-.339c-.128-.1-.22-.21-.311-.319l-.01-.009c-.228-.283-.164-.567-.648-.86-.072-.046-.018-.092-.018-.138v-.009l-.248-.128c-.009-.109-.178-.219-.37-.329l-.395-.129c.539.202.282.395.492.595 2.142 2.143 4.795 3.985 7.819 5.44l-.616-.309c-.383-.202-.775-.402-1.151-.613m8.561-40.9h-.008l.018.018-.01-.018m-.054-.128l.009.018v-.018h-.009zm-.018-.101l.009.028v-.028h-.009zm-15.293 9.366c2.708-2.918 6.275-5.369 10.436-7.235-4.179 1.748-7.746 4.235-10.436 7.235m186.238 23.852c.549-.795 1.034-1.61 1.436-2.46-.42.841-.897 1.655-1.436 2.46m-.888-24.913c-1.27-1.298-1.956-1.829-4.197-3.476-.119.101.623.668-.466.018-.275-.146-.512-.282-.732-.411.906.586 2.039 1.618 1.601.978.996.303 3.96 3.12 4.345 4.007 1.489 1.362-.971-1.244-.551-1.116m-9.109 33.483c.074.046.129.072.422-.093.896-.539 1.802-1.114 2.697-1.756-.987.669-2.03 1.291-3.119 1.849m-6.712 2.689c1.042-.293 2.031-.649 2.953-1.034-1.161.431-2.377.806-3.621 1.125.668 4.326.376 7.628-.686 10.106.566-1.234.905-2.588 1.033-3.934.137-1.179.137-2.367.045-3.511-.017-.576-.082-1.143-.163-1.701l-.11-.823-.01-.064.166-.045.393-.119zm-1.344-43.974h.008v-.008h-.008v.008zm-48.309 56.037c.019.082-.165.137-.348.165 5.132.657 10.684 1.765 15.704 2.524-5.132-.924-10.372-1.957-15.356-2.689m-23.661 2.543c-.246.246-.384.401-.091.256-.054-.036-.018-.128.091-.256m-21.456-3.549c.045.072-.21.146-.777.229 1.747.063 1.902-.339 3.502-.183.403.018 1.079.164 1.079.21.714-.083 2.452.129 3.494.301-2.186-.466-4.646-.621-7.298-.557m-5.323.539c1.564-.229 3.338-.339 4.765-.53-2.772.092-5.744.403-8.826.842l-.503.2c1.665-.384 3.275-.311 5.177-.731.082.073-.348.146-.613.219m-7.061.959c1.436-.153 1.254-.301 1.519-.429-2.799.421-5.68.934-8.561 1.464l-2.167.402-2.451.448-.741.137-1.134.293-.11.12h-2.039.054.018c.659 0 .22.296.915.222 2.57-.574 5.058-.907 7.408-1.382 0 0 .046.058-.082.104 2.149-.494 5.671-1.015 7.801-1.636-.082.075.128.112-.43.257m-16.988 2.828c-.045 0-.03-.211-.048-.199l-.076-.192h-.027l-.155.236-.183.133-.092-.189-.109-.18h-.019l-.055.278.192.157.458.085v.009l-.495.009-.439.055-.274.027-.223.027-.222.037c-.384.046-.775.119-1.131.175-.43.063-.858.137-1.288.191l-1.266.173c-.448.065-.898.147-1.337.201-.32.036-.65-.281-.961-.345l-.129-.08h-.028l-.063.088c-.101.056-.202.238-.302.247-.12.037-.248.21-.366.301l-.101.117c-.064.056-.137.247-.201.247h-.037l-.045-.164c-1.711.174.292.17-.659.371 1.436-.219 4.866-.561 7.024-.853-1.472-.118 2.479-.601 2.68-.911l-.068-.024-.069-.027v-.009l.114.009m-19.668 1.235c-.092.046.329.183.439.274l.009.009.009.073-.037.026-.027-.01h3.0909999999999997c.293 0 .558-.036.824-.072-1.519-.017-2.964-.09-4.308-.3M174.663 24.202v-.09099999999999998l-.01-.082h-.02l-.008.018-.047.11v.009l-.008.009-.009.027-.009.019v.009l-.02.037h.02l.018-.01.027-.008h.027l.008-.01.038-.009v-.009l-.007-.019m-.137.073h.008v-.009h-.008v.009zm-45.291-12.346c6.979-1.153 14.313-2.707 21.036-3.64-6.723.914-14.057 2.478-21.036 3.64m-29.999-6.897l-.019.082.037-.027-.018-.055m-.064.111l-.036-.11.027-.073v-.137l-.047.155v.009l-.072.256.036-.036.046-.037-.055.585-.018.147.018-.101.128-.585-.027-.073m-.183.282l-.137.476.146-.439-.009-.037m-.429-3.931l-.01-.037-.009.037.019.018h.01l-.01-.018m-46.407 82.056l-.055.009-.036.008-.174.038h-.009l-.11.019v.009l-.101.019.101-.01.201-.009v-.009l.018-.019.046-.009.119-.029v-.008l.091-.028-.091.019m-1.472.264l-.037.01-.201.036.302-.036.119-.028.1-.018.055-.019-.338.055m-8.36.878l.073-.009h.01l-.056-.064h-.008l-.22.028h-.018l-.037-.028-.036.01-.284.055-.101.019-.21.092.713.046.513.035c-.11-.036-.229-.119-.339-.184m-.887-.3h-.055l.156.073.109-.02c-.073-.037-.137-.053-.21-.053m-5.057.813l.566.01.476-.155-1.042.145m-4.317-.33c-.092.047.329.185.439.275l.009.009-.064-.009-.11.059-.274.04h-.01l.355-.077.209-.077v.155h-.509l.357.019.027-.019h.038l.045-.036c.53.055 1.079.036 1.646.036h1.326c.293 0 .558-.036.823-.072-1.518-.02-2.963-.092-4.307-.303m-.083-.009l.083.009.045-.009h-.128zm-9.74-7.48c-.11-.339-.201-.695-.283-1.062-.083-.366-.156-.75-.211-1.152l.39-.806.481.221v.026l-.527.559-.204.558-.047.467-.051.073.07.521c.082.339.816.659.925.971.055.164-.166.329.834.484v.01c1 2.523 2.15 4.16 4.575 5.358l-.255.046-.013.073-.03.027c.457.229.909.439 1.412.622l.061.037c.403.164.803.311 1.233.447-.091-.092-.188-.191-.279-.319l.18.174c.101.082.201.313.301.323l.135.205h.064l.065-.197c.311-.044.613-.302.914-.302-4.893-.777-8.359-2.947-9.74-7.364m-.448-4.125c0 .229-.192.458-.174.677l.037.429c.027-.256.137-.512.137-.776v-.33zm1.17-4.775l.009.009.019.01-.009.027-.01.019.028-.019.036-.027.019-.01-.092-.009m-1.317-44.677l.01.073h.008l-.018-.073m-.018-.12l.009.092h.009l-.018-.092m-15.283 9.457c2.708-2.917 6.275-5.368 10.436-7.234-4.18 1.748-7.747 4.234-10.436 7.234M21.579 23.315l-.019-.146-.027-.321.037.33.009.137"/><path clip-path="url(#b)" fill="#4C4C4C" d="M21.624 23.663v.027l-.009-.036.009.009zM21.643 23.781v.027l-.009-.027-.01-.092.019.092M21.661 23.882v.018l-.009-.018-.009-.073.018.073M21.716 24.028l-.018-.019h.009l.009.019"/><path clip-path="url(#b)" fill="#fff" d="M1.325 49.958l.022.113-.022-.113M1.125 48.771c.054.399.12.796.2 1.188-.078-.395-.149-.789-.2-1.188M4.358 56.788c-.129-.183-.358-.375-.468-.558-.448-.758-.895-1.536-1.234-2.332l-.211-.438-.105-.221c-.082-.201-.163-.401-.226-.603.229.603.462 1.197.745 1.774l.091.183.018.055.035.064.027.055.413.357c.292.549.171 1.088 1.171 1.601v.018000000000000002l-.256.045M4.695 57.621l.192.265-.036-.026c-.202-.119-.44-.238-.44-.357v-.009c0-.21-.155-.43-.301-.64l.028-.056.045.073.137.21.293.421.073.11.009.009"/><path clip-path="url(#b)" fill="#4C4C4C" d="M6.241 58.975v.64c-.183-.201-.357-.411-.521-.621l-.275-.356-.018-.01-.009-.01-.092-.127-.439-.604.019.009.191.128.083.028.128.09.11.101c.119.156.036.33.229.485l.1.073h.009l.037.027.054.019.047.018.009.01.018.009h.009l.311.091M6.351 59.733l-.109-.027v-.091l.109.118M21.789 68.35v.21h-.009l-.054-.019.045-.137.018-.054"/><path clip-path="url(#b)" fill="#fff" d="M.982 47.305c.022.494.08.979.143 1.466-.066-.484-.116-.972-.143-1.466"/><path clip-path="url(#b)" fill="#4C4C4C" d="M22.614 25.729v.028l-.604-.009-.756.119c-.732.2-1.548.429-2.252.686-1.418.521-2.859 1.142-4.368 1.838l-.008-.018c1.499-.695 2.877-1.317 4.285-1.838.704-.257 1.411-.504 2.143-.705l.958-.146.602.045zM21.789 25.857v-.101h.092l.137.101zM22.969 24.166l-.851 1.28-.018.028-.009.008-.128.047.064-.047.046-.008.027-.028c.156-.228.421-.621.86-1.28l-.009-.128.018.128zM23.051 68.459l.009.018-.018-.018v-.01l.009.01zM23.106 68.532l-.155.027.018-.009.027-.019.036-.028.019-.009.009-.018h.01l.009.018.008.009.019.029M27.898 83.77l-.146-.037-.156-.073c-.21-.082-.43-.183-.631-.283-.173-.082-.348-.165-.522-.267-.337-.173-.667-.373-.978-.602-.393-.284-.759-.586-1.088-.925-.906-.896-1.61-2.003-2.113-3.328l-.009-.01-.174-.484c-.109-.312-.201-.632-.284-.97-.082-.348.4-.694.344-1.062-.026-.182.473-.375.473-.558v-.027l-.618-.558c-.028-.365-.332-.74-.342-1.135l-.102.484c.028.394-.014.769.041 1.135.045.394.075.769.157 1.125l-.008.073c.815 3.76 2.992 5.983 6.156 7.502M30.587 84.866c-.421-.137-.823-.292-1.216-.447l-.074-.027c-.484-.184-.951-.466-1.399-.694.713.284 1.481.552 2.295.552h.01l.11.226c.091.128.184.299.274.39M31.868 85.278h-.019c-.429-.073-.858-.063-1.261-.412.21.072.42.138.639.201.203.073.412.138.622.201l.019.01M31.978 85.306l-.11-.028h.027l.083.028"/><path clip-path="url(#b)" fill="#4C4C4C" d="M32.06 85.15v-.028l.009.028h-.009zM34.694 85.249h-.476c-.566 0-1.115.018-1.646-.036l-.045.036h-.027999999999999997l-.018.01-.019.027-.393-.037h.545v-.14400000000000002l-.518.144h.037l.028-.009.1.009h.018l.055-.048.11-.021.064-.006.064.001c.266.028.539.054.824.062.246.027.493.007.749.015l.549-.003M35.361 85.306h-.392l-.275-.009.667.009"/><path clip-path="url(#b)" fill="#4C4C4C" d="M42.788 85.249c.704-1 1.417-.155 2.149-.238-.695.093-1.381-.762-2.086.238h-.063zM52.062 83.566l-.055.021-.009.008-.009.01-.019.019v.009l-.063.009-.147.028h-.009l-.787.109-.1.018-.183.019.339-.055h.018l.109-.018.064-.02h.028l.183-.026.128-.027h.027l.091-.019.101-.019v-.009l.11-.019h.009l.174-.038M52.675 83.477l.045-.009-.027.009h-.018M52.839 83.449l-.028.009-.073.011.101-.02M99.521 83.732c-.211.303-.386.595-.56.879.165-.284.339-.576.56-.879M102.007 81.053l-.063.073-.01.01c-.293.237-.559.475-.796.704.258-.257.541-.513.869-.787M122.092 78.254c-5.598-.621-10.975-.969-16.792.915-.373.303-3.365 1.646-3.365 2.122-.128.081-.156.073-.128.026l.128-.063c0-.476 2.992-1.848 3.365-2.158 5.817-1.884 11.194-1.483 16.792-.842M127.26 78.803c-.037-.036-.146-.082-.329-.128l.292.046.037.082"/><path clip-path="url(#b)" fill="#4C4C4C" d="M174.554 24.092l-.028.128v-.037l.007-.072.021-.138.017-.146zM174.653 24.312h-.008v-.009zM174.983 24.925c-.165-.037-.294-.321-.366-.513l-.01-.017-.009-.019v-.009l-.027-.037h-.009l-.02-.018v-.009l-.009-.009-.008-.01v-.008h.008l.02-.01v.018l.018.01.018.009.01.009.036.009h.019l.01.019.026.064.027.073.01.027.019.037.026.073.011.018.072.147.063.082.065.064M174.846 23.864l-.046.128-.018.037-.037.1-.019.064v.019l-.055.018-.037.009.028-.019h.009l.009-.008.009-.01.027-.073.01-.028.045-.072.011-.019.009-.018.055-.128M175.02 23.104l-.009.064c-.02.183-.037.32-.073.43.027-.1.046-.228.063-.403v-.035l.019-.056M174.983 24.925l.054.018h-.009l-.045-.018M180.927 27.101c-.657-.292-1.326-.566-2.012-.823-.677-.265-1.381-.503-2.095-.722-.355-.11-.722-.229-1.087-.33l-.56-.201.56.183c.365.101.731.229 1.087.338.714.22 1.418.458 2.095.723.686.256 1.355.53 2.012.832"/><path clip-path="url(#b)" fill="#fff" d="M1 51.85c-.191-.475-.375-.987-.466-1.316l-.064-.284.055-.02c.147.549.302 1.118.475 1.62M.525 50.235c-.092-.44-.196-.849-.235-1.167.008.3.1.727.178 1.18l.057-.013"/><path clip-path="url(#b)" fill="#4C4C4C" d="M22.996 23.599c-.055-.229-.091-.476-.137-.723.073.292.11.457.137.723"/><path clip-path="url(#b)" fill="#fff" d="M.271 48.92l.019.148.003-.024-.022-.124zM197.076 46.354c.03-.204.014-.42-.015-.648l-.131.005c.063.204.122.148.146.643M196.924 45.692l.008.019.13-.005-.098-.731c-.004.138-.078.665-.04.717"/><path clip-path="url(#b)" fill="#4C4C4C" d="M193.941 35.863c.204.059 1.413 1.946 1.889 3.197-.537-1.128-1.175-2.195-1.889-3.197M187.734 28.503c-.608-.577-.39-.497.517.189.026.101-.289-.103-.517-.189M187.026 28.332c-.66-.45-.95-.738-1.246-1.002-.02.09 1.585.977 1.246 1.002M176.856 16.367c-.088-.521-.505-1.619-.562-2.142.153.552.846 2.51.562 2.142"/><path clip-path="url(#b)" fill="#4C4C4C" d="M170.717 8.146c-.29-.172-.405-.261-.775-.377-.539-.29.093-.134.573.089l.202.288zM20.493 18.299c.016-.351.001-.704.055-1.058l.096.168c-.071.296-.1.593-.151.89M20.475 71.094c.015 1.034-.167.709-.186.887.036-.94.128.347.186-.887"/><path clip-path="url(#b)" fill="#4C4C4C" d="M52.251 83.899l-.3.055.057-.269zM157.216 81.499l-.09-.001c-.398-.024-.761-.201-1.024-.499-.262-.297-.394-.678-.37-1.074.05-.813.753-1.445 1.573-1.395.396.023.76.201 1.021.499.265.295.396.678.371 1.074-.047.784-.697 1.396-1.481 1.396m5.81-.049c-.766 0-1.399-.575-1.476-1.336-.04-.396.076-.783.326-1.089.249-.308.607-.5 1.002-.538.829-.083 1.547.517 1.627 1.329.04.394-.076.782-.327 1.09-.251.306-.607.498-1.001.537l-.151.007m-119-.348c-.751 0-1.385-.563-1.475-1.31-.045-.395.064-.784.308-1.095.245-.313.597-.51.991-.56.825-.1 1.557.494 1.653 1.301.046.395-.063.782-.307 1.095-.245.312-.598.51-.992.557l-.178.012m-12.87-.132c-.131 0-.265-.018-.392-.054-.791-.214-1.258-1.031-1.043-1.822.174-.646.765-1.098 1.433-1.098.131 0 .262.017.389.053.385.104.704.352.902.695.197.344.247.745.144 1.128-.175.647-.765 1.098-1.433 1.098m6.222.529c-.131 0-.263-.016-.391-.052-.79-.214-1.259-1.033-1.045-1.823.176-.646.766-1.097 1.434-1.097.131 0 .263.016.389.052.385.104.705.35.902.696.197.343.248.745.144 1.128-.173.646-.763 1.096-1.433 1.096m114.049-.584l-.198-.014c-.813-.109-1.384-.859-1.277-1.67.1-.735.731-1.289 1.472-1.289l.2.014c.811.106 1.385.856 1.275 1.67-.099.734-.732 1.289-1.472 1.289m-101.642-.643c-.729 0-1.346-.526-1.463-1.247-.066-.394.026-.785.26-1.107.23-.323.575-.536.966-.6l.241-.019c.732 0 1.348.523 1.466 1.245.064.392-.029.784-.26 1.108-.233.321-.574.533-.968.598l-.242.022m95.889-.245l-.248-.023c-.393-.065-.736-.279-.964-.604-.229-.324-.319-.718-.254-1.109.123-.716.738-1.236 1.465-1.236l.249.021c.809.138 1.354.908 1.217 1.716-.122.714-.74 1.235-1.465 1.235m22.827-.33c-.456 0-.881-.204-1.165-.563-.511-.641-.402-1.577.238-2.088.265-.211.585-.322.925-.322.455 0 .88.204 1.162.562.511.642.403 1.579-.237 2.089l-.006.004c-.265.208-.582.318-.917.318m-68.348-.327c-.489 0-.945-.24-1.225-.641-.226-.325-.312-.721-.24-1.11.073-.391.288-.731.617-.956.249-.174.542-.265.844-.265.488 0 .946.239 1.223.638.467.676.299 1.604-.374 2.071-.251.171-.542.263-.845.263m-44.633-.099c-.717 0-1.331-.514-1.461-1.221-.071-.391.014-.784.241-1.111.225-.326.564-.545.955-.617l.269-.026c.716 0 1.33.514 1.459 1.221.148.806-.388 1.583-1.194 1.729l-.269.025m84.426-.27l-.271-.025c-.808-.148-1.34-.926-1.192-1.73.131-.705.743-1.217 1.46-1.217l.264.023h.008c.391.073.729.294.954.619.227.327.309.724.237 1.113-.131.705-.745 1.217-1.46 1.217m-44.432-.418c-.256 0-.507-.066-.731-.195-.345-.194-.594-.513-.699-.896-.105-.382-.057-.783.139-1.129.264-.463.759-.753 1.294-.753.253 0 .503.065.725.19l.006.001c.713.405.965 1.314.562 2.028-.264.465-.76.754-1.296.754m-34.27-.369c-.718 0-1.331-.512-1.46-1.22-.072-.389.014-.783.24-1.111.224-.328.564-.547.954-.618l.27-.022c.716 0 1.33.513 1.46 1.219.071.391-.014.785-.239 1.112-.226.327-.566.545-.955.617l-.27.023m72.978-.266l-.266-.024c-.391-.069-.729-.286-.957-.612-.228-.327-.313-.722-.242-1.112.127-.707.743-1.223 1.46-1.223l.266.023c.807.146 1.346.92 1.2 1.727-.129.709-.744 1.221-1.461 1.221m-107.305-.542c-.647 0-1.215-.415-1.415-1.03v-.004c-.249-.78.182-1.619.964-1.869.146-.048.299-.07.451-.07.649 0 1.219.416 1.416 1.032.249.781-.182 1.62-.963 1.87-.148.047-.299.071-.453.071m40.06-.199c-.729 0-1.347-.521-1.466-1.243-.132-.809.418-1.574 1.225-1.71l.244-.019c.73 0 1.347.522 1.465 1.244.065.391-.028.783-.259 1.107-.231.323-.574.535-.965.603l-.244.018m61.505-.236l-.233-.02c-.809-.127-1.363-.889-1.235-1.698.114-.726.731-1.255 1.465-1.255l.229.018.005.002c.811.128 1.363.89 1.236 1.698-.114.728-.73 1.255-1.467 1.255m-23.09-.07c-.648 0-1.233-.436-1.421-1.056-.115-.381-.076-.782.111-1.131.188-.351.5-.607.88-.723.142-.042.286-.065.431-.065.659 0 1.229.424 1.422 1.056.238.782-.203 1.612-.985 1.852l-.004.002c-.142.042-.289.065-.434.065m-15.292-.388c-.115 0-.231-.013-.344-.041-.388-.091-.715-.327-.922-.667-.21-.338-.272-.736-.18-1.123.16-.672.753-1.142 1.444-1.142.115 0 .232.014.347.041.795.191 1.29.993 1.1 1.791-.16.672-.754 1.141-1.445 1.141m-17.366-.158c-.746-.002-1.379-.561-1.473-1.301-.05-.394.057-.783.297-1.096.244-.314.595-.515.989-.564l.191-.014c.744 0 1.377.56 1.471 1.299.103.813-.473 1.559-1.286 1.662l-.189.014m49.983-.179l-.169-.01c-.814-.091-1.402-.83-1.309-1.645.093-.808.82-1.403 1.646-1.308.814.093 1.399.829 1.308 1.645-.086.752-.72 1.318-1.476 1.318m-11.616-.346c-.774 0-1.408-.581-1.479-1.352-.035-.396.085-.781.338-1.085.256-.308.613-.494 1.009-.529.83-.075 1.539.53 1.614 1.345.074.816-.528 1.539-1.344 1.616h-.002l-.136.005m-32.578-.041c-.781 0-1.433-.612-1.48-1.396-.026-.396.105-.776.368-1.073.263-.298.627-.476 1.022-.501.822-.049 1.525.579 1.575 1.391.051.819-.573 1.526-1.391 1.577l-.094.002m5.821-.063l-.078-.002c-.817-.041-1.449-.743-1.408-1.561.042-.813.732-1.438 1.554-1.408h.007c.819.043 1.449.741 1.408 1.562-.041.789-.692 1.409-1.483 1.409m32.574-.012l-.061-.002c-.818-.032-1.46-.724-1.427-1.542.033-.82.713-1.452 1.544-1.427.396.016.762.183 1.031.477.27.291.411.67.396 1.066-.033.8-.683 1.428-1.483 1.428m53.519-1.3h-.025c-.398-.006-.769-.167-1.044-.453s-.424-.662-.417-1.058c.017-.808.683-1.461 1.486-1.461h.027c.818.015 1.474.693 1.459 1.514-.014.804-.682 1.458-1.486 1.458m-143.797-2.782l-.172-.01c-.815-.095-1.4-.835-1.306-1.647.096-.809.826-1.401 1.65-1.304.395.045.746.242.993.554s.356.701.31 1.095c-.086.748-.722 1.312-1.475 1.312m143.198-2.997c-.737 0-1.354-.531-1.467-1.261-.124-.81.433-1.57 1.242-1.695l.229-.018c.726 0 1.356.542 1.467 1.261.124.81-.433 1.569-1.242 1.695l-.229.018m-142.493-2.646c-.123 0-.247-.016-.368-.047-.384-.099-.709-.339-.911-.682-.203-.341-.26-.74-.163-1.127.167-.659.759-1.121 1.44-1.121.122 0 .246.02.366.049.796.2 1.277 1.013 1.074 1.806-.167.66-.759 1.122-1.438 1.122m145.171-.747c-.679 0-1.272-.461-1.438-1.122-.202-.793.28-1.604 1.075-1.805.12-.031.242-.046.366-.046.679 0 1.271.461 1.44 1.12.201.795-.282 1.604-1.076 1.806-.12.032-.242.047-.367.047m-150.807-.715c-.144 0-.289-.021-.428-.063-.785-.236-1.231-1.066-.997-1.851.188-.624.774-1.061 1.423-1.061.145 0 .288.021.43.063.783.235 1.23 1.066.996 1.851-.188.626-.773 1.061-1.424 1.061m156.36-1.015c-.604 0-1.143-.358-1.373-.917-.153-.366-.153-.771 0-1.138.151-.366.438-.653.805-.803.181-.076.37-.115.567-.115.604 0 1.143.361 1.373.918.152.368.152.771 0 1.138-.154.368-.439.653-.804.806-.181.074-.372.111-.568.111m-161.736-1.189c-.243 0-.485-.062-.701-.177-.722-.387-.994-1.289-.609-2.012.26-.484.762-.784 1.312-.784.243 0 .484.06.701.175.722.387.995 1.29.607 2.012-.257.485-.761.786-1.31.786m166.84-1.581c-.483 0-.943-.237-1.22-.635-.471-.674-.302-1.6.37-2.07.249-.174.543-.268.848-.268.486 0 .942.237 1.221.637.468.671.303 1.599-.368 2.069-.253.175-.545.267-.851.267m-171.61-1.73c-.367 0-.72-.136-.993-.381-.296-.266-.469-.631-.489-1.026-.023-.396.114-.778.378-1.073.282-.313.684-.491 1.104-.491.367 0 .722.135.995.38.295.267.47.632.491 1.028.02.396-.115.777-.38 1.071-.281.312-.684.492-1.106.492m175.885-2.19c-.34 0-.672-.118-.937-.331-.309-.252-.501-.605-.541-1.003-.042-.395.074-.78.324-1.089.284-.35.704-.551 1.155-.551.338 0 .671.12.935.334.637.517.732 1.454.217 2.091-.282.348-.704.549-1.153.549m-179.55-2.298c-.535 0-1.03-.289-1.293-.751-.196-.347-.247-.747-.141-1.129.104-.384.353-.703.698-.899.225-.127.478-.194.733-.194.534 0 1.031.288 1.294.753.405.712.154 1.621-.557 2.026-.224.128-.477.194-.734.194m182.344-2.768c-.151 0-.303-.023-.447-.069-.379-.119-.688-.38-.871-.731-.182-.35-.217-.751-.101-1.129l.002-.003c.198-.623.767-1.04 1.416-1.04.152 0 .304.024.45.07.377.118.687.379.87.73.182.354.218.755.098 1.134-.196.621-.766 1.038-1.417 1.038m-184.117-2.729c-.772 0-1.408-.579-1.479-1.35-.036-.395.083-.78.336-1.087.255-.305.612-.492 1.007-.528.83-.078 1.537.522 1.616 1.335l.001.007c.074.815-.528 1.541-1.343 1.617l-.138.006m184.593-3.019c-.732 0-1.362-.55-1.468-1.276-.058-.393.04-.784.28-1.102.238-.318.584-.524.978-.579l.214-.016c.733 0 1.362.548 1.471 1.274.114.811-.451 1.565-1.262 1.683l-.213.016m-183.827-2.7c-.175 0-.348-.03-.515-.091-.769-.286-1.161-1.141-.879-1.91.215-.582.775-.971 1.394-.971.177 0 .35.031.516.093.372.136.67.412.835.773.166.361.182.763.044 1.136-.215.581-.776.97-1.395.97m181.802-2.712c-.518 0-.988-.26-1.262-.699-.209-.336-.277-.734-.188-1.122.092-.386.326-.717.662-.926.237-.148.509-.226.785-.226.518 0 .99.263 1.264.701.432.696.219 1.614-.476 2.048-.236.147-.506.224-.785.224m-178.798-2.236c-.359 0-.706-.131-.976-.368-.3-.259-.48-.623-.508-1.019-.026-.395.102-.778.365-1.077.28-.323.69-.509 1.119-.509.358 0 .705.131.978.367.617.538.68 1.48.142 2.097-.284.324-.692.509-1.12.509m174.97-2.119c-.349 0-.688-.126-.957-.352-.303-.257-.489-.616-.521-1.012-.033-.396.089-.78.346-1.083.282-.335.695-.525 1.134-.525.351 0 .692.123.959.352.306.254.488.613.522 1.009.032.397-.088.781-.346 1.084-.282.335-.696.527-1.137.527m-170.574-1.668c-.502 0-.966-.25-1.241-.668-.219-.332-.295-.728-.215-1.118.079-.389.307-.723.638-.942.242-.16.525-.245.816-.245.501 0 .965.249 1.243.668.45.685.26 1.607-.424 2.06-.244.16-.527.245-.817.245m165.719-1.516c-.232 0-.457-.053-.667-.158-.731-.371-1.026-1.265-.658-1.996.255-.506.764-.819 1.328-.819.23 0 .457.055.668.16.732.369 1.027 1.266.659 1.997-.255.503-.764.816-1.33.816m-160.55-1.132c-.61 0-1.167-.381-1.387-.948-.144-.37-.134-.776.026-1.137.16-.365.452-.643.821-.786.174-.068.354-.102.54-.102.616 0 1.16.373 1.384.948.295.764-.083 1.629-.847 1.925-.173.067-.353.1-.537.1m155.128-.953c-.133 0-.267-.017-.397-.054-.791-.218-1.254-1.038-1.036-1.828.179-.641.768-1.09 1.432-1.09.134 0 .27.019.399.054.788.219 1.253 1.039 1.035 1.83-.178.641-.769 1.088-1.433 1.088m-149.553-.692c-.678 0-1.27-.46-1.438-1.121-.203-.794.28-1.605 1.074-1.806.12-.032.243-.047.367-.047.679 0 1.271.461 1.439 1.12.203.795-.28 1.606-1.074 1.808-.12.029-.243.046-.368.046m144.481-1.122l-.229-.018c-.391-.061-.737-.269-.971-.589-.233-.319-.33-.713-.271-1.106.109-.718.742-1.26 1.467-1.26l.229.017c.394.062.738.271.972.593.236.319.331.711.272 1.102-.112.72-.742 1.261-1.469 1.261m-142.53-2.755h-.004c-.738 0-1.355-.531-1.468-1.26-.059-.393.036-.785.271-1.106.235-.32.581-.529.972-.589l.229-.019c.738 0 1.353.531 1.467 1.261.059.393-.035.784-.27 1.105-.235.32-.58.529-.973.591l-.224.017m143.367-3.004l-.138-.005c-.814-.074-1.418-.799-1.347-1.615.077-.815.784-1.42 1.616-1.346.816.075 1.421.797 1.348 1.614-.07.773-.706 1.352-1.479 1.352m-143.84-2.785l-.094-.002c-.396-.025-.758-.202-1.022-.499-.261-.299-.393-.681-.369-1.078.051-.813.751-1.437 1.577-1.39.396.025.758.201 1.019.499.266.298.396.681.371 1.077v.002c-.051.78-.699 1.391-1.482 1.391m54.148-.626h-.043c-.819-.024-1.467-.71-1.443-1.527.021-.81.674-1.446 1.484-1.446l.042.002c.82.022 1.469.707 1.444 1.527-.022.809-.675 1.444-1.484 1.444m32.572-.005h-.053l-.007-.002c-.394-.015-.76-.182-1.028-.47-.271-.292-.412-.669-.398-1.065.03-.82.707-1.461 1.53-1.434h.007c.396.014.766.182 1.036.471.271.291.411.67.398 1.067-.029.803-.68 1.433-1.485 1.433m5.812-.137c-.775 0-1.424-.604-1.479-1.381-.027-.393.101-.778.36-1.077s.621-.481 1.017-.509c.816-.061 1.53.567 1.589 1.376.058.818-.561 1.53-1.378 1.589l-.109.002m-32.577-.061c-.758 0-1.392-.569-1.474-1.324-.044-.395.068-.782.317-1.093.249-.308.602-.502.997-.547.826-.092 1.552.507 1.641 1.317.042.395-.071.782-.318 1.091-.249.31-.603.504-.997.546l-.166.01m-11.613-.209l-.16-.008c-.814-.089-1.406-.821-1.317-1.636.087-.812.811-1.41 1.636-1.32.814.087 1.406.822 1.32 1.636-.083.757-.715 1.328-1.479 1.328m32.608-.265h-.002l-.31-.033h-.002c-.801-.173-1.313-.961-1.142-1.763.145-.682.754-1.177 1.452-1.177l.31.033c.801.17 1.315.96 1.144 1.762-.144.684-.754 1.178-1.45 1.178m17.37-.069c-.741 0-1.375-.555-1.471-1.292-.053-.392.051-.783.292-1.099.242-.314.593-.515.985-.568.828-.106 1.562.478 1.668 1.277.053.392-.051.784-.292 1.098-.242.317-.591.518-.983.571l-.199.013m-55.745-.433l-.228-.017c-.391-.059-.736-.27-.973-.59-.234-.32-.329-.711-.269-1.105.111-.718.741-1.26 1.467-1.26l.228.019c.392.059.737.268.972.59.235.319.33.713.271 1.103-.111.72-.742 1.26-1.468 1.26m23.064-.228c-.639 0-1.206-.405-1.41-1.013-.26-.775.16-1.621.937-1.881.153-.051.313-.079.473-.079.639 0 1.205.409 1.408 1.014.125.378.099.779-.078 1.134-.177.356-.482.623-.857.749-.153.05-.313.076-.473.076m38.435-.215c-.728 0-1.344-.522-1.465-1.24-.064-.391.025-.786.255-1.109.23-.323.571-.536.96-.603h.004l.249-.021c.728 0 1.343.522 1.465 1.24.065.391-.026.786-.256 1.108-.229.323-.573.538-.965.605l-.247.02m-67.24-.52l-.263-.023-.006-.002c-.388-.071-.726-.287-.951-.612-.228-.324-.315-.719-.245-1.11.128-.71.742-1.225 1.462-1.225l.256.023h.008c.804.144 1.344.917 1.201 1.723-.128.711-.741 1.226-1.462 1.226m106.432-.179h-.002c-.589 0-1.125-.349-1.361-.888-.159-.362-.169-.767-.024-1.136.143-.371.422-.663.786-.823.189-.083.391-.128.598-.128.589 0 1.122.349 1.36.888l.002.003c.328.751-.014 1.626-.762 1.956-.19.085-.392.128-.597.128m-67.799-.259c-.24 0-.47-.056-.684-.166-.728-.378-1.013-1.276-.636-2.004.256-.496.764-.802 1.32-.802.237 0 .473.057.683.165.728.379 1.014 1.277.636 2.004-.254.495-.76.803-1.319.803m34.337-.06c-.715 0-1.331-.512-1.459-1.217-.072-.391.012-.786.238-1.112.225-.325.561-.545.947-.617l.006-.002.271-.024c.716 0 1.329.512 1.458 1.218.15.806-.385 1.581-1.192 1.729l-.269.025m-78.695-.551l-.271-.025h-.004c-.387-.073-.726-.293-.951-.619-.224-.327-.309-.722-.236-1.112.129-.704.743-1.216 1.459-1.216l.272.025c.392.072.729.291.954.62.225.325.31.721.237 1.112-.13.703-.744 1.215-1.46 1.215m84.419-.503c-.717 0-1.33-.513-1.46-1.22-.069-.392.016-.787.242-1.112.226-.325.563-.546.955-.616l.267-.024c.719 0 1.334.514 1.462 1.221.146.806-.392 1.581-1.198 1.727l-.268.024m-44.739-.365c-.472 0-.904-.216-1.188-.591-.24-.317-.342-.707-.286-1.101.055-.393.258-.742.576-.982.26-.196.569-.299.894-.299.471 0 .903.214 1.186.59.24.317.343.707.288 1.101-.054.392-.259.741-.577.98-.259.198-.57.302-.893.302m-45.409-.165l-.253-.022c-.809-.14-1.351-.911-1.211-1.718.122-.715.737-1.233 1.463-1.233l.254.022c.391.068.732.284.961.607.229.325.318.719.25 1.111-.125.714-.738 1.233-1.464 1.233m-22.934-.152c-.522 0-.997-.267-1.268-.712-.209-.339-.271-.737-.177-1.122.093-.387.332-.713.67-.921.233-.143.502-.218.773-.218.522 0 .997.266 1.269.711.428.699.206 1.617-.493 2.045-.234.141-.501.217-.774.217m118.819-.307c-.733 0-1.351-.526-1.467-1.252-.062-.392.031-.784.265-1.105.232-.322.576-.535.969-.598l.236-.019c.732 0 1.351.528 1.467 1.252.062.394-.03.785-.264 1.107-.233.322-.579.534-.97.596l-.236.019m-101.632-.452l-.208-.013c-.811-.114-1.379-.865-1.266-1.677.101-.731.734-1.281 1.47-1.281l.205.015c.812.112 1.381.865 1.268 1.676-.101.73-.732 1.28-1.469 1.28m118.993-.297l-.32-.034c-.802-.176-1.311-.97-1.134-1.77.148-.677.759-1.168 1.452-1.168l.319.035c.8.176 1.309.97 1.133 1.771-.151.677-.759 1.166-1.45 1.166m-11.596-.052c-.756 0-1.392-.566-1.476-1.321-.093-.814.496-1.55 1.312-1.642.826-.094 1.552.503 1.642 1.311.093.815-.496 1.552-1.312 1.643l-.166.009m-113.182-.281l-.107-.003c-.818-.06-1.435-.773-1.377-1.588.057-.811.765-1.441 1.588-1.379.818.06 1.435.773 1.377 1.59-.056.773-.706 1.38-1.481 1.38m-5.819-.049c-.773 0-1.424-.605-1.481-1.378-.029-.394.097-.779.358-1.08.258-.301.618-.483 1.014-.512.822-.062 1.533.565 1.592 1.372.061.818-.554 1.531-1.37 1.592l-.113.006m124.806-.078c-.806 0-1.474-.656-1.485-1.461-.006-.398.142-.774.418-1.059.275-.285.646-.447 1.044-.451h.025c.805 0 1.47.655 1.483 1.46.015.82-.642 1.497-1.461 1.511h-.024zM185.177 44.558l-3.887.009-1.247-3.739-1.247 3.739-3.888-.009 3.118 2.379-1.156 3.658 3.173-2.194 3.174 2.194-1.156-3.658zM22.321 44.558l-3.888.009-1.246-3.739-1.247 3.739-3.888-.009 3.118 2.379-1.157 3.658 3.174-2.194 3.174 2.194-1.157-3.658z"/></svg>