<!DOCTYPE svg PUBLIC "-//W3C//DTD SVG 1.1//EN" "http://www.w3.org/Graphics/SVG/1.1/DTD/svg11.dtd" [
	<!ENTITY ns_flows "http://ns.adobe.com/Flows/1.0/">
]><svg xmlns="http://www.w3.org/2000/svg" xmlns:xlink="http://www.w3.org/1999/xlink" width="260" height="43" viewBox="0 0 260 43"><defs><path id="a" d="M0 0h260.395v43.424h-260.395z"/></defs><clipPath id="b"><use xlink:href="#a" overflow="visible"/></clipPath><path clip-path="url(#b)" fill-rule="evenodd" clip-rule="evenodd" fill="#231F20" d="M187.448 14.37c.302-.461.926-.59 1.455-.841l.383-.23c1.426-.586 3.342-1.074 5.208-1.3 1.44-.173 3.606.02 4.826.229.507.089 1.048.11 1.453.23.598.177 1.368.638 2.069.994.478.243.982.481 1.53.764l.538.23c-.024-.018.037.19.151.305l.308.152.153.306c.153.163.569.673.688.994.084.224.275.928.23 1.147-.059.274-.155.052-.307.229-.211.245.08.334-.153.382-.528.108-1.034-1.097-1.456-1.452-.611-.515-1.591-.941-2.374-1.452-.25-.164-.44-.408-.688-.535-.285-.146-.695-.242-1.074-.381-.668-.247-1.309-.459-2.221-.612-.775-.133-1.605-.212-2.604-.306-1.096-.103-2.604-.16-4.135.076-1.362.209-2.686.621-3.98 1.071M201.081 30.342c-.269.2.275.229.229.459-1.264 1.237-2.82 2.146-4.365 2.218-.545.023-1.609-.066-2.146-.23-.52-.158-1.484-.853-1.989-1.222-.352-.258-.348-.36-.691-.841-.302-.422-.468-.594-.688-1.224-.643-1.832.077-3.786 1.148-4.89.458-.476.705-.629 1.456-.918.552-.212 1.066-.441 1.989-.307.705.102 1.715.574 2.07.917.107.104.253.42.383.612.16.242.354.451.383.611.073.415-.156 1.329-.231 1.451-.273.451-1.135.776-1.839.688-.591-.073-1.362-.634-1.453-1.223-.104-.678.192-.773.459-1.375-.488-.188-1.057-.041-1.455.152-.852.409-1.688 1.555-1.685 2.826.002 1.166.746 2.287 1.608 2.828l.383.078.229.229c1.337.538 2.938.157 4.058-.459.862-.475 1.389-.967 1.917-1.76.368-.553.661-1.178.765-2.063.078-.659-.103-1.288.306-1.832-.165-.283-.169.228-.382.152-.116-.908-.424-1.469-.843-2.293-.376-.748-.682-1.512-1.149-2.142-.737-.995-1.515-1.495-2.758-2.063-.507-.231-.975-.634-1.453-.841-.384-.163-.873-.161-1.381-.305-.408-.115-.827-.381-1.224-.458-.925-.179-2.214-.164-3.217-.154-.492.005-1.395.081-1.991.154-1.022.123-2.163.415-3.294.688-2.578.62-4.625 1.737-6.737 3.132-.106.069-.9.865-1.152.612-.188-.189-.128-.126.308-.612.471-.52.422-.445.535-.534 2.458-1.907 5.746-3.57 9.574-4.204 1.253-.207 2.994-.415 4.521-.306.501.037 1.06.167 1.607.229 1.15.134 1.731.247 2.604.536.187.062.388.085.534.153.354.159.877.4 1.304.611.32.158.697.238.919.383l.688.612c.607.432 1.077.677 1.611 1.375l.306.534c.333.468.596.98.919 1.605.196.384.503.779.612 1.071.224.599.33 1.348.459 1.986.135.666.218 1.373.152 2.064-.076.823-.438 2.185-.994 2.827-.273.32-.32.329-.919.463m-11.335-13.527c.104-.097.104-.362 0-.459h-.23c-.005.234.068.39.23.459m1.991 11.846c1.204.087.728-1.303-.076-1.299-.03.486.135.782.076 1.299M246.267 35.082c-.631-.234-1.247-.642-1.838-.918l-.92-.459c-.334-.162-.722-.23-1.071-.382l-.994-.535c-.383-.155-.771-.293-1.15-.458-.393-.169-.787-.256-1.147-.459-.318-.178-.577-.499-.922-.687l-.533-.155-.462-.304c-1.631-.879-3.313-1.827-4.978-2.523-2.18-.911-4.886-1.788-7.428-2.215-.742-.125-1.322-.207-1.993-.306-2.057-.312-4.382-.224-6.586-.23.17.511-.198.579-.307.994.636.025 1.321-.036 1.993 0 .36.018.809.207 1.071.153.354-.075.384-.709.765-.384.284.056-.238.437.154.384 1.796.21 3.443.29 4.979.61.498.104.957.338 1.455.459.449.109.892.11 1.302.229.395.116.764.256 1.148.383 1.159.378 2.398.744 3.446 1.223.723.332 1.476.582 2.145.917.34.17.646.455.995.61l.844.231c.181.076.354.206.537.306.634.346 1.158.705 1.76.993.401.19.851.315 1.301.459.456.143.937.365 1.381.457.261.055.579-.014.843.077.232.081.391.349.612.459.26.13.605.174.919.306l.842.381c.453.188.896.288 1.379.459.438.155.951.409 1.533.383-.234-.473-.712-.325-1.075-.458m-20.755-7.948c-.104.034-.365.081-.383.075-.056-.016-.331-.433-.306-.536.009-.039.186-.129.229-.151.428-.236 1.283.333.46.612M214.866 25.604c-.903.122-1.793.206-2.68.384-.584.116-1.177.35-1.763.534-.604.19-1.204.353-1.762.535-.619.202-1.26.28-1.685.611 1.057.042 2.063-.386 3.14-.611 1.531-.321 3.277-.563 4.826-.535.062-.319.485-.993-.076-.918M257.066 41.424c-.255.146.492.133.154.382-.482.338-1.06.501-1.685.766-.772.326-2.383.716-3.601.688-.342-.008-.655-.129-.996-.151-.744-.055-1.446.105-2.221 0l-.689-.154c-.711-.135-1.201-.365-1.838-.535l-.766-.076-.537-.229c-.794-.246-1.42-.615-2.145-.994-1.413-.738-2.885-1.361-4.288-2.063-1.393-.697-2.801-1.403-4.135-2.217-1.349-.819-2.768-1.468-4.213-2.14-1.458-.675-3.077-1.112-4.826-1.528-1.683-.398-3.409-.907-5.131-1.222-3.148-.576-6.845-.661-10.416-.307-.201.021-.413.148-.612.154-.253.004-.442-.107-.69-.076-.342.038-.637.236-.996.305-1.405.27-3.022.169-4.594.612.026-.3.4-.294.611-.384 2.31-.981 5.151-1.654 8.042-2.139 2.328-.393 4.913-.489 7.582-.23 1.239.12 2.438.389 3.523.611 1.154.236 2.277.433 3.371.765.537.163 1.095.294 1.608.46.547.176 1.102.27 1.607.458l.461.306 1.607.611c1.369.612 2.676 1.188 3.904 1.987.579.373 1.098.89 1.687 1.223.435.245.938.353 1.377.61l.308.229c.619.355 1.346.849 2.069 1.225.41.213.872.382 1.301.611.448.238.795.586 1.227.841.834.49 1.852.82 2.832 1.222.446.185.951.502 1.381.612.448.113.954.02 1.53.077 1.427.138 3.138.436 4.211.306.496-.062 1.069-.337 1.687-.538 1.195-.386 2.008-.762 2.833-1.603.75-.764 1.539-1.73 1.456-3.211-.035-.604-.321-1.358-.536-1.682-.394-.585-1.299-1.114-2.452-.839-.742.177-1.446.753-1.301 1.987.028.245.382 1.177.767.991.321-.153.009-.772.075-.991.269-.871 1.609-.658 1.763.228.182 1.056-.592 1.798-1.455 1.836-1.438.061-2.43-1.428-2.146-2.981.08-.433.499-1.087.768-1.375.2-.218.916-.739 1.225-.841.768-.252 1.73-.094 2.222.076.354.122 1.318.803 1.606 1.146.87 1.036 1.047 2.927.461 4.356-.152.371-.498.926-.767 1.3-.265.37-.684.958-.921 1.07-.368.177-.531-.116-.84 0-.073.025-.153.5-.459.455m-21.138-4.509c.3-.005.303-.308.46-.458l-.46-.077c-.109.101-.109.433 0 .535M208.893 9.937c.301.123.026-.33.229-.306.866.205 1.742.404 1.762 1.452-.36.105-.74.13-1.072 0l-.229-.154-.461.079c-1.684-.347-3.272-1.059-5.131-1.222-.387-.037-.826.03-1.225 0-1.757-.141-3.949-.12-6.128.075.104-.263.507-.309.765-.382.798-.229 1.633-.251 2.605-.384 1.354-.183 3.019-.482 4.824-.381.93.052 1.923.229 2.91.46.387.089.878.189.919.227.121.106.033.545.232.536M150.684 8.102c.559-.048.163-.483.385-.612 3.145.044 5.137.903 7.351 1.989 1.5.735 2.96 1.621 4.062 2.674 1.022.982 1.905 2.5 2.835 3.899.562.849 1.245 2.085 1.758 3.286.177.412.333.996.537 1.069.268.097 1.034-.3 1.533-.457l1.53-.46c1.03-.367 2.465-.778 2.987-.993.604-.249 1.737-.875 2.298-1.299.766-.578 1.303-1.259 1.838-1.91.465-.568 1.264-1.425 1.532-2.141.128-.346.317-1.201.382-1.606.243-1.479-.163-2.655-.765-3.745-.315-.569-.763-1.243-1.227-1.528-1.488-.916-3.815-1.273-5.284-.153-.509.388-1.226 1.187-1.379 1.759-.482 1.808-.27 4.391 1.763 4.432.682.014.984-.209 1.455-.688-.939.181-1.611-.043-1.839-.61-.284-.711.247-1.84.843-1.989.783-.194 2.144.557 2.374 1.071.262.582.195 1.226-.077 1.834-.479 1.069-2.156 2.07-3.676 1.528-.502-.178-1.36-.75-1.684-1.299-.128-.213-.242-.576-.385-.917-.31-.746-.353-.876-.308-1.835.03-.589.082-.923.231-1.527.168-.684.221-.902.612-1.453.919-1.29 2.442-2.405 4.366-2.446 2.253-.046 4.07 1.055 5.054 2.523l.231.458.307.306c.188.367.301.969.459 1.452.172.526.416 1.065.46 1.453.057.504-.072 1.05-.154 1.528-.146.842-.275 1.226-.459 1.757-.172.502-.191.649-.459 1.07-.659 1.041-1.585 1.893-2.452 2.829-.469.506-1.027.868-1.761 1.375-.699.484-1.304.818-2.223 1.146-.503.181-1.1.304-1.684.535l-.688.382c-.527.19-.985.285-1.687.535-.36.13-1.542.401-1.607.535-.031.062.417 1.41.459 1.605l.154.842c.29 1.221.611 2.834.306 4.508-.092.514-.336 1.065-.612 1.606-.486.946-.833 1.448-1.61 2.063-.532.423-.973.62-1.76.841-.555.153-1.308.35-2.299.152-.542-.107-1.806-.95-2.143-1.375-.151-.192-.313-.481-.46-.84-.176-.432-.219-.485-.23-1.071 0-.012.104-.079.074-.154l-.15-.075c-.405-2.329.267-4.721 1.531-5.96l.536-.459c.45-.421.772-.562 1.455-.993.62-.394.877-.627 1.686-.994.325-.149.756-.22.842-.382.094-.178-.324-1.037-.46-1.3-.282-.557-.447-.85-.687-1.223-.509-.783-1.09-1.657-1.533-2.292-.759-1.084-1.786-2.01-2.757-2.982-.344-.343-.615-.705-.92-.916-.288-.199-.714-.331-1.073-.535-.643-.368-1.301-.808-2.065-1.147-.359-.156-.747-.336-1.074-.459-.389-.142-.874-.18-1.301-.306-.365-.105-.695-.244-1.073-.306-4.192-.673-7.816.695-10.033 2.6-.292.252-.562.554-.842.841-.294.302-.638.549-.843.84l-.153.459c-.183.305-.468.655-.613 1.146-.333 1.128-.597 3.079-.306 4.585.199 1.03.764 2.201 1.378 2.981.551.697 1.186 1.498 2.068 1.987.267.147.603.177.92.306.283.113.542.329.765.383.486.113 1.147.12 1.61.075 1.487-.14 2.953-1.033 3.827-1.909.588-.588.956-1.202 1.379-2.216.275-.658.636-1.372.536-2.37-.028-.291-.191-.646-.305-.993-.373-1.131-1.009-2.293-2.299-2.752-.477-.17-1.222-.308-2.067-.154-.279.052-.653.305-.996.612-.246.222-.775.588-.613.917.09.181.846-.108 1.304.078.203.083.896.726.841 1.527-.063.934-1.33 1.747-2.45 1.148-.957-.516-1.258-2.009-.92-2.982.174-.5.984-1.68 1.379-1.986.191-.15.996-.54 1.303-.612.966-.228 2.415-.05 3.063.229.228.098.461.315.689.457.728.46.865.66 1.379 1.379.519.723.866 1.174 1.073 2.292.285 1.536-.035 2.53-.613 3.821-.549 1.227-.949 1.88-1.762 2.751-.452.482-.58.654-1.072.995-.566.39-1.938.856-2.834 1.068-2.378.56-4.91-.557-6.434-1.986-1.752-1.648-2.892-4.652-2.603-7.719.065-.707.156-1.601.382-2.294.077-.233.275-.44.383-.688.266-.612.406-.975.767-1.528.313-.484.52-.711.919-1.147.337-.366.706-.849 1.149-1.223l.535-.306c.267-.246.389-.503.766-.763.646-.445 1.717-.914 2.681-1.223.388-.124.825-.19 1.226-.306.744-.216.989-.395 1.992-.459.721-.047 1.186-.249 1.223.534m-7.811 2.827c-.033-.142.104-.459-.152-.381.013.249-.181.368.152.381m23.129 11.693c-.716.36-1.448.672-2.145 1.147-.57.39-1.437 1.016-1.838 1.529-.516.66-.89 1.573-.996 2.37-.14 1.042.075 2.543.46 3.208.543.938 2.414 1.484 3.676.919.906-.407 1.405-.948 1.763-1.606.475-.874.864-1.869.765-3.287-.093-1.345-.449-2.921-.92-3.896-.239-.502-.177-.484-.612-.458l-.153.074M63.835 9.706c-.224.297-.584.026-.843 0-1.341-.133-3.312-.106-4.824 0-1.368.1-2.703.518-3.983.842-.665.167-1.355.24-1.992.381-.671.152-1.319.467-1.991.231-.249-.465.262-.715.536-.917 2.791-2.073 9.633-1.73 13.097-.537M53.879 27.975c-2.799-.713-5.551-1.289-9.038-1.302-1.069-.003-2.172.183-3.294.307-1.08.12-2.202.054-3.14.229-.632.118-1.278.452-1.915.611-.29.073-.83.263-1.148.305-.405.057-.808-.031-1.149 0-.628.06-1.153.235-1.685.383-.241.067-.574.124-.842.23-.382.149-.444.287-1.072.382-.315.048-1.219.321-1.609.535-.172.095-.272.313-.46.381-.124.047-.311-.024-.459 0-.193.033-.681.191-.996.306-.819.297-1.581.645-2.374.994-.41.181-.829.293-1.225.46-.383.158-.714.427-1.073.611-.585.298-1.164.446-1.684.763-.375.23-.916.369-1.379.611-.49.258-.922.735-1.455.917-.587.204-1.316.195-1.992.384-1.03.287-1.614 1.061-2.987.687.249-.286.683-.144.996-.229.174-.048.373-.15.537-.229l.459-.307.612-.152.383-.306c.607-.25 1.352-.284 1.916-.535.423-.188.665-.648 1.071-.916.334-.221.901-.419 1.379-.688l.996-.536.23-.229.689-.153c.575-.228 1.198-.638 1.838-.917.473-.205.913-.391 1.378-.688.136-.088.263-.253.383-.306.257-.111.556-.05.843-.152.506-.182.976-.509 1.608-.688.606-.174 1.259-.245 1.839-.459.429-.158.857-.435 1.3-.611.468-.186.988-.46 1.379-.535.299-.056.621.028.919 0 .502-.047 1.068-.209 1.61-.306.55-.097 1.166-.119 1.684-.229l.919-.383c.495-.107 1.077-.012 1.61-.075.499-.06.974-.19 1.454-.229 1.117-.091 2.406-.158 3.447-.153.438.002.842.117 1.302.153h.995c.591.058 1.285.174 2.067.305 1.212.204 2.432.619 3.601.994.27.087.57.192.842.305.225.095.629.157.69.46M43.232 30.114c1.335-.061 3.709-.058 5.362.151.562.071 1.157.211 1.686.306.547.099 1.051.21 1.531.306.881.179 2.979.459 2.987.995.003.263-.317.409-.69.458-.234.03-.562-.095-.995-.151-1.337-.187-2.811-.183-4.289-.307-.811-.069-1.577-.225-1.992-.23-1.178-.018-2.364.188-3.522.306-2.207.228-4.535.555-6.663.994-.506.104-1.001.283-1.455.459-.345.131-.566.245-.996.38-.532.171-1.444.233-2.145.459-.497.161-1.016.449-1.532.69-.522.242-1.079.433-1.531.687-.565.317-1.033.732-1.609.994-.607.274-1.247.451-1.838.765-.477.253-.811.609-1.226.916-1.192.879-2.554 1.733-4.059 2.37-.5.211-1.034.358-1.532.612-.49.247-.914.508-1.455.687l-.842.229-.843.229c-.705.2-1.193.47-2.067.688-.388.097-.849.148-1.455.229-1.78.237-3.879-.02-5.668-.534-.83-.24-1.738-.318-2.298-.535-.245-.096-.694-.392-1.072-.611-.385-.226-.834-.471-.996-.611l-.23-.382c-.471-.536-1.347-1.347-1.608-2.142v-.458l-.154-.306c-.082-.672-.021-1.681.154-2.14.119-.313.713-1.145.995-1.377.231-.187.699-.361 1.072-.533.696-.321 1.182-.556 1.992-.383 1.547.331 2.831 2.04 2.145 3.669-.239.565-.702 1.044-1.531 1.069-.968.032-2.213-.715-1.762-1.835.274-.682 1.5-.539 1.684.154.096.362-.168.688 0 .841.295.267.779-.338.842-.688.198-1.083-.706-2.021-1.608-2.142-.786-.104-1.325.198-1.685.459-1.116.81-1.223 2.643-.459 3.897.106.175.232.276.382.459.837 1.01 2.051 1.714 3.677 2.141.448.117.873.302 1.303.382.57.107 1.319.146 1.838.229.854.138 2.096.271 2.91.152.897-.13 1.753-.569 2.603-.839l.919-.23c.32-.113.611-.316.92-.459.637-.292 1.255-.531 1.914-.839l.996-.385c.529-.255 1.076-.721 1.608-1.069.553-.363 1.181-.614 1.685-.916.404-.243.678-.661 1.072-.918.214-.142.522-.174.767-.306.807-.436 1.713-1.203 2.604-1.681l.382-.154c.404-.245 1.155-.812 1.609-.993.466-.186.999-.19 1.532-.382.364-.131.706-.338 1.072-.459.719-.236 1.475-.405 2.221-.687.341-.13.671-.367.996-.46.365-.104.844-.124 1.302-.229.732-.168 1.528-.267 2.45-.46.83-.171 1.664-.317 2.758-.457.643-.079 1.246-.048 1.837-.074m-15.47 5.274c.75-.059.705-.975-.076-.995-.147.241.014.718.076.995"/><path clip-path="url(#b)" fill-rule="evenodd" clip-rule="evenodd" fill="#F7E4B9" d="M58.014 33.019c-1.172-.079-2.207-.294-3.14-.612-.135-.186.191-.183.306-.306.04-.041.035-.286.153-.229.34.159.835.349 1.379.535.538.186 1.134.32 1.302.612"/><path clip-path="url(#b)" fill-rule="evenodd" clip-rule="evenodd" fill="#231F20" d="M86.198 11.618c.018.415.368.463.538.535 1.455.612 2.738-.665 2.91-1.986.278-2.143-1.117-3.642-2.298-4.434-.124-.083-.192.016-.307-.153-.008-.012.078-.101-.076-.152-.172-.06-.467.02-.844 0-.634-.034-1.417-.111-1.991.075-.387.127-.856.467-1.147.69-1.331 1.014-2.337 2.98-2.145 5.348.108 1.331.814 2.666 1.608 3.593 1.189 1.387 2.509 2.504 4.442 3.362.286.127.614.264.92.382 1.131.442 2.45.815 3.905 1.299.227.077.86.397.919.384.207-.051.385-.589.536-.917 1.142-2.475 2.314-4.304 3.983-6.114.849-.923 1.868-1.882 3.063-2.676.576-.382 1.217-.739 1.839-1.069 1.379-.736 2.672-1.349 4.518-1.683 1.613-.291 3.241-.604 5.286-.458 1.879.135 3.86.824 5.284 1.682.471.283 1.005.612 1.379.917l.382.458c.323.295.421.247.689.613.38.513.874 1.202 1.226 1.833.222.4.356.777.537 1.223.172.426.431.827.535 1.222.17.644.188 1.275.229 1.834.249 3.351-1.222 6.326-3.139 7.95-1.018.859-1.794 1.396-3.371 1.758-1.204.275-2.169.335-3.446 0-1.152-.304-2.324-1.046-3.14-1.835l-.23-.306-.305-.153-.232-.535-.382-.305c-.258-.397-.667-1.27-.842-1.758-.488-1.353-.464-3.364.076-4.663.116-.277.365-.542.536-.84.41-.711.632-1.097 1.303-1.605.374-.282 1.415-.89 1.992-.993 2.22-.407 4.695.803 5.053 2.674.295 1.531-.212 3.037-1.455 3.362-1.251.328-2.284-.467-2.144-1.681.131-1.134.969-1.491 2.22-1.298-.102-1.536-2.436-1.914-3.674-1.529-1.726.535-3.015 2.795-2.835 5.045l.076.228c-.003.037-.148.174-.152.152l.305.536c.488 1.134.989 2.031 1.916 2.829.795.684 1.279.887 2.373 1.222.909.278 1.449.34 2.605.077.449-.104.971-.198 1.379-.382.222-.103.38-.3.613-.459.214-.148.515-.242.688-.383.902-.725 1.602-1.875 2.145-2.98 1.036-2.116.893-5.145-.153-7.108-.223-.417-.544-.828-.842-1.223-.31-.409-.599-.858-.92-1.145-.227-.204-.547-.332-.843-.537-.257-.178-.497-.381-.765-.533-1.58-.898-3.928-1.453-6.433-1.453-1.986 0-3.897.63-5.515 1.299-.614.254-1.072.573-1.684.917-.558.312-1.051.524-1.61.917-.339.241-.654.531-.919.764-.951.842-2.401 2.121-3.37 3.44-.647.88-1.282 1.979-1.99 3.134-.193.313-.632.886-.613 1.068.052.503 1.442 1.022 1.914 1.301.985.582 1.587.979 2.298 1.682.312.307 1.03.979 1.225 1.3.101.163.13.457.23.686.227.521.492 1.306.536 2.218.077 1.615-.591 3.178-1.608 4.051-.344.296-.717.509-1.302.765-.779.341-1.086.36-2.144.229-1.103-.136-1.895-.371-2.681-1.07-.482-.43-.609-.754-.996-1.376-.134-.217-.367-.413-.46-.611-.227-.486-.409-1.213-.46-1.604-.08-.638-.009-1.452.078-2.14.147-1.171.501-2.177.842-3.362.114-.394.328-1.002.307-1.069-.079-.259-1.069-.635-1.763-.843-.182-.053-.415-.004-.612-.075l-.383-.23c-.466-.167-.83-.21-1.148-.381l-.919-.764-.69.153c-.159-.018-.67-.347-1.072-.537-1.869-.876-3.075-2.061-4.365-3.515-.502-.565-1.434-1.679-1.072-2.368.2-.385.451-.554.076-1.147-.528-.066.04.958-.383.992-.568-1.972-.387-3.933.307-5.731.19-.495.646-1.117.996-1.605.964-1.349 2.702-2.297 4.976-2.064 2.326.238 4.034 1.774 4.672 3.899.187.615.378 2.125.077 3.209l-.305.458c-.468 1.062-1.273 2.271-3.065 2.139-1.679-.121-3.273-1.768-2.45-3.59.179-.397.707-.974 1.148-1.071.882-.191 2.078.429 1.762 1.758-.139.582-1.002.965-1.762.837m26.731-2.829c.24-.17.392-.883-.078-.915.113.376-.223.824.078.915m-26.731 1.378c.102-.217-.159-.629-.382-.766.091.292.231.535.382.766m.154 1.147c.004-.235-.07-.391-.231-.46-.166.194-.238.549.231.46m7.198 11.616c-.898 1.583-1.584 5.242-.612 7.26.485 1.007 1.921 2.076 3.447 1.911.705-.077 1.665-.567 2.067-1.071.982-1.223.823-4.037 0-5.195-.193-.275-.613-.529-.995-.841-.367-.3-.646-.713-.919-.917-.158-.118-.468-.177-.689-.307-.531-.313-1.641-1.299-2.222-.993l-.077.153M73.179 14.37c-.171.277-.455-.025-.612-.078-1.519-.49-3.301-1.115-5.439-1.145-.694-.01-1.668.028-2.374.076-2.721.182-5.078 1.221-6.586 2.216-.825.544-1.736 1.525-2.604 2.293-.221.195-.68.649-.996.459-.215-.129-.224-.432-.154-.841.117-.673.513-1.153.919-1.681 1.018-1.323 2.576-2.408 4.52-2.981.791-.235 1.499-.411 2.297-.535 4.037-.624 8.416.56 11.029 2.217M68.89 16.126c1.565-.129 4.065.101 5.82.46 1.429.292 2.521.706 3.677 1.297.321.166.615.399.919.537.365.164.755.204 1.072.382.31.172.639.458.996.687.527.338 1.234.777 1.761 1.224.219.183 1.085.827.766 1.145-.262.263-1.198-.705-1.073-.611-.707-.531-2.791-1.766-3.292-1.988l-1.379-.457c-.397-.173-.769-.464-1.149-.612l-.536-.075c-.316-.098-.865-.354-1.379-.46l-1.071-.152c-3.916-.75-8.743.014-11.413 2.061-.88.678-1.623 1.617-2.22 2.601-.909 1.496-1.687 3.568-.996 5.959.292 1.012 1.126 1.983 1.915 2.676.895.788 2.552 1.387 4.136.765 1.361-.535 2.639-1.883 2.298-3.745-.094-.509-.338-.998-.538-1.299-.146-.223-.498-.661-.918-.918-.304-.183-1.147-.54-1.456-.305-.122.093.395 1.016.307 1.527-.066.389-.523 1.056-1.225 1.148-1.924.252-2.292-2.017-1.533-3.135.22-.322.593-.652.767-.765.145-.093.47-.148.689-.229 1.647-.604 3.619.31 4.443 1.376.647.838 1.088 2.279.995 3.515-.048.645-.296 1.167-.535 1.682-.32.683-.396.773-.921 1.301v.151c-.043.044-.214.064-.306.152-.298.288-.908.773-1.455.995-.444.18-1.753.44-2.528.382-.561-.045-1.805-.485-2.297-.764-.335-.191-.77-.573-1.072-.841-1.442-1.28-2.668-3.014-2.451-6.038.233-3.25 2.405-6.092 4.671-7.643.964-.661 2.183-1.195 3.525-1.529 1.009-.249 1.993-.375 2.986-.457"/><path clip-path="url(#b)" fill="#231F20" d="M138.14 5.772c-.184-.572-.607 0-1.207.001l-1.203-.001-1.201.006-1.205.005c-.604.002-.713.353-1.199-.002-.494-.357-.191-.574-.383-1.152l-.398-1.152-.384-1.156-.375-1.161c-.192-.58.218-1.158-.393-1.16-.61-.002-.188.583-.382 1.16l-.389 1.155-.381 1.157-.388 1.157c-.194.58.103.797-.39 1.156-.486.354-.601.008-1.2.006l-1.202-.004-1.202-.009-1.205-.006s-1.015-.57-1.203.002c-.189.576.484.363.966.73l.964.733.959.743.966.739c.482.368.785.156.973.733.184.564-.181.568-.36 1.134l-.367 1.127-.356 1.133-.346 1.137c-.18.566-.851.786-.371 1.137.481.35.496-.346.986-.684l.983-.672.978-.685.979-.684c.493-.34.39-.672.988-.672.596 0 .491.336.982.675l.976.683.99.666.979.687c.492.339.498 1.026.982.676.48-.346-.17-.564-.35-1.129l-.361-1.13-.367-1.128-.352-1.136c-.178-.567-.543-.567-.359-1.132.188-.578.484-.365.967-.732l.957-.741.968-.731c.485-.368.407-.501.966-.739.634-.267 1.156-.161.97-.74"/></svg>